%TF.GenerationSoftware,KiCad,Pcbnew,8.0.1*%
%TF.CreationDate,2024-04-05T10:06:49-05:00*%
%TF.ProjectId,UWB_Antenna_Circular,5557425f-416e-4746-956e-6e615f436972,rev?*%
%TF.SameCoordinates,Original*%
%TF.FileFunction,Legend,Top*%
%TF.FilePolarity,Positive*%
%FSLAX46Y46*%
G04 Gerber Fmt 4.6, Leading zero omitted, Abs format (unit mm)*
G04 Created by KiCad (PCBNEW 8.0.1) date 2024-04-05 10:06:49*
%MOMM*%
%LPD*%
G01*
G04 APERTURE LIST*
%ADD10C,0.600000*%
%ADD11C,0.300000*%
%ADD12C,0.100000*%
%ADD13C,0.400000*%
%ADD14C,1.150000*%
%ADD15C,0.120000*%
%ADD16C,0.000000*%
G04 APERTURE END LIST*
D10*
X103500000Y-81500000D02*
G75*
G02*
X99500000Y-81500000I-2000000J0D01*
G01*
X99500000Y-81500000D02*
G75*
G02*
X103500000Y-81500000I2000000J0D01*
G01*
D11*
X105301316Y-81500000D02*
G75*
G02*
X97698684Y-81500000I-3801316J0D01*
G01*
X97698684Y-81500000D02*
G75*
G02*
X105301316Y-81500000I3801316J0D01*
G01*
D12*
X109000000Y-98083086D02*
X111500000Y-98083086D01*
X111500000Y-100583086D01*
X109000000Y-100583086D01*
X109000000Y-98083086D01*
D13*
X104500000Y-81500000D02*
G75*
G02*
X98500000Y-81500000I-3000000J0D01*
G01*
X98500000Y-81500000D02*
G75*
G02*
X104500000Y-81500000I3000000J0D01*
G01*
D12*
X109250000Y-98333086D02*
X111250000Y-98333086D01*
X111250000Y-100333086D01*
X109250000Y-100333086D01*
X109250000Y-98333086D01*
G36*
X109250000Y-98333086D02*
G01*
X111250000Y-98333086D01*
X111250000Y-100333086D01*
X109250000Y-100333086D01*
X109250000Y-98333086D01*
G37*
X91750000Y-98333086D02*
X93750000Y-98333086D01*
X93750000Y-100333086D01*
X91750000Y-100333086D01*
X91750000Y-98333086D01*
G36*
X91750000Y-98333086D02*
G01*
X93750000Y-98333086D01*
X93750000Y-100333086D01*
X91750000Y-100333086D01*
X91750000Y-98333086D01*
G37*
D14*
X102075000Y-81500000D02*
G75*
G02*
X100925000Y-81500000I-575000J0D01*
G01*
X100925000Y-81500000D02*
G75*
G02*
X102075000Y-81500000I575000J0D01*
G01*
D12*
X91500000Y-98083086D02*
X94000000Y-98083086D01*
X94000000Y-100583086D01*
X91500000Y-100583086D01*
X91500000Y-98083086D01*
D15*
%TO.C,TP1*%
X98300000Y-94200000D02*
X100700000Y-94200000D01*
X98300000Y-96600000D02*
X98300000Y-94200000D01*
X100700000Y-94200000D02*
X100700000Y-96600000D01*
X100700000Y-96600000D02*
X98300000Y-96600000D01*
%TO.C,TP2*%
X102300000Y-94200000D02*
X104700000Y-94200000D01*
X102300000Y-96600000D02*
X102300000Y-94200000D01*
X104700000Y-94200000D02*
X104700000Y-96600000D01*
X104700000Y-96600000D02*
X102300000Y-96600000D01*
%TO.C,TP3*%
X100800000Y-90900000D02*
X102200000Y-90900000D01*
X100800000Y-92300000D02*
X100800000Y-90900000D01*
X102200000Y-90900000D02*
X102200000Y-92300000D01*
X102200000Y-92300000D02*
X100800000Y-92300000D01*
D16*
%TO.C,G\u002A\u002A\u002A*%
G36*
X99998505Y-98920658D02*
G01*
X100087842Y-98926241D01*
X100156104Y-98943361D01*
X100209234Y-98973967D01*
X100235017Y-98998186D01*
X100272310Y-99057024D01*
X100282976Y-99119547D01*
X100267732Y-99180828D01*
X100227295Y-99235940D01*
X100196854Y-99260321D01*
X100165689Y-99277815D01*
X100130932Y-99287840D01*
X100083414Y-99292254D01*
X100035804Y-99293003D01*
X99923251Y-99293003D01*
X99923251Y-99106659D01*
X99923251Y-98920316D01*
X99998505Y-98920658D01*
G37*
G36*
X101240633Y-99280055D02*
G01*
X101276650Y-99287369D01*
X101295849Y-99299622D01*
X101294018Y-99314887D01*
X101269527Y-99334500D01*
X101220743Y-99359800D01*
X101151773Y-99389758D01*
X101078829Y-99419411D01*
X101028168Y-99438320D01*
X100995867Y-99447357D01*
X100978000Y-99447394D01*
X100970644Y-99439306D01*
X100969639Y-99430276D01*
X100980164Y-99402414D01*
X101006859Y-99366382D01*
X101042406Y-99330442D01*
X101079486Y-99302862D01*
X101085308Y-99299655D01*
X101128608Y-99286143D01*
X101185093Y-99279307D01*
X101240633Y-99280055D01*
G37*
G36*
X103179804Y-99284541D02*
G01*
X103243081Y-99306591D01*
X103297194Y-99346607D01*
X103334762Y-99400506D01*
X103352165Y-99440511D01*
X103362341Y-99471745D01*
X103363432Y-99479346D01*
X103357506Y-99503495D01*
X103342580Y-99541291D01*
X103334762Y-99558186D01*
X103291973Y-99615803D01*
X103231406Y-99656410D01*
X103159668Y-99678066D01*
X103083369Y-99678829D01*
X103009118Y-99656760D01*
X103005365Y-99654916D01*
X102950163Y-99613687D01*
X102910146Y-99557106D01*
X102891177Y-99494122D01*
X102890407Y-99479346D01*
X102902652Y-99412415D01*
X102936024Y-99358076D01*
X102985473Y-99317223D01*
X103045952Y-99290753D01*
X103112411Y-99279560D01*
X103179804Y-99284541D01*
G37*
G36*
X98837755Y-99099548D02*
G01*
X98911318Y-99126498D01*
X98976544Y-99172680D01*
X99028768Y-99233458D01*
X99063323Y-99304194D01*
X99075542Y-99380254D01*
X99073640Y-99407555D01*
X99048531Y-99493259D01*
X98999881Y-99566102D01*
X98931317Y-99620958D01*
X98917258Y-99628468D01*
X98832024Y-99659167D01*
X98751946Y-99662603D01*
X98673483Y-99638830D01*
X98660522Y-99632337D01*
X98612125Y-99598700D01*
X98567345Y-99554829D01*
X98555922Y-99540173D01*
X98518883Y-99465155D01*
X98507061Y-99386896D01*
X98633183Y-99386896D01*
X98639022Y-99427637D01*
X98660336Y-99464196D01*
X98683740Y-99489767D01*
X98716781Y-99520086D01*
X98743952Y-99533583D01*
X98778267Y-99535006D01*
X98801531Y-99532745D01*
X98854360Y-99521111D01*
X98893416Y-99496133D01*
X98908649Y-99480529D01*
X98943218Y-99423787D01*
X98949876Y-99364562D01*
X98928766Y-99306268D01*
X98899797Y-99270068D01*
X98845050Y-99231900D01*
X98787367Y-99218852D01*
X98732073Y-99228592D01*
X98684490Y-99258787D01*
X98649942Y-99307105D01*
X98633753Y-99371212D01*
X98633183Y-99386896D01*
X98507061Y-99386896D01*
X98506951Y-99386170D01*
X98517925Y-99307984D01*
X98549609Y-99235367D01*
X98599802Y-99173087D01*
X98666306Y-99125911D01*
X98746923Y-99098609D01*
X98760523Y-99096465D01*
X98837755Y-99099548D01*
G37*
G36*
X100831074Y-97450994D02*
G01*
X101147208Y-97451046D01*
X101490743Y-97451073D01*
X101500000Y-97451073D01*
X104402653Y-97451073D01*
X104552209Y-97484132D01*
X104776032Y-97547019D01*
X104983737Y-97633415D01*
X105176478Y-97743948D01*
X105355412Y-97879245D01*
X105464452Y-97980357D01*
X105615919Y-98151404D01*
X105742760Y-98336061D01*
X105844458Y-98532428D01*
X105920498Y-98738606D01*
X105970363Y-98952696D01*
X105993538Y-99172797D01*
X105989507Y-99397012D01*
X105957754Y-99623440D01*
X105936314Y-99717613D01*
X105868580Y-99927708D01*
X105775947Y-100125422D01*
X105660068Y-100309172D01*
X105522602Y-100477376D01*
X105365202Y-100628453D01*
X105189526Y-100760822D01*
X104997229Y-100872900D01*
X104789967Y-100963106D01*
X104569396Y-101029857D01*
X104560328Y-101032015D01*
X104431321Y-101062399D01*
X101557337Y-101064615D01*
X101271948Y-101064809D01*
X100993967Y-101064944D01*
X100724772Y-101065024D01*
X100465740Y-101065049D01*
X100218250Y-101065021D01*
X99983680Y-101064942D01*
X99763407Y-101064813D01*
X99558809Y-101064635D01*
X99371265Y-101064410D01*
X99202151Y-101064140D01*
X99052847Y-101063826D01*
X98924730Y-101063469D01*
X98819177Y-101063072D01*
X98737567Y-101062635D01*
X98681278Y-101062160D01*
X98651688Y-101061649D01*
X98647517Y-101061418D01*
X98615844Y-101056703D01*
X98566124Y-101049375D01*
X98508680Y-101040955D01*
X98504177Y-101040297D01*
X98304761Y-100997022D01*
X98109727Y-100927242D01*
X97922004Y-100833086D01*
X97744522Y-100716680D01*
X97580210Y-100580152D01*
X97431996Y-100425628D01*
X97302811Y-100255237D01*
X97211047Y-100101219D01*
X97131690Y-99934105D01*
X97073485Y-99771674D01*
X97034595Y-99606304D01*
X97013178Y-99430372D01*
X97010802Y-99360110D01*
X97537206Y-99360110D01*
X97540450Y-99403424D01*
X97543011Y-99412785D01*
X97568272Y-99444883D01*
X97606408Y-99458176D01*
X97647966Y-99451841D01*
X97683496Y-99425059D01*
X97683550Y-99424989D01*
X97693762Y-99398204D01*
X97700250Y-99354670D01*
X97700572Y-99346928D01*
X97815860Y-99346928D01*
X97820796Y-99401539D01*
X97831735Y-99438488D01*
X97841225Y-99449529D01*
X97887437Y-99463696D01*
X97929626Y-99449514D01*
X97945147Y-99436343D01*
X97966404Y-99401227D01*
X97971385Y-99365541D01*
X98075768Y-99365541D01*
X98077943Y-99397631D01*
X98087899Y-99419621D01*
X98101027Y-99434548D01*
X98141622Y-99460676D01*
X98181790Y-99460768D01*
X98207449Y-99444342D01*
X98219741Y-99420426D01*
X98232464Y-99377156D01*
X98233305Y-99372870D01*
X98346513Y-99372870D01*
X98353365Y-99473629D01*
X98376105Y-99556824D01*
X98417972Y-99630618D01*
X98474588Y-99695645D01*
X98538044Y-99751932D01*
X98597645Y-99788059D01*
X98629741Y-99800719D01*
X98672703Y-99816046D01*
X98695057Y-99829996D01*
X98703532Y-99849836D01*
X98704854Y-99881852D01*
X98714716Y-99934674D01*
X98740976Y-99974331D01*
X98778643Y-99994236D01*
X98790858Y-99995373D01*
X98822063Y-99985644D01*
X98848195Y-99966705D01*
X98871937Y-99923493D01*
X98875711Y-99893152D01*
X99600734Y-99893152D01*
X99642835Y-99937095D01*
X99673420Y-99964393D01*
X99704553Y-99977250D01*
X99749230Y-99980594D01*
X99757507Y-99980583D01*
X99803964Y-99977007D01*
X99840469Y-99968428D01*
X99851581Y-99962665D01*
X99879745Y-99936456D01*
X99898859Y-99907700D01*
X99911071Y-99869816D01*
X99918531Y-99816222D01*
X99923251Y-99743176D01*
X99930418Y-99595555D01*
X100152596Y-99787985D01*
X100227510Y-99852696D01*
X100284439Y-99900990D01*
X100327021Y-99935273D01*
X100358894Y-99957953D01*
X100383697Y-99971435D01*
X100405066Y-99978125D01*
X100426640Y-99980432D01*
X100443964Y-99980727D01*
X100492173Y-99977515D01*
X100526065Y-99963879D01*
X100555053Y-99939139D01*
X100581846Y-99906897D01*
X100594139Y-99872597D01*
X100596953Y-99826292D01*
X100594953Y-99783571D01*
X100585317Y-99753537D01*
X100562590Y-99724841D01*
X100536033Y-99699529D01*
X100491278Y-99660257D01*
X100436762Y-99614810D01*
X100393403Y-99580190D01*
X100311692Y-99516668D01*
X100371901Y-99482689D01*
X100376627Y-99479346D01*
X100675791Y-99479346D01*
X100676934Y-99548934D01*
X100681499Y-99599637D01*
X100691187Y-99641187D01*
X100707698Y-99683316D01*
X100713747Y-99696478D01*
X100775126Y-99794592D01*
X100858262Y-99877307D01*
X100958643Y-99940707D01*
X101026976Y-99968405D01*
X101056468Y-99973064D01*
X101106344Y-99975982D01*
X101168354Y-99976803D01*
X101206152Y-99976190D01*
X101277697Y-99973140D01*
X101329323Y-99967501D01*
X101369763Y-99957599D01*
X101407753Y-99941760D01*
X101421163Y-99934985D01*
X101488910Y-99893152D01*
X101736513Y-99893152D01*
X101778613Y-99937095D01*
X101820714Y-99981039D01*
X102175110Y-99981039D01*
X102529506Y-99981039D01*
X102566616Y-99936937D01*
X102597278Y-99883143D01*
X102603725Y-99837698D01*
X102592045Y-99778259D01*
X102566616Y-99738459D01*
X102529506Y-99694357D01*
X102294268Y-99694357D01*
X102059030Y-99694357D01*
X102059030Y-99479346D01*
X102610892Y-99479346D01*
X102612036Y-99548934D01*
X102616601Y-99599637D01*
X102626289Y-99641187D01*
X102642800Y-99683316D01*
X102648848Y-99696478D01*
X102709541Y-99793499D01*
X102791501Y-99875814D01*
X102889052Y-99938509D01*
X102962077Y-99967634D01*
X103018340Y-99977633D01*
X103091999Y-99981005D01*
X103172671Y-99978207D01*
X103249972Y-99969697D01*
X103313520Y-99955930D01*
X103326365Y-99951600D01*
X103402224Y-99911850D01*
X103757619Y-99911850D01*
X103797837Y-99946445D01*
X103847340Y-99972550D01*
X103907746Y-99981727D01*
X103965880Y-99972610D01*
X103981953Y-99965551D01*
X104015015Y-99933441D01*
X104037308Y-99877595D01*
X104049178Y-99796823D01*
X104051473Y-99727069D01*
X104051479Y-99601185D01*
X104234233Y-99791424D01*
X104416987Y-99981662D01*
X104491200Y-99981350D01*
X104554055Y-99972478D01*
X104596021Y-99945173D01*
X104618943Y-99897472D01*
X104624831Y-99839114D01*
X104624214Y-99813781D01*
X104620413Y-99792324D01*
X104610503Y-99770642D01*
X104591558Y-99744634D01*
X104560651Y-99710198D01*
X104514859Y-99663235D01*
X104460747Y-99609108D01*
X104405935Y-99553420D01*
X104359736Y-99504500D01*
X104330723Y-99471927D01*
X104725170Y-99471927D01*
X104725604Y-99606092D01*
X104727462Y-99714363D01*
X104731579Y-99799510D01*
X104738788Y-99864301D01*
X104749925Y-99911505D01*
X104765824Y-99943891D01*
X104787319Y-99964226D01*
X104815244Y-99975281D01*
X104850434Y-99979824D01*
X104878462Y-99980603D01*
X104935220Y-99972569D01*
X104978800Y-99946445D01*
X105019018Y-99911850D01*
X105019018Y-99479346D01*
X105019018Y-99046841D01*
X104978800Y-99012247D01*
X104929669Y-98986315D01*
X104869611Y-98976889D01*
X104812104Y-98985433D01*
X104796046Y-98992412D01*
X104775978Y-99005122D01*
X104760073Y-99021529D01*
X104747854Y-99044866D01*
X104738843Y-99078364D01*
X104732563Y-99125257D01*
X104728534Y-99188776D01*
X104726281Y-99272155D01*
X104725324Y-99378626D01*
X104725170Y-99471927D01*
X104330723Y-99471927D01*
X104325406Y-99465958D01*
X104306198Y-99441403D01*
X104303397Y-99434591D01*
X104317201Y-99422532D01*
X104349703Y-99397886D01*
X104395972Y-99364301D01*
X104448294Y-99327366D01*
X104505598Y-99286748D01*
X104556234Y-99249637D01*
X104594310Y-99220426D01*
X104612811Y-99204684D01*
X104632328Y-99167888D01*
X104638861Y-99117248D01*
X104632161Y-99064603D01*
X104616490Y-99028042D01*
X104580294Y-98994889D01*
X104529419Y-98973389D01*
X104477058Y-98968497D01*
X104463968Y-98970768D01*
X104441351Y-98982427D01*
X104401187Y-99009044D01*
X104348058Y-99047351D01*
X104286545Y-99094082D01*
X104243930Y-99127671D01*
X104058635Y-99275855D01*
X104051468Y-99001331D01*
X104048185Y-98895896D01*
X104044042Y-98815283D01*
X104039920Y-98772740D01*
X104725488Y-98772740D01*
X104737527Y-98841135D01*
X104769834Y-98892831D01*
X104817746Y-98924978D01*
X104876602Y-98934725D01*
X104941742Y-98919221D01*
X104954802Y-98913001D01*
X104995749Y-98883387D01*
X105018260Y-98842835D01*
X105026055Y-98784032D01*
X105026186Y-98772684D01*
X105015130Y-98706493D01*
X104983378Y-98657639D01*
X104933057Y-98629016D01*
X104918153Y-98625423D01*
X104846280Y-98623027D01*
X104788493Y-98643518D01*
X104747835Y-98684567D01*
X104727350Y-98743849D01*
X104725488Y-98772740D01*
X104039920Y-98772740D01*
X104038263Y-98755643D01*
X104030075Y-98713131D01*
X104018702Y-98683898D01*
X104003372Y-98664097D01*
X103983308Y-98649883D01*
X103980411Y-98648297D01*
X103926801Y-98633599D01*
X103866149Y-98637314D01*
X103811973Y-98657964D01*
X103797837Y-98668229D01*
X103757619Y-98702823D01*
X103757619Y-99307337D01*
X103757619Y-99911850D01*
X103402224Y-99911850D01*
X103411943Y-99906757D01*
X103492868Y-99840849D01*
X103560841Y-99761249D01*
X103586148Y-99720851D01*
X103604604Y-99685788D01*
X103616765Y-99655222D01*
X103623938Y-99621729D01*
X103627428Y-99577884D01*
X103628540Y-99516263D01*
X103628612Y-99479346D01*
X103628163Y-99406892D01*
X103625945Y-99355677D01*
X103620653Y-99318279D01*
X103610981Y-99287271D01*
X103595624Y-99255230D01*
X103586148Y-99237840D01*
X103525349Y-99152115D01*
X103446896Y-99077529D01*
X103359033Y-99021361D01*
X103323320Y-99005764D01*
X103278643Y-98990917D01*
X103235813Y-98982364D01*
X103185468Y-98979063D01*
X103118247Y-98979972D01*
X103098251Y-98980713D01*
X103026072Y-98984751D01*
X102973536Y-98991315D01*
X102931626Y-99002250D01*
X102891322Y-99019401D01*
X102879167Y-99025532D01*
X102781102Y-99091293D01*
X102700569Y-99176553D01*
X102648848Y-99262214D01*
X102630132Y-99306238D01*
X102618713Y-99346971D01*
X102612891Y-99394145D01*
X102610965Y-99457491D01*
X102610892Y-99479346D01*
X102059030Y-99479346D01*
X102059030Y-99220620D01*
X102058841Y-99087119D01*
X102058190Y-98979311D01*
X102056953Y-98894220D01*
X102055004Y-98828873D01*
X102052220Y-98780296D01*
X102048474Y-98745516D01*
X102043642Y-98721557D01*
X102037600Y-98705446D01*
X102037380Y-98705018D01*
X102009330Y-98665495D01*
X101971240Y-98643080D01*
X101915769Y-98634204D01*
X101890645Y-98633635D01*
X101843103Y-98636756D01*
X101810242Y-98649687D01*
X101778613Y-98677578D01*
X101736513Y-98721522D01*
X101736513Y-99307337D01*
X101736513Y-99893152D01*
X101488910Y-99893152D01*
X101497814Y-99887654D01*
X101548004Y-99838129D01*
X101573936Y-99783720D01*
X101578838Y-99742409D01*
X101575216Y-99696758D01*
X101560044Y-99664616D01*
X101532026Y-99635845D01*
X101477349Y-99601472D01*
X101420137Y-99594872D01*
X101358601Y-99616055D01*
X101325717Y-99637021D01*
X101278689Y-99665646D01*
X101232978Y-99677826D01*
X101193250Y-99679515D01*
X101146941Y-99675677D01*
X101105273Y-99666392D01*
X101074575Y-99654032D01*
X101061175Y-99640970D01*
X101066513Y-99631995D01*
X101084078Y-99624060D01*
X101123817Y-99607609D01*
X101181173Y-99584483D01*
X101251587Y-99556521D01*
X101322880Y-99528536D01*
X101402196Y-99496882D01*
X101473406Y-99467180D01*
X101531684Y-99441546D01*
X101572204Y-99422094D01*
X101589308Y-99411797D01*
X101614861Y-99370816D01*
X101624464Y-99312641D01*
X101617080Y-99244562D01*
X101614555Y-99234365D01*
X101584839Y-99169957D01*
X101533674Y-99106971D01*
X101467844Y-99051796D01*
X101394135Y-99010819D01*
X101366229Y-99000538D01*
X101276855Y-98982119D01*
X101177524Y-98977455D01*
X101078260Y-98985947D01*
X100989090Y-99006999D01*
X100944065Y-99025686D01*
X100846112Y-99091220D01*
X100765591Y-99176384D01*
X100713747Y-99262214D01*
X100695030Y-99306238D01*
X100683612Y-99346971D01*
X100677790Y-99394145D01*
X100675863Y-99457491D01*
X100675791Y-99479346D01*
X100376627Y-99479346D01*
X100459644Y-99420621D01*
X100529824Y-99345309D01*
X100558688Y-99300170D01*
X100574635Y-99264629D01*
X100584129Y-99225160D01*
X100588612Y-99173063D01*
X100589561Y-99113826D01*
X100588326Y-99046413D01*
X100583355Y-98997357D01*
X100572712Y-98956405D01*
X100554460Y-98913300D01*
X100549930Y-98903934D01*
X100492004Y-98814980D01*
X100413172Y-98736554D01*
X100321015Y-98675968D01*
X100305893Y-98668582D01*
X100278355Y-98656462D01*
X100252112Y-98647544D01*
X100222247Y-98641338D01*
X100183842Y-98637351D01*
X100131980Y-98635091D01*
X100061741Y-98634065D01*
X99968210Y-98633781D01*
X99958184Y-98633775D01*
X99684935Y-98633635D01*
X99642835Y-98677578D01*
X99600734Y-98721522D01*
X99600734Y-99307337D01*
X99600734Y-99893152D01*
X98875711Y-99893152D01*
X98876863Y-99883890D01*
X98878141Y-99855083D01*
X98885808Y-99835558D01*
X98905615Y-99819451D01*
X98943312Y-99800901D01*
X98969615Y-99789336D01*
X99066590Y-99732216D01*
X99144386Y-99653901D01*
X99202600Y-99554861D01*
X99226626Y-99490096D01*
X99241321Y-99472497D01*
X99275160Y-99465444D01*
X99292101Y-99465012D01*
X99349970Y-99455145D01*
X99378556Y-99436343D01*
X99404776Y-99395758D01*
X99404695Y-99356972D01*
X99380589Y-99324054D01*
X99334736Y-99301069D01*
X99298785Y-99293859D01*
X99256383Y-99287101D01*
X99233726Y-99275776D01*
X99221918Y-99254040D01*
X99218182Y-99240894D01*
X99185711Y-99164837D01*
X99131354Y-99090889D01*
X99061590Y-99025317D01*
X98982898Y-98974386D01*
X98914953Y-98947591D01*
X98845909Y-98937238D01*
X98765140Y-98937576D01*
X98684313Y-98947590D01*
X98615094Y-98966266D01*
X98594163Y-98975475D01*
X98497459Y-99039537D01*
X98423575Y-99120017D01*
X98373710Y-99214992D01*
X98349061Y-99322541D01*
X98346513Y-99372870D01*
X98233305Y-99372870D01*
X98242954Y-99323678D01*
X98243356Y-99321009D01*
X98275051Y-99196450D01*
X98329614Y-99086146D01*
X98404530Y-98992575D01*
X98497284Y-98918215D01*
X98605362Y-98865542D01*
X98726248Y-98837034D01*
X98735767Y-98835938D01*
X98797164Y-98826938D01*
X98835157Y-98813417D01*
X98855002Y-98791600D01*
X98861954Y-98757713D01*
X98862309Y-98745054D01*
X98853071Y-98703828D01*
X98823753Y-98678742D01*
X98772788Y-98669161D01*
X98698608Y-98674446D01*
X98691135Y-98675567D01*
X98548410Y-98711048D01*
X98420906Y-98769726D01*
X98310500Y-98849641D01*
X98219066Y-98948835D01*
X98148480Y-99065348D01*
X98100619Y-99197219D01*
X98079767Y-99314251D01*
X98075768Y-99365541D01*
X97971385Y-99365541D01*
X97973752Y-99348580D01*
X97973815Y-99341657D01*
X97986554Y-99225949D01*
X98022835Y-99105532D01*
X98079759Y-98986769D01*
X98154423Y-98876024D01*
X98219410Y-98802957D01*
X98324907Y-98715234D01*
X98445196Y-98644684D01*
X98573713Y-98594143D01*
X98703894Y-98566445D01*
X98777402Y-98561964D01*
X98828334Y-98552667D01*
X98857736Y-98524546D01*
X98866112Y-98483127D01*
X98859984Y-98443971D01*
X98838680Y-98419628D01*
X98797821Y-98407336D01*
X98741227Y-98404289D01*
X98603084Y-98417741D01*
X98463096Y-98456357D01*
X98326531Y-98517531D01*
X98198654Y-98598654D01*
X98084733Y-98697121D01*
X98031793Y-98755474D01*
X97981709Y-98825792D01*
X97931235Y-98913574D01*
X97885706Y-99008194D01*
X97850456Y-99099026D01*
X97837784Y-99141923D01*
X97824281Y-99210640D01*
X97816997Y-99281135D01*
X97815860Y-99346928D01*
X97700572Y-99346928D01*
X97701468Y-99325344D01*
X97713642Y-99199493D01*
X97749723Y-99061314D01*
X97809048Y-98913250D01*
X97819003Y-98892220D01*
X97853148Y-98824045D01*
X97884089Y-98770680D01*
X97917887Y-98723767D01*
X97960601Y-98674945D01*
X98018291Y-98615855D01*
X98022127Y-98612034D01*
X98153775Y-98496815D01*
X98291628Y-98408379D01*
X98439491Y-98344938D01*
X98601169Y-98304707D01*
X98706200Y-98290983D01*
X98764942Y-98284367D01*
X98812782Y-98276750D01*
X98842535Y-98269378D01*
X98848179Y-98266400D01*
X98869210Y-98226708D01*
X98868218Y-98181575D01*
X98848066Y-98146147D01*
X98830273Y-98130786D01*
X98810312Y-98122387D01*
X98780726Y-98119888D01*
X98734058Y-98122229D01*
X98699900Y-98125064D01*
X98511610Y-98155095D01*
X98333537Y-98210437D01*
X98167806Y-98289398D01*
X98016546Y-98390285D01*
X97881885Y-98511407D01*
X97765950Y-98651071D01*
X97670869Y-98807585D01*
X97598769Y-98979257D01*
X97589427Y-99008279D01*
X97572552Y-99073206D01*
X97558084Y-99147895D01*
X97546832Y-99225303D01*
X97539603Y-99298389D01*
X97537206Y-99360110D01*
X97010802Y-99360110D01*
X97007322Y-99257167D01*
X97009657Y-99125936D01*
X97017630Y-99013741D01*
X97032696Y-98911256D01*
X97056306Y-98809157D01*
X97089913Y-98698118D01*
X97098377Y-98672793D01*
X97181333Y-98471222D01*
X97288725Y-98281292D01*
X97418173Y-98105383D01*
X97567297Y-97945876D01*
X97733718Y-97805151D01*
X97915056Y-97685588D01*
X98108933Y-97589567D01*
X98224662Y-97546108D01*
X98256719Y-97535164D01*
X98285334Y-97525089D01*
X98311741Y-97515848D01*
X98337172Y-97507404D01*
X98362862Y-97499723D01*
X98390045Y-97492768D01*
X98419955Y-97486504D01*
X98453824Y-97480894D01*
X98492888Y-97475902D01*
X98538379Y-97471494D01*
X98591532Y-97467634D01*
X98653581Y-97464284D01*
X98725758Y-97461410D01*
X98809299Y-97458976D01*
X98905437Y-97456947D01*
X99015405Y-97455285D01*
X99140438Y-97453956D01*
X99281769Y-97452923D01*
X99440632Y-97452152D01*
X99618260Y-97451605D01*
X99815889Y-97451247D01*
X100034750Y-97451044D01*
X100276079Y-97450957D01*
X100541109Y-97450953D01*
X100831074Y-97450994D01*
G37*
%TD*%
M02*
