%TF.GenerationSoftware,KiCad,Pcbnew,8.0.1*%
%TF.CreationDate,2024-04-05T10:06:49-05:00*%
%TF.ProjectId,UWB_Antenna_Circular,5557425f-416e-4746-956e-6e615f436972,rev?*%
%TF.SameCoordinates,Original*%
%TF.FileFunction,Legend,Bot*%
%TF.FilePolarity,Positive*%
%FSLAX46Y46*%
G04 Gerber Fmt 4.6, Leading zero omitted, Abs format (unit mm)*
G04 Created by KiCad (PCBNEW 8.0.1) date 2024-04-05 10:06:49*
%MOMM*%
%LPD*%
G01*
G04 APERTURE LIST*
%ADD10C,0.100000*%
%ADD11C,0.000000*%
%ADD12C,0.010000*%
G04 APERTURE END LIST*
D10*
X97100000Y-98200000D02*
X105900000Y-98200000D01*
X105900000Y-100400000D01*
X97100000Y-100400000D01*
X97100000Y-98200000D01*
D11*
%TO.C,kibuzzard-66101274*%
G36*
X105649990Y-100156133D02*
G01*
X104988531Y-100156133D01*
X104715481Y-100156133D01*
X103861406Y-100156133D01*
X102732694Y-100156133D01*
X102058006Y-100156133D01*
X101149956Y-100156133D01*
X100687994Y-100156133D01*
X99846619Y-100156133D01*
X98775056Y-100156133D01*
X98011469Y-100156133D01*
X97350010Y-100156133D01*
X97350010Y-99804766D01*
X98011469Y-99804766D01*
X98597256Y-99804766D01*
X98597256Y-99685703D01*
X98559156Y-99624585D01*
X98517881Y-99561878D01*
X98475019Y-99498974D01*
X98432156Y-99437260D01*
X98389691Y-99377530D01*
X98348019Y-99320578D01*
X98273406Y-99220566D01*
X98581381Y-99220566D01*
X98581381Y-99058641D01*
X98027344Y-99058641D01*
X98027344Y-99201516D01*
X98090844Y-99276922D01*
X98133905Y-99329905D01*
X98180538Y-99388841D01*
X98228956Y-99452143D01*
X98277375Y-99518222D01*
X98323214Y-99583111D01*
X98363894Y-99642841D01*
X98011469Y-99642841D01*
X98011469Y-99804766D01*
X97350010Y-99804766D01*
X97350010Y-98822103D01*
X98775056Y-98822103D01*
X98775056Y-99804766D01*
X98970319Y-99804766D01*
X98970319Y-99371378D01*
X99230669Y-99371378D01*
X99230669Y-99804766D01*
X99425931Y-99804766D01*
X99425931Y-98871316D01*
X99554519Y-98871316D01*
X99605319Y-99026891D01*
X99691044Y-98987203D01*
X99795819Y-98969741D01*
X99913294Y-98995141D01*
X99991875Y-99065785D01*
X100036325Y-99173735D01*
X100046445Y-99239814D01*
X100049819Y-99312641D01*
X100043645Y-99419797D01*
X100025124Y-99506316D01*
X99994256Y-99572197D01*
X99925597Y-99634705D01*
X99830744Y-99655541D01*
X99792644Y-99653953D01*
X99754544Y-99649191D01*
X99754544Y-99290416D01*
X99559281Y-99290416D01*
X99559281Y-99780953D01*
X99668025Y-99809528D01*
X99749583Y-99821435D01*
X99846619Y-99825403D01*
X99934130Y-99817268D01*
X100012512Y-99792860D01*
X100080973Y-99752378D01*
X100138719Y-99696022D01*
X100185153Y-99623791D01*
X100219681Y-99535685D01*
X100241113Y-99431902D01*
X100248256Y-99312641D01*
X100248144Y-99311053D01*
X100346681Y-99311053D01*
X100352138Y-99432894D01*
X100368509Y-99538066D01*
X100395795Y-99626569D01*
X100433994Y-99698403D01*
X100501022Y-99768959D01*
X100585688Y-99811292D01*
X100687994Y-99825403D01*
X100790299Y-99811292D01*
X100803351Y-99804766D01*
X101149956Y-99804766D01*
X101746856Y-99804766D01*
X102732694Y-99804766D01*
X103374044Y-99804766D01*
X103378013Y-99765078D01*
X103377219Y-99731741D01*
X103372171Y-99679353D01*
X103720119Y-99679353D01*
X103762981Y-99785716D01*
X103861406Y-99822228D01*
X103915381Y-99812703D01*
X103960625Y-99784922D01*
X103992375Y-99740472D01*
X104004281Y-99679353D01*
X103992375Y-99619822D01*
X103960625Y-99576166D01*
X103915381Y-99549178D01*
X103861406Y-99539653D01*
X103762981Y-99576166D01*
X103720119Y-99679353D01*
X103372171Y-99679353D01*
X103369877Y-99655541D01*
X103347850Y-99585691D01*
X103314513Y-99521596D01*
X103308259Y-99512666D01*
X104337656Y-99512666D01*
X104359881Y-99638078D01*
X104428144Y-99737297D01*
X104480531Y-99774603D01*
X104545619Y-99802385D01*
X104623803Y-99819649D01*
X104715481Y-99825403D01*
X104792475Y-99819847D01*
X104870263Y-99806353D01*
X104939319Y-99788891D01*
X104988531Y-99771428D01*
X104950431Y-99607916D01*
X104855975Y-99641253D01*
X104792277Y-99654350D01*
X104717069Y-99658716D01*
X104631939Y-99648000D01*
X104576575Y-99615853D01*
X104536094Y-99509491D01*
X104551572Y-99443411D01*
X104598006Y-99400747D01*
X104668253Y-99377530D01*
X104755169Y-99369791D01*
X104815494Y-99369791D01*
X104815494Y-99207866D01*
X104742469Y-99207866D01*
X104682144Y-99201516D01*
X104628169Y-99180878D01*
X104589275Y-99142778D01*
X104574194Y-99082453D01*
X104606738Y-98997522D01*
X104696431Y-98966566D01*
X104806763Y-98984822D01*
X104901219Y-99030066D01*
X104971069Y-98887191D01*
X104857563Y-98829247D01*
X104782355Y-98807221D01*
X104698019Y-98799878D01*
X104620827Y-98805038D01*
X104554350Y-98820516D01*
X104453544Y-98878460D01*
X104394806Y-98966566D01*
X104375756Y-99076103D01*
X104409094Y-99188816D01*
X104497994Y-99271366D01*
X104430327Y-99310657D01*
X104379725Y-99365028D01*
X104348173Y-99432894D01*
X104337656Y-99512666D01*
X103308259Y-99512666D01*
X103273238Y-99462660D01*
X103226406Y-99408288D01*
X103176400Y-99357885D01*
X103126394Y-99310458D01*
X103079563Y-99265016D01*
X103004950Y-99179291D01*
X102975581Y-99095153D01*
X103012094Y-99002285D01*
X103104169Y-98969741D01*
X103201006Y-98991966D01*
X103301019Y-99066578D01*
X103397856Y-98930053D01*
X103329395Y-98872110D01*
X103251013Y-98831628D01*
X103167867Y-98807816D01*
X103085119Y-98799878D01*
X102969231Y-98817341D01*
X102870806Y-98869728D01*
X102802544Y-98957835D01*
X102777144Y-99080866D01*
X102796194Y-99178497D01*
X102846994Y-99269778D01*
X102918431Y-99355503D01*
X102999394Y-99434878D01*
X103047019Y-99480122D01*
X103097819Y-99534097D01*
X103138300Y-99590453D01*
X103154969Y-99642841D01*
X102732694Y-99642841D01*
X102732694Y-99804766D01*
X101746856Y-99804766D01*
X101746856Y-99642841D01*
X101540481Y-99642841D01*
X101540481Y-99301528D01*
X102058006Y-99301528D01*
X102058006Y-99493616D01*
X102492981Y-99493616D01*
X102492981Y-99301528D01*
X102058006Y-99301528D01*
X101540481Y-99301528D01*
X101540481Y-99093566D01*
X101642081Y-99149922D01*
X101738919Y-99188816D01*
X101802419Y-99026891D01*
X101719869Y-98990378D01*
X101630969Y-98941166D01*
X101546831Y-98884016D01*
X101478569Y-98822103D01*
X101345219Y-98822103D01*
X101345219Y-99642841D01*
X101149956Y-99642841D01*
X101149956Y-99804766D01*
X100803351Y-99804766D01*
X100874966Y-99768959D01*
X100941994Y-99698403D01*
X100980193Y-99626569D01*
X101007478Y-99538066D01*
X101023849Y-99432894D01*
X101029306Y-99311053D01*
X101023750Y-99190602D01*
X101007081Y-99086422D01*
X100979300Y-98998514D01*
X100940406Y-98926878D01*
X100872849Y-98856323D01*
X100788712Y-98813990D01*
X100687994Y-98799878D01*
X100585688Y-98813901D01*
X100501022Y-98855970D01*
X100433994Y-98926085D01*
X100395795Y-98997473D01*
X100368509Y-99085430D01*
X100352138Y-99189957D01*
X100346681Y-99311053D01*
X100248144Y-99311053D01*
X100239922Y-99194571D01*
X100214919Y-99091185D01*
X100175628Y-99002880D01*
X100124431Y-98930053D01*
X100062122Y-98873102D01*
X99989494Y-98832422D01*
X99908928Y-98808014D01*
X99822806Y-98799878D01*
X99720413Y-98808610D01*
X99641831Y-98828453D01*
X99587062Y-98852266D01*
X99554519Y-98871316D01*
X99425931Y-98871316D01*
X99425931Y-98822103D01*
X99230669Y-98822103D01*
X99230669Y-99209453D01*
X98970319Y-99209453D01*
X98970319Y-98822103D01*
X98775056Y-98822103D01*
X97350010Y-98822103D01*
X97350010Y-98469149D01*
X98011469Y-98469149D01*
X104988531Y-98469149D01*
X105649990Y-98469149D01*
X105649990Y-100156133D01*
G37*
G36*
X100758241Y-98988593D02*
G01*
X100810231Y-99054672D01*
X100834044Y-99122317D01*
X100848331Y-99207778D01*
X100853094Y-99311053D01*
X100848331Y-99415211D01*
X100834044Y-99501201D01*
X100810231Y-99569022D01*
X100758241Y-99635102D01*
X100687994Y-99657128D01*
X100686406Y-99656638D01*
X100616755Y-99635102D01*
X100564963Y-99569022D01*
X100541591Y-99501201D01*
X100527568Y-99415211D01*
X100522894Y-99311053D01*
X100523612Y-99295178D01*
X100599094Y-99295178D01*
X100623700Y-99368997D01*
X100686406Y-99399953D01*
X100751494Y-99368997D01*
X100775306Y-99295178D01*
X100751494Y-99220566D01*
X100686406Y-99188816D01*
X100623700Y-99220566D01*
X100599094Y-99295178D01*
X100523612Y-99295178D01*
X100527568Y-99207778D01*
X100541591Y-99122317D01*
X100564963Y-99054672D01*
X100616755Y-98988593D01*
X100687994Y-98966566D01*
X100758241Y-98988593D01*
G37*
D12*
%TO.C,REF\u002A\u002A*%
X98111501Y-84726476D02*
X98192167Y-84756440D01*
X98225714Y-84778954D01*
X98259687Y-84811212D01*
X98283919Y-84852246D01*
X98300001Y-84908108D01*
X98309521Y-84984851D01*
X98314068Y-85088525D01*
X98315231Y-85225184D01*
X98315003Y-85295805D01*
X98313860Y-85392308D01*
X98311919Y-85469323D01*
X98309365Y-85520319D01*
X98306381Y-85538769D01*
X98286962Y-85532667D01*
X98247766Y-85516095D01*
X98246589Y-85515558D01*
X98226235Y-85504903D01*
X98212546Y-85490282D01*
X98204199Y-85464673D01*
X98199874Y-85421054D01*
X98198248Y-85352403D01*
X98198000Y-85251698D01*
X98197500Y-85187813D01*
X98192164Y-85067751D01*
X98179945Y-84979809D01*
X98159552Y-84919375D01*
X98129695Y-84881836D01*
X98089082Y-84862581D01*
X98083448Y-84861239D01*
X98007378Y-84860191D01*
X97948052Y-84894271D01*
X97907077Y-84962598D01*
X97899770Y-84982351D01*
X97883114Y-85026066D01*
X97874679Y-85046155D01*
X97857356Y-85043387D01*
X97819525Y-85028365D01*
X97784240Y-85003556D01*
X97768154Y-84956670D01*
X97772952Y-84923087D01*
X97802431Y-84854967D01*
X97850098Y-84791134D01*
X97905839Y-84746988D01*
X97929193Y-84736782D01*
X98017619Y-84719718D01*
X98111501Y-84726476D01*
G36*
X98111501Y-84726476D02*
G01*
X98192167Y-84756440D01*
X98225714Y-84778954D01*
X98259687Y-84811212D01*
X98283919Y-84852246D01*
X98300001Y-84908108D01*
X98309521Y-84984851D01*
X98314068Y-85088525D01*
X98315231Y-85225184D01*
X98315003Y-85295805D01*
X98313860Y-85392308D01*
X98311919Y-85469323D01*
X98309365Y-85520319D01*
X98306381Y-85538769D01*
X98286962Y-85532667D01*
X98247766Y-85516095D01*
X98246589Y-85515558D01*
X98226235Y-85504903D01*
X98212546Y-85490282D01*
X98204199Y-85464673D01*
X98199874Y-85421054D01*
X98198248Y-85352403D01*
X98198000Y-85251698D01*
X98197500Y-85187813D01*
X98192164Y-85067751D01*
X98179945Y-84979809D01*
X98159552Y-84919375D01*
X98129695Y-84881836D01*
X98089082Y-84862581D01*
X98083448Y-84861239D01*
X98007378Y-84860191D01*
X97948052Y-84894271D01*
X97907077Y-84962598D01*
X97899770Y-84982351D01*
X97883114Y-85026066D01*
X97874679Y-85046155D01*
X97857356Y-85043387D01*
X97819525Y-85028365D01*
X97784240Y-85003556D01*
X97768154Y-84956670D01*
X97772952Y-84923087D01*
X97802431Y-84854967D01*
X97850098Y-84791134D01*
X97905839Y-84746988D01*
X97929193Y-84736782D01*
X98017619Y-84719718D01*
X98111501Y-84726476D01*
G37*
X103426372Y-84681684D02*
X103517629Y-84724569D01*
X103592416Y-84798729D01*
X103607917Y-84821944D01*
X103620774Y-84848256D01*
X103629893Y-84881420D01*
X103636102Y-84927881D01*
X103640233Y-84994082D01*
X103643116Y-85086468D01*
X103645579Y-85211485D01*
X103651697Y-85558278D01*
X103600303Y-85538738D01*
X103553246Y-85520787D01*
X103518015Y-85503511D01*
X103495017Y-85481242D01*
X103481655Y-85447165D01*
X103475328Y-85394463D01*
X103473437Y-85316323D01*
X103473385Y-85205928D01*
X103473117Y-85117935D01*
X103471521Y-85033502D01*
X103467712Y-84975834D01*
X103460820Y-84937988D01*
X103449975Y-84913024D01*
X103434308Y-84894000D01*
X103395792Y-84867153D01*
X103331091Y-84857034D01*
X103267081Y-84882606D01*
X103262856Y-84885880D01*
X103249689Y-84901007D01*
X103239975Y-84925268D01*
X103232903Y-84964650D01*
X103227656Y-85025141D01*
X103223421Y-85112729D01*
X103219385Y-85233402D01*
X103209615Y-85556515D01*
X103043539Y-85482065D01*
X103043539Y-85187062D01*
X103043883Y-85106919D01*
X103046847Y-84995431D01*
X103054351Y-84912421D01*
X103068190Y-84851199D01*
X103090155Y-84805075D01*
X103122039Y-84767358D01*
X103165633Y-84731358D01*
X103228336Y-84695089D01*
X103327117Y-84671412D01*
X103426372Y-84681684D01*
G36*
X103426372Y-84681684D02*
G01*
X103517629Y-84724569D01*
X103592416Y-84798729D01*
X103607917Y-84821944D01*
X103620774Y-84848256D01*
X103629893Y-84881420D01*
X103636102Y-84927881D01*
X103640233Y-84994082D01*
X103643116Y-85086468D01*
X103645579Y-85211485D01*
X103651697Y-85558278D01*
X103600303Y-85538738D01*
X103553246Y-85520787D01*
X103518015Y-85503511D01*
X103495017Y-85481242D01*
X103481655Y-85447165D01*
X103475328Y-85394463D01*
X103473437Y-85316323D01*
X103473385Y-85205928D01*
X103473117Y-85117935D01*
X103471521Y-85033502D01*
X103467712Y-84975834D01*
X103460820Y-84937988D01*
X103449975Y-84913024D01*
X103434308Y-84894000D01*
X103395792Y-84867153D01*
X103331091Y-84857034D01*
X103267081Y-84882606D01*
X103262856Y-84885880D01*
X103249689Y-84901007D01*
X103239975Y-84925268D01*
X103232903Y-84964650D01*
X103227656Y-85025141D01*
X103223421Y-85112729D01*
X103219385Y-85233402D01*
X103209615Y-85556515D01*
X103043539Y-85482065D01*
X103043539Y-85187062D01*
X103043883Y-85106919D01*
X103046847Y-84995431D01*
X103054351Y-84912421D01*
X103068190Y-84851199D01*
X103090155Y-84805075D01*
X103122039Y-84767358D01*
X103165633Y-84731358D01*
X103228336Y-84695089D01*
X103327117Y-84671412D01*
X103426372Y-84681684D01*
G37*
X100971892Y-84747167D02*
X100978060Y-84750581D01*
X101028447Y-84789692D01*
X101073498Y-84839975D01*
X101081355Y-84851339D01*
X101096376Y-84877860D01*
X101107107Y-84909336D01*
X101114486Y-84952591D01*
X101119452Y-85014449D01*
X101122942Y-85101733D01*
X101125893Y-85221269D01*
X101126311Y-85241478D01*
X101127654Y-85372499D01*
X101125761Y-85465296D01*
X101120605Y-85520507D01*
X101112158Y-85538769D01*
X101086594Y-85533301D01*
X101043166Y-85516733D01*
X101032940Y-85511888D01*
X101016967Y-85500920D01*
X101005954Y-85482890D01*
X100998750Y-85451396D01*
X100994208Y-85400036D01*
X100991180Y-85322410D01*
X100988516Y-85212115D01*
X100987785Y-85179875D01*
X100984965Y-85078050D01*
X100981304Y-85006788D01*
X100975694Y-84959332D01*
X100967029Y-84928925D01*
X100954202Y-84908810D01*
X100936105Y-84892229D01*
X100882525Y-84863161D01*
X100816612Y-84857564D01*
X100757635Y-84879807D01*
X100715203Y-84925859D01*
X100698923Y-84991692D01*
X100698470Y-85009587D01*
X100689578Y-85041982D01*
X100663325Y-85046925D01*
X100611919Y-85027633D01*
X100600013Y-85021446D01*
X100567835Y-84985058D01*
X100567198Y-84930954D01*
X100597856Y-84856128D01*
X100625978Y-84815350D01*
X100697883Y-84757421D01*
X100786638Y-84724670D01*
X100881542Y-84720212D01*
X100971892Y-84747167D01*
G36*
X100971892Y-84747167D02*
G01*
X100978060Y-84750581D01*
X101028447Y-84789692D01*
X101073498Y-84839975D01*
X101081355Y-84851339D01*
X101096376Y-84877860D01*
X101107107Y-84909336D01*
X101114486Y-84952591D01*
X101119452Y-85014449D01*
X101122942Y-85101733D01*
X101125893Y-85221269D01*
X101126311Y-85241478D01*
X101127654Y-85372499D01*
X101125761Y-85465296D01*
X101120605Y-85520507D01*
X101112158Y-85538769D01*
X101086594Y-85533301D01*
X101043166Y-85516733D01*
X101032940Y-85511888D01*
X101016967Y-85500920D01*
X101005954Y-85482890D01*
X100998750Y-85451396D01*
X100994208Y-85400036D01*
X100991180Y-85322410D01*
X100988516Y-85212115D01*
X100987785Y-85179875D01*
X100984965Y-85078050D01*
X100981304Y-85006788D01*
X100975694Y-84959332D01*
X100967029Y-84928925D01*
X100954202Y-84908810D01*
X100936105Y-84892229D01*
X100882525Y-84863161D01*
X100816612Y-84857564D01*
X100757635Y-84879807D01*
X100715203Y-84925859D01*
X100698923Y-84991692D01*
X100698470Y-85009587D01*
X100689578Y-85041982D01*
X100663325Y-85046925D01*
X100611919Y-85027633D01*
X100600013Y-85021446D01*
X100567835Y-84985058D01*
X100567198Y-84930954D01*
X100597856Y-84856128D01*
X100625978Y-84815350D01*
X100697883Y-84757421D01*
X100786638Y-84724670D01*
X100881542Y-84720212D01*
X100971892Y-84747167D01*
G37*
X102476923Y-84481806D02*
X102476923Y-85016455D01*
X102476660Y-85155094D01*
X102475958Y-85279805D01*
X102474883Y-85385557D01*
X102473500Y-85467322D01*
X102471874Y-85520069D01*
X102470070Y-85538769D01*
X102469364Y-85538706D01*
X102445387Y-85531912D01*
X102401685Y-85517320D01*
X102340154Y-85495870D01*
X102340154Y-85220617D01*
X102339763Y-85112466D01*
X102337946Y-85034026D01*
X102333767Y-84980647D01*
X102326286Y-84945256D01*
X102314567Y-84920779D01*
X102297671Y-84900144D01*
X102286152Y-84889170D01*
X102223864Y-84858775D01*
X102155211Y-84861466D01*
X102092298Y-84897406D01*
X102083139Y-84906325D01*
X102068471Y-84924844D01*
X102058433Y-84949326D01*
X102052151Y-84986393D01*
X102048748Y-85042667D01*
X102047349Y-85124771D01*
X102047077Y-85239329D01*
X102046947Y-85297430D01*
X102046099Y-85392993D01*
X102044594Y-85469526D01*
X102042585Y-85520345D01*
X102040223Y-85538769D01*
X102039518Y-85538706D01*
X102015541Y-85531912D01*
X101971839Y-85517320D01*
X101910308Y-85495870D01*
X101910338Y-85219358D01*
X101910384Y-85194742D01*
X101912970Y-85066419D01*
X101920913Y-84969384D01*
X101936155Y-84897057D01*
X101960636Y-84842855D01*
X101996298Y-84800198D01*
X102045082Y-84762505D01*
X102092661Y-84738910D01*
X102168732Y-84720672D01*
X102243556Y-84719636D01*
X102301077Y-84737378D01*
X102305402Y-84739829D01*
X102318738Y-84739566D01*
X102327851Y-84719039D01*
X102334428Y-84671980D01*
X102340154Y-84592120D01*
X102349923Y-84428236D01*
X102476923Y-84481806D01*
G36*
X102476923Y-84481806D02*
G01*
X102476923Y-85016455D01*
X102476660Y-85155094D01*
X102475958Y-85279805D01*
X102474883Y-85385557D01*
X102473500Y-85467322D01*
X102471874Y-85520069D01*
X102470070Y-85538769D01*
X102469364Y-85538706D01*
X102445387Y-85531912D01*
X102401685Y-85517320D01*
X102340154Y-85495870D01*
X102340154Y-85220617D01*
X102339763Y-85112466D01*
X102337946Y-85034026D01*
X102333767Y-84980647D01*
X102326286Y-84945256D01*
X102314567Y-84920779D01*
X102297671Y-84900144D01*
X102286152Y-84889170D01*
X102223864Y-84858775D01*
X102155211Y-84861466D01*
X102092298Y-84897406D01*
X102083139Y-84906325D01*
X102068471Y-84924844D01*
X102058433Y-84949326D01*
X102052151Y-84986393D01*
X102048748Y-85042667D01*
X102047349Y-85124771D01*
X102047077Y-85239329D01*
X102046947Y-85297430D01*
X102046099Y-85392993D01*
X102044594Y-85469526D01*
X102042585Y-85520345D01*
X102040223Y-85538769D01*
X102039518Y-85538706D01*
X102015541Y-85531912D01*
X101971839Y-85517320D01*
X101910308Y-85495870D01*
X101910338Y-85219358D01*
X101910384Y-85194742D01*
X101912970Y-85066419D01*
X101920913Y-84969384D01*
X101936155Y-84897057D01*
X101960636Y-84842855D01*
X101996298Y-84800198D01*
X102045082Y-84762505D01*
X102092661Y-84738910D01*
X102168732Y-84720672D01*
X102243556Y-84719636D01*
X102301077Y-84737378D01*
X102305402Y-84739829D01*
X102318738Y-84739566D01*
X102327851Y-84719039D01*
X102334428Y-84671980D01*
X102340154Y-84592120D01*
X102349923Y-84428236D01*
X102476923Y-84481806D01*
G37*
X99687998Y-84724034D02*
X99730850Y-84740829D01*
X99780615Y-84763503D01*
X99780615Y-85418533D01*
X99718785Y-85480363D01*
X99704662Y-85494228D01*
X99665536Y-85525046D01*
X99626078Y-85535028D01*
X99567362Y-85530433D01*
X99543456Y-85527462D01*
X99481801Y-85521176D01*
X99438692Y-85518672D01*
X99425905Y-85519055D01*
X99373446Y-85523200D01*
X99310022Y-85530433D01*
X99289730Y-85532918D01*
X99238610Y-85533895D01*
X99201207Y-85518462D01*
X99158599Y-85480363D01*
X99096769Y-85418533D01*
X99096769Y-85068343D01*
X99097251Y-84964857D01*
X99098753Y-84866192D01*
X99101089Y-84788068D01*
X99104071Y-84736662D01*
X99107509Y-84718154D01*
X99108230Y-84718204D01*
X99133203Y-84727413D01*
X99175399Y-84747707D01*
X99232549Y-84777261D01*
X99237928Y-85084746D01*
X99243308Y-85392231D01*
X99360539Y-85392231D01*
X99365885Y-85055192D01*
X99367579Y-84963574D01*
X99370005Y-84865649D01*
X99372634Y-84787906D01*
X99375246Y-84736642D01*
X99377623Y-84718154D01*
X99378306Y-84718219D01*
X99401996Y-84725020D01*
X99445546Y-84739604D01*
X99507077Y-84761054D01*
X99507376Y-85057104D01*
X99507676Y-85108532D01*
X99509754Y-85208466D01*
X99513470Y-85291925D01*
X99518430Y-85351377D01*
X99524240Y-85379287D01*
X99545024Y-85394214D01*
X99587440Y-85398825D01*
X99634077Y-85392231D01*
X99639423Y-85055192D01*
X99641336Y-84969546D01*
X99645303Y-84868172D01*
X99650491Y-84788655D01*
X99656499Y-84736736D01*
X99662927Y-84718154D01*
X99687998Y-84724034D01*
G36*
X99687998Y-84724034D02*
G01*
X99730850Y-84740829D01*
X99780615Y-84763503D01*
X99780615Y-85418533D01*
X99718785Y-85480363D01*
X99704662Y-85494228D01*
X99665536Y-85525046D01*
X99626078Y-85535028D01*
X99567362Y-85530433D01*
X99543456Y-85527462D01*
X99481801Y-85521176D01*
X99438692Y-85518672D01*
X99425905Y-85519055D01*
X99373446Y-85523200D01*
X99310022Y-85530433D01*
X99289730Y-85532918D01*
X99238610Y-85533895D01*
X99201207Y-85518462D01*
X99158599Y-85480363D01*
X99096769Y-85418533D01*
X99096769Y-85068343D01*
X99097251Y-84964857D01*
X99098753Y-84866192D01*
X99101089Y-84788068D01*
X99104071Y-84736662D01*
X99107509Y-84718154D01*
X99108230Y-84718204D01*
X99133203Y-84727413D01*
X99175399Y-84747707D01*
X99232549Y-84777261D01*
X99237928Y-85084746D01*
X99243308Y-85392231D01*
X99360539Y-85392231D01*
X99365885Y-85055192D01*
X99367579Y-84963574D01*
X99370005Y-84865649D01*
X99372634Y-84787906D01*
X99375246Y-84736642D01*
X99377623Y-84718154D01*
X99378306Y-84718219D01*
X99401996Y-84725020D01*
X99445546Y-84739604D01*
X99507077Y-84761054D01*
X99507376Y-85057104D01*
X99507676Y-85108532D01*
X99509754Y-85208466D01*
X99513470Y-85291925D01*
X99518430Y-85351377D01*
X99524240Y-85379287D01*
X99545024Y-85394214D01*
X99587440Y-85398825D01*
X99634077Y-85392231D01*
X99639423Y-85055192D01*
X99641336Y-84969546D01*
X99645303Y-84868172D01*
X99650491Y-84788655D01*
X99656499Y-84736736D01*
X99662927Y-84718154D01*
X99687998Y-84724034D01*
G37*
X105896154Y-85108923D02*
X105896135Y-85130105D01*
X105895076Y-85224584D01*
X105891436Y-85290414D01*
X105883892Y-85336394D01*
X105871122Y-85371321D01*
X105851803Y-85403995D01*
X105847050Y-85410775D01*
X105796759Y-85464231D01*
X105739457Y-85504547D01*
X105710032Y-85517629D01*
X105604299Y-85539450D01*
X105499734Y-85525336D01*
X105403368Y-85477105D01*
X105322235Y-85396579D01*
X105315385Y-85385791D01*
X105293097Y-85323153D01*
X105278079Y-85235935D01*
X105270792Y-85135210D01*
X105271611Y-85042037D01*
X105468796Y-85042037D01*
X105470349Y-85171114D01*
X105470974Y-85179420D01*
X105480077Y-85250643D01*
X105496288Y-85295809D01*
X105523660Y-85326752D01*
X105569553Y-85355737D01*
X105614942Y-85357261D01*
X105661692Y-85323846D01*
X105669824Y-85315053D01*
X105685754Y-85288741D01*
X105695159Y-85250520D01*
X105699632Y-85191349D01*
X105700769Y-85102182D01*
X105698822Y-85018664D01*
X105689105Y-84939095D01*
X105669047Y-84888808D01*
X105636240Y-84862513D01*
X105588280Y-84854923D01*
X105570016Y-84856432D01*
X105518848Y-84884107D01*
X105485035Y-84946172D01*
X105468796Y-85042037D01*
X105271611Y-85042037D01*
X105271699Y-85032052D01*
X105281262Y-84937533D01*
X105299943Y-84862727D01*
X105323951Y-84812905D01*
X105391536Y-84735409D01*
X105483114Y-84687256D01*
X105595213Y-84670703D01*
X105625151Y-84671599D01*
X105713315Y-84689929D01*
X105785733Y-84736104D01*
X105852192Y-84815648D01*
X105856147Y-84821548D01*
X105874040Y-84853288D01*
X105885678Y-84889163D01*
X105892371Y-84937906D01*
X105895426Y-85008249D01*
X105896106Y-85102182D01*
X105896154Y-85108923D01*
G36*
X105896154Y-85108923D02*
G01*
X105896135Y-85130105D01*
X105895076Y-85224584D01*
X105891436Y-85290414D01*
X105883892Y-85336394D01*
X105871122Y-85371321D01*
X105851803Y-85403995D01*
X105847050Y-85410775D01*
X105796759Y-85464231D01*
X105739457Y-85504547D01*
X105710032Y-85517629D01*
X105604299Y-85539450D01*
X105499734Y-85525336D01*
X105403368Y-85477105D01*
X105322235Y-85396579D01*
X105315385Y-85385791D01*
X105293097Y-85323153D01*
X105278079Y-85235935D01*
X105270792Y-85135210D01*
X105271611Y-85042037D01*
X105468796Y-85042037D01*
X105470349Y-85171114D01*
X105470974Y-85179420D01*
X105480077Y-85250643D01*
X105496288Y-85295809D01*
X105523660Y-85326752D01*
X105569553Y-85355737D01*
X105614942Y-85357261D01*
X105661692Y-85323846D01*
X105669824Y-85315053D01*
X105685754Y-85288741D01*
X105695159Y-85250520D01*
X105699632Y-85191349D01*
X105700769Y-85102182D01*
X105698822Y-85018664D01*
X105689105Y-84939095D01*
X105669047Y-84888808D01*
X105636240Y-84862513D01*
X105588280Y-84854923D01*
X105570016Y-84856432D01*
X105518848Y-84884107D01*
X105485035Y-84946172D01*
X105468796Y-85042037D01*
X105271611Y-85042037D01*
X105271699Y-85032052D01*
X105281262Y-84937533D01*
X105299943Y-84862727D01*
X105323951Y-84812905D01*
X105391536Y-84735409D01*
X105483114Y-84687256D01*
X105595213Y-84670703D01*
X105625151Y-84671599D01*
X105713315Y-84689929D01*
X105785733Y-84736104D01*
X105852192Y-84815648D01*
X105856147Y-84821548D01*
X105874040Y-84853288D01*
X105885678Y-84889163D01*
X105892371Y-84937906D01*
X105895426Y-85008249D01*
X105896106Y-85102182D01*
X105896154Y-85108923D01*
G37*
X97650794Y-85132376D02*
X97650413Y-85184449D01*
X97645641Y-85287047D01*
X97633150Y-85362126D01*
X97610121Y-85417748D01*
X97573732Y-85461975D01*
X97521162Y-85502869D01*
X97487714Y-85521466D01*
X97434098Y-85533991D01*
X97358780Y-85533003D01*
X97316672Y-85529035D01*
X97265879Y-85516920D01*
X97225280Y-85490585D01*
X97178049Y-85441514D01*
X97171738Y-85434346D01*
X97129277Y-85379189D01*
X97109018Y-85331150D01*
X97103846Y-85274184D01*
X97103846Y-85190471D01*
X97162346Y-85212552D01*
X97204994Y-85238364D01*
X97242064Y-85298928D01*
X97249803Y-85318320D01*
X97293074Y-85373235D01*
X97351976Y-85400879D01*
X97416111Y-85398393D01*
X97475077Y-85362923D01*
X97495342Y-85340805D01*
X97513720Y-85307436D01*
X97507971Y-85277117D01*
X97474887Y-85245913D01*
X97411261Y-85209887D01*
X97313885Y-85165103D01*
X97113615Y-85077445D01*
X97108301Y-84990607D01*
X97110299Y-84935296D01*
X97240783Y-84935296D01*
X97250688Y-84969538D01*
X97295756Y-85006096D01*
X97377557Y-85047692D01*
X97391092Y-85053718D01*
X97455818Y-85081753D01*
X97504247Y-85101472D01*
X97526751Y-85108923D01*
X97530161Y-85103438D01*
X97531529Y-85069948D01*
X97526651Y-85016116D01*
X97514364Y-84963473D01*
X97476041Y-84897151D01*
X97420720Y-84859780D01*
X97354640Y-84854721D01*
X97284040Y-84885339D01*
X97264474Y-84900648D01*
X97240783Y-84935296D01*
X97110299Y-84935296D01*
X97110647Y-84925663D01*
X97140186Y-84843590D01*
X97177472Y-84798361D01*
X97254776Y-84747838D01*
X97346478Y-84722316D01*
X97441274Y-84724336D01*
X97527859Y-84756440D01*
X97546920Y-84768767D01*
X97590640Y-84806912D01*
X97620540Y-84855167D01*
X97638968Y-84920710D01*
X97648270Y-85010720D01*
X97649499Y-85069948D01*
X97650794Y-85132376D01*
G36*
X97650794Y-85132376D02*
G01*
X97650413Y-85184449D01*
X97645641Y-85287047D01*
X97633150Y-85362126D01*
X97610121Y-85417748D01*
X97573732Y-85461975D01*
X97521162Y-85502869D01*
X97487714Y-85521466D01*
X97434098Y-85533991D01*
X97358780Y-85533003D01*
X97316672Y-85529035D01*
X97265879Y-85516920D01*
X97225280Y-85490585D01*
X97178049Y-85441514D01*
X97171738Y-85434346D01*
X97129277Y-85379189D01*
X97109018Y-85331150D01*
X97103846Y-85274184D01*
X97103846Y-85190471D01*
X97162346Y-85212552D01*
X97204994Y-85238364D01*
X97242064Y-85298928D01*
X97249803Y-85318320D01*
X97293074Y-85373235D01*
X97351976Y-85400879D01*
X97416111Y-85398393D01*
X97475077Y-85362923D01*
X97495342Y-85340805D01*
X97513720Y-85307436D01*
X97507971Y-85277117D01*
X97474887Y-85245913D01*
X97411261Y-85209887D01*
X97313885Y-85165103D01*
X97113615Y-85077445D01*
X97108301Y-84990607D01*
X97110299Y-84935296D01*
X97240783Y-84935296D01*
X97250688Y-84969538D01*
X97295756Y-85006096D01*
X97377557Y-85047692D01*
X97391092Y-85053718D01*
X97455818Y-85081753D01*
X97504247Y-85101472D01*
X97526751Y-85108923D01*
X97530161Y-85103438D01*
X97531529Y-85069948D01*
X97526651Y-85016116D01*
X97514364Y-84963473D01*
X97476041Y-84897151D01*
X97420720Y-84859780D01*
X97354640Y-84854721D01*
X97284040Y-84885339D01*
X97264474Y-84900648D01*
X97240783Y-84935296D01*
X97110299Y-84935296D01*
X97110647Y-84925663D01*
X97140186Y-84843590D01*
X97177472Y-84798361D01*
X97254776Y-84747838D01*
X97346478Y-84722316D01*
X97441274Y-84724336D01*
X97527859Y-84756440D01*
X97546920Y-84768767D01*
X97590640Y-84806912D01*
X97620540Y-84855167D01*
X97638968Y-84920710D01*
X97648270Y-85010720D01*
X97649499Y-85069948D01*
X97650794Y-85132376D01*
G37*
X100464401Y-85128462D02*
X100462839Y-85204652D01*
X100451810Y-85308507D01*
X100427814Y-85386333D01*
X100388043Y-85445760D01*
X100329688Y-85494418D01*
X100274100Y-85522546D01*
X100180751Y-85538199D01*
X100087530Y-85521084D01*
X100003272Y-85473388D01*
X99936818Y-85397294D01*
X99928793Y-85383262D01*
X99918196Y-85358679D01*
X99910335Y-85327309D01*
X99904807Y-85283769D01*
X99901206Y-85222678D01*
X99899128Y-85138655D01*
X99899064Y-85131200D01*
X100034615Y-85131200D01*
X100035077Y-85202316D01*
X100037999Y-85266641D01*
X100045221Y-85308166D01*
X100058561Y-85336067D01*
X100079836Y-85359517D01*
X100084821Y-85364025D01*
X100148863Y-85397295D01*
X100216625Y-85393890D01*
X100279734Y-85354042D01*
X100298526Y-85333398D01*
X100314254Y-85306029D01*
X100323039Y-85268192D01*
X100326859Y-85210355D01*
X100327692Y-85122986D01*
X100327281Y-85056319D01*
X100324434Y-84991245D01*
X100317256Y-84949251D01*
X100303889Y-84921063D01*
X100282472Y-84897406D01*
X100269890Y-84886753D01*
X100204699Y-84858057D01*
X100136400Y-84862575D01*
X100077098Y-84900144D01*
X100064333Y-84915040D01*
X100048764Y-84943089D01*
X100039762Y-84982258D01*
X100035617Y-85041858D01*
X100034615Y-85131200D01*
X99899064Y-85131200D01*
X99898167Y-85026320D01*
X99897919Y-84880289D01*
X99897846Y-84426963D01*
X99961346Y-84453564D01*
X99978136Y-84460845D01*
X100004859Y-84477287D01*
X100020156Y-84502187D01*
X100028563Y-84545732D01*
X100034615Y-84618106D01*
X100040144Y-84683089D01*
X100047450Y-84725750D01*
X100057918Y-84741670D01*
X100073692Y-84737400D01*
X100113890Y-84722397D01*
X100185728Y-84718678D01*
X100263010Y-84732572D01*
X100329688Y-84762505D01*
X100366371Y-84790211D01*
X100413472Y-84844269D01*
X100443638Y-84913577D01*
X100459678Y-85005765D01*
X100464191Y-85122986D01*
X100464401Y-85128462D01*
G36*
X100464401Y-85128462D02*
G01*
X100462839Y-85204652D01*
X100451810Y-85308507D01*
X100427814Y-85386333D01*
X100388043Y-85445760D01*
X100329688Y-85494418D01*
X100274100Y-85522546D01*
X100180751Y-85538199D01*
X100087530Y-85521084D01*
X100003272Y-85473388D01*
X99936818Y-85397294D01*
X99928793Y-85383262D01*
X99918196Y-85358679D01*
X99910335Y-85327309D01*
X99904807Y-85283769D01*
X99901206Y-85222678D01*
X99899128Y-85138655D01*
X99899064Y-85131200D01*
X100034615Y-85131200D01*
X100035077Y-85202316D01*
X100037999Y-85266641D01*
X100045221Y-85308166D01*
X100058561Y-85336067D01*
X100079836Y-85359517D01*
X100084821Y-85364025D01*
X100148863Y-85397295D01*
X100216625Y-85393890D01*
X100279734Y-85354042D01*
X100298526Y-85333398D01*
X100314254Y-85306029D01*
X100323039Y-85268192D01*
X100326859Y-85210355D01*
X100327692Y-85122986D01*
X100327281Y-85056319D01*
X100324434Y-84991245D01*
X100317256Y-84949251D01*
X100303889Y-84921063D01*
X100282472Y-84897406D01*
X100269890Y-84886753D01*
X100204699Y-84858057D01*
X100136400Y-84862575D01*
X100077098Y-84900144D01*
X100064333Y-84915040D01*
X100048764Y-84943089D01*
X100039762Y-84982258D01*
X100035617Y-85041858D01*
X100034615Y-85131200D01*
X99899064Y-85131200D01*
X99898167Y-85026320D01*
X99897919Y-84880289D01*
X99897846Y-84426963D01*
X99961346Y-84453564D01*
X99978136Y-84460845D01*
X100004859Y-84477287D01*
X100020156Y-84502187D01*
X100028563Y-84545732D01*
X100034615Y-84618106D01*
X100040144Y-84683089D01*
X100047450Y-84725750D01*
X100057918Y-84741670D01*
X100073692Y-84737400D01*
X100113890Y-84722397D01*
X100185728Y-84718678D01*
X100263010Y-84732572D01*
X100329688Y-84762505D01*
X100366371Y-84790211D01*
X100413472Y-84844269D01*
X100443638Y-84913577D01*
X100459678Y-85005765D01*
X100464191Y-85122986D01*
X100464401Y-85128462D01*
G37*
X104410787Y-85053536D02*
X104404574Y-85201643D01*
X104401066Y-85233021D01*
X104374927Y-85344705D01*
X104327694Y-85429642D01*
X104255862Y-85494741D01*
X104251802Y-85497428D01*
X104160487Y-85535634D01*
X104065144Y-85539034D01*
X103973274Y-85509939D01*
X103892379Y-85450660D01*
X103829962Y-85363510D01*
X103828914Y-85361409D01*
X103808173Y-85307289D01*
X103792980Y-85245781D01*
X103784921Y-85188039D01*
X103785582Y-85145215D01*
X103796548Y-85128462D01*
X103806290Y-85129480D01*
X103852877Y-85148009D01*
X103905682Y-85182081D01*
X103950603Y-85221522D01*
X103973535Y-85256155D01*
X103997373Y-85303133D01*
X104046230Y-85345862D01*
X104102963Y-85362923D01*
X104123758Y-85357990D01*
X104164804Y-85333157D01*
X104200557Y-85298685D01*
X104215846Y-85267411D01*
X104215842Y-85267295D01*
X104198495Y-85252933D01*
X104152247Y-85227025D01*
X104084067Y-85193210D01*
X104000923Y-85155129D01*
X104000466Y-85154927D01*
X103910138Y-85114709D01*
X103849592Y-85085733D01*
X103812888Y-85063474D01*
X103794086Y-85043407D01*
X103787246Y-85021009D01*
X103786429Y-84991756D01*
X103792113Y-84936363D01*
X103985000Y-84936363D01*
X104004911Y-84953777D01*
X104054521Y-84979872D01*
X104055976Y-84980610D01*
X104114506Y-85008483D01*
X104166868Y-85030719D01*
X104200086Y-85040126D01*
X104213410Y-85027552D01*
X104215846Y-84984468D01*
X104205724Y-84930847D01*
X104170631Y-84882119D01*
X104119823Y-84856856D01*
X104063181Y-84859406D01*
X104010584Y-84894120D01*
X103989910Y-84918107D01*
X103985000Y-84936363D01*
X103792113Y-84936363D01*
X103793622Y-84921654D01*
X103829184Y-84826412D01*
X103888714Y-84751567D01*
X103965746Y-84699745D01*
X104053815Y-84673573D01*
X104146454Y-84675676D01*
X104237198Y-84708681D01*
X104319579Y-84775215D01*
X104365222Y-84841055D01*
X104398008Y-84935036D01*
X104403339Y-84984468D01*
X104410787Y-85053536D01*
G36*
X104410787Y-85053536D02*
G01*
X104404574Y-85201643D01*
X104401066Y-85233021D01*
X104374927Y-85344705D01*
X104327694Y-85429642D01*
X104255862Y-85494741D01*
X104251802Y-85497428D01*
X104160487Y-85535634D01*
X104065144Y-85539034D01*
X103973274Y-85509939D01*
X103892379Y-85450660D01*
X103829962Y-85363510D01*
X103828914Y-85361409D01*
X103808173Y-85307289D01*
X103792980Y-85245781D01*
X103784921Y-85188039D01*
X103785582Y-85145215D01*
X103796548Y-85128462D01*
X103806290Y-85129480D01*
X103852877Y-85148009D01*
X103905682Y-85182081D01*
X103950603Y-85221522D01*
X103973535Y-85256155D01*
X103997373Y-85303133D01*
X104046230Y-85345862D01*
X104102963Y-85362923D01*
X104123758Y-85357990D01*
X104164804Y-85333157D01*
X104200557Y-85298685D01*
X104215846Y-85267411D01*
X104215842Y-85267295D01*
X104198495Y-85252933D01*
X104152247Y-85227025D01*
X104084067Y-85193210D01*
X104000923Y-85155129D01*
X104000466Y-85154927D01*
X103910138Y-85114709D01*
X103849592Y-85085733D01*
X103812888Y-85063474D01*
X103794086Y-85043407D01*
X103787246Y-85021009D01*
X103786429Y-84991756D01*
X103792113Y-84936363D01*
X103985000Y-84936363D01*
X104004911Y-84953777D01*
X104054521Y-84979872D01*
X104055976Y-84980610D01*
X104114506Y-85008483D01*
X104166868Y-85030719D01*
X104200086Y-85040126D01*
X104213410Y-85027552D01*
X104215846Y-84984468D01*
X104205724Y-84930847D01*
X104170631Y-84882119D01*
X104119823Y-84856856D01*
X104063181Y-84859406D01*
X104010584Y-84894120D01*
X103989910Y-84918107D01*
X103985000Y-84936363D01*
X103792113Y-84936363D01*
X103793622Y-84921654D01*
X103829184Y-84826412D01*
X103888714Y-84751567D01*
X103965746Y-84699745D01*
X104053815Y-84673573D01*
X104146454Y-84675676D01*
X104237198Y-84708681D01*
X104319579Y-84775215D01*
X104365222Y-84841055D01*
X104398008Y-84935036D01*
X104403339Y-84984468D01*
X104410787Y-85053536D01*
G37*
X101620458Y-84739228D02*
X101687622Y-84778389D01*
X101717169Y-84808902D01*
X101773948Y-84900110D01*
X101793077Y-84999548D01*
X101793077Y-85067960D01*
X101730191Y-85041518D01*
X101686700Y-85014837D01*
X101652426Y-84959446D01*
X101648907Y-84948024D01*
X101611028Y-84889838D01*
X101553936Y-84858407D01*
X101488383Y-84857058D01*
X101425117Y-84889116D01*
X101415672Y-84897383D01*
X101384087Y-84933311D01*
X101378871Y-84964635D01*
X101402765Y-84995391D01*
X101458510Y-85029617D01*
X101548846Y-85071350D01*
X101554956Y-85073993D01*
X101655241Y-85120755D01*
X101723735Y-85162181D01*
X101765899Y-85203542D01*
X101787193Y-85250111D01*
X101793077Y-85307160D01*
X101785366Y-85370408D01*
X101746430Y-85451364D01*
X101677932Y-85509522D01*
X101628388Y-85526983D01*
X101558469Y-85536537D01*
X101490575Y-85534496D01*
X101442093Y-85520082D01*
X101436943Y-85516493D01*
X101423267Y-85491416D01*
X101432757Y-85447218D01*
X101449246Y-85412527D01*
X101475687Y-85398084D01*
X101525834Y-85398803D01*
X101595453Y-85394660D01*
X101640943Y-85366054D01*
X101656308Y-85313104D01*
X101656294Y-85311582D01*
X101646983Y-85280845D01*
X101615311Y-85252643D01*
X101553731Y-85220136D01*
X101469986Y-85180998D01*
X101414518Y-85159706D01*
X101382497Y-85161079D01*
X101367534Y-85189203D01*
X101363242Y-85248170D01*
X101363231Y-85342068D01*
X101362752Y-85400031D01*
X101360556Y-85471612D01*
X101356986Y-85520606D01*
X101352491Y-85538769D01*
X101351290Y-85538646D01*
X101325319Y-85528802D01*
X101282305Y-85508028D01*
X101222859Y-85477287D01*
X101229923Y-85200298D01*
X101230414Y-85181928D01*
X101236025Y-85052992D01*
X101245938Y-84955814D01*
X101262175Y-84883925D01*
X101286759Y-84830852D01*
X101321715Y-84790127D01*
X101369064Y-84755279D01*
X101369940Y-84754733D01*
X101446499Y-84726303D01*
X101535044Y-84721500D01*
X101620458Y-84739228D01*
G36*
X101620458Y-84739228D02*
G01*
X101687622Y-84778389D01*
X101717169Y-84808902D01*
X101773948Y-84900110D01*
X101793077Y-84999548D01*
X101793077Y-85067960D01*
X101730191Y-85041518D01*
X101686700Y-85014837D01*
X101652426Y-84959446D01*
X101648907Y-84948024D01*
X101611028Y-84889838D01*
X101553936Y-84858407D01*
X101488383Y-84857058D01*
X101425117Y-84889116D01*
X101415672Y-84897383D01*
X101384087Y-84933311D01*
X101378871Y-84964635D01*
X101402765Y-84995391D01*
X101458510Y-85029617D01*
X101548846Y-85071350D01*
X101554956Y-85073993D01*
X101655241Y-85120755D01*
X101723735Y-85162181D01*
X101765899Y-85203542D01*
X101787193Y-85250111D01*
X101793077Y-85307160D01*
X101785366Y-85370408D01*
X101746430Y-85451364D01*
X101677932Y-85509522D01*
X101628388Y-85526983D01*
X101558469Y-85536537D01*
X101490575Y-85534496D01*
X101442093Y-85520082D01*
X101436943Y-85516493D01*
X101423267Y-85491416D01*
X101432757Y-85447218D01*
X101449246Y-85412527D01*
X101475687Y-85398084D01*
X101525834Y-85398803D01*
X101595453Y-85394660D01*
X101640943Y-85366054D01*
X101656308Y-85313104D01*
X101656294Y-85311582D01*
X101646983Y-85280845D01*
X101615311Y-85252643D01*
X101553731Y-85220136D01*
X101469986Y-85180998D01*
X101414518Y-85159706D01*
X101382497Y-85161079D01*
X101367534Y-85189203D01*
X101363242Y-85248170D01*
X101363231Y-85342068D01*
X101362752Y-85400031D01*
X101360556Y-85471612D01*
X101356986Y-85520606D01*
X101352491Y-85538769D01*
X101351290Y-85538646D01*
X101325319Y-85528802D01*
X101282305Y-85508028D01*
X101222859Y-85477287D01*
X101229923Y-85200298D01*
X101230414Y-85181928D01*
X101236025Y-85052992D01*
X101245938Y-84955814D01*
X101262175Y-84883925D01*
X101286759Y-84830852D01*
X101321715Y-84790127D01*
X101369064Y-84755279D01*
X101369940Y-84754733D01*
X101446499Y-84726303D01*
X101535044Y-84721500D01*
X101620458Y-84739228D01*
G37*
X105147828Y-85198205D02*
X105149763Y-85348269D01*
X105150300Y-85391802D01*
X105152019Y-85537344D01*
X105152365Y-85648711D01*
X105150277Y-85729804D01*
X105144698Y-85784522D01*
X105134567Y-85816761D01*
X105118826Y-85830422D01*
X105096417Y-85829403D01*
X105066280Y-85817603D01*
X105027355Y-85798920D01*
X105019038Y-85794933D01*
X104984402Y-85775419D01*
X104966314Y-85752202D01*
X104959392Y-85713492D01*
X104958256Y-85647497D01*
X104958205Y-85529000D01*
X104836141Y-85529000D01*
X104761055Y-85525712D01*
X104702015Y-85512377D01*
X104652986Y-85485423D01*
X104649330Y-85482788D01*
X104599581Y-85438286D01*
X104564959Y-85384523D01*
X104543123Y-85314154D01*
X104531737Y-85219830D01*
X104528959Y-85113271D01*
X104723846Y-85113271D01*
X104723880Y-85131131D01*
X104725735Y-85211748D01*
X104731693Y-85264447D01*
X104743506Y-85298668D01*
X104762923Y-85323846D01*
X104764133Y-85325049D01*
X104811858Y-85357628D01*
X104858110Y-85354417D01*
X104910350Y-85314965D01*
X104923128Y-85301482D01*
X104941949Y-85273837D01*
X104952562Y-85237880D01*
X104957252Y-85183364D01*
X104958308Y-85100042D01*
X104957394Y-85049598D01*
X104947477Y-84957857D01*
X104924842Y-84897752D01*
X104887238Y-84864900D01*
X104832416Y-84854923D01*
X104809317Y-84857050D01*
X104769350Y-84878147D01*
X104742926Y-84925161D01*
X104728330Y-85002175D01*
X104723846Y-85113271D01*
X104528959Y-85113271D01*
X104528462Y-85094206D01*
X104529187Y-85002536D01*
X104532490Y-84933098D01*
X104539828Y-84884945D01*
X104552655Y-84848866D01*
X104572423Y-84815648D01*
X104590569Y-84790261D01*
X104656461Y-84721727D01*
X104731114Y-84684505D01*
X104824904Y-84672722D01*
X104932240Y-84684467D01*
X105025031Y-84726595D01*
X105098421Y-84800898D01*
X105103954Y-84808764D01*
X105116857Y-84829668D01*
X105126742Y-84853555D01*
X105134093Y-84885582D01*
X105139394Y-84930905D01*
X105143127Y-84994679D01*
X105145778Y-85082060D01*
X105146096Y-85100042D01*
X105147828Y-85198205D01*
G36*
X105147828Y-85198205D02*
G01*
X105149763Y-85348269D01*
X105150300Y-85391802D01*
X105152019Y-85537344D01*
X105152365Y-85648711D01*
X105150277Y-85729804D01*
X105144698Y-85784522D01*
X105134567Y-85816761D01*
X105118826Y-85830422D01*
X105096417Y-85829403D01*
X105066280Y-85817603D01*
X105027355Y-85798920D01*
X105019038Y-85794933D01*
X104984402Y-85775419D01*
X104966314Y-85752202D01*
X104959392Y-85713492D01*
X104958256Y-85647497D01*
X104958205Y-85529000D01*
X104836141Y-85529000D01*
X104761055Y-85525712D01*
X104702015Y-85512377D01*
X104652986Y-85485423D01*
X104649330Y-85482788D01*
X104599581Y-85438286D01*
X104564959Y-85384523D01*
X104543123Y-85314154D01*
X104531737Y-85219830D01*
X104528959Y-85113271D01*
X104723846Y-85113271D01*
X104723880Y-85131131D01*
X104725735Y-85211748D01*
X104731693Y-85264447D01*
X104743506Y-85298668D01*
X104762923Y-85323846D01*
X104764133Y-85325049D01*
X104811858Y-85357628D01*
X104858110Y-85354417D01*
X104910350Y-85314965D01*
X104923128Y-85301482D01*
X104941949Y-85273837D01*
X104952562Y-85237880D01*
X104957252Y-85183364D01*
X104958308Y-85100042D01*
X104957394Y-85049598D01*
X104947477Y-84957857D01*
X104924842Y-84897752D01*
X104887238Y-84864900D01*
X104832416Y-84854923D01*
X104809317Y-84857050D01*
X104769350Y-84878147D01*
X104742926Y-84925161D01*
X104728330Y-85002175D01*
X104723846Y-85113271D01*
X104528959Y-85113271D01*
X104528462Y-85094206D01*
X104529187Y-85002536D01*
X104532490Y-84933098D01*
X104539828Y-84884945D01*
X104552655Y-84848866D01*
X104572423Y-84815648D01*
X104590569Y-84790261D01*
X104656461Y-84721727D01*
X104731114Y-84684505D01*
X104824904Y-84672722D01*
X104932240Y-84684467D01*
X105025031Y-84726595D01*
X105098421Y-84800898D01*
X105103954Y-84808764D01*
X105116857Y-84829668D01*
X105126742Y-84853555D01*
X105134093Y-84885582D01*
X105139394Y-84930905D01*
X105143127Y-84994679D01*
X105145778Y-85082060D01*
X105146096Y-85100042D01*
X105147828Y-85198205D01*
G37*
X98763936Y-84719911D02*
X98805807Y-84730547D01*
X98844791Y-84757062D01*
X98894965Y-84806420D01*
X98927232Y-84841279D01*
X98960844Y-84886534D01*
X98976003Y-84928951D01*
X98979539Y-84982768D01*
X98979539Y-85070850D01*
X98919470Y-85039787D01*
X98871867Y-85001936D01*
X98839261Y-84950950D01*
X98833661Y-84937088D01*
X98790992Y-84883358D01*
X98731707Y-84856417D01*
X98667061Y-84859039D01*
X98608308Y-84894000D01*
X98583450Y-84922394D01*
X98568970Y-84958718D01*
X98584470Y-84991046D01*
X98632667Y-85023565D01*
X98716274Y-85060461D01*
X98728962Y-85065557D01*
X98805078Y-85098907D01*
X98870396Y-85131793D01*
X98911953Y-85157769D01*
X98953576Y-85204167D01*
X98981247Y-85278211D01*
X98978310Y-85357670D01*
X98945571Y-85432868D01*
X98883841Y-85494131D01*
X98833858Y-85520210D01*
X98737303Y-85538470D01*
X98683647Y-85536007D01*
X98633976Y-85522687D01*
X98614919Y-85494739D01*
X98622045Y-85448710D01*
X98624118Y-85442624D01*
X98640556Y-85410349D01*
X98667926Y-85398133D01*
X98720068Y-85398950D01*
X98756884Y-85400061D01*
X98799961Y-85390528D01*
X98829475Y-85362026D01*
X98846286Y-85326935D01*
X98848161Y-85290175D01*
X98848074Y-85289961D01*
X98826279Y-85270098D01*
X98779632Y-85241192D01*
X98719278Y-85208886D01*
X98656360Y-85178823D01*
X98602023Y-85156646D01*
X98567410Y-85148000D01*
X98562260Y-85156467D01*
X98555778Y-85196309D01*
X98551339Y-85261371D01*
X98549692Y-85343385D01*
X98549309Y-85400153D01*
X98547505Y-85471648D01*
X98544558Y-85520610D01*
X98540843Y-85538769D01*
X98521424Y-85532667D01*
X98482227Y-85516095D01*
X98432462Y-85493420D01*
X98432462Y-85202509D01*
X98432780Y-85127940D01*
X98435789Y-85014701D01*
X98443454Y-84930692D01*
X98457562Y-84869520D01*
X98479899Y-84824795D01*
X98512253Y-84790124D01*
X98556410Y-84759117D01*
X98612667Y-84733528D01*
X98716540Y-84718154D01*
X98763936Y-84719911D01*
G36*
X98763936Y-84719911D02*
G01*
X98805807Y-84730547D01*
X98844791Y-84757062D01*
X98894965Y-84806420D01*
X98927232Y-84841279D01*
X98960844Y-84886534D01*
X98976003Y-84928951D01*
X98979539Y-84982768D01*
X98979539Y-85070850D01*
X98919470Y-85039787D01*
X98871867Y-85001936D01*
X98839261Y-84950950D01*
X98833661Y-84937088D01*
X98790992Y-84883358D01*
X98731707Y-84856417D01*
X98667061Y-84859039D01*
X98608308Y-84894000D01*
X98583450Y-84922394D01*
X98568970Y-84958718D01*
X98584470Y-84991046D01*
X98632667Y-85023565D01*
X98716274Y-85060461D01*
X98728962Y-85065557D01*
X98805078Y-85098907D01*
X98870396Y-85131793D01*
X98911953Y-85157769D01*
X98953576Y-85204167D01*
X98981247Y-85278211D01*
X98978310Y-85357670D01*
X98945571Y-85432868D01*
X98883841Y-85494131D01*
X98833858Y-85520210D01*
X98737303Y-85538470D01*
X98683647Y-85536007D01*
X98633976Y-85522687D01*
X98614919Y-85494739D01*
X98622045Y-85448710D01*
X98624118Y-85442624D01*
X98640556Y-85410349D01*
X98667926Y-85398133D01*
X98720068Y-85398950D01*
X98756884Y-85400061D01*
X98799961Y-85390528D01*
X98829475Y-85362026D01*
X98846286Y-85326935D01*
X98848161Y-85290175D01*
X98848074Y-85289961D01*
X98826279Y-85270098D01*
X98779632Y-85241192D01*
X98719278Y-85208886D01*
X98656360Y-85178823D01*
X98602023Y-85156646D01*
X98567410Y-85148000D01*
X98562260Y-85156467D01*
X98555778Y-85196309D01*
X98551339Y-85261371D01*
X98549692Y-85343385D01*
X98549309Y-85400153D01*
X98547505Y-85471648D01*
X98544558Y-85520610D01*
X98540843Y-85538769D01*
X98521424Y-85532667D01*
X98482227Y-85516095D01*
X98432462Y-85493420D01*
X98432462Y-85202509D01*
X98432780Y-85127940D01*
X98435789Y-85014701D01*
X98443454Y-84930692D01*
X98457562Y-84869520D01*
X98479899Y-84824795D01*
X98512253Y-84790124D01*
X98556410Y-84759117D01*
X98612667Y-84733528D01*
X98716540Y-84718154D01*
X98763936Y-84719911D01*
G37*
X101517575Y-78387693D02*
X101653371Y-78387807D01*
X101755576Y-78388472D01*
X101829122Y-78390182D01*
X101878942Y-78393429D01*
X101909967Y-78398706D01*
X101927129Y-78406507D01*
X101935361Y-78417325D01*
X101939594Y-78431654D01*
X101939716Y-78432168D01*
X101946672Y-78465851D01*
X101959320Y-78530917D01*
X101976360Y-78620542D01*
X101996496Y-78727904D01*
X102018429Y-78846178D01*
X102020218Y-78855856D01*
X102042083Y-78970650D01*
X102062430Y-79071480D01*
X102079934Y-79152217D01*
X102093271Y-79206734D01*
X102101116Y-79228901D01*
X102101158Y-79228936D01*
X102125884Y-79241200D01*
X102176631Y-79261576D01*
X102242462Y-79285674D01*
X102246169Y-79286983D01*
X102330331Y-79318791D01*
X102428230Y-79358685D01*
X102519435Y-79398353D01*
X102669407Y-79466420D01*
X103001499Y-79239639D01*
X103024889Y-79223688D01*
X103125080Y-79155890D01*
X103214480Y-79096208D01*
X103287745Y-79048156D01*
X103339527Y-79015250D01*
X103364480Y-79001004D01*
X103381577Y-79004270D01*
X103420395Y-79029571D01*
X103480385Y-79079675D01*
X103563210Y-79155989D01*
X103670535Y-79259922D01*
X103680139Y-79269382D01*
X103765302Y-79354145D01*
X103840949Y-79430937D01*
X103902449Y-79494947D01*
X103945173Y-79541361D01*
X103964489Y-79565369D01*
X103964552Y-79565485D01*
X103967006Y-79583763D01*
X103957956Y-79613411D01*
X103935119Y-79658486D01*
X103896213Y-79723044D01*
X103838954Y-79811140D01*
X103761059Y-79926830D01*
X103747785Y-79946357D01*
X103680652Y-80045278D01*
X103621410Y-80132848D01*
X103573588Y-80203831D01*
X103540715Y-80252991D01*
X103526318Y-80275095D01*
X103525232Y-80279777D01*
X103532044Y-80314710D01*
X103552450Y-80371753D01*
X103583123Y-80441172D01*
X103624808Y-80531959D01*
X103671352Y-80639686D01*
X103710877Y-80737192D01*
X103720676Y-80762430D01*
X103746340Y-80826870D01*
X103765193Y-80871763D01*
X103773710Y-80888616D01*
X103783111Y-80889875D01*
X103825363Y-80897159D01*
X103894521Y-80909739D01*
X103983387Y-80926246D01*
X104084768Y-80945312D01*
X104191467Y-80965569D01*
X104296288Y-80985647D01*
X104392036Y-81004179D01*
X104471516Y-81019795D01*
X104527530Y-81031127D01*
X104552885Y-81036807D01*
X104557088Y-81038408D01*
X104567334Y-81047045D01*
X104574957Y-81065433D01*
X104580338Y-81098460D01*
X104583859Y-81151013D01*
X104585901Y-81227979D01*
X104586847Y-81334246D01*
X104587077Y-81474701D01*
X104587077Y-81901845D01*
X104484500Y-81922091D01*
X104472092Y-81924518D01*
X104406199Y-81937088D01*
X104315084Y-81954170D01*
X104209104Y-81973829D01*
X104098615Y-81994132D01*
X104055105Y-82002299D01*
X103957882Y-82022167D01*
X103876858Y-82040954D01*
X103819477Y-82056859D01*
X103793187Y-82068079D01*
X103781273Y-82086411D01*
X103759583Y-82134916D01*
X103737395Y-82197692D01*
X103729585Y-82221200D01*
X103700835Y-82298366D01*
X103663752Y-82389694D01*
X103624375Y-82480093D01*
X103603315Y-82527310D01*
X103573311Y-82597837D01*
X103552692Y-82650655D01*
X103545026Y-82676912D01*
X103545452Y-82678894D01*
X103559993Y-82706751D01*
X103592783Y-82760510D01*
X103640493Y-82834963D01*
X103699798Y-82924897D01*
X103767369Y-83025104D01*
X103989713Y-83351416D01*
X103697601Y-83644016D01*
X103669349Y-83672171D01*
X103582961Y-83756449D01*
X103505756Y-83829128D01*
X103442258Y-83886112D01*
X103396990Y-83923307D01*
X103374474Y-83936616D01*
X103350023Y-83926490D01*
X103298819Y-83897421D01*
X103226747Y-83852896D01*
X103139460Y-83796411D01*
X103042612Y-83731462D01*
X102947486Y-83667314D01*
X102861669Y-83610827D01*
X102791652Y-83566184D01*
X102742876Y-83536855D01*
X102720783Y-83526308D01*
X102719488Y-83526404D01*
X102690139Y-83536802D01*
X102638093Y-83561012D01*
X102573708Y-83594249D01*
X102573032Y-83594613D01*
X102487521Y-83637441D01*
X102428926Y-83658365D01*
X102392571Y-83658423D01*
X102373775Y-83638654D01*
X102365819Y-83619195D01*
X102344347Y-83567080D01*
X102311273Y-83486964D01*
X102268356Y-83383107D01*
X102217356Y-83259767D01*
X102160033Y-83121201D01*
X102098146Y-82971670D01*
X102042052Y-82835636D01*
X101984977Y-82696050D01*
X101934479Y-82571315D01*
X101892254Y-82465672D01*
X101859995Y-82383365D01*
X101839397Y-82328635D01*
X101832154Y-82305726D01*
X101845986Y-82284718D01*
X101884412Y-82249642D01*
X101938807Y-82208887D01*
X102069395Y-82102267D01*
X102186260Y-81966025D01*
X102271780Y-81816118D01*
X102325431Y-81656971D01*
X102346684Y-81493012D01*
X102335014Y-81328667D01*
X102289894Y-81168361D01*
X102210797Y-81016520D01*
X102097197Y-80877572D01*
X102037965Y-80823460D01*
X101896054Y-80727782D01*
X101744206Y-80665405D01*
X101586861Y-80634844D01*
X101428456Y-80634615D01*
X101273429Y-80663232D01*
X101126220Y-80719210D01*
X100991266Y-80801064D01*
X100873005Y-80907309D01*
X100775877Y-81036459D01*
X100704318Y-81187031D01*
X100662769Y-81357539D01*
X100655143Y-81439722D01*
X100665634Y-81617775D01*
X100712882Y-81786704D01*
X100795489Y-81943522D01*
X100912059Y-82085245D01*
X101061193Y-82208887D01*
X101113561Y-82247982D01*
X101152832Y-82283443D01*
X101167846Y-82305692D01*
X101161859Y-82325088D01*
X101142432Y-82377059D01*
X101111194Y-82457002D01*
X101069839Y-82560673D01*
X101020061Y-82683832D01*
X100963553Y-82822234D01*
X100902009Y-82971637D01*
X100846008Y-83107020D01*
X100788184Y-83246852D01*
X100736500Y-83371872D01*
X100692718Y-83477822D01*
X100658597Y-83560441D01*
X100635898Y-83615472D01*
X100626380Y-83638654D01*
X100626269Y-83638928D01*
X100607228Y-83658503D01*
X100570694Y-83658279D01*
X100511954Y-83637210D01*
X100426292Y-83594249D01*
X100419549Y-83590631D01*
X100355938Y-83558087D01*
X100305707Y-83535050D01*
X100279218Y-83526308D01*
X100257506Y-83536639D01*
X100208984Y-83565788D01*
X100139163Y-83610287D01*
X100053484Y-83666668D01*
X99957388Y-83731462D01*
X99862706Y-83794984D01*
X99775132Y-83851705D01*
X99702642Y-83896547D01*
X99650889Y-83926016D01*
X99625526Y-83936616D01*
X99621206Y-83935270D01*
X99591092Y-83914056D01*
X99539640Y-83870237D01*
X99471375Y-83807909D01*
X99390820Y-83731170D01*
X99302500Y-83644116D01*
X99010488Y-83351617D01*
X99465360Y-82682525D01*
X99396208Y-82532916D01*
X99396003Y-82532473D01*
X99354477Y-82437101D01*
X99312044Y-82330896D01*
X99277858Y-82236769D01*
X99272684Y-82221588D01*
X99246601Y-82151109D01*
X99223081Y-82096342D01*
X99206677Y-82068079D01*
X99199996Y-82064088D01*
X99159892Y-82050697D01*
X99091795Y-82033373D01*
X99003145Y-82013917D01*
X98901385Y-81994132D01*
X98870904Y-81988551D01*
X98760628Y-81968233D01*
X98657731Y-81949095D01*
X98572569Y-81933070D01*
X98515500Y-81922091D01*
X98412923Y-81901845D01*
X98412923Y-81474701D01*
X98412946Y-81422180D01*
X98413379Y-81294047D01*
X98414659Y-81198420D01*
X98417168Y-81130411D01*
X98421286Y-81085133D01*
X98427395Y-81057697D01*
X98435878Y-81043218D01*
X98447115Y-81036807D01*
X98457994Y-81034209D01*
X98502347Y-81025022D01*
X98573106Y-81010991D01*
X98663074Y-80993486D01*
X98765056Y-80973874D01*
X98871857Y-80953525D01*
X98976281Y-80933807D01*
X99071132Y-80916089D01*
X99149214Y-80901738D01*
X99203332Y-80892124D01*
X99226291Y-80888616D01*
X99227842Y-80886497D01*
X99240325Y-80859006D01*
X99261927Y-80806406D01*
X99289123Y-80737192D01*
X99326866Y-80643937D01*
X99373328Y-80536159D01*
X99416878Y-80441172D01*
X99426858Y-80419851D01*
X99454862Y-80353086D01*
X99471641Y-80301590D01*
X99473854Y-80275095D01*
X99472713Y-80273218D01*
X99454584Y-80245565D01*
X99418644Y-80191849D01*
X99368418Y-80117303D01*
X99307430Y-80027162D01*
X99239205Y-79926657D01*
X99162330Y-79812470D01*
X99104663Y-79723770D01*
X99065426Y-79658721D01*
X99042350Y-79613295D01*
X99033166Y-79583463D01*
X99035604Y-79565195D01*
X99036424Y-79563825D01*
X99058477Y-79537205D01*
X99103436Y-79488697D01*
X99166673Y-79423108D01*
X99243559Y-79345247D01*
X99329465Y-79259922D01*
X99418579Y-79173334D01*
X99505872Y-79091947D01*
X99570018Y-79037035D01*
X99612679Y-79007190D01*
X99635521Y-79001004D01*
X99638505Y-79002394D01*
X99669936Y-79021127D01*
X99726997Y-79057733D01*
X99804343Y-79108697D01*
X99896626Y-79170504D01*
X99998502Y-79239639D01*
X100330593Y-79466420D01*
X100480566Y-79398353D01*
X100484923Y-79396381D01*
X100577000Y-79356491D01*
X100674683Y-79316818D01*
X100757539Y-79285674D01*
X100757905Y-79285545D01*
X100823685Y-79261456D01*
X100874323Y-79241110D01*
X100898884Y-79228901D01*
X100899282Y-79228458D01*
X100907619Y-79203456D01*
X100921341Y-79146598D01*
X100939123Y-79064014D01*
X100959641Y-78961831D01*
X100981571Y-78846178D01*
X100982336Y-78842033D01*
X101004229Y-78724019D01*
X101024281Y-78617151D01*
X101041192Y-78528252D01*
X101053667Y-78464145D01*
X101060406Y-78431654D01*
X101060837Y-78429853D01*
X101065273Y-78415944D01*
X101074263Y-78405489D01*
X101092737Y-78397996D01*
X101125628Y-78392972D01*
X101177868Y-78389922D01*
X101254388Y-78388355D01*
X101360122Y-78387776D01*
X101500000Y-78387692D01*
X101517575Y-78387693D01*
G36*
X101517575Y-78387693D02*
G01*
X101653371Y-78387807D01*
X101755576Y-78388472D01*
X101829122Y-78390182D01*
X101878942Y-78393429D01*
X101909967Y-78398706D01*
X101927129Y-78406507D01*
X101935361Y-78417325D01*
X101939594Y-78431654D01*
X101939716Y-78432168D01*
X101946672Y-78465851D01*
X101959320Y-78530917D01*
X101976360Y-78620542D01*
X101996496Y-78727904D01*
X102018429Y-78846178D01*
X102020218Y-78855856D01*
X102042083Y-78970650D01*
X102062430Y-79071480D01*
X102079934Y-79152217D01*
X102093271Y-79206734D01*
X102101116Y-79228901D01*
X102101158Y-79228936D01*
X102125884Y-79241200D01*
X102176631Y-79261576D01*
X102242462Y-79285674D01*
X102246169Y-79286983D01*
X102330331Y-79318791D01*
X102428230Y-79358685D01*
X102519435Y-79398353D01*
X102669407Y-79466420D01*
X103001499Y-79239639D01*
X103024889Y-79223688D01*
X103125080Y-79155890D01*
X103214480Y-79096208D01*
X103287745Y-79048156D01*
X103339527Y-79015250D01*
X103364480Y-79001004D01*
X103381577Y-79004270D01*
X103420395Y-79029571D01*
X103480385Y-79079675D01*
X103563210Y-79155989D01*
X103670535Y-79259922D01*
X103680139Y-79269382D01*
X103765302Y-79354145D01*
X103840949Y-79430937D01*
X103902449Y-79494947D01*
X103945173Y-79541361D01*
X103964489Y-79565369D01*
X103964552Y-79565485D01*
X103967006Y-79583763D01*
X103957956Y-79613411D01*
X103935119Y-79658486D01*
X103896213Y-79723044D01*
X103838954Y-79811140D01*
X103761059Y-79926830D01*
X103747785Y-79946357D01*
X103680652Y-80045278D01*
X103621410Y-80132848D01*
X103573588Y-80203831D01*
X103540715Y-80252991D01*
X103526318Y-80275095D01*
X103525232Y-80279777D01*
X103532044Y-80314710D01*
X103552450Y-80371753D01*
X103583123Y-80441172D01*
X103624808Y-80531959D01*
X103671352Y-80639686D01*
X103710877Y-80737192D01*
X103720676Y-80762430D01*
X103746340Y-80826870D01*
X103765193Y-80871763D01*
X103773710Y-80888616D01*
X103783111Y-80889875D01*
X103825363Y-80897159D01*
X103894521Y-80909739D01*
X103983387Y-80926246D01*
X104084768Y-80945312D01*
X104191467Y-80965569D01*
X104296288Y-80985647D01*
X104392036Y-81004179D01*
X104471516Y-81019795D01*
X104527530Y-81031127D01*
X104552885Y-81036807D01*
X104557088Y-81038408D01*
X104567334Y-81047045D01*
X104574957Y-81065433D01*
X104580338Y-81098460D01*
X104583859Y-81151013D01*
X104585901Y-81227979D01*
X104586847Y-81334246D01*
X104587077Y-81474701D01*
X104587077Y-81901845D01*
X104484500Y-81922091D01*
X104472092Y-81924518D01*
X104406199Y-81937088D01*
X104315084Y-81954170D01*
X104209104Y-81973829D01*
X104098615Y-81994132D01*
X104055105Y-82002299D01*
X103957882Y-82022167D01*
X103876858Y-82040954D01*
X103819477Y-82056859D01*
X103793187Y-82068079D01*
X103781273Y-82086411D01*
X103759583Y-82134916D01*
X103737395Y-82197692D01*
X103729585Y-82221200D01*
X103700835Y-82298366D01*
X103663752Y-82389694D01*
X103624375Y-82480093D01*
X103603315Y-82527310D01*
X103573311Y-82597837D01*
X103552692Y-82650655D01*
X103545026Y-82676912D01*
X103545452Y-82678894D01*
X103559993Y-82706751D01*
X103592783Y-82760510D01*
X103640493Y-82834963D01*
X103699798Y-82924897D01*
X103767369Y-83025104D01*
X103989713Y-83351416D01*
X103697601Y-83644016D01*
X103669349Y-83672171D01*
X103582961Y-83756449D01*
X103505756Y-83829128D01*
X103442258Y-83886112D01*
X103396990Y-83923307D01*
X103374474Y-83936616D01*
X103350023Y-83926490D01*
X103298819Y-83897421D01*
X103226747Y-83852896D01*
X103139460Y-83796411D01*
X103042612Y-83731462D01*
X102947486Y-83667314D01*
X102861669Y-83610827D01*
X102791652Y-83566184D01*
X102742876Y-83536855D01*
X102720783Y-83526308D01*
X102719488Y-83526404D01*
X102690139Y-83536802D01*
X102638093Y-83561012D01*
X102573708Y-83594249D01*
X102573032Y-83594613D01*
X102487521Y-83637441D01*
X102428926Y-83658365D01*
X102392571Y-83658423D01*
X102373775Y-83638654D01*
X102365819Y-83619195D01*
X102344347Y-83567080D01*
X102311273Y-83486964D01*
X102268356Y-83383107D01*
X102217356Y-83259767D01*
X102160033Y-83121201D01*
X102098146Y-82971670D01*
X102042052Y-82835636D01*
X101984977Y-82696050D01*
X101934479Y-82571315D01*
X101892254Y-82465672D01*
X101859995Y-82383365D01*
X101839397Y-82328635D01*
X101832154Y-82305726D01*
X101845986Y-82284718D01*
X101884412Y-82249642D01*
X101938807Y-82208887D01*
X102069395Y-82102267D01*
X102186260Y-81966025D01*
X102271780Y-81816118D01*
X102325431Y-81656971D01*
X102346684Y-81493012D01*
X102335014Y-81328667D01*
X102289894Y-81168361D01*
X102210797Y-81016520D01*
X102097197Y-80877572D01*
X102037965Y-80823460D01*
X101896054Y-80727782D01*
X101744206Y-80665405D01*
X101586861Y-80634844D01*
X101428456Y-80634615D01*
X101273429Y-80663232D01*
X101126220Y-80719210D01*
X100991266Y-80801064D01*
X100873005Y-80907309D01*
X100775877Y-81036459D01*
X100704318Y-81187031D01*
X100662769Y-81357539D01*
X100655143Y-81439722D01*
X100665634Y-81617775D01*
X100712882Y-81786704D01*
X100795489Y-81943522D01*
X100912059Y-82085245D01*
X101061193Y-82208887D01*
X101113561Y-82247982D01*
X101152832Y-82283443D01*
X101167846Y-82305692D01*
X101161859Y-82325088D01*
X101142432Y-82377059D01*
X101111194Y-82457002D01*
X101069839Y-82560673D01*
X101020061Y-82683832D01*
X100963553Y-82822234D01*
X100902009Y-82971637D01*
X100846008Y-83107020D01*
X100788184Y-83246852D01*
X100736500Y-83371872D01*
X100692718Y-83477822D01*
X100658597Y-83560441D01*
X100635898Y-83615472D01*
X100626380Y-83638654D01*
X100626269Y-83638928D01*
X100607228Y-83658503D01*
X100570694Y-83658279D01*
X100511954Y-83637210D01*
X100426292Y-83594249D01*
X100419549Y-83590631D01*
X100355938Y-83558087D01*
X100305707Y-83535050D01*
X100279218Y-83526308D01*
X100257506Y-83536639D01*
X100208984Y-83565788D01*
X100139163Y-83610287D01*
X100053484Y-83666668D01*
X99957388Y-83731462D01*
X99862706Y-83794984D01*
X99775132Y-83851705D01*
X99702642Y-83896547D01*
X99650889Y-83926016D01*
X99625526Y-83936616D01*
X99621206Y-83935270D01*
X99591092Y-83914056D01*
X99539640Y-83870237D01*
X99471375Y-83807909D01*
X99390820Y-83731170D01*
X99302500Y-83644116D01*
X99010488Y-83351617D01*
X99465360Y-82682525D01*
X99396208Y-82532916D01*
X99396003Y-82532473D01*
X99354477Y-82437101D01*
X99312044Y-82330896D01*
X99277858Y-82236769D01*
X99272684Y-82221588D01*
X99246601Y-82151109D01*
X99223081Y-82096342D01*
X99206677Y-82068079D01*
X99199996Y-82064088D01*
X99159892Y-82050697D01*
X99091795Y-82033373D01*
X99003145Y-82013917D01*
X98901385Y-81994132D01*
X98870904Y-81988551D01*
X98760628Y-81968233D01*
X98657731Y-81949095D01*
X98572569Y-81933070D01*
X98515500Y-81922091D01*
X98412923Y-81901845D01*
X98412923Y-81474701D01*
X98412946Y-81422180D01*
X98413379Y-81294047D01*
X98414659Y-81198420D01*
X98417168Y-81130411D01*
X98421286Y-81085133D01*
X98427395Y-81057697D01*
X98435878Y-81043218D01*
X98447115Y-81036807D01*
X98457994Y-81034209D01*
X98502347Y-81025022D01*
X98573106Y-81010991D01*
X98663074Y-80993486D01*
X98765056Y-80973874D01*
X98871857Y-80953525D01*
X98976281Y-80933807D01*
X99071132Y-80916089D01*
X99149214Y-80901738D01*
X99203332Y-80892124D01*
X99226291Y-80888616D01*
X99227842Y-80886497D01*
X99240325Y-80859006D01*
X99261927Y-80806406D01*
X99289123Y-80737192D01*
X99326866Y-80643937D01*
X99373328Y-80536159D01*
X99416878Y-80441172D01*
X99426858Y-80419851D01*
X99454862Y-80353086D01*
X99471641Y-80301590D01*
X99473854Y-80275095D01*
X99472713Y-80273218D01*
X99454584Y-80245565D01*
X99418644Y-80191849D01*
X99368418Y-80117303D01*
X99307430Y-80027162D01*
X99239205Y-79926657D01*
X99162330Y-79812470D01*
X99104663Y-79723770D01*
X99065426Y-79658721D01*
X99042350Y-79613295D01*
X99033166Y-79583463D01*
X99035604Y-79565195D01*
X99036424Y-79563825D01*
X99058477Y-79537205D01*
X99103436Y-79488697D01*
X99166673Y-79423108D01*
X99243559Y-79345247D01*
X99329465Y-79259922D01*
X99418579Y-79173334D01*
X99505872Y-79091947D01*
X99570018Y-79037035D01*
X99612679Y-79007190D01*
X99635521Y-79001004D01*
X99638505Y-79002394D01*
X99669936Y-79021127D01*
X99726997Y-79057733D01*
X99804343Y-79108697D01*
X99896626Y-79170504D01*
X99998502Y-79239639D01*
X100330593Y-79466420D01*
X100480566Y-79398353D01*
X100484923Y-79396381D01*
X100577000Y-79356491D01*
X100674683Y-79316818D01*
X100757539Y-79285674D01*
X100757905Y-79285545D01*
X100823685Y-79261456D01*
X100874323Y-79241110D01*
X100898884Y-79228901D01*
X100899282Y-79228458D01*
X100907619Y-79203456D01*
X100921341Y-79146598D01*
X100939123Y-79064014D01*
X100959641Y-78961831D01*
X100981571Y-78846178D01*
X100982336Y-78842033D01*
X101004229Y-78724019D01*
X101024281Y-78617151D01*
X101041192Y-78528252D01*
X101053667Y-78464145D01*
X101060406Y-78431654D01*
X101060837Y-78429853D01*
X101065273Y-78415944D01*
X101074263Y-78405489D01*
X101092737Y-78397996D01*
X101125628Y-78392972D01*
X101177868Y-78389922D01*
X101254388Y-78388355D01*
X101360122Y-78387776D01*
X101500000Y-78387692D01*
X101517575Y-78387693D01*
G37*
%TD*%
M02*
