  0
SECTION
  2
HEADER
  9
$ANGBASE
  50
0.0
  9
$ANGDIR
  70
1
  9
$MEASUREMENT
  70
0
  0
ENDSEC
  0
SECTION
  2
TABLES
  0
TABLE
  2
LTYPE
  70
4
  0
LTYPE
  5
40F
  2
CONTINUOUS
  70
0
  3
Solid line
  72
65
  73
0
  40
0.0
  0
LTYPE
  5
410
  2
DASHDOT
 70
0
  3
Dash Dot ____ _ ____ _
 72
65
 73
4
 40
2.0
 49
1.25
 49
-0.25
 49
0.25
 49
-0.25
  0
LTYPE
  5
411
  2
DASHED
 70
0
  3
Dashed __ __ __ __ __
 72
65
 73
2
 40
0.75
 49
0.5
 49
-0.25
  0
LTYPE
  5
43B
  2
DOTTED
 70
0
  3
Dotted .  .  .  .
 72
65
 73
2
 40
0.2
 49
0.0
 49
-0.2
  0
ENDTAB
  0
TABLE
  2
STYLE
  70
4
  0
STYLE
  2
KICAD
  70
0
  40
0
  41
1
  42
1
  50
0
  71
0
  3
isocp.shx
  0
STYLE
  2
KICADB
  70
0
  40
0
  41
1
  42
1
  50
0
  71
0
  3
isocp.shx
  0
STYLE
  2
KICADI
  70
0
  40
0
  41
1
  42
1
  50
15
  71
0
  3
isocp.shx
  0
STYLE
  2
KICADBI
  70
0
  40
0
  41
1
  42
1
  50
15
  71
0
  3
isocp.shx
  0
ENDTAB
  0
TABLE
  2
LAYER
  70
1
  0
LAYER
  2
BLACK
  70
0
  62
7
  6
CONTINUOUS
  0
ENDTAB
  0
ENDSEC
  0
SECTION
  2
ENTITIES
0
LINE
8
BLACK
6
CONTINUOUS
10
4.13351
20
-7.0097
11
4.12382
21
-7.01034
0
LINE
8
BLACK
6
CONTINUOUS
10
4.12382
20
-7.01034
11
4.11395
21
-7.0123
0
LINE
8
BLACK
6
CONTINUOUS
10
4.11395
20
-7.0123
11
4.10442
21
-7.01553
0
LINE
8
BLACK
6
CONTINUOUS
10
4.10442
20
-7.01553
11
4.09539
21
-7.01999
0
LINE
8
BLACK
6
CONTINUOUS
10
4.09539
20
-7.01999
11
4.08702
21
-7.02558
0
LINE
8
BLACK
6
CONTINUOUS
10
4.08702
20
-7.02558
11
4.07946
21
-7.03221
0
LINE
8
BLACK
6
CONTINUOUS
10
4.07946
20
-7.03221
11
4.07282
21
-7.03978
0
LINE
8
BLACK
6
CONTINUOUS
10
4.07282
20
-7.03978
11
4.06723
21
-7.04815
0
LINE
8
BLACK
6
CONTINUOUS
10
4.06723
20
-7.04815
11
4.06278
21
-7.05717
0
LINE
8
BLACK
6
CONTINUOUS
10
4.06278
20
-7.05717
11
4.05954
21
-7.0667
0
LINE
8
BLACK
6
CONTINUOUS
10
4.05954
20
-7.0667
11
4.05758
21
-7.07657
0
LINE
8
BLACK
6
CONTINUOUS
10
4.05758
20
-7.07657
11
4.05694
21
-7.08627
0
LINE
8
BLACK
6
CONTINUOUS
10
4.05694
20
-7.08627
11
4.05709
21
-7.08661
0
LINE
8
BLACK
6
CONTINUOUS
10
4.05709
20
-7.08661
11
4.05709
21
-7.20472
0
LINE
8
BLACK
6
CONTINUOUS
10
4.05709
20
-7.20472
11
4.0564
21
-7.21526
0
LINE
8
BLACK
6
CONTINUOUS
10
4.0564
20
-7.21526
11
4.05434
21
-7.22561
0
LINE
8
BLACK
6
CONTINUOUS
10
4.05434
20
-7.22561
11
4.05094
21
-7.23561
0
LINE
8
BLACK
6
CONTINUOUS
10
4.05094
20
-7.23561
11
4.04627
21
-7.24508
0
LINE
8
BLACK
6
CONTINUOUS
10
4.04627
20
-7.24508
11
4.04041
21
-7.25386
0
LINE
8
BLACK
6
CONTINUOUS
10
4.04041
20
-7.25386
11
4.03345
21
-7.26179
0
LINE
8
BLACK
6
CONTINUOUS
10
4.03345
20
-7.26179
11
4.02551
21
-7.26875
0
LINE
8
BLACK
6
CONTINUOUS
10
4.02551
20
-7.26875
11
4.01673
21
-7.27462
0
LINE
8
BLACK
6
CONTINUOUS
10
4.01673
20
-7.27462
11
4.00726
21
-7.27929
0
LINE
8
BLACK
6
CONTINUOUS
10
4.00726
20
-7.27929
11
3.99727
21
-7.28268
0
LINE
8
BLACK
6
CONTINUOUS
10
3.99727
20
-7.28268
11
3.98691
21
-7.28474
0
LINE
8
BLACK
6
CONTINUOUS
10
3.98691
20
-7.28474
11
3.97638
21
-7.28543
0
LINE
8
BLACK
6
CONTINUOUS
10
3.97638
20
-7.28543
11
1.25984
21
-7.28543
0
LINE
8
BLACK
6
CONTINUOUS
10
1.25984
20
-7.28543
11
1.24931
21
-7.28474
0
LINE
8
BLACK
6
CONTINUOUS
10
1.24931
20
-7.28474
11
1.23895
21
-7.28268
0
LINE
8
BLACK
6
CONTINUOUS
10
1.23895
20
-7.28268
11
1.22896
21
-7.27929
0
LINE
8
BLACK
6
CONTINUOUS
10
1.22896
20
-7.27929
11
1.21949
21
-7.27462
0
LINE
8
BLACK
6
CONTINUOUS
10
1.21949
20
-7.27462
11
1.21071
21
-7.26875
0
LINE
8
BLACK
6
CONTINUOUS
10
1.21071
20
-7.26875
11
1.20277
21
-7.26179
0
LINE
8
BLACK
6
CONTINUOUS
10
1.20277
20
-7.26179
11
1.19581
21
-7.25386
0
LINE
8
BLACK
6
CONTINUOUS
10
1.19581
20
-7.25386
11
1.18995
21
-7.24508
0
LINE
8
BLACK
6
CONTINUOUS
10
1.18995
20
-7.24508
11
1.18528
21
-7.23561
0
LINE
8
BLACK
6
CONTINUOUS
10
1.18528
20
-7.23561
11
1.18188
21
-7.22561
0
LINE
8
BLACK
6
CONTINUOUS
10
1.18188
20
-7.22561
11
1.17982
21
-7.21526
0
LINE
8
BLACK
6
CONTINUOUS
10
1.17982
20
-7.21526
11
1.17913
21
-7.20472
0
LINE
8
BLACK
6
CONTINUOUS
10
1.17913
20
-7.20472
11
1.17913
21
-7.20472
0
LINE
8
BLACK
6
CONTINUOUS
10
1.17913
20
-7.20472
11
1.17913
21
-7.08661
0
LINE
8
BLACK
6
CONTINUOUS
10
1.17913
20
-7.08661
11
1.17928
21
-7.08627
0
LINE
8
BLACK
6
CONTINUOUS
10
1.17928
20
-7.08627
11
1.17864
21
-7.07657
0
LINE
8
BLACK
6
CONTINUOUS
10
1.17864
20
-7.07657
11
1.17668
21
-7.0667
0
LINE
8
BLACK
6
CONTINUOUS
10
1.17668
20
-7.0667
11
1.17344
21
-7.05717
0
LINE
8
BLACK
6
CONTINUOUS
10
1.17344
20
-7.05717
11
1.16899
21
-7.04815
0
LINE
8
BLACK
6
CONTINUOUS
10
1.16899
20
-7.04815
11
1.1634
21
-7.03978
0
LINE
8
BLACK
6
CONTINUOUS
10
1.1634
20
-7.03978
11
1.15676
21
-7.03221
0
LINE
8
BLACK
6
CONTINUOUS
10
1.15676
20
-7.03221
11
1.1492
21
-7.02558
0
LINE
8
BLACK
6
CONTINUOUS
10
1.1492
20
-7.02558
11
1.14083
21
-7.01999
0
LINE
8
BLACK
6
CONTINUOUS
10
1.14083
20
-7.01999
11
1.1318
21
-7.01553
0
LINE
8
BLACK
6
CONTINUOUS
10
1.1318
20
-7.01553
11
1.12227
21
-7.0123
0
LINE
8
BLACK
6
CONTINUOUS
10
1.12227
20
-7.0123
11
1.1124
21
-7.01034
0
LINE
8
BLACK
6
CONTINUOUS
10
1.1124
20
-7.01034
11
1.10271
21
-7.0097
0
LINE
8
BLACK
6
CONTINUOUS
10
1.10271
20
-7.0097
11
1.10236
21
-7.00984
0
LINE
8
BLACK
6
CONTINUOUS
10
1.10236
20
-7.00984
11
1.06299
21
-7.00984
0
LINE
8
BLACK
6
CONTINUOUS
10
1.06299
20
-7.00984
11
1.05246
21
-7.00915
0
LINE
8
BLACK
6
CONTINUOUS
10
1.05246
20
-7.00915
11
1.0421
21
-7.00709
0
LINE
8
BLACK
6
CONTINUOUS
10
1.0421
20
-7.00709
11
1.03211
21
-7.0037
0
LINE
8
BLACK
6
CONTINUOUS
10
1.03211
20
-7.0037
11
1.02264
21
-6.99903
0
LINE
8
BLACK
6
CONTINUOUS
10
1.02264
20
-6.99903
11
1.01386
21
-6.99316
0
LINE
8
BLACK
6
CONTINUOUS
10
1.01386
20
-6.99316
11
1.00592
21
-6.9862
0
LINE
8
BLACK
6
CONTINUOUS
10
1.00592
20
-6.9862
11
0.998962
21
-6.97827
0
LINE
8
BLACK
6
CONTINUOUS
10
0.998962
20
-6.97827
11
0.993096
21
-6.96949
0
LINE
8
BLACK
6
CONTINUOUS
10
0.993096
20
-6.96949
11
0.988427
21
-6.96002
0
LINE
8
BLACK
6
CONTINUOUS
10
0.988427
20
-6.96002
11
0.985034
21
-6.95002
0
LINE
8
BLACK
6
CONTINUOUS
10
0.985034
20
-6.95002
11
0.982974
21
-6.93967
0
LINE
8
BLACK
6
CONTINUOUS
10
0.982974
20
-6.93967
11
0.982283
21
-6.92913
0
LINE
8
BLACK
6
CONTINUOUS
10
0.982283
20
-6.92913
11
0.982283
21
-5.7874
0
LINE
8
BLACK
6
CONTINUOUS
10
0.982283
20
-5.7874
11
0.98286
21
-5.78601
0
LINE
8
BLACK
6
CONTINUOUS
10
0.98286
20
-5.78601
11
1.17913
21
-5.58974
0
LINE
8
BLACK
6
CONTINUOUS
10
1.17913
20
-5.58974
11
1.17913
21
-5.37992
0
LINE
8
BLACK
6
CONTINUOUS
10
1.17913
20
-5.37992
11
1.17971
21
-5.37853
0
LINE
8
BLACK
6
CONTINUOUS
10
1.17971
20
-5.37853
11
1.23819
21
-5.32005
0
LINE
8
BLACK
6
CONTINUOUS
10
1.23819
20
-5.32005
11
1.23819
21
-5.19176
0
LINE
8
BLACK
6
CONTINUOUS
10
1.23819
20
-5.19176
11
1.17971
21
-5.13328
0
LINE
8
BLACK
6
CONTINUOUS
10
1.17971
20
-5.13328
11
1.17913
21
-5.13189
0
LINE
8
BLACK
6
CONTINUOUS
10
1.17913
20
-5.13189
11
1.17913
21
-4.33152
0
LINE
8
BLACK
6
CONTINUOUS
10
1.17913
20
-4.33152
11
1.10097
21
-4.25336
0
LINE
8
BLACK
6
CONTINUOUS
10
1.10097
20
-4.25336
11
1.09138
21
-4.24275
0
LINE
8
BLACK
6
CONTINUOUS
10
1.09138
20
-4.24275
11
1.08292
21
-4.23122
0
LINE
8
BLACK
6
CONTINUOUS
10
1.08292
20
-4.23122
11
1.07567
21
-4.2189
0
LINE
8
BLACK
6
CONTINUOUS
10
1.07567
20
-4.2189
11
1.0697
21
-4.20591
0
LINE
8
BLACK
6
CONTINUOUS
10
1.0697
20
-4.20591
11
1.06507
21
-4.19238
0
LINE
8
BLACK
6
CONTINUOUS
10
1.06507
20
-4.19238
11
1.06184
21
-4.17845
0
LINE
8
BLACK
6
CONTINUOUS
10
1.06184
20
-4.17845
11
1.06003
21
-4.16426
0
LINE
8
BLACK
6
CONTINUOUS
10
1.06003
20
-4.16426
11
1.05967
21
-4.14997
0
LINE
8
BLACK
6
CONTINUOUS
10
1.05967
20
-4.14997
11
1.06076
21
-4.13571
0
LINE
8
BLACK
6
CONTINUOUS
10
1.06076
20
-4.13571
11
1.06328
21
-4.12163
0
LINE
8
BLACK
6
CONTINUOUS
10
1.06328
20
-4.12163
11
1.06721
21
-4.10789
0
LINE
8
BLACK
6
CONTINUOUS
10
1.06721
20
-4.10789
11
1.07252
21
-4.09461
0
LINE
8
BLACK
6
CONTINUOUS
10
1.07252
20
-4.09461
11
1.07914
21
-4.08193
0
LINE
8
BLACK
6
CONTINUOUS
10
1.07914
20
-4.08193
11
1.08701
21
-4.06999
0
LINE
8
BLACK
6
CONTINUOUS
10
1.08701
20
-4.06999
11
1.09604
21
-4.05891
0
LINE
8
BLACK
6
CONTINUOUS
10
1.09604
20
-4.05891
11
1.10615
21
-4.0488
0
LINE
8
BLACK
6
CONTINUOUS
10
1.10615
20
-4.0488
11
1.11724
21
-4.03976
0
LINE
8
BLACK
6
CONTINUOUS
10
1.11724
20
-4.03976
11
1.12918
21
-4.03189
0
LINE
8
BLACK
6
CONTINUOUS
10
1.12918
20
-4.03189
11
1.14185
21
-4.02527
0
LINE
8
BLACK
6
CONTINUOUS
10
1.14185
20
-4.02527
11
1.15513
21
-4.01997
0
LINE
8
BLACK
6
CONTINUOUS
10
1.15513
20
-4.01997
11
1.16888
21
-4.01603
0
LINE
8
BLACK
6
CONTINUOUS
10
1.16888
20
-4.01603
11
1.18295
21
-4.01351
0
LINE
8
BLACK
6
CONTINUOUS
10
1.18295
20
-4.01351
11
1.19721
21
-4.01243
0
LINE
8
BLACK
6
CONTINUOUS
10
1.19721
20
-4.01243
11
1.21151
21
-4.01279
0
LINE
8
BLACK
6
CONTINUOUS
10
1.21151
20
-4.01279
11
1.22569
21
-4.01459
0
LINE
8
BLACK
6
CONTINUOUS
10
1.22569
20
-4.01459
11
1.23962
21
-4.01783
0
LINE
8
BLACK
6
CONTINUOUS
10
1.23962
20
-4.01783
11
1.25315
21
-4.02245
0
LINE
8
BLACK
6
CONTINUOUS
10
1.25315
20
-4.02245
11
1.26615
21
-4.02842
0
LINE
8
BLACK
6
CONTINUOUS
10
1.26615
20
-4.02842
11
1.27847
21
-4.03568
0
LINE
8
BLACK
6
CONTINUOUS
10
1.27847
20
-4.03568
11
1.28999
21
-4.04414
0
LINE
8
BLACK
6
CONTINUOUS
10
1.28999
20
-4.04414
11
1.3006
21
-4.05373
0
LINE
8
BLACK
6
CONTINUOUS
10
1.3006
20
-4.05373
11
1.37877
21
-4.13189
0
LINE
8
BLACK
6
CONTINUOUS
10
1.37877
20
-4.13189
11
3.85745
21
-4.13189
0
LINE
8
BLACK
6
CONTINUOUS
10
3.85745
20
-4.13189
11
3.93562
21
-4.05373
0
LINE
8
BLACK
6
CONTINUOUS
10
3.93562
20
-4.05373
11
3.94623
21
-4.04414
0
LINE
8
BLACK
6
CONTINUOUS
10
3.94623
20
-4.04414
11
3.95775
21
-4.03568
0
LINE
8
BLACK
6
CONTINUOUS
10
3.95775
20
-4.03568
11
3.97008
21
-4.02842
0
LINE
8
BLACK
6
CONTINUOUS
10
3.97008
20
-4.02842
11
3.98307
21
-4.02245
0
LINE
8
BLACK
6
CONTINUOUS
10
3.98307
20
-4.02245
11
3.9966
21
-4.01783
0
LINE
8
BLACK
6
CONTINUOUS
10
3.9966
20
-4.01783
11
4.01053
21
-4.01459
0
LINE
8
BLACK
6
CONTINUOUS
10
4.01053
20
-4.01459
11
4.02471
21
-4.01279
0
LINE
8
BLACK
6
CONTINUOUS
10
4.02471
20
-4.01279
11
4.03901
21
-4.01243
0
LINE
8
BLACK
6
CONTINUOUS
10
4.03901
20
-4.01243
11
4.05327
21
-4.01351
0
LINE
8
BLACK
6
CONTINUOUS
10
4.05327
20
-4.01351
11
4.06734
21
-4.01603
0
LINE
8
BLACK
6
CONTINUOUS
10
4.06734
20
-4.01603
11
4.08109
21
-4.01997
0
LINE
8
BLACK
6
CONTINUOUS
10
4.08109
20
-4.01997
11
4.09437
21
-4.02527
0
LINE
8
BLACK
6
CONTINUOUS
10
4.09437
20
-4.02527
11
4.10704
21
-4.03189
0
LINE
8
BLACK
6
CONTINUOUS
10
4.10704
20
-4.03189
11
4.11898
21
-4.03976
0
LINE
8
BLACK
6
CONTINUOUS
10
4.11898
20
-4.03976
11
4.13007
21
-4.0488
0
LINE
8
BLACK
6
CONTINUOUS
10
4.13007
20
-4.0488
11
4.14018
21
-4.05891
0
LINE
8
BLACK
6
CONTINUOUS
10
4.14018
20
-4.05891
11
4.14921
21
-4.06999
0
LINE
8
BLACK
6
CONTINUOUS
10
4.14921
20
-4.06999
11
4.15708
21
-4.08193
0
LINE
8
BLACK
6
CONTINUOUS
10
4.15708
20
-4.08193
11
4.1637
21
-4.09461
0
LINE
8
BLACK
6
CONTINUOUS
10
4.1637
20
-4.09461
11
4.16901
21
-4.10789
0
LINE
8
BLACK
6
CONTINUOUS
10
4.16901
20
-4.10789
11
4.17294
21
-4.12163
0
LINE
8
BLACK
6
CONTINUOUS
10
4.17294
20
-4.12163
11
4.17546
21
-4.13571
0
LINE
8
BLACK
6
CONTINUOUS
10
4.17546
20
-4.13571
11
4.17655
21
-4.14997
0
LINE
8
BLACK
6
CONTINUOUS
10
4.17655
20
-4.14997
11
4.17619
21
-4.16426
0
LINE
8
BLACK
6
CONTINUOUS
10
4.17619
20
-4.16426
11
4.17438
21
-4.17845
0
LINE
8
BLACK
6
CONTINUOUS
10
4.17438
20
-4.17845
11
4.17115
21
-4.19238
0
LINE
8
BLACK
6
CONTINUOUS
10
4.17115
20
-4.19238
11
4.16652
21
-4.20591
0
LINE
8
BLACK
6
CONTINUOUS
10
4.16652
20
-4.20591
11
4.16055
21
-4.2189
0
LINE
8
BLACK
6
CONTINUOUS
10
4.16055
20
-4.2189
11
4.1533
21
-4.23122
0
LINE
8
BLACK
6
CONTINUOUS
10
4.1533
20
-4.23122
11
4.14484
21
-4.24275
0
LINE
8
BLACK
6
CONTINUOUS
10
4.14484
20
-4.24275
11
4.13525
21
-4.25336
0
LINE
8
BLACK
6
CONTINUOUS
10
4.13525
20
-4.25336
11
4.05709
21
-4.33152
0
LINE
8
BLACK
6
CONTINUOUS
10
4.05709
20
-4.33152
11
4.05709
21
-4.89567
0
LINE
8
BLACK
6
CONTINUOUS
10
4.05709
20
-4.89567
11
4.05651
21
-4.89706
0
LINE
8
BLACK
6
CONTINUOUS
10
4.05651
20
-4.89706
11
4.02362
21
-4.92995
0
LINE
8
BLACK
6
CONTINUOUS
10
4.02362
20
-4.92995
11
4.02362
21
-5.03068
0
LINE
8
BLACK
6
CONTINUOUS
10
4.02362
20
-5.03068
11
4.05651
21
-5.06357
0
LINE
8
BLACK
6
CONTINUOUS
10
4.05651
20
-5.06357
11
4.05709
21
-5.06496
0
LINE
8
BLACK
6
CONTINUOUS
10
4.05709
20
-5.06496
11
4.05709
21
-5.22638
0
LINE
8
BLACK
6
CONTINUOUS
10
4.05709
20
-5.22638
11
4.05651
21
-5.22777
0
LINE
8
BLACK
6
CONTINUOUS
10
4.05651
20
-5.22777
11
4.02362
21
-5.26066
0
LINE
8
BLACK
6
CONTINUOUS
10
4.02362
20
-5.26066
11
4.02362
21
-5.36139
0
LINE
8
BLACK
6
CONTINUOUS
10
4.02362
20
-5.36139
11
4.05651
21
-5.39428
0
LINE
8
BLACK
6
CONTINUOUS
10
4.05651
20
-5.39428
11
4.05709
21
-5.39567
0
LINE
8
BLACK
6
CONTINUOUS
10
4.05709
20
-5.39567
11
4.05709
21
-5.58974
0
LINE
8
BLACK
6
CONTINUOUS
10
4.05709
20
-5.58974
11
4.25336
21
-5.78601
0
LINE
8
BLACK
6
CONTINUOUS
10
4.25336
20
-5.78601
11
4.25394
21
-5.7874
0
LINE
8
BLACK
6
CONTINUOUS
10
4.25394
20
-5.7874
11
4.25394
21
-6.92913
0
LINE
8
BLACK
6
CONTINUOUS
10
4.25394
20
-6.92913
11
4.25325
21
-6.93967
0
LINE
8
BLACK
6
CONTINUOUS
10
4.25325
20
-6.93967
11
4.25119
21
-6.95002
0
LINE
8
BLACK
6
CONTINUOUS
10
4.25119
20
-6.95002
11
4.24779
21
-6.96002
0
LINE
8
BLACK
6
CONTINUOUS
10
4.24779
20
-6.96002
11
4.24312
21
-6.96949
0
LINE
8
BLACK
6
CONTINUOUS
10
4.24312
20
-6.96949
11
4.23726
21
-6.97827
0
LINE
8
BLACK
6
CONTINUOUS
10
4.23726
20
-6.97827
11
4.2303
21
-6.9862
0
LINE
8
BLACK
6
CONTINUOUS
10
4.2303
20
-6.9862
11
4.22236
21
-6.99316
0
LINE
8
BLACK
6
CONTINUOUS
10
4.22236
20
-6.99316
11
4.21358
21
-6.99903
0
LINE
8
BLACK
6
CONTINUOUS
10
4.21358
20
-6.99903
11
4.20411
21
-7.0037
0
LINE
8
BLACK
6
CONTINUOUS
10
4.20411
20
-7.0037
11
4.19412
21
-7.00709
0
LINE
8
BLACK
6
CONTINUOUS
10
4.19412
20
-7.00709
11
4.18376
21
-7.00915
0
LINE
8
BLACK
6
CONTINUOUS
10
4.18376
20
-7.00915
11
4.17323
21
-7.00984
0
LINE
8
BLACK
6
CONTINUOUS
10
4.17323
20
-7.00984
11
4.13386
21
-7.00984
0
LINE
8
BLACK
6
CONTINUOUS
10
4.13386
20
-7.00984
11
4.13351
21
-7.0097
0
LINE
8
BLACK
6
CONTINUOUS
10
3.98642
20
-7.281
11
3.99629
21
-7.27904
0
LINE
8
BLACK
6
CONTINUOUS
10
3.99629
20
-7.27904
11
4.00582
21
-7.2758
0
LINE
8
BLACK
6
CONTINUOUS
10
4.00582
20
-7.2758
11
4.01485
21
-7.27135
0
LINE
8
BLACK
6
CONTINUOUS
10
4.01485
20
-7.27135
11
4.02321
21
-7.26576
0
LINE
8
BLACK
6
CONTINUOUS
10
4.02321
20
-7.26576
11
4.03078
21
-7.25913
0
LINE
8
BLACK
6
CONTINUOUS
10
4.03078
20
-7.25913
11
4.03742
21
-7.25156
0
LINE
8
BLACK
6
CONTINUOUS
10
4.03742
20
-7.25156
11
4.04301
21
-7.24319
0
LINE
8
BLACK
6
CONTINUOUS
10
4.04301
20
-7.24319
11
4.04746
21
-7.23417
0
LINE
8
BLACK
6
CONTINUOUS
10
4.04746
20
-7.23417
11
4.05069
21
-7.22464
0
LINE
8
BLACK
6
CONTINUOUS
10
4.05069
20
-7.22464
11
4.05266
21
-7.21477
0
LINE
8
BLACK
6
CONTINUOUS
10
4.05266
20
-7.21477
11
4.05329
21
-7.20507
0
LINE
8
BLACK
6
CONTINUOUS
10
4.05329
20
-7.20507
11
4.05315
21
-7.20472
0
LINE
8
BLACK
6
CONTINUOUS
10
4.05315
20
-7.20472
11
4.05315
21
-7.08661
0
LINE
8
BLACK
6
CONTINUOUS
10
4.05315
20
-7.08661
11
4.05384
21
-7.07608
0
LINE
8
BLACK
6
CONTINUOUS
10
4.05384
20
-7.07608
11
4.0559
21
-7.06573
0
LINE
8
BLACK
6
CONTINUOUS
10
4.0559
20
-7.06573
11
4.05929
21
-7.05573
0
LINE
8
BLACK
6
CONTINUOUS
10
4.05929
20
-7.05573
11
4.06396
21
-7.04626
0
LINE
8
BLACK
6
CONTINUOUS
10
4.06396
20
-7.04626
11
4.06983
21
-7.03748
0
LINE
8
BLACK
6
CONTINUOUS
10
4.06983
20
-7.03748
11
4.07679
21
-7.02954
0
LINE
8
BLACK
6
CONTINUOUS
10
4.07679
20
-7.02954
11
4.08473
21
-7.02258
0
LINE
8
BLACK
6
CONTINUOUS
10
4.08473
20
-7.02258
11
4.0935
21
-7.01672
0
LINE
8
BLACK
6
CONTINUOUS
10
4.0935
20
-7.01672
11
4.10297
21
-7.01205
0
LINE
8
BLACK
6
CONTINUOUS
10
4.10297
20
-7.01205
11
4.11297
21
-7.00866
0
LINE
8
BLACK
6
CONTINUOUS
10
4.11297
20
-7.00866
11
4.12332
21
-7.0066
0
LINE
8
BLACK
6
CONTINUOUS
10
4.12332
20
-7.0066
11
4.13386
21
-7.00591
0
LINE
8
BLACK
6
CONTINUOUS
10
4.13386
20
-7.00591
11
4.17323
21
-7.00591
0
LINE
8
BLACK
6
CONTINUOUS
10
4.17323
20
-7.00591
11
4.17357
21
-7.00605
0
LINE
8
BLACK
6
CONTINUOUS
10
4.17357
20
-7.00605
11
4.18327
21
-7.00541
0
LINE
8
BLACK
6
CONTINUOUS
10
4.18327
20
-7.00541
11
4.19314
21
-7.00345
0
LINE
8
BLACK
6
CONTINUOUS
10
4.19314
20
-7.00345
11
4.20267
21
-7.00021
0
LINE
8
BLACK
6
CONTINUOUS
10
4.20267
20
-7.00021
11
4.2117
21
-6.99576
0
LINE
8
BLACK
6
CONTINUOUS
10
4.2117
20
-6.99576
11
4.22006
21
-6.99017
0
LINE
8
BLACK
6
CONTINUOUS
10
4.22006
20
-6.99017
11
4.22763
21
-6.98354
0
LINE
8
BLACK
6
CONTINUOUS
10
4.22763
20
-6.98354
11
4.23427
21
-6.97597
0
LINE
8
BLACK
6
CONTINUOUS
10
4.23427
20
-6.97597
11
4.23986
21
-6.9676
0
LINE
8
BLACK
6
CONTINUOUS
10
4.23986
20
-6.9676
11
4.24431
21
-6.95858
0
LINE
8
BLACK
6
CONTINUOUS
10
4.24431
20
-6.95858
11
4.24754
21
-6.94905
0
LINE
8
BLACK
6
CONTINUOUS
10
4.24754
20
-6.94905
11
4.24951
21
-6.93918
0
LINE
8
BLACK
6
CONTINUOUS
10
4.24951
20
-6.93918
11
4.25014
21
-6.92948
0
LINE
8
BLACK
6
CONTINUOUS
10
4.25014
20
-6.92948
11
4.25
21
-6.92913
0
LINE
8
BLACK
6
CONTINUOUS
10
4.25
20
-6.92913
11
4.25
21
-5.78822
0
LINE
8
BLACK
6
CONTINUOUS
10
4.25
20
-5.78822
11
4.05373
21
-5.59194
0
LINE
8
BLACK
6
CONTINUOUS
10
4.05373
20
-5.59194
11
4.05315
21
-5.59055
0
LINE
8
BLACK
6
CONTINUOUS
10
4.05315
20
-5.59055
11
4.05315
21
-5.39648
0
LINE
8
BLACK
6
CONTINUOUS
10
4.05315
20
-5.39648
11
4.02026
21
-5.3636
0
LINE
8
BLACK
6
CONTINUOUS
10
4.02026
20
-5.3636
11
4.01968
21
-5.3622
0
LINE
8
BLACK
6
CONTINUOUS
10
4.01968
20
-5.3622
11
4.01968
21
-5.25984
0
LINE
8
BLACK
6
CONTINUOUS
10
4.01968
20
-5.25984
11
4.02026
21
-5.25845
0
LINE
8
BLACK
6
CONTINUOUS
10
4.02026
20
-5.25845
11
4.05315
21
-5.22556
0
LINE
8
BLACK
6
CONTINUOUS
10
4.05315
20
-5.22556
11
4.05315
21
-5.06578
0
LINE
8
BLACK
6
CONTINUOUS
10
4.05315
20
-5.06578
11
4.02026
21
-5.03289
0
LINE
8
BLACK
6
CONTINUOUS
10
4.02026
20
-5.03289
11
4.01968
21
-5.0315
0
LINE
8
BLACK
6
CONTINUOUS
10
4.01968
20
-5.0315
11
4.01968
21
-4.92913
0
LINE
8
BLACK
6
CONTINUOUS
10
4.01968
20
-4.92913
11
4.02026
21
-4.92774
0
LINE
8
BLACK
6
CONTINUOUS
10
4.02026
20
-4.92774
11
4.05315
21
-4.89485
0
LINE
8
BLACK
6
CONTINUOUS
10
4.05315
20
-4.89485
11
4.05315
21
-4.33071
0
LINE
8
BLACK
6
CONTINUOUS
10
4.05315
20
-4.33071
11
4.05373
21
-4.32932
0
LINE
8
BLACK
6
CONTINUOUS
10
4.05373
20
-4.32932
11
4.13247
21
-4.25058
0
LINE
8
BLACK
6
CONTINUOUS
10
4.13247
20
-4.25058
11
4.13287
21
-4.25041
0
LINE
8
BLACK
6
CONTINUOUS
10
4.13287
20
-4.25041
11
4.14222
21
-4.24002
0
LINE
8
BLACK
6
CONTINUOUS
10
4.14222
20
-4.24002
11
4.15068
21
-4.22838
0
LINE
8
BLACK
6
CONTINUOUS
10
4.15068
20
-4.22838
11
4.15787
21
-4.21593
0
LINE
8
BLACK
6
CONTINUOUS
10
4.15787
20
-4.21593
11
4.16372
21
-4.20279
0
LINE
8
BLACK
6
CONTINUOUS
10
4.16372
20
-4.20279
11
4.16816
21
-4.18911
0
LINE
8
BLACK
6
CONTINUOUS
10
4.16816
20
-4.18911
11
4.17116
21
-4.17504
0
LINE
8
BLACK
6
CONTINUOUS
10
4.17116
20
-4.17504
11
4.17266
21
-4.16073
0
LINE
8
BLACK
6
CONTINUOUS
10
4.17266
20
-4.16073
11
4.17266
21
-4.14635
0
LINE
8
BLACK
6
CONTINUOUS
10
4.17266
20
-4.14635
11
4.17116
21
-4.13205
0
LINE
8
BLACK
6
CONTINUOUS
10
4.17116
20
-4.13205
11
4.16816
21
-4.11798
0
LINE
8
BLACK
6
CONTINUOUS
10
4.16816
20
-4.11798
11
4.16372
21
-4.1043
0
LINE
8
BLACK
6
CONTINUOUS
10
4.16372
20
-4.1043
11
4.15787
21
-4.09116
0
LINE
8
BLACK
6
CONTINUOUS
10
4.15787
20
-4.09116
11
4.15068
21
-4.0787
0
LINE
8
BLACK
6
CONTINUOUS
10
4.15068
20
-4.0787
11
4.14222
21
-4.06707
0
LINE
8
BLACK
6
CONTINUOUS
10
4.14222
20
-4.06707
11
4.1326
21
-4.05638
0
LINE
8
BLACK
6
CONTINUOUS
10
4.1326
20
-4.05638
11
4.12191
21
-4.04675
0
LINE
8
BLACK
6
CONTINUOUS
10
4.12191
20
-4.04675
11
4.11027
21
-4.0383
0
LINE
8
BLACK
6
CONTINUOUS
10
4.11027
20
-4.0383
11
4.09782
21
-4.03111
0
LINE
8
BLACK
6
CONTINUOUS
10
4.09782
20
-4.03111
11
4.08468
21
-4.02526
0
LINE
8
BLACK
6
CONTINUOUS
10
4.08468
20
-4.02526
11
4.071
21
-4.02081
0
LINE
8
BLACK
6
CONTINUOUS
10
4.071
20
-4.02081
11
4.05693
21
-4.01782
0
LINE
8
BLACK
6
CONTINUOUS
10
4.05693
20
-4.01782
11
4.04262
21
-4.01632
0
LINE
8
BLACK
6
CONTINUOUS
10
4.04262
20
-4.01632
11
4.02824
21
-4.01632
0
LINE
8
BLACK
6
CONTINUOUS
10
4.02824
20
-4.01632
11
4.01394
21
-4.01782
0
LINE
8
BLACK
6
CONTINUOUS
10
4.01394
20
-4.01782
11
3.99987
21
-4.02081
0
LINE
8
BLACK
6
CONTINUOUS
10
3.99987
20
-4.02081
11
3.98619
21
-4.02526
0
LINE
8
BLACK
6
CONTINUOUS
10
3.98619
20
-4.02526
11
3.97305
21
-4.03111
0
LINE
8
BLACK
6
CONTINUOUS
10
3.97305
20
-4.03111
11
3.96059
21
-4.0383
0
LINE
8
BLACK
6
CONTINUOUS
10
3.96059
20
-4.0383
11
3.94896
21
-4.04675
0
LINE
8
BLACK
6
CONTINUOUS
10
3.94896
20
-4.04675
11
3.93857
21
-4.05611
0
LINE
8
BLACK
6
CONTINUOUS
10
3.93857
20
-4.05611
11
3.9384
21
-4.05651
0
LINE
8
BLACK
6
CONTINUOUS
10
3.9384
20
-4.05651
11
3.85966
21
-4.13525
0
LINE
8
BLACK
6
CONTINUOUS
10
3.85966
20
-4.13525
11
3.85827
21
-4.13583
0
LINE
8
BLACK
6
CONTINUOUS
10
3.85827
20
-4.13583
11
1.37795
21
-4.13583
0
LINE
8
BLACK
6
CONTINUOUS
10
1.37795
20
-4.13583
11
1.37656
21
-4.13525
0
LINE
8
BLACK
6
CONTINUOUS
10
1.37656
20
-4.13525
11
1.29782
21
-4.05651
0
LINE
8
BLACK
6
CONTINUOUS
10
1.29782
20
-4.05651
11
1.29765
21
-4.05611
0
LINE
8
BLACK
6
CONTINUOUS
10
1.29765
20
-4.05611
11
1.28726
21
-4.04675
0
LINE
8
BLACK
6
CONTINUOUS
10
1.28726
20
-4.04675
11
1.27563
21
-4.0383
0
LINE
8
BLACK
6
CONTINUOUS
10
1.27563
20
-4.0383
11
1.26317
21
-4.03111
0
LINE
8
BLACK
6
CONTINUOUS
10
1.26317
20
-4.03111
11
1.25003
21
-4.02526
0
LINE
8
BLACK
6
CONTINUOUS
10
1.25003
20
-4.02526
11
1.23635
21
-4.02081
0
LINE
8
BLACK
6
CONTINUOUS
10
1.23635
20
-4.02081
11
1.22228
21
-4.01782
0
LINE
8
BLACK
6
CONTINUOUS
10
1.22228
20
-4.01782
11
1.20798
21
-4.01632
0
LINE
8
BLACK
6
CONTINUOUS
10
1.20798
20
-4.01632
11
1.1936
21
-4.01632
0
LINE
8
BLACK
6
CONTINUOUS
10
1.1936
20
-4.01632
11
1.17929
21
-4.01782
0
LINE
8
BLACK
6
CONTINUOUS
10
1.17929
20
-4.01782
11
1.16522
21
-4.02081
0
LINE
8
BLACK
6
CONTINUOUS
10
1.16522
20
-4.02081
11
1.15154
21
-4.02526
0
LINE
8
BLACK
6
CONTINUOUS
10
1.15154
20
-4.02526
11
1.1384
21
-4.03111
0
LINE
8
BLACK
6
CONTINUOUS
10
1.1384
20
-4.03111
11
1.12595
21
-4.0383
0
LINE
8
BLACK
6
CONTINUOUS
10
1.12595
20
-4.0383
11
1.11431
21
-4.04675
0
LINE
8
BLACK
6
CONTINUOUS
10
1.11431
20
-4.04675
11
1.10362
21
-4.05638
0
LINE
8
BLACK
6
CONTINUOUS
10
1.10362
20
-4.05638
11
1.094
21
-4.06707
0
LINE
8
BLACK
6
CONTINUOUS
10
1.094
20
-4.06707
11
1.08554
21
-4.0787
0
LINE
8
BLACK
6
CONTINUOUS
10
1.08554
20
-4.0787
11
1.07835
21
-4.09116
0
LINE
8
BLACK
6
CONTINUOUS
10
1.07835
20
-4.09116
11
1.0725
21
-4.1043
0
LINE
8
BLACK
6
CONTINUOUS
10
1.0725
20
-4.1043
11
1.06806
21
-4.11798
0
LINE
8
BLACK
6
CONTINUOUS
10
1.06806
20
-4.11798
11
1.06507
21
-4.13205
0
LINE
8
BLACK
6
CONTINUOUS
10
1.06507
20
-4.13205
11
1.06356
21
-4.14635
0
LINE
8
BLACK
6
CONTINUOUS
10
1.06356
20
-4.14635
11
1.06356
21
-4.16073
0
LINE
8
BLACK
6
CONTINUOUS
10
1.06356
20
-4.16073
11
1.06507
21
-4.17504
0
LINE
8
BLACK
6
CONTINUOUS
10
1.06507
20
-4.17504
11
1.06806
21
-4.18911
0
LINE
8
BLACK
6
CONTINUOUS
10
1.06806
20
-4.18911
11
1.0725
21
-4.20279
0
LINE
8
BLACK
6
CONTINUOUS
10
1.0725
20
-4.20279
11
1.07835
21
-4.21593
0
LINE
8
BLACK
6
CONTINUOUS
10
1.07835
20
-4.21593
11
1.08554
21
-4.22838
0
LINE
8
BLACK
6
CONTINUOUS
10
1.08554
20
-4.22838
11
1.094
21
-4.24002
0
LINE
8
BLACK
6
CONTINUOUS
10
1.094
20
-4.24002
11
1.10335
21
-4.25041
0
LINE
8
BLACK
6
CONTINUOUS
10
1.10335
20
-4.25041
11
1.10375
21
-4.25058
0
LINE
8
BLACK
6
CONTINUOUS
10
1.10375
20
-4.25058
11
1.18249
21
-4.32932
0
LINE
8
BLACK
6
CONTINUOUS
10
1.18249
20
-4.32932
11
1.18307
21
-4.33071
0
LINE
8
BLACK
6
CONTINUOUS
10
1.18307
20
-4.33071
11
1.18307
21
-5.13107
0
LINE
8
BLACK
6
CONTINUOUS
10
1.18307
20
-5.13107
11
1.24155
21
-5.18955
0
LINE
8
BLACK
6
CONTINUOUS
10
1.24155
20
-5.18955
11
1.24155
21
-5.18955
0
LINE
8
BLACK
6
CONTINUOUS
10
1.24155
20
-5.18955
11
1.24213
21
-5.19094
0
LINE
8
BLACK
6
CONTINUOUS
10
1.24213
20
-5.19094
11
1.24213
21
-5.32087
0
LINE
8
BLACK
6
CONTINUOUS
10
1.24213
20
-5.32087
11
1.24172
21
-5.32185
0
LINE
8
BLACK
6
CONTINUOUS
10
1.24172
20
-5.32185
11
1.24155
21
-5.32226
0
LINE
8
BLACK
6
CONTINUOUS
10
1.24155
20
-5.32226
11
1.18307
21
-5.38074
0
LINE
8
BLACK
6
CONTINUOUS
10
1.18307
20
-5.38074
11
1.18307
21
-5.59055
0
LINE
8
BLACK
6
CONTINUOUS
10
1.18307
20
-5.59055
11
1.18249
21
-5.59194
0
LINE
8
BLACK
6
CONTINUOUS
10
1.18249
20
-5.59194
11
0.98622
21
-5.78822
0
LINE
8
BLACK
6
CONTINUOUS
10
0.98622
20
-5.78822
11
0.98622
21
-6.92913
0
LINE
8
BLACK
6
CONTINUOUS
10
0.98622
20
-6.92913
11
0.986078
21
-6.92948
0
LINE
8
BLACK
6
CONTINUOUS
10
0.986078
20
-6.92948
11
0.986714
21
-6.93918
0
LINE
8
BLACK
6
CONTINUOUS
10
0.986714
20
-6.93918
11
0.988677
21
-6.94905
0
LINE
8
BLACK
6
CONTINUOUS
10
0.988677
20
-6.94905
11
0.991912
21
-6.95858
0
LINE
8
BLACK
6
CONTINUOUS
10
0.991912
20
-6.95858
11
0.996363
21
-6.9676
0
LINE
8
BLACK
6
CONTINUOUS
10
0.996363
20
-6.9676
11
1.00195
21
-6.97597
0
LINE
8
BLACK
6
CONTINUOUS
10
1.00195
20
-6.97597
11
1.00859
21
-6.98354
0
LINE
8
BLACK
6
CONTINUOUS
10
1.00859
20
-6.98354
11
1.01616
21
-6.99017
0
LINE
8
BLACK
6
CONTINUOUS
10
1.01616
20
-6.99017
11
1.02452
21
-6.99576
0
LINE
8
BLACK
6
CONTINUOUS
10
1.02452
20
-6.99576
11
1.03355
21
-7.00021
0
LINE
8
BLACK
6
CONTINUOUS
10
1.03355
20
-7.00021
11
1.04308
21
-7.00345
0
LINE
8
BLACK
6
CONTINUOUS
10
1.04308
20
-7.00345
11
1.05295
21
-7.00541
0
LINE
8
BLACK
6
CONTINUOUS
10
1.05295
20
-7.00541
11
1.06265
21
-7.00605
0
LINE
8
BLACK
6
CONTINUOUS
10
1.06265
20
-7.00605
11
1.06299
21
-7.00591
0
LINE
8
BLACK
6
CONTINUOUS
10
1.06299
20
-7.00591
11
1.10236
21
-7.00591
0
LINE
8
BLACK
6
CONTINUOUS
10
1.10236
20
-7.00591
11
1.1129
21
-7.0066
0
LINE
8
BLACK
6
CONTINUOUS
10
1.1129
20
-7.0066
11
1.12325
21
-7.00866
0
LINE
8
BLACK
6
CONTINUOUS
10
1.12325
20
-7.00866
11
1.13325
21
-7.01205
0
LINE
8
BLACK
6
CONTINUOUS
10
1.13325
20
-7.01205
11
1.14272
21
-7.01672
0
LINE
8
BLACK
6
CONTINUOUS
10
1.14272
20
-7.01672
11
1.15149
21
-7.02258
0
LINE
8
BLACK
6
CONTINUOUS
10
1.15149
20
-7.02258
11
1.15943
21
-7.02954
0
LINE
8
BLACK
6
CONTINUOUS
10
1.15943
20
-7.02954
11
1.16639
21
-7.03748
0
LINE
8
BLACK
6
CONTINUOUS
10
1.16639
20
-7.03748
11
1.17226
21
-7.04626
0
LINE
8
BLACK
6
CONTINUOUS
10
1.17226
20
-7.04626
11
1.17693
21
-7.05573
0
LINE
8
BLACK
6
CONTINUOUS
10
1.17693
20
-7.05573
11
1.18032
21
-7.06573
0
LINE
8
BLACK
6
CONTINUOUS
10
1.18032
20
-7.06573
11
1.18238
21
-7.07608
0
LINE
8
BLACK
6
CONTINUOUS
10
1.18238
20
-7.07608
11
1.18307
21
-7.08661
0
LINE
8
BLACK
6
CONTINUOUS
10
1.18307
20
-7.08661
11
1.18307
21
-7.08661
0
LINE
8
BLACK
6
CONTINUOUS
10
1.18307
20
-7.08661
11
1.18307
21
-7.20472
0
LINE
8
BLACK
6
CONTINUOUS
10
1.18307
20
-7.20472
11
1.18293
21
-7.20507
0
LINE
8
BLACK
6
CONTINUOUS
10
1.18293
20
-7.20507
11
1.18356
21
-7.21477
0
LINE
8
BLACK
6
CONTINUOUS
10
1.18356
20
-7.21477
11
1.18553
21
-7.22464
0
LINE
8
BLACK
6
CONTINUOUS
10
1.18553
20
-7.22464
11
1.18876
21
-7.23417
0
LINE
8
BLACK
6
CONTINUOUS
10
1.18876
20
-7.23417
11
1.19321
21
-7.24319
0
LINE
8
BLACK
6
CONTINUOUS
10
1.19321
20
-7.24319
11
1.1988
21
-7.25156
0
LINE
8
BLACK
6
CONTINUOUS
10
1.1988
20
-7.25156
11
1.20544
21
-7.25913
0
LINE
8
BLACK
6
CONTINUOUS
10
1.20544
20
-7.25913
11
1.21301
21
-7.26576
0
LINE
8
BLACK
6
CONTINUOUS
10
1.21301
20
-7.26576
11
1.22137
21
-7.27135
0
LINE
8
BLACK
6
CONTINUOUS
10
1.22137
20
-7.27135
11
1.2304
21
-7.2758
0
LINE
8
BLACK
6
CONTINUOUS
10
1.2304
20
-7.2758
11
1.23993
21
-7.27904
0
LINE
8
BLACK
6
CONTINUOUS
10
1.23993
20
-7.27904
11
1.2498
21
-7.281
0
LINE
8
BLACK
6
CONTINUOUS
10
1.2498
20
-7.281
11
1.2595
21
-7.28164
0
LINE
8
BLACK
6
CONTINUOUS
10
1.2595
20
-7.28164
11
1.25984
21
-7.2815
0
LINE
8
BLACK
6
CONTINUOUS
10
1.25984
20
-7.2815
11
3.97638
21
-7.2815
0
LINE
8
BLACK
6
CONTINUOUS
10
3.97638
20
-7.2815
11
3.97672
21
-7.28164
0
LINE
8
BLACK
6
CONTINUOUS
10
3.97672
20
-7.28164
11
3.98642
21
-7.281
  0
ENDSEC
  0
EOF
