  0
SECTION
  2
HEADER
  9
$ANGBASE
  50
0.0
  9
$ANGDIR
  70
1
  9
$MEASUREMENT
  70
0
  0
ENDSEC
  0
SECTION
  2
TABLES
  0
TABLE
  2
LTYPE
  70
4
  0
LTYPE
  5
40F
  2
CONTINUOUS
  70
0
  3
Solid line
  72
65
  73
0
  40
0.0
  0
LTYPE
  5
410
  2
DASHDOT
 70
0
  3
Dash Dot ____ _ ____ _
 72
65
 73
4
 40
2.0
 49
1.25
 49
-0.25
 49
0.25
 49
-0.25
  0
LTYPE
  5
411
  2
DASHED
 70
0
  3
Dashed __ __ __ __ __
 72
65
 73
2
 40
0.75
 49
0.5
 49
-0.25
  0
LTYPE
  5
43B
  2
DOTTED
 70
0
  3
Dotted .  .  .  .
 72
65
 73
2
 40
0.2
 49
0.0
 49
-0.2
  0
ENDTAB
  0
TABLE
  2
STYLE
  70
4
  0
STYLE
  2
KICAD
  70
0
  40
0
  41
1
  42
1
  50
0
  71
0
  3
isocp.shx
  0
STYLE
  2
KICADB
  70
0
  40
0
  41
1
  42
1
  50
0
  71
0
  3
isocp.shx
  0
STYLE
  2
KICADI
  70
0
  40
0
  41
1
  42
1
  50
15
  71
0
  3
isocp.shx
  0
STYLE
  2
KICADBI
  70
0
  40
0
  41
1
  42
1
  50
15
  71
0
  3
isocp.shx
  0
ENDTAB
  0
TABLE
  2
LAYER
  70
1
  0
LAYER
  2
BLACK
  70
0
  62
7
  6
CONTINUOUS
  0
ENDTAB
  0
ENDSEC
  0
SECTION
  2
ENTITIES
0
LINE
8
BLACK
6
CONTINUOUS
10
3.15053
20
-6.71243
11
3.15232
21
-6.71362
0
LINE
8
BLACK
6
CONTINUOUS
10
3.15232
20
-6.71362
11
3.15352
21
-6.71541
0
LINE
8
BLACK
6
CONTINUOUS
10
3.15352
20
-6.71541
11
3.15394
21
-6.71752
0
LINE
8
BLACK
6
CONTINUOUS
10
3.15394
20
-6.71752
11
3.15394
21
-6.72854
0
LINE
8
BLACK
6
CONTINUOUS
10
3.15394
20
-6.72854
11
3.15352
21
-6.73065
0
LINE
8
BLACK
6
CONTINUOUS
10
3.15352
20
-6.73065
11
3.15232
21
-6.73244
0
LINE
8
BLACK
6
CONTINUOUS
10
3.15232
20
-6.73244
11
3.15053
21
-6.73364
0
LINE
8
BLACK
6
CONTINUOUS
10
3.15053
20
-6.73364
11
3.14843
21
-6.73406
0
LINE
8
BLACK
6
CONTINUOUS
10
3.14843
20
-6.73406
11
3.13504
21
-6.73406
0
LINE
8
BLACK
6
CONTINUOUS
10
3.13504
20
-6.73406
11
3.13293
21
-6.73364
0
LINE
8
BLACK
6
CONTINUOUS
10
3.13293
20
-6.73364
11
3.13114
21
-6.73244
0
LINE
8
BLACK
6
CONTINUOUS
10
3.13114
20
-6.73244
11
3.12995
21
-6.73065
0
LINE
8
BLACK
6
CONTINUOUS
10
3.12995
20
-6.73065
11
3.12953
21
-6.72854
0
LINE
8
BLACK
6
CONTINUOUS
10
3.12953
20
-6.72854
11
3.12953
21
-6.71752
0
LINE
8
BLACK
6
CONTINUOUS
10
3.12953
20
-6.71752
11
3.12995
21
-6.71541
0
LINE
8
BLACK
6
CONTINUOUS
10
3.12995
20
-6.71541
11
3.13114
21
-6.71362
0
LINE
8
BLACK
6
CONTINUOUS
10
3.13114
20
-6.71362
11
3.13293
21
-6.71243
0
LINE
8
BLACK
6
CONTINUOUS
10
3.13293
20
-6.71243
11
3.13504
21
-6.71201
0
LINE
8
BLACK
6
CONTINUOUS
10
3.13504
20
-6.71201
11
3.14843
21
-6.71201
0
LINE
8
BLACK
6
CONTINUOUS
10
3.14843
20
-6.71201
11
3.15053
21
-6.71243
0
LINE
8
BLACK
6
CONTINUOUS
10
2.31884
20
-6.71223
11
2.32063
21
-6.71343
0
LINE
8
BLACK
6
CONTINUOUS
10
2.32063
20
-6.71343
11
2.32182
21
-6.71521
0
LINE
8
BLACK
6
CONTINUOUS
10
2.32182
20
-6.71521
11
2.32224
21
-6.71732
0
LINE
8
BLACK
6
CONTINUOUS
10
2.32224
20
-6.71732
11
2.32224
21
-6.72835
0
LINE
8
BLACK
6
CONTINUOUS
10
2.32224
20
-6.72835
11
2.32182
21
-6.73046
0
LINE
8
BLACK
6
CONTINUOUS
10
2.32182
20
-6.73046
11
2.32063
21
-6.73224
0
LINE
8
BLACK
6
CONTINUOUS
10
2.32063
20
-6.73224
11
2.31884
21
-6.73344
0
LINE
8
BLACK
6
CONTINUOUS
10
2.31884
20
-6.73344
11
2.31673
21
-6.73386
0
LINE
8
BLACK
6
CONTINUOUS
10
2.31673
20
-6.73386
11
2.30335
21
-6.73386
0
LINE
8
BLACK
6
CONTINUOUS
10
2.30335
20
-6.73386
11
2.30124
21
-6.73344
0
LINE
8
BLACK
6
CONTINUOUS
10
2.30124
20
-6.73344
11
2.29945
21
-6.73224
0
LINE
8
BLACK
6
CONTINUOUS
10
2.29945
20
-6.73224
11
2.29825
21
-6.73046
0
LINE
8
BLACK
6
CONTINUOUS
10
2.29825
20
-6.73046
11
2.29783
21
-6.72835
0
LINE
8
BLACK
6
CONTINUOUS
10
2.29783
20
-6.72835
11
2.29783
21
-6.71732
0
LINE
8
BLACK
6
CONTINUOUS
10
2.29783
20
-6.71732
11
2.29825
21
-6.71521
0
LINE
8
BLACK
6
CONTINUOUS
10
2.29825
20
-6.71521
11
2.29945
21
-6.71343
0
LINE
8
BLACK
6
CONTINUOUS
10
2.29945
20
-6.71343
11
2.30124
21
-6.71223
0
LINE
8
BLACK
6
CONTINUOUS
10
2.30124
20
-6.71223
11
2.30335
21
-6.71181
0
LINE
8
BLACK
6
CONTINUOUS
10
2.30335
20
-6.71181
11
2.31673
21
-6.71181
0
LINE
8
BLACK
6
CONTINUOUS
10
2.31673
20
-6.71181
11
2.31884
21
-6.71223
0
LINE
8
BLACK
6
CONTINUOUS
10
2.3592
20
-6.71223
11
2.36098
21
-6.71343
0
LINE
8
BLACK
6
CONTINUOUS
10
2.36098
20
-6.71343
11
2.36218
21
-6.71521
0
LINE
8
BLACK
6
CONTINUOUS
10
2.36218
20
-6.71521
11
2.3626
21
-6.71732
0
LINE
8
BLACK
6
CONTINUOUS
10
2.3626
20
-6.71732
11
2.3626
21
-6.72835
0
LINE
8
BLACK
6
CONTINUOUS
10
2.3626
20
-6.72835
11
2.36218
21
-6.73046
0
LINE
8
BLACK
6
CONTINUOUS
10
2.36218
20
-6.73046
11
2.36098
21
-6.73224
0
LINE
8
BLACK
6
CONTINUOUS
10
2.36098
20
-6.73224
11
2.3592
21
-6.73344
0
LINE
8
BLACK
6
CONTINUOUS
10
2.3592
20
-6.73344
11
2.35709
21
-6.73386
0
LINE
8
BLACK
6
CONTINUOUS
10
2.35709
20
-6.73386
11
2.3437
21
-6.73386
0
LINE
8
BLACK
6
CONTINUOUS
10
2.3437
20
-6.73386
11
2.34159
21
-6.73344
0
LINE
8
BLACK
6
CONTINUOUS
10
2.34159
20
-6.73344
11
2.3398
21
-6.73224
0
LINE
8
BLACK
6
CONTINUOUS
10
2.3398
20
-6.73224
11
2.33861
21
-6.73046
0
LINE
8
BLACK
6
CONTINUOUS
10
2.33861
20
-6.73046
11
2.33819
21
-6.72835
0
LINE
8
BLACK
6
CONTINUOUS
10
2.33819
20
-6.72835
11
2.33819
21
-6.71732
0
LINE
8
BLACK
6
CONTINUOUS
10
2.33819
20
-6.71732
11
2.33861
21
-6.71521
0
LINE
8
BLACK
6
CONTINUOUS
10
2.33861
20
-6.71521
11
2.3398
21
-6.71343
0
LINE
8
BLACK
6
CONTINUOUS
10
2.3398
20
-6.71343
11
2.34159
21
-6.71223
0
LINE
8
BLACK
6
CONTINUOUS
10
2.34159
20
-6.71223
11
2.3437
21
-6.71181
0
LINE
8
BLACK
6
CONTINUOUS
10
2.3437
20
-6.71181
11
2.35709
21
-6.71181
0
LINE
8
BLACK
6
CONTINUOUS
10
2.35709
20
-6.71181
11
2.3592
21
-6.71223
0
LINE
8
BLACK
6
CONTINUOUS
10
3.0714
20
-6.71223
11
3.07319
21
-6.71343
0
LINE
8
BLACK
6
CONTINUOUS
10
3.07319
20
-6.71343
11
3.07438
21
-6.71521
0
LINE
8
BLACK
6
CONTINUOUS
10
3.07438
20
-6.71521
11
3.0748
21
-6.71732
0
LINE
8
BLACK
6
CONTINUOUS
10
3.0748
20
-6.71732
11
3.0748
21
-6.72835
0
LINE
8
BLACK
6
CONTINUOUS
10
3.0748
20
-6.72835
11
3.07438
21
-6.73046
0
LINE
8
BLACK
6
CONTINUOUS
10
3.07438
20
-6.73046
11
3.07319
21
-6.73224
0
LINE
8
BLACK
6
CONTINUOUS
10
3.07319
20
-6.73224
11
3.0714
21
-6.73344
0
LINE
8
BLACK
6
CONTINUOUS
10
3.0714
20
-6.73344
11
3.06929
21
-6.73386
0
LINE
8
BLACK
6
CONTINUOUS
10
3.06929
20
-6.73386
11
3.05591
21
-6.73386
0
LINE
8
BLACK
6
CONTINUOUS
10
3.05591
20
-6.73386
11
3.0538
21
-6.73344
0
LINE
8
BLACK
6
CONTINUOUS
10
3.0538
20
-6.73344
11
3.05201
21
-6.73224
0
LINE
8
BLACK
6
CONTINUOUS
10
3.05201
20
-6.73224
11
3.05081
21
-6.73046
0
LINE
8
BLACK
6
CONTINUOUS
10
3.05081
20
-6.73046
11
3.05039
21
-6.72835
0
LINE
8
BLACK
6
CONTINUOUS
10
3.05039
20
-6.72835
11
3.05039
21
-6.71732
0
LINE
8
BLACK
6
CONTINUOUS
10
3.05039
20
-6.71732
11
3.05081
21
-6.71521
0
LINE
8
BLACK
6
CONTINUOUS
10
3.05081
20
-6.71521
11
3.05201
21
-6.71343
0
LINE
8
BLACK
6
CONTINUOUS
10
3.05201
20
-6.71343
11
3.0538
21
-6.71223
0
LINE
8
BLACK
6
CONTINUOUS
10
3.0538
20
-6.71223
11
3.05591
21
-6.71181
0
LINE
8
BLACK
6
CONTINUOUS
10
3.05591
20
-6.71181
11
3.06929
21
-6.71181
0
LINE
8
BLACK
6
CONTINUOUS
10
3.06929
20
-6.71181
11
3.0714
21
-6.71223
0
LINE
8
BLACK
6
CONTINUOUS
10
2.27849
20
-6.71223
11
2.28028
21
-6.71343
0
LINE
8
BLACK
6
CONTINUOUS
10
2.28028
20
-6.71343
11
2.28147
21
-6.71521
0
LINE
8
BLACK
6
CONTINUOUS
10
2.28147
20
-6.71521
11
2.28189
21
-6.71732
0
LINE
8
BLACK
6
CONTINUOUS
10
2.28189
20
-6.71732
11
2.28189
21
-6.72835
0
LINE
8
BLACK
6
CONTINUOUS
10
2.28189
20
-6.72835
11
2.28147
21
-6.73046
0
LINE
8
BLACK
6
CONTINUOUS
10
2.28147
20
-6.73046
11
2.28028
21
-6.73224
0
LINE
8
BLACK
6
CONTINUOUS
10
2.28028
20
-6.73224
11
2.27849
21
-6.73344
0
LINE
8
BLACK
6
CONTINUOUS
10
2.27849
20
-6.73344
11
2.27638
21
-6.73386
0
LINE
8
BLACK
6
CONTINUOUS
10
2.27638
20
-6.73386
11
2.26299
21
-6.73386
0
LINE
8
BLACK
6
CONTINUOUS
10
2.26299
20
-6.73386
11
2.26088
21
-6.73344
0
LINE
8
BLACK
6
CONTINUOUS
10
2.26088
20
-6.73344
11
2.25909
21
-6.73224
0
LINE
8
BLACK
6
CONTINUOUS
10
2.25909
20
-6.73224
11
2.2579
21
-6.73046
0
LINE
8
BLACK
6
CONTINUOUS
10
2.2579
20
-6.73046
11
2.25748
21
-6.72835
0
LINE
8
BLACK
6
CONTINUOUS
10
2.25748
20
-6.72835
11
2.25748
21
-6.71732
0
LINE
8
BLACK
6
CONTINUOUS
10
2.25748
20
-6.71732
11
2.2579
21
-6.71521
0
LINE
8
BLACK
6
CONTINUOUS
10
2.2579
20
-6.71521
11
2.25909
21
-6.71343
0
LINE
8
BLACK
6
CONTINUOUS
10
2.25909
20
-6.71343
11
2.26088
21
-6.71223
0
LINE
8
BLACK
6
CONTINUOUS
10
2.26088
20
-6.71223
11
2.26299
21
-6.71181
0
LINE
8
BLACK
6
CONTINUOUS
10
2.26299
20
-6.71181
11
2.27638
21
-6.71181
0
LINE
8
BLACK
6
CONTINUOUS
10
2.27638
20
-6.71181
11
2.27849
21
-6.71223
0
LINE
8
BLACK
6
CONTINUOUS
10
3.11116
20
-6.71223
11
3.11295
21
-6.71343
0
LINE
8
BLACK
6
CONTINUOUS
10
3.11295
20
-6.71343
11
3.11415
21
-6.71521
0
LINE
8
BLACK
6
CONTINUOUS
10
3.11415
20
-6.71521
11
3.11457
21
-6.71732
0
LINE
8
BLACK
6
CONTINUOUS
10
3.11457
20
-6.71732
11
3.11457
21
-6.72835
0
LINE
8
BLACK
6
CONTINUOUS
10
3.11457
20
-6.72835
11
3.11415
21
-6.73046
0
LINE
8
BLACK
6
CONTINUOUS
10
3.11415
20
-6.73046
11
3.11295
21
-6.73224
0
LINE
8
BLACK
6
CONTINUOUS
10
3.11295
20
-6.73224
11
3.11116
21
-6.73344
0
LINE
8
BLACK
6
CONTINUOUS
10
3.11116
20
-6.73344
11
3.10906
21
-6.73386
0
LINE
8
BLACK
6
CONTINUOUS
10
3.10906
20
-6.73386
11
3.09567
21
-6.73386
0
LINE
8
BLACK
6
CONTINUOUS
10
3.09567
20
-6.73386
11
3.09356
21
-6.73344
0
LINE
8
BLACK
6
CONTINUOUS
10
3.09356
20
-6.73344
11
3.09177
21
-6.73224
0
LINE
8
BLACK
6
CONTINUOUS
10
3.09177
20
-6.73224
11
3.09058
21
-6.73046
0
LINE
8
BLACK
6
CONTINUOUS
10
3.09058
20
-6.73046
11
3.09016
21
-6.72835
0
LINE
8
BLACK
6
CONTINUOUS
10
3.09016
20
-6.72835
11
3.09016
21
-6.71732
0
LINE
8
BLACK
6
CONTINUOUS
10
3.09016
20
-6.71732
11
3.09058
21
-6.71521
0
LINE
8
BLACK
6
CONTINUOUS
10
3.09058
20
-6.71521
11
3.09177
21
-6.71343
0
LINE
8
BLACK
6
CONTINUOUS
10
3.09177
20
-6.71343
11
3.09356
21
-6.71223
0
LINE
8
BLACK
6
CONTINUOUS
10
3.09356
20
-6.71223
11
3.09567
21
-6.71181
0
LINE
8
BLACK
6
CONTINUOUS
10
3.09567
20
-6.71181
11
3.10906
21
-6.71181
0
LINE
8
BLACK
6
CONTINUOUS
10
3.10906
20
-6.71181
11
3.11116
21
-6.71223
0
LINE
8
BLACK
6
CONTINUOUS
10
1.48715
20
-6.71184
11
1.48894
21
-6.71303
0
LINE
8
BLACK
6
CONTINUOUS
10
1.48894
20
-6.71303
11
1.49013
21
-6.71482
0
LINE
8
BLACK
6
CONTINUOUS
10
1.49013
20
-6.71482
11
1.49055
21
-6.71693
0
LINE
8
BLACK
6
CONTINUOUS
10
1.49055
20
-6.71693
11
1.49055
21
-6.72795
0
LINE
8
BLACK
6
CONTINUOUS
10
1.49055
20
-6.72795
11
1.49013
21
-6.73006
0
LINE
8
BLACK
6
CONTINUOUS
10
1.49013
20
-6.73006
11
1.48894
21
-6.73185
0
LINE
8
BLACK
6
CONTINUOUS
10
1.48894
20
-6.73185
11
1.48715
21
-6.73304
0
LINE
8
BLACK
6
CONTINUOUS
10
1.48715
20
-6.73304
11
1.48504
21
-6.73346
0
LINE
8
BLACK
6
CONTINUOUS
10
1.48504
20
-6.73346
11
1.47165
21
-6.73346
0
LINE
8
BLACK
6
CONTINUOUS
10
1.47165
20
-6.73346
11
1.46954
21
-6.73304
0
LINE
8
BLACK
6
CONTINUOUS
10
1.46954
20
-6.73304
11
1.46776
21
-6.73185
0
LINE
8
BLACK
6
CONTINUOUS
10
1.46776
20
-6.73185
11
1.46656
21
-6.73006
0
LINE
8
BLACK
6
CONTINUOUS
10
1.46656
20
-6.73006
11
1.46614
21
-6.72795
0
LINE
8
BLACK
6
CONTINUOUS
10
1.46614
20
-6.72795
11
1.46614
21
-6.71693
0
LINE
8
BLACK
6
CONTINUOUS
10
1.46614
20
-6.71693
11
1.46656
21
-6.71482
0
LINE
8
BLACK
6
CONTINUOUS
10
1.46656
20
-6.71482
11
1.46776
21
-6.71303
0
LINE
8
BLACK
6
CONTINUOUS
10
1.46776
20
-6.71303
11
1.46954
21
-6.71184
0
LINE
8
BLACK
6
CONTINUOUS
10
1.46954
20
-6.71184
11
1.47165
21
-6.71142
0
LINE
8
BLACK
6
CONTINUOUS
10
1.47165
20
-6.71142
11
1.48504
21
-6.71142
0
LINE
8
BLACK
6
CONTINUOUS
10
1.48504
20
-6.71142
11
1.48715
21
-6.71184
0
LINE
8
BLACK
6
CONTINUOUS
10
3.90841
20
-6.71184
11
3.9102
21
-6.71303
0
LINE
8
BLACK
6
CONTINUOUS
10
3.9102
20
-6.71303
11
3.91139
21
-6.71482
0
LINE
8
BLACK
6
CONTINUOUS
10
3.91139
20
-6.71482
11
3.91181
21
-6.71693
0
LINE
8
BLACK
6
CONTINUOUS
10
3.91181
20
-6.71693
11
3.91181
21
-6.72795
0
LINE
8
BLACK
6
CONTINUOUS
10
3.91181
20
-6.72795
11
3.91139
21
-6.73006
0
LINE
8
BLACK
6
CONTINUOUS
10
3.91139
20
-6.73006
11
3.9102
21
-6.73185
0
LINE
8
BLACK
6
CONTINUOUS
10
3.9102
20
-6.73185
11
3.90841
21
-6.73304
0
LINE
8
BLACK
6
CONTINUOUS
10
3.90841
20
-6.73304
11
3.9063
21
-6.73346
0
LINE
8
BLACK
6
CONTINUOUS
10
3.9063
20
-6.73346
11
3.89291
21
-6.73346
0
LINE
8
BLACK
6
CONTINUOUS
10
3.89291
20
-6.73346
11
3.8908
21
-6.73304
0
LINE
8
BLACK
6
CONTINUOUS
10
3.8908
20
-6.73304
11
3.88902
21
-6.73185
0
LINE
8
BLACK
6
CONTINUOUS
10
3.88902
20
-6.73185
11
3.88782
21
-6.73006
0
LINE
8
BLACK
6
CONTINUOUS
10
3.88782
20
-6.73006
11
3.8874
21
-6.72795
0
LINE
8
BLACK
6
CONTINUOUS
10
3.8874
20
-6.72795
11
3.8874
21
-6.71693
0
LINE
8
BLACK
6
CONTINUOUS
10
3.8874
20
-6.71693
11
3.88782
21
-6.71482
0
LINE
8
BLACK
6
CONTINUOUS
10
3.88782
20
-6.71482
11
3.88902
21
-6.71303
0
LINE
8
BLACK
6
CONTINUOUS
10
3.88902
20
-6.71303
11
3.8908
21
-6.71184
0
LINE
8
BLACK
6
CONTINUOUS
10
3.8908
20
-6.71184
11
3.89291
21
-6.71142
0
LINE
8
BLACK
6
CONTINUOUS
10
3.89291
20
-6.71142
11
3.9063
21
-6.71142
0
LINE
8
BLACK
6
CONTINUOUS
10
3.9063
20
-6.71142
11
3.90841
21
-6.71184
0
LINE
8
BLACK
6
CONTINUOUS
10
1.5275
20
-6.71184
11
1.52929
21
-6.71303
0
LINE
8
BLACK
6
CONTINUOUS
10
1.52929
20
-6.71303
11
1.53049
21
-6.71482
0
LINE
8
BLACK
6
CONTINUOUS
10
1.53049
20
-6.71482
11
1.53091
21
-6.71693
0
LINE
8
BLACK
6
CONTINUOUS
10
1.53091
20
-6.71693
11
1.53091
21
-6.72795
0
LINE
8
BLACK
6
CONTINUOUS
10
1.53091
20
-6.72795
11
1.53049
21
-6.73006
0
LINE
8
BLACK
6
CONTINUOUS
10
1.53049
20
-6.73006
11
1.52929
21
-6.73185
0
LINE
8
BLACK
6
CONTINUOUS
10
1.52929
20
-6.73185
11
1.5275
21
-6.73304
0
LINE
8
BLACK
6
CONTINUOUS
10
1.5275
20
-6.73304
11
1.52539
21
-6.73346
0
LINE
8
BLACK
6
CONTINUOUS
10
1.52539
20
-6.73346
11
1.51201
21
-6.73346
0
LINE
8
BLACK
6
CONTINUOUS
10
1.51201
20
-6.73346
11
1.5099
21
-6.73304
0
LINE
8
BLACK
6
CONTINUOUS
10
1.5099
20
-6.73304
11
1.50811
21
-6.73185
0
LINE
8
BLACK
6
CONTINUOUS
10
1.50811
20
-6.73185
11
1.50692
21
-6.73006
0
LINE
8
BLACK
6
CONTINUOUS
10
1.50692
20
-6.73006
11
1.5065
21
-6.72795
0
LINE
8
BLACK
6
CONTINUOUS
10
1.5065
20
-6.72795
11
1.5065
21
-6.71693
0
LINE
8
BLACK
6
CONTINUOUS
10
1.5065
20
-6.71693
11
1.50692
21
-6.71482
0
LINE
8
BLACK
6
CONTINUOUS
10
1.50692
20
-6.71482
11
1.50811
21
-6.71303
0
LINE
8
BLACK
6
CONTINUOUS
10
1.50811
20
-6.71303
11
1.5099
21
-6.71184
0
LINE
8
BLACK
6
CONTINUOUS
10
1.5099
20
-6.71184
11
1.51201
21
-6.71142
0
LINE
8
BLACK
6
CONTINUOUS
10
1.51201
20
-6.71142
11
1.52539
21
-6.71142
0
LINE
8
BLACK
6
CONTINUOUS
10
1.52539
20
-6.71142
11
1.5275
21
-6.71184
0
LINE
8
BLACK
6
CONTINUOUS
10
1.56786
20
-6.71184
11
1.56965
21
-6.71303
0
LINE
8
BLACK
6
CONTINUOUS
10
1.56965
20
-6.71303
11
1.57084
21
-6.71482
0
LINE
8
BLACK
6
CONTINUOUS
10
1.57084
20
-6.71482
11
1.57126
21
-6.71693
0
LINE
8
BLACK
6
CONTINUOUS
10
1.57126
20
-6.71693
11
1.57126
21
-6.72795
0
LINE
8
BLACK
6
CONTINUOUS
10
1.57126
20
-6.72795
11
1.57084
21
-6.73006
0
LINE
8
BLACK
6
CONTINUOUS
10
1.57084
20
-6.73006
11
1.56965
21
-6.73185
0
LINE
8
BLACK
6
CONTINUOUS
10
1.56965
20
-6.73185
11
1.56786
21
-6.73304
0
LINE
8
BLACK
6
CONTINUOUS
10
1.56786
20
-6.73304
11
1.56575
21
-6.73346
0
LINE
8
BLACK
6
CONTINUOUS
10
1.56575
20
-6.73346
11
1.55236
21
-6.73346
0
LINE
8
BLACK
6
CONTINUOUS
10
1.55236
20
-6.73346
11
1.55025
21
-6.73304
0
LINE
8
BLACK
6
CONTINUOUS
10
1.55025
20
-6.73304
11
1.54846
21
-6.73185
0
LINE
8
BLACK
6
CONTINUOUS
10
1.54846
20
-6.73185
11
1.54727
21
-6.73006
0
LINE
8
BLACK
6
CONTINUOUS
10
1.54727
20
-6.73006
11
1.54685
21
-6.72795
0
LINE
8
BLACK
6
CONTINUOUS
10
1.54685
20
-6.72795
11
1.54685
21
-6.71693
0
LINE
8
BLACK
6
CONTINUOUS
10
1.54685
20
-6.71693
11
1.54727
21
-6.71482
0
LINE
8
BLACK
6
CONTINUOUS
10
1.54727
20
-6.71482
11
1.54846
21
-6.71303
0
LINE
8
BLACK
6
CONTINUOUS
10
1.54846
20
-6.71303
11
1.55025
21
-6.71184
0
LINE
8
BLACK
6
CONTINUOUS
10
1.55025
20
-6.71184
11
1.55236
21
-6.71142
0
LINE
8
BLACK
6
CONTINUOUS
10
1.55236
20
-6.71142
11
1.56575
21
-6.71142
0
LINE
8
BLACK
6
CONTINUOUS
10
1.56575
20
-6.71142
11
1.56786
21
-6.71184
0
LINE
8
BLACK
6
CONTINUOUS
10
3.94778
20
-6.71184
11
3.94957
21
-6.71303
0
LINE
8
BLACK
6
CONTINUOUS
10
3.94957
20
-6.71303
11
3.95076
21
-6.71482
0
LINE
8
BLACK
6
CONTINUOUS
10
3.95076
20
-6.71482
11
3.95118
21
-6.71693
0
LINE
8
BLACK
6
CONTINUOUS
10
3.95118
20
-6.71693
11
3.95118
21
-6.72795
0
LINE
8
BLACK
6
CONTINUOUS
10
3.95118
20
-6.72795
11
3.95076
21
-6.73006
0
LINE
8
BLACK
6
CONTINUOUS
10
3.95076
20
-6.73006
11
3.94957
21
-6.73185
0
LINE
8
BLACK
6
CONTINUOUS
10
3.94957
20
-6.73185
11
3.94778
21
-6.73304
0
LINE
8
BLACK
6
CONTINUOUS
10
3.94778
20
-6.73304
11
3.94567
21
-6.73346
0
LINE
8
BLACK
6
CONTINUOUS
10
3.94567
20
-6.73346
11
3.93228
21
-6.73346
0
LINE
8
BLACK
6
CONTINUOUS
10
3.93228
20
-6.73346
11
3.93017
21
-6.73304
0
LINE
8
BLACK
6
CONTINUOUS
10
3.93017
20
-6.73304
11
3.92839
21
-6.73185
0
LINE
8
BLACK
6
CONTINUOUS
10
3.92839
20
-6.73185
11
3.92719
21
-6.73006
0
LINE
8
BLACK
6
CONTINUOUS
10
3.92719
20
-6.73006
11
3.92677
21
-6.72795
0
LINE
8
BLACK
6
CONTINUOUS
10
3.92677
20
-6.72795
11
3.92677
21
-6.71693
0
LINE
8
BLACK
6
CONTINUOUS
10
3.92677
20
-6.71693
11
3.92719
21
-6.71482
0
LINE
8
BLACK
6
CONTINUOUS
10
3.92719
20
-6.71482
11
3.92839
21
-6.71303
0
LINE
8
BLACK
6
CONTINUOUS
10
3.92839
20
-6.71303
11
3.93017
21
-6.71184
0
LINE
8
BLACK
6
CONTINUOUS
10
3.93017
20
-6.71184
11
3.93228
21
-6.71142
0
LINE
8
BLACK
6
CONTINUOUS
10
3.93228
20
-6.71142
11
3.94567
21
-6.71142
0
LINE
8
BLACK
6
CONTINUOUS
10
3.94567
20
-6.71142
11
3.94778
21
-6.71184
0
LINE
8
BLACK
6
CONTINUOUS
10
3.86904
20
-6.71184
11
3.87083
21
-6.71303
0
LINE
8
BLACK
6
CONTINUOUS
10
3.87083
20
-6.71303
11
3.87202
21
-6.71482
0
LINE
8
BLACK
6
CONTINUOUS
10
3.87202
20
-6.71482
11
3.87244
21
-6.71693
0
LINE
8
BLACK
6
CONTINUOUS
10
3.87244
20
-6.71693
11
3.87244
21
-6.72795
0
LINE
8
BLACK
6
CONTINUOUS
10
3.87244
20
-6.72795
11
3.87202
21
-6.73006
0
LINE
8
BLACK
6
CONTINUOUS
10
3.87202
20
-6.73006
11
3.87083
21
-6.73185
0
LINE
8
BLACK
6
CONTINUOUS
10
3.87083
20
-6.73185
11
3.86904
21
-6.73304
0
LINE
8
BLACK
6
CONTINUOUS
10
3.86904
20
-6.73304
11
3.86693
21
-6.73346
0
LINE
8
BLACK
6
CONTINUOUS
10
3.86693
20
-6.73346
11
3.85354
21
-6.73346
0
LINE
8
BLACK
6
CONTINUOUS
10
3.85354
20
-6.73346
11
3.85143
21
-6.73304
0
LINE
8
BLACK
6
CONTINUOUS
10
3.85143
20
-6.73304
11
3.84965
21
-6.73185
0
LINE
8
BLACK
6
CONTINUOUS
10
3.84965
20
-6.73185
11
3.84845
21
-6.73006
0
LINE
8
BLACK
6
CONTINUOUS
10
3.84845
20
-6.73006
11
3.84803
21
-6.72795
0
LINE
8
BLACK
6
CONTINUOUS
10
3.84803
20
-6.72795
11
3.84803
21
-6.71693
0
LINE
8
BLACK
6
CONTINUOUS
10
3.84803
20
-6.71693
11
3.84845
21
-6.71482
0
LINE
8
BLACK
6
CONTINUOUS
10
3.84845
20
-6.71482
11
3.84965
21
-6.71303
0
LINE
8
BLACK
6
CONTINUOUS
10
3.84965
20
-6.71303
11
3.85143
21
-6.71184
0
LINE
8
BLACK
6
CONTINUOUS
10
3.85143
20
-6.71184
11
3.85354
21
-6.71142
0
LINE
8
BLACK
6
CONTINUOUS
10
3.85354
20
-6.71142
11
3.86693
21
-6.71142
0
LINE
8
BLACK
6
CONTINUOUS
10
3.86693
20
-6.71142
11
3.86904
21
-6.71184
0
LINE
8
BLACK
6
CONTINUOUS
10
3.15053
20
-6.67463
11
3.15232
21
-6.67583
0
LINE
8
BLACK
6
CONTINUOUS
10
3.15232
20
-6.67583
11
3.15352
21
-6.67762
0
LINE
8
BLACK
6
CONTINUOUS
10
3.15352
20
-6.67762
11
3.15394
21
-6.67972
0
LINE
8
BLACK
6
CONTINUOUS
10
3.15394
20
-6.67972
11
3.15394
21
-6.69075
0
LINE
8
BLACK
6
CONTINUOUS
10
3.15394
20
-6.69075
11
3.15352
21
-6.69286
0
LINE
8
BLACK
6
CONTINUOUS
10
3.15352
20
-6.69286
11
3.15232
21
-6.69465
0
LINE
8
BLACK
6
CONTINUOUS
10
3.15232
20
-6.69465
11
3.15053
21
-6.69584
0
LINE
8
BLACK
6
CONTINUOUS
10
3.15053
20
-6.69584
11
3.14843
21
-6.69626
0
LINE
8
BLACK
6
CONTINUOUS
10
3.14843
20
-6.69626
11
3.13504
21
-6.69626
0
LINE
8
BLACK
6
CONTINUOUS
10
3.13504
20
-6.69626
11
3.13293
21
-6.69584
0
LINE
8
BLACK
6
CONTINUOUS
10
3.13293
20
-6.69584
11
3.13114
21
-6.69465
0
LINE
8
BLACK
6
CONTINUOUS
10
3.13114
20
-6.69465
11
3.12995
21
-6.69286
0
LINE
8
BLACK
6
CONTINUOUS
10
3.12995
20
-6.69286
11
3.12953
21
-6.69075
0
LINE
8
BLACK
6
CONTINUOUS
10
3.12953
20
-6.69075
11
3.12953
21
-6.67972
0
LINE
8
BLACK
6
CONTINUOUS
10
3.12953
20
-6.67972
11
3.12995
21
-6.67762
0
LINE
8
BLACK
6
CONTINUOUS
10
3.12995
20
-6.67762
11
3.13114
21
-6.67583
0
LINE
8
BLACK
6
CONTINUOUS
10
3.13114
20
-6.67583
11
3.13293
21
-6.67463
0
LINE
8
BLACK
6
CONTINUOUS
10
3.13293
20
-6.67463
11
3.13504
21
-6.67421
0
LINE
8
BLACK
6
CONTINUOUS
10
3.13504
20
-6.67421
11
3.14843
21
-6.67421
0
LINE
8
BLACK
6
CONTINUOUS
10
3.14843
20
-6.67421
11
3.15053
21
-6.67463
0
LINE
8
BLACK
6
CONTINUOUS
10
2.31884
20
-6.67444
11
2.32063
21
-6.67563
0
LINE
8
BLACK
6
CONTINUOUS
10
2.32063
20
-6.67563
11
2.32182
21
-6.67742
0
LINE
8
BLACK
6
CONTINUOUS
10
2.32182
20
-6.67742
11
2.32224
21
-6.67953
0
LINE
8
BLACK
6
CONTINUOUS
10
2.32224
20
-6.67953
11
2.32224
21
-6.69055
0
LINE
8
BLACK
6
CONTINUOUS
10
2.32224
20
-6.69055
11
2.32182
21
-6.69266
0
LINE
8
BLACK
6
CONTINUOUS
10
2.32182
20
-6.69266
11
2.32063
21
-6.69445
0
LINE
8
BLACK
6
CONTINUOUS
10
2.32063
20
-6.69445
11
2.31884
21
-6.69564
0
LINE
8
BLACK
6
CONTINUOUS
10
2.31884
20
-6.69564
11
2.31673
21
-6.69606
0
LINE
8
BLACK
6
CONTINUOUS
10
2.31673
20
-6.69606
11
2.30335
21
-6.69606
0
LINE
8
BLACK
6
CONTINUOUS
10
2.30335
20
-6.69606
11
2.30124
21
-6.69564
0
LINE
8
BLACK
6
CONTINUOUS
10
2.30124
20
-6.69564
11
2.29945
21
-6.69445
0
LINE
8
BLACK
6
CONTINUOUS
10
2.29945
20
-6.69445
11
2.29825
21
-6.69266
0
LINE
8
BLACK
6
CONTINUOUS
10
2.29825
20
-6.69266
11
2.29783
21
-6.69055
0
LINE
8
BLACK
6
CONTINUOUS
10
2.29783
20
-6.69055
11
2.29783
21
-6.67953
0
LINE
8
BLACK
6
CONTINUOUS
10
2.29783
20
-6.67953
11
2.29825
21
-6.67742
0
LINE
8
BLACK
6
CONTINUOUS
10
2.29825
20
-6.67742
11
2.29945
21
-6.67563
0
LINE
8
BLACK
6
CONTINUOUS
10
2.29945
20
-6.67563
11
2.30124
21
-6.67444
0
LINE
8
BLACK
6
CONTINUOUS
10
2.30124
20
-6.67444
11
2.30335
21
-6.67402
0
LINE
8
BLACK
6
CONTINUOUS
10
2.30335
20
-6.67402
11
2.31673
21
-6.67402
0
LINE
8
BLACK
6
CONTINUOUS
10
2.31673
20
-6.67402
11
2.31884
21
-6.67444
0
LINE
8
BLACK
6
CONTINUOUS
10
2.3592
20
-6.67444
11
2.36098
21
-6.67563
0
LINE
8
BLACK
6
CONTINUOUS
10
2.36098
20
-6.67563
11
2.36218
21
-6.67742
0
LINE
8
BLACK
6
CONTINUOUS
10
2.36218
20
-6.67742
11
2.3626
21
-6.67953
0
LINE
8
BLACK
6
CONTINUOUS
10
2.3626
20
-6.67953
11
2.3626
21
-6.69055
0
LINE
8
BLACK
6
CONTINUOUS
10
2.3626
20
-6.69055
11
2.36218
21
-6.69266
0
LINE
8
BLACK
6
CONTINUOUS
10
2.36218
20
-6.69266
11
2.36098
21
-6.69445
0
LINE
8
BLACK
6
CONTINUOUS
10
2.36098
20
-6.69445
11
2.3592
21
-6.69564
0
LINE
8
BLACK
6
CONTINUOUS
10
2.3592
20
-6.69564
11
2.35709
21
-6.69606
0
LINE
8
BLACK
6
CONTINUOUS
10
2.35709
20
-6.69606
11
2.3437
21
-6.69606
0
LINE
8
BLACK
6
CONTINUOUS
10
2.3437
20
-6.69606
11
2.34159
21
-6.69564
0
LINE
8
BLACK
6
CONTINUOUS
10
2.34159
20
-6.69564
11
2.3398
21
-6.69445
0
LINE
8
BLACK
6
CONTINUOUS
10
2.3398
20
-6.69445
11
2.33861
21
-6.69266
0
LINE
8
BLACK
6
CONTINUOUS
10
2.33861
20
-6.69266
11
2.33819
21
-6.69055
0
LINE
8
BLACK
6
CONTINUOUS
10
2.33819
20
-6.69055
11
2.33819
21
-6.67953
0
LINE
8
BLACK
6
CONTINUOUS
10
2.33819
20
-6.67953
11
2.33861
21
-6.67742
0
LINE
8
BLACK
6
CONTINUOUS
10
2.33861
20
-6.67742
11
2.3398
21
-6.67563
0
LINE
8
BLACK
6
CONTINUOUS
10
2.3398
20
-6.67563
11
2.34159
21
-6.67444
0
LINE
8
BLACK
6
CONTINUOUS
10
2.34159
20
-6.67444
11
2.3437
21
-6.67402
0
LINE
8
BLACK
6
CONTINUOUS
10
2.3437
20
-6.67402
11
2.35709
21
-6.67402
0
LINE
8
BLACK
6
CONTINUOUS
10
2.35709
20
-6.67402
11
2.3592
21
-6.67444
0
LINE
8
BLACK
6
CONTINUOUS
10
3.0714
20
-6.67444
11
3.07319
21
-6.67563
0
LINE
8
BLACK
6
CONTINUOUS
10
3.07319
20
-6.67563
11
3.07438
21
-6.67742
0
LINE
8
BLACK
6
CONTINUOUS
10
3.07438
20
-6.67742
11
3.0748
21
-6.67953
0
LINE
8
BLACK
6
CONTINUOUS
10
3.0748
20
-6.67953
11
3.0748
21
-6.69055
0
LINE
8
BLACK
6
CONTINUOUS
10
3.0748
20
-6.69055
11
3.07438
21
-6.69266
0
LINE
8
BLACK
6
CONTINUOUS
10
3.07438
20
-6.69266
11
3.07319
21
-6.69445
0
LINE
8
BLACK
6
CONTINUOUS
10
3.07319
20
-6.69445
11
3.0714
21
-6.69564
0
LINE
8
BLACK
6
CONTINUOUS
10
3.0714
20
-6.69564
11
3.06929
21
-6.69606
0
LINE
8
BLACK
6
CONTINUOUS
10
3.06929
20
-6.69606
11
3.05591
21
-6.69606
0
LINE
8
BLACK
6
CONTINUOUS
10
3.05591
20
-6.69606
11
3.0538
21
-6.69564
0
LINE
8
BLACK
6
CONTINUOUS
10
3.0538
20
-6.69564
11
3.05201
21
-6.69445
0
LINE
8
BLACK
6
CONTINUOUS
10
3.05201
20
-6.69445
11
3.05081
21
-6.69266
0
LINE
8
BLACK
6
CONTINUOUS
10
3.05081
20
-6.69266
11
3.05039
21
-6.69055
0
LINE
8
BLACK
6
CONTINUOUS
10
3.05039
20
-6.69055
11
3.05039
21
-6.67953
0
LINE
8
BLACK
6
CONTINUOUS
10
3.05039
20
-6.67953
11
3.05081
21
-6.67742
0
LINE
8
BLACK
6
CONTINUOUS
10
3.05081
20
-6.67742
11
3.05201
21
-6.67563
0
LINE
8
BLACK
6
CONTINUOUS
10
3.05201
20
-6.67563
11
3.0538
21
-6.67444
0
LINE
8
BLACK
6
CONTINUOUS
10
3.0538
20
-6.67444
11
3.05591
21
-6.67402
0
LINE
8
BLACK
6
CONTINUOUS
10
3.05591
20
-6.67402
11
3.06929
21
-6.67402
0
LINE
8
BLACK
6
CONTINUOUS
10
3.06929
20
-6.67402
11
3.0714
21
-6.67444
0
LINE
8
BLACK
6
CONTINUOUS
10
2.27849
20
-6.67444
11
2.28028
21
-6.67563
0
LINE
8
BLACK
6
CONTINUOUS
10
2.28028
20
-6.67563
11
2.28147
21
-6.67742
0
LINE
8
BLACK
6
CONTINUOUS
10
2.28147
20
-6.67742
11
2.28189
21
-6.67953
0
LINE
8
BLACK
6
CONTINUOUS
10
2.28189
20
-6.67953
11
2.28189
21
-6.69055
0
LINE
8
BLACK
6
CONTINUOUS
10
2.28189
20
-6.69055
11
2.28147
21
-6.69266
0
LINE
8
BLACK
6
CONTINUOUS
10
2.28147
20
-6.69266
11
2.28028
21
-6.69445
0
LINE
8
BLACK
6
CONTINUOUS
10
2.28028
20
-6.69445
11
2.27849
21
-6.69564
0
LINE
8
BLACK
6
CONTINUOUS
10
2.27849
20
-6.69564
11
2.27638
21
-6.69606
0
LINE
8
BLACK
6
CONTINUOUS
10
2.27638
20
-6.69606
11
2.26299
21
-6.69606
0
LINE
8
BLACK
6
CONTINUOUS
10
2.26299
20
-6.69606
11
2.26088
21
-6.69564
0
LINE
8
BLACK
6
CONTINUOUS
10
2.26088
20
-6.69564
11
2.25909
21
-6.69445
0
LINE
8
BLACK
6
CONTINUOUS
10
2.25909
20
-6.69445
11
2.2579
21
-6.69266
0
LINE
8
BLACK
6
CONTINUOUS
10
2.2579
20
-6.69266
11
2.25748
21
-6.69055
0
LINE
8
BLACK
6
CONTINUOUS
10
2.25748
20
-6.69055
11
2.25748
21
-6.67953
0
LINE
8
BLACK
6
CONTINUOUS
10
2.25748
20
-6.67953
11
2.2579
21
-6.67742
0
LINE
8
BLACK
6
CONTINUOUS
10
2.2579
20
-6.67742
11
2.25909
21
-6.67563
0
LINE
8
BLACK
6
CONTINUOUS
10
2.25909
20
-6.67563
11
2.26088
21
-6.67444
0
LINE
8
BLACK
6
CONTINUOUS
10
2.26088
20
-6.67444
11
2.26299
21
-6.67402
0
LINE
8
BLACK
6
CONTINUOUS
10
2.26299
20
-6.67402
11
2.27638
21
-6.67402
0
LINE
8
BLACK
6
CONTINUOUS
10
2.27638
20
-6.67402
11
2.27849
21
-6.67444
0
LINE
8
BLACK
6
CONTINUOUS
10
3.11116
20
-6.67444
11
3.11295
21
-6.67563
0
LINE
8
BLACK
6
CONTINUOUS
10
3.11295
20
-6.67563
11
3.11415
21
-6.67742
0
LINE
8
BLACK
6
CONTINUOUS
10
3.11415
20
-6.67742
11
3.11457
21
-6.67953
0
LINE
8
BLACK
6
CONTINUOUS
10
3.11457
20
-6.67953
11
3.11457
21
-6.69055
0
LINE
8
BLACK
6
CONTINUOUS
10
3.11457
20
-6.69055
11
3.11415
21
-6.69266
0
LINE
8
BLACK
6
CONTINUOUS
10
3.11415
20
-6.69266
11
3.11295
21
-6.69445
0
LINE
8
BLACK
6
CONTINUOUS
10
3.11295
20
-6.69445
11
3.11116
21
-6.69564
0
LINE
8
BLACK
6
CONTINUOUS
10
3.11116
20
-6.69564
11
3.10906
21
-6.69606
0
LINE
8
BLACK
6
CONTINUOUS
10
3.10906
20
-6.69606
11
3.09567
21
-6.69606
0
LINE
8
BLACK
6
CONTINUOUS
10
3.09567
20
-6.69606
11
3.09356
21
-6.69564
0
LINE
8
BLACK
6
CONTINUOUS
10
3.09356
20
-6.69564
11
3.09177
21
-6.69445
0
LINE
8
BLACK
6
CONTINUOUS
10
3.09177
20
-6.69445
11
3.09058
21
-6.69266
0
LINE
8
BLACK
6
CONTINUOUS
10
3.09058
20
-6.69266
11
3.09016
21
-6.69055
0
LINE
8
BLACK
6
CONTINUOUS
10
3.09016
20
-6.69055
11
3.09016
21
-6.67953
0
LINE
8
BLACK
6
CONTINUOUS
10
3.09016
20
-6.67953
11
3.09058
21
-6.67742
0
LINE
8
BLACK
6
CONTINUOUS
10
3.09058
20
-6.67742
11
3.09177
21
-6.67563
0
LINE
8
BLACK
6
CONTINUOUS
10
3.09177
20
-6.67563
11
3.09356
21
-6.67444
0
LINE
8
BLACK
6
CONTINUOUS
10
3.09356
20
-6.67444
11
3.09567
21
-6.67402
0
LINE
8
BLACK
6
CONTINUOUS
10
3.09567
20
-6.67402
11
3.10906
21
-6.67402
0
LINE
8
BLACK
6
CONTINUOUS
10
3.10906
20
-6.67402
11
3.11116
21
-6.67444
0
LINE
8
BLACK
6
CONTINUOUS
10
3.90841
20
-6.67404
11
3.9102
21
-6.67524
0
LINE
8
BLACK
6
CONTINUOUS
10
3.9102
20
-6.67524
11
3.91139
21
-6.67702
0
LINE
8
BLACK
6
CONTINUOUS
10
3.91139
20
-6.67702
11
3.91181
21
-6.67913
0
LINE
8
BLACK
6
CONTINUOUS
10
3.91181
20
-6.67913
11
3.91181
21
-6.69016
0
LINE
8
BLACK
6
CONTINUOUS
10
3.91181
20
-6.69016
11
3.91139
21
-6.69227
0
LINE
8
BLACK
6
CONTINUOUS
10
3.91139
20
-6.69227
11
3.9102
21
-6.69405
0
LINE
8
BLACK
6
CONTINUOUS
10
3.9102
20
-6.69405
11
3.90841
21
-6.69525
0
LINE
8
BLACK
6
CONTINUOUS
10
3.90841
20
-6.69525
11
3.9063
21
-6.69567
0
LINE
8
BLACK
6
CONTINUOUS
10
3.9063
20
-6.69567
11
3.89291
21
-6.69567
0
LINE
8
BLACK
6
CONTINUOUS
10
3.89291
20
-6.69567
11
3.8908
21
-6.69525
0
LINE
8
BLACK
6
CONTINUOUS
10
3.8908
20
-6.69525
11
3.88902
21
-6.69405
0
LINE
8
BLACK
6
CONTINUOUS
10
3.88902
20
-6.69405
11
3.88782
21
-6.69227
0
LINE
8
BLACK
6
CONTINUOUS
10
3.88782
20
-6.69227
11
3.8874
21
-6.69016
0
LINE
8
BLACK
6
CONTINUOUS
10
3.8874
20
-6.69016
11
3.8874
21
-6.67913
0
LINE
8
BLACK
6
CONTINUOUS
10
3.8874
20
-6.67913
11
3.88782
21
-6.67702
0
LINE
8
BLACK
6
CONTINUOUS
10
3.88782
20
-6.67702
11
3.88902
21
-6.67524
0
LINE
8
BLACK
6
CONTINUOUS
10
3.88902
20
-6.67524
11
3.8908
21
-6.67404
0
LINE
8
BLACK
6
CONTINUOUS
10
3.8908
20
-6.67404
11
3.89291
21
-6.67362
0
LINE
8
BLACK
6
CONTINUOUS
10
3.89291
20
-6.67362
11
3.9063
21
-6.67362
0
LINE
8
BLACK
6
CONTINUOUS
10
3.9063
20
-6.67362
11
3.90841
21
-6.67404
0
LINE
8
BLACK
6
CONTINUOUS
10
1.5275
20
-6.67404
11
1.52929
21
-6.67524
0
LINE
8
BLACK
6
CONTINUOUS
10
1.52929
20
-6.67524
11
1.53049
21
-6.67702
0
LINE
8
BLACK
6
CONTINUOUS
10
1.53049
20
-6.67702
11
1.53091
21
-6.67913
0
LINE
8
BLACK
6
CONTINUOUS
10
1.53091
20
-6.67913
11
1.53091
21
-6.69016
0
LINE
8
BLACK
6
CONTINUOUS
10
1.53091
20
-6.69016
11
1.53049
21
-6.69227
0
LINE
8
BLACK
6
CONTINUOUS
10
1.53049
20
-6.69227
11
1.52929
21
-6.69405
0
LINE
8
BLACK
6
CONTINUOUS
10
1.52929
20
-6.69405
11
1.5275
21
-6.69525
0
LINE
8
BLACK
6
CONTINUOUS
10
1.5275
20
-6.69525
11
1.52539
21
-6.69567
0
LINE
8
BLACK
6
CONTINUOUS
10
1.52539
20
-6.69567
11
1.51201
21
-6.69567
0
LINE
8
BLACK
6
CONTINUOUS
10
1.51201
20
-6.69567
11
1.5099
21
-6.69525
0
LINE
8
BLACK
6
CONTINUOUS
10
1.5099
20
-6.69525
11
1.50811
21
-6.69405
0
LINE
8
BLACK
6
CONTINUOUS
10
1.50811
20
-6.69405
11
1.50692
21
-6.69227
0
LINE
8
BLACK
6
CONTINUOUS
10
1.50692
20
-6.69227
11
1.5065
21
-6.69016
0
LINE
8
BLACK
6
CONTINUOUS
10
1.5065
20
-6.69016
11
1.5065
21
-6.67913
0
LINE
8
BLACK
6
CONTINUOUS
10
1.5065
20
-6.67913
11
1.50692
21
-6.67702
0
LINE
8
BLACK
6
CONTINUOUS
10
1.50692
20
-6.67702
11
1.50811
21
-6.67524
0
LINE
8
BLACK
6
CONTINUOUS
10
1.50811
20
-6.67524
11
1.5099
21
-6.67404
0
LINE
8
BLACK
6
CONTINUOUS
10
1.5099
20
-6.67404
11
1.51201
21
-6.67362
0
LINE
8
BLACK
6
CONTINUOUS
10
1.51201
20
-6.67362
11
1.52539
21
-6.67362
0
LINE
8
BLACK
6
CONTINUOUS
10
1.52539
20
-6.67362
11
1.5275
21
-6.67404
0
LINE
8
BLACK
6
CONTINUOUS
10
1.48715
20
-6.67404
11
1.48894
21
-6.67524
0
LINE
8
BLACK
6
CONTINUOUS
10
1.48894
20
-6.67524
11
1.49013
21
-6.67702
0
LINE
8
BLACK
6
CONTINUOUS
10
1.49013
20
-6.67702
11
1.49055
21
-6.67913
0
LINE
8
BLACK
6
CONTINUOUS
10
1.49055
20
-6.67913
11
1.49055
21
-6.69016
0
LINE
8
BLACK
6
CONTINUOUS
10
1.49055
20
-6.69016
11
1.49013
21
-6.69227
0
LINE
8
BLACK
6
CONTINUOUS
10
1.49013
20
-6.69227
11
1.48894
21
-6.69405
0
LINE
8
BLACK
6
CONTINUOUS
10
1.48894
20
-6.69405
11
1.48715
21
-6.69525
0
LINE
8
BLACK
6
CONTINUOUS
10
1.48715
20
-6.69525
11
1.48504
21
-6.69567
0
LINE
8
BLACK
6
CONTINUOUS
10
1.48504
20
-6.69567
11
1.47165
21
-6.69567
0
LINE
8
BLACK
6
CONTINUOUS
10
1.47165
20
-6.69567
11
1.46954
21
-6.69525
0
LINE
8
BLACK
6
CONTINUOUS
10
1.46954
20
-6.69525
11
1.46776
21
-6.69405
0
LINE
8
BLACK
6
CONTINUOUS
10
1.46776
20
-6.69405
11
1.46656
21
-6.69227
0
LINE
8
BLACK
6
CONTINUOUS
10
1.46656
20
-6.69227
11
1.46614
21
-6.69016
0
LINE
8
BLACK
6
CONTINUOUS
10
1.46614
20
-6.69016
11
1.46614
21
-6.67913
0
LINE
8
BLACK
6
CONTINUOUS
10
1.46614
20
-6.67913
11
1.46656
21
-6.67702
0
LINE
8
BLACK
6
CONTINUOUS
10
1.46656
20
-6.67702
11
1.46776
21
-6.67524
0
LINE
8
BLACK
6
CONTINUOUS
10
1.46776
20
-6.67524
11
1.46954
21
-6.67404
0
LINE
8
BLACK
6
CONTINUOUS
10
1.46954
20
-6.67404
11
1.47165
21
-6.67362
0
LINE
8
BLACK
6
CONTINUOUS
10
1.47165
20
-6.67362
11
1.48504
21
-6.67362
0
LINE
8
BLACK
6
CONTINUOUS
10
1.48504
20
-6.67362
11
1.48715
21
-6.67404
0
LINE
8
BLACK
6
CONTINUOUS
10
1.56786
20
-6.67404
11
1.56965
21
-6.67524
0
LINE
8
BLACK
6
CONTINUOUS
10
1.56965
20
-6.67524
11
1.57084
21
-6.67702
0
LINE
8
BLACK
6
CONTINUOUS
10
1.57084
20
-6.67702
11
1.57126
21
-6.67913
0
LINE
8
BLACK
6
CONTINUOUS
10
1.57126
20
-6.67913
11
1.57126
21
-6.69016
0
LINE
8
BLACK
6
CONTINUOUS
10
1.57126
20
-6.69016
11
1.57084
21
-6.69227
0
LINE
8
BLACK
6
CONTINUOUS
10
1.57084
20
-6.69227
11
1.56965
21
-6.69405
0
LINE
8
BLACK
6
CONTINUOUS
10
1.56965
20
-6.69405
11
1.56786
21
-6.69525
0
LINE
8
BLACK
6
CONTINUOUS
10
1.56786
20
-6.69525
11
1.56575
21
-6.69567
0
LINE
8
BLACK
6
CONTINUOUS
10
1.56575
20
-6.69567
11
1.55236
21
-6.69567
0
LINE
8
BLACK
6
CONTINUOUS
10
1.55236
20
-6.69567
11
1.55025
21
-6.69525
0
LINE
8
BLACK
6
CONTINUOUS
10
1.55025
20
-6.69525
11
1.54846
21
-6.69405
0
LINE
8
BLACK
6
CONTINUOUS
10
1.54846
20
-6.69405
11
1.54727
21
-6.69227
0
LINE
8
BLACK
6
CONTINUOUS
10
1.54727
20
-6.69227
11
1.54685
21
-6.69016
0
LINE
8
BLACK
6
CONTINUOUS
10
1.54685
20
-6.69016
11
1.54685
21
-6.67913
0
LINE
8
BLACK
6
CONTINUOUS
10
1.54685
20
-6.67913
11
1.54727
21
-6.67702
0
LINE
8
BLACK
6
CONTINUOUS
10
1.54727
20
-6.67702
11
1.54846
21
-6.67524
0
LINE
8
BLACK
6
CONTINUOUS
10
1.54846
20
-6.67524
11
1.55025
21
-6.67404
0
LINE
8
BLACK
6
CONTINUOUS
10
1.55025
20
-6.67404
11
1.55236
21
-6.67362
0
LINE
8
BLACK
6
CONTINUOUS
10
1.55236
20
-6.67362
11
1.56575
21
-6.67362
0
LINE
8
BLACK
6
CONTINUOUS
10
1.56575
20
-6.67362
11
1.56786
21
-6.67404
0
LINE
8
BLACK
6
CONTINUOUS
10
3.94778
20
-6.67404
11
3.94957
21
-6.67524
0
LINE
8
BLACK
6
CONTINUOUS
10
3.94957
20
-6.67524
11
3.95076
21
-6.67702
0
LINE
8
BLACK
6
CONTINUOUS
10
3.95076
20
-6.67702
11
3.95118
21
-6.67913
0
LINE
8
BLACK
6
CONTINUOUS
10
3.95118
20
-6.67913
11
3.95118
21
-6.69016
0
LINE
8
BLACK
6
CONTINUOUS
10
3.95118
20
-6.69016
11
3.95076
21
-6.69227
0
LINE
8
BLACK
6
CONTINUOUS
10
3.95076
20
-6.69227
11
3.94957
21
-6.69405
0
LINE
8
BLACK
6
CONTINUOUS
10
3.94957
20
-6.69405
11
3.94778
21
-6.69525
0
LINE
8
BLACK
6
CONTINUOUS
10
3.94778
20
-6.69525
11
3.94567
21
-6.69567
0
LINE
8
BLACK
6
CONTINUOUS
10
3.94567
20
-6.69567
11
3.93228
21
-6.69567
0
LINE
8
BLACK
6
CONTINUOUS
10
3.93228
20
-6.69567
11
3.93017
21
-6.69525
0
LINE
8
BLACK
6
CONTINUOUS
10
3.93017
20
-6.69525
11
3.92839
21
-6.69405
0
LINE
8
BLACK
6
CONTINUOUS
10
3.92839
20
-6.69405
11
3.92719
21
-6.69227
0
LINE
8
BLACK
6
CONTINUOUS
10
3.92719
20
-6.69227
11
3.92677
21
-6.69016
0
LINE
8
BLACK
6
CONTINUOUS
10
3.92677
20
-6.69016
11
3.92677
21
-6.67913
0
LINE
8
BLACK
6
CONTINUOUS
10
3.92677
20
-6.67913
11
3.92719
21
-6.67702
0
LINE
8
BLACK
6
CONTINUOUS
10
3.92719
20
-6.67702
11
3.92839
21
-6.67524
0
LINE
8
BLACK
6
CONTINUOUS
10
3.92839
20
-6.67524
11
3.93017
21
-6.67404
0
LINE
8
BLACK
6
CONTINUOUS
10
3.93017
20
-6.67404
11
3.93228
21
-6.67362
0
LINE
8
BLACK
6
CONTINUOUS
10
3.93228
20
-6.67362
11
3.94567
21
-6.67362
0
LINE
8
BLACK
6
CONTINUOUS
10
3.94567
20
-6.67362
11
3.94778
21
-6.67404
0
LINE
8
BLACK
6
CONTINUOUS
10
3.86904
20
-6.67404
11
3.87083
21
-6.67524
0
LINE
8
BLACK
6
CONTINUOUS
10
3.87083
20
-6.67524
11
3.87202
21
-6.67702
0
LINE
8
BLACK
6
CONTINUOUS
10
3.87202
20
-6.67702
11
3.87244
21
-6.67913
0
LINE
8
BLACK
6
CONTINUOUS
10
3.87244
20
-6.67913
11
3.87244
21
-6.69016
0
LINE
8
BLACK
6
CONTINUOUS
10
3.87244
20
-6.69016
11
3.87202
21
-6.69227
0
LINE
8
BLACK
6
CONTINUOUS
10
3.87202
20
-6.69227
11
3.87083
21
-6.69405
0
LINE
8
BLACK
6
CONTINUOUS
10
3.87083
20
-6.69405
11
3.86904
21
-6.69525
0
LINE
8
BLACK
6
CONTINUOUS
10
3.86904
20
-6.69525
11
3.86693
21
-6.69567
0
LINE
8
BLACK
6
CONTINUOUS
10
3.86693
20
-6.69567
11
3.85354
21
-6.69567
0
LINE
8
BLACK
6
CONTINUOUS
10
3.85354
20
-6.69567
11
3.85143
21
-6.69525
0
LINE
8
BLACK
6
CONTINUOUS
10
3.85143
20
-6.69525
11
3.84965
21
-6.69405
0
LINE
8
BLACK
6
CONTINUOUS
10
3.84965
20
-6.69405
11
3.84845
21
-6.69227
0
LINE
8
BLACK
6
CONTINUOUS
10
3.84845
20
-6.69227
11
3.84803
21
-6.69016
0
LINE
8
BLACK
6
CONTINUOUS
10
3.84803
20
-6.69016
11
3.84803
21
-6.67913
0
LINE
8
BLACK
6
CONTINUOUS
10
3.84803
20
-6.67913
11
3.84845
21
-6.67702
0
LINE
8
BLACK
6
CONTINUOUS
10
3.84845
20
-6.67702
11
3.84965
21
-6.67524
0
LINE
8
BLACK
6
CONTINUOUS
10
3.84965
20
-6.67524
11
3.85143
21
-6.67404
0
LINE
8
BLACK
6
CONTINUOUS
10
3.85143
20
-6.67404
11
3.85354
21
-6.67362
0
LINE
8
BLACK
6
CONTINUOUS
10
3.85354
20
-6.67362
11
3.86693
21
-6.67362
0
LINE
8
BLACK
6
CONTINUOUS
10
3.86693
20
-6.67362
11
3.86904
21
-6.67404
0
LINE
8
BLACK
6
CONTINUOUS
10
1.98703
20
-5.94563
11
1.99023
21
-5.94776
0
LINE
8
BLACK
6
CONTINUOUS
10
1.99023
20
-5.94776
11
1.99236
21
-5.95096
0
LINE
8
BLACK
6
CONTINUOUS
10
1.99236
20
-5.95096
11
1.99311
21
-5.95472
0
LINE
8
BLACK
6
CONTINUOUS
10
1.99311
20
-5.95472
11
1.99311
21
-5.97441
0
LINE
8
BLACK
6
CONTINUOUS
10
1.99311
20
-5.97441
11
1.99236
21
-5.97818
0
LINE
8
BLACK
6
CONTINUOUS
10
1.99236
20
-5.97818
11
1.99023
21
-5.98137
0
LINE
8
BLACK
6
CONTINUOUS
10
1.99023
20
-5.98137
11
1.98703
21
-5.9835
0
LINE
8
BLACK
6
CONTINUOUS
10
1.98703
20
-5.9835
11
1.98327
21
-5.98425
0
LINE
8
BLACK
6
CONTINUOUS
10
1.98327
20
-5.98425
11
1.94587
21
-5.98425
0
LINE
8
BLACK
6
CONTINUOUS
10
1.94587
20
-5.98425
11
1.9421
21
-5.9835
0
LINE
8
BLACK
6
CONTINUOUS
10
1.9421
20
-5.9835
11
1.93891
21
-5.98137
0
LINE
8
BLACK
6
CONTINUOUS
10
1.93891
20
-5.98137
11
1.93677
21
-5.97818
0
LINE
8
BLACK
6
CONTINUOUS
10
1.93677
20
-5.97818
11
1.93602
21
-5.97441
0
LINE
8
BLACK
6
CONTINUOUS
10
1.93602
20
-5.97441
11
1.93602
21
-5.95472
0
LINE
8
BLACK
6
CONTINUOUS
10
1.93602
20
-5.95472
11
1.93677
21
-5.95096
0
LINE
8
BLACK
6
CONTINUOUS
10
1.93677
20
-5.95096
11
1.93891
21
-5.94776
0
LINE
8
BLACK
6
CONTINUOUS
10
1.93891
20
-5.94776
11
1.9421
21
-5.94563
0
LINE
8
BLACK
6
CONTINUOUS
10
1.9421
20
-5.94563
11
1.94587
21
-5.94488
0
LINE
8
BLACK
6
CONTINUOUS
10
1.94587
20
-5.94488
11
1.98327
21
-5.94488
0
LINE
8
BLACK
6
CONTINUOUS
10
1.98327
20
-5.94488
11
1.98703
21
-5.94563
0
LINE
8
BLACK
6
CONTINUOUS
10
1.89648
20
-5.94563
11
1.89968
21
-5.94776
0
LINE
8
BLACK
6
CONTINUOUS
10
1.89968
20
-5.94776
11
1.90181
21
-5.95096
0
LINE
8
BLACK
6
CONTINUOUS
10
1.90181
20
-5.95096
11
1.90256
21
-5.95472
0
LINE
8
BLACK
6
CONTINUOUS
10
1.90256
20
-5.95472
11
1.90256
21
-5.97441
0
LINE
8
BLACK
6
CONTINUOUS
10
1.90256
20
-5.97441
11
1.90181
21
-5.97818
0
LINE
8
BLACK
6
CONTINUOUS
10
1.90181
20
-5.97818
11
1.89968
21
-5.98137
0
LINE
8
BLACK
6
CONTINUOUS
10
1.89968
20
-5.98137
11
1.89648
21
-5.9835
0
LINE
8
BLACK
6
CONTINUOUS
10
1.89648
20
-5.9835
11
1.89272
21
-5.98425
0
LINE
8
BLACK
6
CONTINUOUS
10
1.89272
20
-5.98425
11
1.85531
21
-5.98425
0
LINE
8
BLACK
6
CONTINUOUS
10
1.85531
20
-5.98425
11
1.85155
21
-5.9835
0
LINE
8
BLACK
6
CONTINUOUS
10
1.85155
20
-5.9835
11
1.84836
21
-5.98137
0
LINE
8
BLACK
6
CONTINUOUS
10
1.84836
20
-5.98137
11
1.84622
21
-5.97818
0
LINE
8
BLACK
6
CONTINUOUS
10
1.84622
20
-5.97818
11
1.84547
21
-5.97441
0
LINE
8
BLACK
6
CONTINUOUS
10
1.84547
20
-5.97441
11
1.84547
21
-5.95472
0
LINE
8
BLACK
6
CONTINUOUS
10
1.84547
20
-5.95472
11
1.84622
21
-5.95096
0
LINE
8
BLACK
6
CONTINUOUS
10
1.84622
20
-5.95096
11
1.84836
21
-5.94776
0
LINE
8
BLACK
6
CONTINUOUS
10
1.84836
20
-5.94776
11
1.85155
21
-5.94563
0
LINE
8
BLACK
6
CONTINUOUS
10
1.85155
20
-5.94563
11
1.85531
21
-5.94488
0
LINE
8
BLACK
6
CONTINUOUS
10
1.85531
20
-5.94488
11
1.89272
21
-5.94488
0
LINE
8
BLACK
6
CONTINUOUS
10
1.89272
20
-5.94488
11
1.89648
21
-5.94563
0
LINE
8
BLACK
6
CONTINUOUS
10
3.56774
20
-5.94563
11
3.57094
21
-5.94776
0
LINE
8
BLACK
6
CONTINUOUS
10
3.57094
20
-5.94776
11
3.57307
21
-5.95096
0
LINE
8
BLACK
6
CONTINUOUS
10
3.57307
20
-5.95096
11
3.57382
21
-5.95472
0
LINE
8
BLACK
6
CONTINUOUS
10
3.57382
20
-5.95472
11
3.57382
21
-5.97441
0
LINE
8
BLACK
6
CONTINUOUS
10
3.57382
20
-5.97441
11
3.57307
21
-5.97818
0
LINE
8
BLACK
6
CONTINUOUS
10
3.57307
20
-5.97818
11
3.57094
21
-5.98137
0
LINE
8
BLACK
6
CONTINUOUS
10
3.57094
20
-5.98137
11
3.56774
21
-5.9835
0
LINE
8
BLACK
6
CONTINUOUS
10
3.56774
20
-5.9835
11
3.56398
21
-5.98425
0
LINE
8
BLACK
6
CONTINUOUS
10
3.56398
20
-5.98425
11
3.52657
21
-5.98425
0
LINE
8
BLACK
6
CONTINUOUS
10
3.52657
20
-5.98425
11
3.52281
21
-5.9835
0
LINE
8
BLACK
6
CONTINUOUS
10
3.52281
20
-5.9835
11
3.51962
21
-5.98137
0
LINE
8
BLACK
6
CONTINUOUS
10
3.51962
20
-5.98137
11
3.51748
21
-5.97818
0
LINE
8
BLACK
6
CONTINUOUS
10
3.51748
20
-5.97818
11
3.51673
21
-5.97441
0
LINE
8
BLACK
6
CONTINUOUS
10
3.51673
20
-5.97441
11
3.51673
21
-5.95472
0
LINE
8
BLACK
6
CONTINUOUS
10
3.51673
20
-5.95472
11
3.51748
21
-5.95096
0
LINE
8
BLACK
6
CONTINUOUS
10
3.51748
20
-5.95096
11
3.51962
21
-5.94776
0
LINE
8
BLACK
6
CONTINUOUS
10
3.51962
20
-5.94776
11
3.52281
21
-5.94563
0
LINE
8
BLACK
6
CONTINUOUS
10
3.52281
20
-5.94563
11
3.52657
21
-5.94488
0
LINE
8
BLACK
6
CONTINUOUS
10
3.52657
20
-5.94488
11
3.56398
21
-5.94488
0
LINE
8
BLACK
6
CONTINUOUS
10
3.56398
20
-5.94488
11
3.56774
21
-5.94563
0
LINE
8
BLACK
6
CONTINUOUS
10
3.47719
20
-5.94563
11
3.48038
21
-5.94776
0
LINE
8
BLACK
6
CONTINUOUS
10
3.48038
20
-5.94776
11
3.48252
21
-5.95096
0
LINE
8
BLACK
6
CONTINUOUS
10
3.48252
20
-5.95096
11
3.48327
21
-5.95472
0
LINE
8
BLACK
6
CONTINUOUS
10
3.48327
20
-5.95472
11
3.48327
21
-5.97441
0
LINE
8
BLACK
6
CONTINUOUS
10
3.48327
20
-5.97441
11
3.48252
21
-5.97818
0
LINE
8
BLACK
6
CONTINUOUS
10
3.48252
20
-5.97818
11
3.48038
21
-5.98137
0
LINE
8
BLACK
6
CONTINUOUS
10
3.48038
20
-5.98137
11
3.47719
21
-5.9835
0
LINE
8
BLACK
6
CONTINUOUS
10
3.47719
20
-5.9835
11
3.47343
21
-5.98425
0
LINE
8
BLACK
6
CONTINUOUS
10
3.47343
20
-5.98425
11
3.43602
21
-5.98425
0
LINE
8
BLACK
6
CONTINUOUS
10
3.43602
20
-5.98425
11
3.43226
21
-5.9835
0
LINE
8
BLACK
6
CONTINUOUS
10
3.43226
20
-5.9835
11
3.42906
21
-5.98137
0
LINE
8
BLACK
6
CONTINUOUS
10
3.42906
20
-5.98137
11
3.42693
21
-5.97818
0
LINE
8
BLACK
6
CONTINUOUS
10
3.42693
20
-5.97818
11
3.42618
21
-5.97441
0
LINE
8
BLACK
6
CONTINUOUS
10
3.42618
20
-5.97441
11
3.42618
21
-5.95472
0
LINE
8
BLACK
6
CONTINUOUS
10
3.42618
20
-5.95472
11
3.42693
21
-5.95096
0
LINE
8
BLACK
6
CONTINUOUS
10
3.42693
20
-5.95096
11
3.42906
21
-5.94776
0
LINE
8
BLACK
6
CONTINUOUS
10
3.42906
20
-5.94776
11
3.43226
21
-5.94563
0
LINE
8
BLACK
6
CONTINUOUS
10
3.43226
20
-5.94563
11
3.43602
21
-5.94488
0
LINE
8
BLACK
6
CONTINUOUS
10
3.43602
20
-5.94488
11
3.47343
21
-5.94488
0
LINE
8
BLACK
6
CONTINUOUS
10
3.47343
20
-5.94488
11
3.47719
21
-5.94563
0
LINE
8
BLACK
6
CONTINUOUS
10
1.89648
20
-5.87083
11
1.89968
21
-5.87296
0
LINE
8
BLACK
6
CONTINUOUS
10
1.89968
20
-5.87296
11
1.90181
21
-5.87615
0
LINE
8
BLACK
6
CONTINUOUS
10
1.90181
20
-5.87615
11
1.90256
21
-5.87992
0
LINE
8
BLACK
6
CONTINUOUS
10
1.90256
20
-5.87992
11
1.90256
21
-5.89961
0
LINE
8
BLACK
6
CONTINUOUS
10
1.90256
20
-5.89961
11
1.90181
21
-5.90337
0
LINE
8
BLACK
6
CONTINUOUS
10
1.90181
20
-5.90337
11
1.89968
21
-5.90657
0
LINE
8
BLACK
6
CONTINUOUS
10
1.89968
20
-5.90657
11
1.89648
21
-5.9087
0
LINE
8
BLACK
6
CONTINUOUS
10
1.89648
20
-5.9087
11
1.89272
21
-5.90945
0
LINE
8
BLACK
6
CONTINUOUS
10
1.89272
20
-5.90945
11
1.85531
21
-5.90945
0
LINE
8
BLACK
6
CONTINUOUS
10
1.85531
20
-5.90945
11
1.85155
21
-5.9087
0
LINE
8
BLACK
6
CONTINUOUS
10
1.85155
20
-5.9087
11
1.84836
21
-5.90657
0
LINE
8
BLACK
6
CONTINUOUS
10
1.84836
20
-5.90657
11
1.84622
21
-5.90337
0
LINE
8
BLACK
6
CONTINUOUS
10
1.84622
20
-5.90337
11
1.84547
21
-5.89961
0
LINE
8
BLACK
6
CONTINUOUS
10
1.84547
20
-5.89961
11
1.84547
21
-5.87992
0
LINE
8
BLACK
6
CONTINUOUS
10
1.84547
20
-5.87992
11
1.84622
21
-5.87615
0
LINE
8
BLACK
6
CONTINUOUS
10
1.84622
20
-5.87615
11
1.84836
21
-5.87296
0
LINE
8
BLACK
6
CONTINUOUS
10
1.84836
20
-5.87296
11
1.85155
21
-5.87083
0
LINE
8
BLACK
6
CONTINUOUS
10
1.85155
20
-5.87083
11
1.85531
21
-5.87008
0
LINE
8
BLACK
6
CONTINUOUS
10
1.85531
20
-5.87008
11
1.89272
21
-5.87008
0
LINE
8
BLACK
6
CONTINUOUS
10
1.89272
20
-5.87008
11
1.89648
21
-5.87083
0
LINE
8
BLACK
6
CONTINUOUS
10
3.56774
20
-5.87083
11
3.57094
21
-5.87296
0
LINE
8
BLACK
6
CONTINUOUS
10
3.57094
20
-5.87296
11
3.57307
21
-5.87615
0
LINE
8
BLACK
6
CONTINUOUS
10
3.57307
20
-5.87615
11
3.57382
21
-5.87992
0
LINE
8
BLACK
6
CONTINUOUS
10
3.57382
20
-5.87992
11
3.57382
21
-5.89961
0
LINE
8
BLACK
6
CONTINUOUS
10
3.57382
20
-5.89961
11
3.57307
21
-5.90337
0
LINE
8
BLACK
6
CONTINUOUS
10
3.57307
20
-5.90337
11
3.57094
21
-5.90657
0
LINE
8
BLACK
6
CONTINUOUS
10
3.57094
20
-5.90657
11
3.56774
21
-5.9087
0
LINE
8
BLACK
6
CONTINUOUS
10
3.56774
20
-5.9087
11
3.56398
21
-5.90945
0
LINE
8
BLACK
6
CONTINUOUS
10
3.56398
20
-5.90945
11
3.52657
21
-5.90945
0
LINE
8
BLACK
6
CONTINUOUS
10
3.52657
20
-5.90945
11
3.52281
21
-5.9087
0
LINE
8
BLACK
6
CONTINUOUS
10
3.52281
20
-5.9087
11
3.51962
21
-5.90657
0
LINE
8
BLACK
6
CONTINUOUS
10
3.51962
20
-5.90657
11
3.51748
21
-5.90337
0
LINE
8
BLACK
6
CONTINUOUS
10
3.51748
20
-5.90337
11
3.51673
21
-5.89961
0
LINE
8
BLACK
6
CONTINUOUS
10
3.51673
20
-5.89961
11
3.51673
21
-5.87992
0
LINE
8
BLACK
6
CONTINUOUS
10
3.51673
20
-5.87992
11
3.51748
21
-5.87615
0
LINE
8
BLACK
6
CONTINUOUS
10
3.51748
20
-5.87615
11
3.51962
21
-5.87296
0
LINE
8
BLACK
6
CONTINUOUS
10
3.51962
20
-5.87296
11
3.52281
21
-5.87083
0
LINE
8
BLACK
6
CONTINUOUS
10
3.52281
20
-5.87083
11
3.52657
21
-5.87008
0
LINE
8
BLACK
6
CONTINUOUS
10
3.52657
20
-5.87008
11
3.56398
21
-5.87008
0
LINE
8
BLACK
6
CONTINUOUS
10
3.56398
20
-5.87008
11
3.56774
21
-5.87083
0
LINE
8
BLACK
6
CONTINUOUS
10
1.98703
20
-5.87083
11
1.99023
21
-5.87296
0
LINE
8
BLACK
6
CONTINUOUS
10
1.99023
20
-5.87296
11
1.99236
21
-5.87615
0
LINE
8
BLACK
6
CONTINUOUS
10
1.99236
20
-5.87615
11
1.99311
21
-5.87992
0
LINE
8
BLACK
6
CONTINUOUS
10
1.99311
20
-5.87992
11
1.99311
21
-5.89961
0
LINE
8
BLACK
6
CONTINUOUS
10
1.99311
20
-5.89961
11
1.99236
21
-5.90337
0
LINE
8
BLACK
6
CONTINUOUS
10
1.99236
20
-5.90337
11
1.99023
21
-5.90657
0
LINE
8
BLACK
6
CONTINUOUS
10
1.99023
20
-5.90657
11
1.98703
21
-5.9087
0
LINE
8
BLACK
6
CONTINUOUS
10
1.98703
20
-5.9087
11
1.98327
21
-5.90945
0
LINE
8
BLACK
6
CONTINUOUS
10
1.98327
20
-5.90945
11
1.94587
21
-5.90945
0
LINE
8
BLACK
6
CONTINUOUS
10
1.94587
20
-5.90945
11
1.9421
21
-5.9087
0
LINE
8
BLACK
6
CONTINUOUS
10
1.9421
20
-5.9087
11
1.93891
21
-5.90657
0
LINE
8
BLACK
6
CONTINUOUS
10
1.93891
20
-5.90657
11
1.93677
21
-5.90337
0
LINE
8
BLACK
6
CONTINUOUS
10
1.93677
20
-5.90337
11
1.93602
21
-5.89961
0
LINE
8
BLACK
6
CONTINUOUS
10
1.93602
20
-5.89961
11
1.93602
21
-5.87992
0
LINE
8
BLACK
6
CONTINUOUS
10
1.93602
20
-5.87992
11
1.93677
21
-5.87615
0
LINE
8
BLACK
6
CONTINUOUS
10
1.93677
20
-5.87615
11
1.93891
21
-5.87296
0
LINE
8
BLACK
6
CONTINUOUS
10
1.93891
20
-5.87296
11
1.9421
21
-5.87083
0
LINE
8
BLACK
6
CONTINUOUS
10
1.9421
20
-5.87083
11
1.94587
21
-5.87008
0
LINE
8
BLACK
6
CONTINUOUS
10
1.94587
20
-5.87008
11
1.98327
21
-5.87008
0
LINE
8
BLACK
6
CONTINUOUS
10
1.98327
20
-5.87008
11
1.98703
21
-5.87083
0
LINE
8
BLACK
6
CONTINUOUS
10
3.47719
20
-5.87083
11
3.48038
21
-5.87296
0
LINE
8
BLACK
6
CONTINUOUS
10
3.48038
20
-5.87296
11
3.48252
21
-5.87615
0
LINE
8
BLACK
6
CONTINUOUS
10
3.48252
20
-5.87615
11
3.48327
21
-5.87992
0
LINE
8
BLACK
6
CONTINUOUS
10
3.48327
20
-5.87992
11
3.48327
21
-5.89961
0
LINE
8
BLACK
6
CONTINUOUS
10
3.48327
20
-5.89961
11
3.48252
21
-5.90337
0
LINE
8
BLACK
6
CONTINUOUS
10
3.48252
20
-5.90337
11
3.48038
21
-5.90657
0
LINE
8
BLACK
6
CONTINUOUS
10
3.48038
20
-5.90657
11
3.47719
21
-5.9087
0
LINE
8
BLACK
6
CONTINUOUS
10
3.47719
20
-5.9087
11
3.47343
21
-5.90945
0
LINE
8
BLACK
6
CONTINUOUS
10
3.47343
20
-5.90945
11
3.43602
21
-5.90945
0
LINE
8
BLACK
6
CONTINUOUS
10
3.43602
20
-5.90945
11
3.43226
21
-5.9087
0
LINE
8
BLACK
6
CONTINUOUS
10
3.43226
20
-5.9087
11
3.42906
21
-5.90657
0
LINE
8
BLACK
6
CONTINUOUS
10
3.42906
20
-5.90657
11
3.42693
21
-5.90337
0
LINE
8
BLACK
6
CONTINUOUS
10
3.42693
20
-5.90337
11
3.42618
21
-5.89961
0
LINE
8
BLACK
6
CONTINUOUS
10
3.42618
20
-5.89961
11
3.42618
21
-5.87992
0
LINE
8
BLACK
6
CONTINUOUS
10
3.42618
20
-5.87992
11
3.42693
21
-5.87615
0
LINE
8
BLACK
6
CONTINUOUS
10
3.42693
20
-5.87615
11
3.42906
21
-5.87296
0
LINE
8
BLACK
6
CONTINUOUS
10
3.42906
20
-5.87296
11
3.43226
21
-5.87083
0
LINE
8
BLACK
6
CONTINUOUS
10
3.43226
20
-5.87083
11
3.43602
21
-5.87008
0
LINE
8
BLACK
6
CONTINUOUS
10
3.43602
20
-5.87008
11
3.47343
21
-5.87008
0
LINE
8
BLACK
6
CONTINUOUS
10
3.47343
20
-5.87008
11
3.47719
21
-5.87083
0
LINE
8
BLACK
6
CONTINUOUS
10
2.13664
20
-5.66807
11
2.13983
21
-5.67021
0
LINE
8
BLACK
6
CONTINUOUS
10
2.13983
20
-5.67021
11
2.14197
21
-5.6734
0
LINE
8
BLACK
6
CONTINUOUS
10
2.14197
20
-5.6734
11
2.14272
21
-5.67717
0
LINE
8
BLACK
6
CONTINUOUS
10
2.14272
20
-5.67717
11
2.14272
21
-5.69685
0
LINE
8
BLACK
6
CONTINUOUS
10
2.14272
20
-5.69685
11
2.14197
21
-5.70062
0
LINE
8
BLACK
6
CONTINUOUS
10
2.14197
20
-5.70062
11
2.13983
21
-5.70381
0
LINE
8
BLACK
6
CONTINUOUS
10
2.13983
20
-5.70381
11
2.13664
21
-5.70594
0
LINE
8
BLACK
6
CONTINUOUS
10
2.13664
20
-5.70594
11
2.13287
21
-5.70669
0
LINE
8
BLACK
6
CONTINUOUS
10
2.13287
20
-5.70669
11
2.09547
21
-5.70669
0
LINE
8
BLACK
6
CONTINUOUS
10
2.09547
20
-5.70669
11
2.09171
21
-5.70594
0
LINE
8
BLACK
6
CONTINUOUS
10
2.09171
20
-5.70594
11
2.08851
21
-5.70381
0
LINE
8
BLACK
6
CONTINUOUS
10
2.08851
20
-5.70381
11
2.08638
21
-5.70062
0
LINE
8
BLACK
6
CONTINUOUS
10
2.08638
20
-5.70062
11
2.08563
21
-5.69685
0
LINE
8
BLACK
6
CONTINUOUS
10
2.08563
20
-5.69685
11
2.08563
21
-5.67717
0
LINE
8
BLACK
6
CONTINUOUS
10
2.08563
20
-5.67717
11
2.08638
21
-5.6734
0
LINE
8
BLACK
6
CONTINUOUS
10
2.08638
20
-5.6734
11
2.08851
21
-5.67021
0
LINE
8
BLACK
6
CONTINUOUS
10
2.08851
20
-5.67021
11
2.09171
21
-5.66807
0
LINE
8
BLACK
6
CONTINUOUS
10
2.09171
20
-5.66807
11
2.09547
21
-5.66732
0
LINE
8
BLACK
6
CONTINUOUS
10
2.09547
20
-5.66732
11
2.13287
21
-5.66732
0
LINE
8
BLACK
6
CONTINUOUS
10
2.13287
20
-5.66732
11
2.13664
21
-5.66807
0
LINE
8
BLACK
6
CONTINUOUS
10
2.13664
20
-5.59327
11
2.13983
21
-5.5954
0
LINE
8
BLACK
6
CONTINUOUS
10
2.13983
20
-5.5954
11
2.14197
21
-5.5986
0
LINE
8
BLACK
6
CONTINUOUS
10
2.14197
20
-5.5986
11
2.14272
21
-5.60236
0
LINE
8
BLACK
6
CONTINUOUS
10
2.14272
20
-5.60236
11
2.14272
21
-5.62205
0
LINE
8
BLACK
6
CONTINUOUS
10
2.14272
20
-5.62205
11
2.14197
21
-5.62581
0
LINE
8
BLACK
6
CONTINUOUS
10
2.14197
20
-5.62581
11
2.13983
21
-5.62901
0
LINE
8
BLACK
6
CONTINUOUS
10
2.13983
20
-5.62901
11
2.13664
21
-5.63114
0
LINE
8
BLACK
6
CONTINUOUS
10
2.13664
20
-5.63114
11
2.13287
21
-5.63189
0
LINE
8
BLACK
6
CONTINUOUS
10
2.13287
20
-5.63189
11
2.09547
21
-5.63189
0
LINE
8
BLACK
6
CONTINUOUS
10
2.09547
20
-5.63189
11
2.09171
21
-5.63114
0
LINE
8
BLACK
6
CONTINUOUS
10
2.09171
20
-5.63114
11
2.08851
21
-5.62901
0
LINE
8
BLACK
6
CONTINUOUS
10
2.08851
20
-5.62901
11
2.08638
21
-5.62581
0
LINE
8
BLACK
6
CONTINUOUS
10
2.08638
20
-5.62581
11
2.08563
21
-5.62205
0
LINE
8
BLACK
6
CONTINUOUS
10
2.08563
20
-5.62205
11
2.08563
21
-5.60236
0
LINE
8
BLACK
6
CONTINUOUS
10
2.08563
20
-5.60236
11
2.08638
21
-5.5986
0
LINE
8
BLACK
6
CONTINUOUS
10
2.08638
20
-5.5986
11
2.08851
21
-5.5954
0
LINE
8
BLACK
6
CONTINUOUS
10
2.08851
20
-5.5954
11
2.09171
21
-5.59327
0
LINE
8
BLACK
6
CONTINUOUS
10
2.09171
20
-5.59327
11
2.09547
21
-5.59252
0
LINE
8
BLACK
6
CONTINUOUS
10
2.09547
20
-5.59252
11
2.13287
21
-5.59252
0
LINE
8
BLACK
6
CONTINUOUS
10
2.13287
20
-5.59252
11
2.13664
21
-5.59327
  0
ENDSEC
  0
EOF
