  0
SECTION
  2
HEADER
  9
$ANGBASE
  50
0.0
  9
$ANGDIR
  70
1
  9
$MEASUREMENT
  70
0
  0
ENDSEC
  0
SECTION
  2
TABLES
  0
TABLE
  2
LTYPE
  70
4
  0
LTYPE
  5
40F
  2
CONTINUOUS
  70
0
  3
Solid line
  72
65
  73
0
  40
0.0
  0
LTYPE
  5
410
  2
DASHDOT
 70
0
  3
Dash Dot ____ _ ____ _
 72
65
 73
4
 40
2.0
 49
1.25
 49
-0.25
 49
0.25
 49
-0.25
  0
LTYPE
  5
411
  2
DASHED
 70
0
  3
Dashed __ __ __ __ __
 72
65
 73
2
 40
0.75
 49
0.5
 49
-0.25
  0
LTYPE
  5
43B
  2
DOTTED
 70
0
  3
Dotted .  .  .  .
 72
65
 73
2
 40
0.2
 49
0.0
 49
-0.2
  0
ENDTAB
  0
TABLE
  2
STYLE
  70
4
  0
STYLE
  2
KICAD
  70
0
  40
0
  41
1
  42
1
  50
0
  71
0
  3
isocp.shx
  0
STYLE
  2
KICADB
  70
0
  40
0
  41
1
  42
1
  50
0
  71
0
  3
isocp.shx
  0
STYLE
  2
KICADI
  70
0
  40
0
  41
1
  42
1
  50
15
  71
0
  3
isocp.shx
  0
STYLE
  2
KICADBI
  70
0
  40
0
  41
1
  42
1
  50
15
  71
0
  3
isocp.shx
  0
ENDTAB
  0
TABLE
  2
LAYER
  70
1
  0
LAYER
  2
BLACK
  70
0
  62
7
  6
CONTINUOUS
  0
ENDTAB
  0
ENDSEC
  0
SECTION
  2
ENTITIES
0
LINE
8
BLACK
6
CONTINUOUS
10
1.82233
20
-7.0598
11
1.83344
21
-7.06201
0
LINE
8
BLACK
6
CONTINUOUS
10
1.83344
20
-7.06201
11
1.84417
21
-7.06565
0
LINE
8
BLACK
6
CONTINUOUS
10
1.84417
20
-7.06565
11
1.85433
21
-7.07066
0
LINE
8
BLACK
6
CONTINUOUS
10
1.85433
20
-7.07066
11
1.86375
21
-7.07695
0
LINE
8
BLACK
6
CONTINUOUS
10
1.86375
20
-7.07695
11
1.87227
21
-7.08442
0
LINE
8
BLACK
6
CONTINUOUS
10
1.87227
20
-7.08442
11
1.87974
21
-7.09294
0
LINE
8
BLACK
6
CONTINUOUS
10
1.87974
20
-7.09294
11
1.88603
21
-7.10236
0
LINE
8
BLACK
6
CONTINUOUS
10
1.88603
20
-7.10236
11
1.89104
21
-7.11252
0
LINE
8
BLACK
6
CONTINUOUS
10
1.89104
20
-7.11252
11
1.89469
21
-7.12325
0
LINE
8
BLACK
6
CONTINUOUS
10
1.89469
20
-7.12325
11
1.8969
21
-7.13436
0
LINE
8
BLACK
6
CONTINUOUS
10
1.8969
20
-7.13436
11
1.89764
21
-7.14567
0
LINE
8
BLACK
6
CONTINUOUS
10
1.89764
20
-7.14567
11
1.8969
21
-7.15697
0
LINE
8
BLACK
6
CONTINUOUS
10
1.8969
20
-7.15697
11
1.89469
21
-7.16809
0
LINE
8
BLACK
6
CONTINUOUS
10
1.89469
20
-7.16809
11
1.89104
21
-7.17882
0
LINE
8
BLACK
6
CONTINUOUS
10
1.89104
20
-7.17882
11
1.88603
21
-7.18898
0
LINE
8
BLACK
6
CONTINUOUS
10
1.88603
20
-7.18898
11
1.87974
21
-7.1984
0
LINE
8
BLACK
6
CONTINUOUS
10
1.87974
20
-7.1984
11
1.87227
21
-7.20691
0
LINE
8
BLACK
6
CONTINUOUS
10
1.87227
20
-7.20691
11
1.86375
21
-7.21438
0
LINE
8
BLACK
6
CONTINUOUS
10
1.86375
20
-7.21438
11
1.85433
21
-7.22068
0
LINE
8
BLACK
6
CONTINUOUS
10
1.85433
20
-7.22068
11
1.84417
21
-7.22569
0
LINE
8
BLACK
6
CONTINUOUS
10
1.84417
20
-7.22569
11
1.83344
21
-7.22933
0
LINE
8
BLACK
6
CONTINUOUS
10
1.83344
20
-7.22933
11
1.82233
21
-7.23154
0
LINE
8
BLACK
6
CONTINUOUS
10
1.82233
20
-7.23154
11
1.81102
21
-7.23228
0
LINE
8
BLACK
6
CONTINUOUS
10
1.81102
20
-7.23228
11
1.79972
21
-7.23154
0
LINE
8
BLACK
6
CONTINUOUS
10
1.79972
20
-7.23154
11
1.78861
21
-7.22933
0
LINE
8
BLACK
6
CONTINUOUS
10
1.78861
20
-7.22933
11
1.77788
21
-7.22569
0
LINE
8
BLACK
6
CONTINUOUS
10
1.77788
20
-7.22569
11
1.76772
21
-7.22068
0
LINE
8
BLACK
6
CONTINUOUS
10
1.76772
20
-7.22068
11
1.7583
21
-7.21438
0
LINE
8
BLACK
6
CONTINUOUS
10
1.7583
20
-7.21438
11
1.74978
21
-7.20691
0
LINE
8
BLACK
6
CONTINUOUS
10
1.74978
20
-7.20691
11
1.74231
21
-7.1984
0
LINE
8
BLACK
6
CONTINUOUS
10
1.74231
20
-7.1984
11
1.73601
21
-7.18898
0
LINE
8
BLACK
6
CONTINUOUS
10
1.73601
20
-7.18898
11
1.731
21
-7.17882
0
LINE
8
BLACK
6
CONTINUOUS
10
1.731
20
-7.17882
11
1.72736
21
-7.16809
0
LINE
8
BLACK
6
CONTINUOUS
10
1.72736
20
-7.16809
11
1.72515
21
-7.15697
0
LINE
8
BLACK
6
CONTINUOUS
10
1.72515
20
-7.15697
11
1.72441
21
-7.14567
0
LINE
8
BLACK
6
CONTINUOUS
10
1.72441
20
-7.14567
11
1.72515
21
-7.13436
0
LINE
8
BLACK
6
CONTINUOUS
10
1.72515
20
-7.13436
11
1.72736
21
-7.12325
0
LINE
8
BLACK
6
CONTINUOUS
10
1.72736
20
-7.12325
11
1.731
21
-7.11252
0
LINE
8
BLACK
6
CONTINUOUS
10
1.731
20
-7.11252
11
1.73601
21
-7.10236
0
LINE
8
BLACK
6
CONTINUOUS
10
1.73601
20
-7.10236
11
1.74231
21
-7.09294
0
LINE
8
BLACK
6
CONTINUOUS
10
1.74231
20
-7.09294
11
1.74978
21
-7.08442
0
LINE
8
BLACK
6
CONTINUOUS
10
1.74978
20
-7.08442
11
1.7583
21
-7.07695
0
LINE
8
BLACK
6
CONTINUOUS
10
1.7583
20
-7.07695
11
1.76772
21
-7.07066
0
LINE
8
BLACK
6
CONTINUOUS
10
1.76772
20
-7.07066
11
1.77788
21
-7.06565
0
LINE
8
BLACK
6
CONTINUOUS
10
1.77788
20
-7.06565
11
1.78861
21
-7.06201
0
LINE
8
BLACK
6
CONTINUOUS
10
1.78861
20
-7.06201
11
1.79972
21
-7.0598
0
LINE
8
BLACK
6
CONTINUOUS
10
1.79972
20
-7.0598
11
1.81102
21
-7.05906
0
LINE
8
BLACK
6
CONTINUOUS
10
1.81102
20
-7.05906
11
1.82233
21
-7.0598
0
LINE
8
BLACK
6
CONTINUOUS
10
3.4365
20
-7.0598
11
3.44761
21
-7.06201
0
LINE
8
BLACK
6
CONTINUOUS
10
3.44761
20
-7.06201
11
3.45834
21
-7.06565
0
LINE
8
BLACK
6
CONTINUOUS
10
3.45834
20
-7.06565
11
3.4685
21
-7.07066
0
LINE
8
BLACK
6
CONTINUOUS
10
3.4685
20
-7.07066
11
3.47792
21
-7.07695
0
LINE
8
BLACK
6
CONTINUOUS
10
3.47792
20
-7.07695
11
3.48644
21
-7.08442
0
LINE
8
BLACK
6
CONTINUOUS
10
3.48644
20
-7.08442
11
3.49391
21
-7.09294
0
LINE
8
BLACK
6
CONTINUOUS
10
3.49391
20
-7.09294
11
3.50021
21
-7.10236
0
LINE
8
BLACK
6
CONTINUOUS
10
3.50021
20
-7.10236
11
3.50522
21
-7.11252
0
LINE
8
BLACK
6
CONTINUOUS
10
3.50522
20
-7.11252
11
3.50886
21
-7.12325
0
LINE
8
BLACK
6
CONTINUOUS
10
3.50886
20
-7.12325
11
3.51107
21
-7.13436
0
LINE
8
BLACK
6
CONTINUOUS
10
3.51107
20
-7.13436
11
3.51181
21
-7.14567
0
LINE
8
BLACK
6
CONTINUOUS
10
3.51181
20
-7.14567
11
3.51107
21
-7.15697
0
LINE
8
BLACK
6
CONTINUOUS
10
3.51107
20
-7.15697
11
3.50886
21
-7.16809
0
LINE
8
BLACK
6
CONTINUOUS
10
3.50886
20
-7.16809
11
3.50522
21
-7.17882
0
LINE
8
BLACK
6
CONTINUOUS
10
3.50522
20
-7.17882
11
3.50021
21
-7.18898
0
LINE
8
BLACK
6
CONTINUOUS
10
3.50021
20
-7.18898
11
3.49391
21
-7.1984
0
LINE
8
BLACK
6
CONTINUOUS
10
3.49391
20
-7.1984
11
3.48644
21
-7.20691
0
LINE
8
BLACK
6
CONTINUOUS
10
3.48644
20
-7.20691
11
3.47792
21
-7.21438
0
LINE
8
BLACK
6
CONTINUOUS
10
3.47792
20
-7.21438
11
3.4685
21
-7.22068
0
LINE
8
BLACK
6
CONTINUOUS
10
3.4685
20
-7.22068
11
3.45834
21
-7.22569
0
LINE
8
BLACK
6
CONTINUOUS
10
3.45834
20
-7.22569
11
3.44761
21
-7.22933
0
LINE
8
BLACK
6
CONTINUOUS
10
3.44761
20
-7.22933
11
3.4365
21
-7.23154
0
LINE
8
BLACK
6
CONTINUOUS
10
3.4365
20
-7.23154
11
3.4252
21
-7.23228
0
LINE
8
BLACK
6
CONTINUOUS
10
3.4252
20
-7.23228
11
3.41389
21
-7.23154
0
LINE
8
BLACK
6
CONTINUOUS
10
3.41389
20
-7.23154
11
3.40278
21
-7.22933
0
LINE
8
BLACK
6
CONTINUOUS
10
3.40278
20
-7.22933
11
3.39205
21
-7.22569
0
LINE
8
BLACK
6
CONTINUOUS
10
3.39205
20
-7.22569
11
3.38189
21
-7.22068
0
LINE
8
BLACK
6
CONTINUOUS
10
3.38189
20
-7.22068
11
3.37247
21
-7.21438
0
LINE
8
BLACK
6
CONTINUOUS
10
3.37247
20
-7.21438
11
3.36395
21
-7.20691
0
LINE
8
BLACK
6
CONTINUOUS
10
3.36395
20
-7.20691
11
3.35648
21
-7.1984
0
LINE
8
BLACK
6
CONTINUOUS
10
3.35648
20
-7.1984
11
3.35019
21
-7.18898
0
LINE
8
BLACK
6
CONTINUOUS
10
3.35019
20
-7.18898
11
3.34518
21
-7.17882
0
LINE
8
BLACK
6
CONTINUOUS
10
3.34518
20
-7.17882
11
3.34153
21
-7.16809
0
LINE
8
BLACK
6
CONTINUOUS
10
3.34153
20
-7.16809
11
3.33932
21
-7.15697
0
LINE
8
BLACK
6
CONTINUOUS
10
3.33932
20
-7.15697
11
3.33858
21
-7.14567
0
LINE
8
BLACK
6
CONTINUOUS
10
3.33858
20
-7.14567
11
3.33932
21
-7.13436
0
LINE
8
BLACK
6
CONTINUOUS
10
3.33932
20
-7.13436
11
3.34153
21
-7.12325
0
LINE
8
BLACK
6
CONTINUOUS
10
3.34153
20
-7.12325
11
3.34518
21
-7.11252
0
LINE
8
BLACK
6
CONTINUOUS
10
3.34518
20
-7.11252
11
3.35019
21
-7.10236
0
LINE
8
BLACK
6
CONTINUOUS
10
3.35019
20
-7.10236
11
3.35648
21
-7.09294
0
LINE
8
BLACK
6
CONTINUOUS
10
3.35648
20
-7.09294
11
3.36395
21
-7.08442
0
LINE
8
BLACK
6
CONTINUOUS
10
3.36395
20
-7.08442
11
3.37247
21
-7.07695
0
LINE
8
BLACK
6
CONTINUOUS
10
3.37247
20
-7.07695
11
3.38189
21
-7.07066
0
LINE
8
BLACK
6
CONTINUOUS
10
3.38189
20
-7.07066
11
3.39205
21
-7.06565
0
LINE
8
BLACK
6
CONTINUOUS
10
3.39205
20
-7.06565
11
3.40278
21
-7.06201
0
LINE
8
BLACK
6
CONTINUOUS
10
3.40278
20
-7.06201
11
3.41389
21
-7.0598
0
LINE
8
BLACK
6
CONTINUOUS
10
3.41389
20
-7.0598
11
3.4252
21
-7.05906
0
LINE
8
BLACK
6
CONTINUOUS
10
3.4252
20
-7.05906
11
3.4365
21
-7.0598
0
LINE
8
BLACK
6
CONTINUOUS
10
1.13335
20
-6.78421
11
1.14446
21
-6.78642
0
LINE
8
BLACK
6
CONTINUOUS
10
1.14446
20
-6.78642
11
1.15519
21
-6.79006
0
LINE
8
BLACK
6
CONTINUOUS
10
1.15519
20
-6.79006
11
1.16535
21
-6.79507
0
LINE
8
BLACK
6
CONTINUOUS
10
1.16535
20
-6.79507
11
1.17477
21
-6.80136
0
LINE
8
BLACK
6
CONTINUOUS
10
1.17477
20
-6.80136
11
1.18329
21
-6.80883
0
LINE
8
BLACK
6
CONTINUOUS
10
1.18329
20
-6.80883
11
1.19076
21
-6.81735
0
LINE
8
BLACK
6
CONTINUOUS
10
1.19076
20
-6.81735
11
1.19706
21
-6.82677
0
LINE
8
BLACK
6
CONTINUOUS
10
1.19706
20
-6.82677
11
1.20207
21
-6.83693
0
LINE
8
BLACK
6
CONTINUOUS
10
1.20207
20
-6.83693
11
1.20571
21
-6.84766
0
LINE
8
BLACK
6
CONTINUOUS
10
1.20571
20
-6.84766
11
1.20792
21
-6.85877
0
LINE
8
BLACK
6
CONTINUOUS
10
1.20792
20
-6.85877
11
1.20866
21
-6.87008
0
LINE
8
BLACK
6
CONTINUOUS
10
1.20866
20
-6.87008
11
1.20792
21
-6.88138
0
LINE
8
BLACK
6
CONTINUOUS
10
1.20792
20
-6.88138
11
1.20571
21
-6.8925
0
LINE
8
BLACK
6
CONTINUOUS
10
1.20571
20
-6.8925
11
1.20207
21
-6.90322
0
LINE
8
BLACK
6
CONTINUOUS
10
1.20207
20
-6.90322
11
1.19706
21
-6.91339
0
LINE
8
BLACK
6
CONTINUOUS
10
1.19706
20
-6.91339
11
1.19076
21
-6.92281
0
LINE
8
BLACK
6
CONTINUOUS
10
1.19076
20
-6.92281
11
1.18329
21
-6.93132
0
LINE
8
BLACK
6
CONTINUOUS
10
1.18329
20
-6.93132
11
1.17477
21
-6.93879
0
LINE
8
BLACK
6
CONTINUOUS
10
1.17477
20
-6.93879
11
1.16535
21
-6.94509
0
LINE
8
BLACK
6
CONTINUOUS
10
1.16535
20
-6.94509
11
1.15519
21
-6.9501
0
LINE
8
BLACK
6
CONTINUOUS
10
1.15519
20
-6.9501
11
1.14446
21
-6.95374
0
LINE
8
BLACK
6
CONTINUOUS
10
1.14446
20
-6.95374
11
1.13335
21
-6.95595
0
LINE
8
BLACK
6
CONTINUOUS
10
1.13335
20
-6.95595
11
1.12205
21
-6.95669
0
LINE
8
BLACK
6
CONTINUOUS
10
1.12205
20
-6.95669
11
1.11074
21
-6.95595
0
LINE
8
BLACK
6
CONTINUOUS
10
1.11074
20
-6.95595
11
1.09963
21
-6.95374
0
LINE
8
BLACK
6
CONTINUOUS
10
1.09963
20
-6.95374
11
1.0889
21
-6.9501
0
LINE
8
BLACK
6
CONTINUOUS
10
1.0889
20
-6.9501
11
1.07874
21
-6.94509
0
LINE
8
BLACK
6
CONTINUOUS
10
1.07874
20
-6.94509
11
1.06932
21
-6.93879
0
LINE
8
BLACK
6
CONTINUOUS
10
1.06932
20
-6.93879
11
1.0608
21
-6.93132
0
LINE
8
BLACK
6
CONTINUOUS
10
1.0608
20
-6.93132
11
1.05333
21
-6.92281
0
LINE
8
BLACK
6
CONTINUOUS
10
1.05333
20
-6.92281
11
1.04704
21
-6.91339
0
LINE
8
BLACK
6
CONTINUOUS
10
1.04704
20
-6.91339
11
1.04203
21
-6.90322
0
LINE
8
BLACK
6
CONTINUOUS
10
1.04203
20
-6.90322
11
1.03838
21
-6.8925
0
LINE
8
BLACK
6
CONTINUOUS
10
1.03838
20
-6.8925
11
1.03617
21
-6.88138
0
LINE
8
BLACK
6
CONTINUOUS
10
1.03617
20
-6.88138
11
1.03543
21
-6.87008
0
LINE
8
BLACK
6
CONTINUOUS
10
1.03543
20
-6.87008
11
1.03617
21
-6.85877
0
LINE
8
BLACK
6
CONTINUOUS
10
1.03617
20
-6.85877
11
1.03838
21
-6.84766
0
LINE
8
BLACK
6
CONTINUOUS
10
1.03838
20
-6.84766
11
1.04203
21
-6.83693
0
LINE
8
BLACK
6
CONTINUOUS
10
1.04203
20
-6.83693
11
1.04704
21
-6.82677
0
LINE
8
BLACK
6
CONTINUOUS
10
1.04704
20
-6.82677
11
1.05333
21
-6.81735
0
LINE
8
BLACK
6
CONTINUOUS
10
1.05333
20
-6.81735
11
1.0608
21
-6.80883
0
LINE
8
BLACK
6
CONTINUOUS
10
1.0608
20
-6.80883
11
1.06932
21
-6.80136
0
LINE
8
BLACK
6
CONTINUOUS
10
1.06932
20
-6.80136
11
1.07874
21
-6.79507
0
LINE
8
BLACK
6
CONTINUOUS
10
1.07874
20
-6.79507
11
1.0889
21
-6.79006
0
LINE
8
BLACK
6
CONTINUOUS
10
1.0889
20
-6.79006
11
1.09963
21
-6.78642
0
LINE
8
BLACK
6
CONTINUOUS
10
1.09963
20
-6.78642
11
1.11074
21
-6.78421
0
LINE
8
BLACK
6
CONTINUOUS
10
1.11074
20
-6.78421
11
1.12205
21
-6.78346
0
LINE
8
BLACK
6
CONTINUOUS
10
1.12205
20
-6.78346
11
1.13335
21
-6.78421
0
LINE
8
BLACK
6
CONTINUOUS
10
4.12548
20
-6.78421
11
4.13659
21
-6.78642
0
LINE
8
BLACK
6
CONTINUOUS
10
4.13659
20
-6.78642
11
4.14732
21
-6.79006
0
LINE
8
BLACK
6
CONTINUOUS
10
4.14732
20
-6.79006
11
4.15748
21
-6.79507
0
LINE
8
BLACK
6
CONTINUOUS
10
4.15748
20
-6.79507
11
4.1669
21
-6.80136
0
LINE
8
BLACK
6
CONTINUOUS
10
4.1669
20
-6.80136
11
4.17542
21
-6.80883
0
LINE
8
BLACK
6
CONTINUOUS
10
4.17542
20
-6.80883
11
4.18289
21
-6.81735
0
LINE
8
BLACK
6
CONTINUOUS
10
4.18289
20
-6.81735
11
4.18918
21
-6.82677
0
LINE
8
BLACK
6
CONTINUOUS
10
4.18918
20
-6.82677
11
4.19419
21
-6.83693
0
LINE
8
BLACK
6
CONTINUOUS
10
4.19419
20
-6.83693
11
4.19784
21
-6.84766
0
LINE
8
BLACK
6
CONTINUOUS
10
4.19784
20
-6.84766
11
4.20005
21
-6.85877
0
LINE
8
BLACK
6
CONTINUOUS
10
4.20005
20
-6.85877
11
4.20079
21
-6.87008
0
LINE
8
BLACK
6
CONTINUOUS
10
4.20079
20
-6.87008
11
4.20005
21
-6.88138
0
LINE
8
BLACK
6
CONTINUOUS
10
4.20005
20
-6.88138
11
4.19784
21
-6.8925
0
LINE
8
BLACK
6
CONTINUOUS
10
4.19784
20
-6.8925
11
4.19419
21
-6.90322
0
LINE
8
BLACK
6
CONTINUOUS
10
4.19419
20
-6.90322
11
4.18918
21
-6.91339
0
LINE
8
BLACK
6
CONTINUOUS
10
4.18918
20
-6.91339
11
4.18289
21
-6.92281
0
LINE
8
BLACK
6
CONTINUOUS
10
4.18289
20
-6.92281
11
4.17542
21
-6.93132
0
LINE
8
BLACK
6
CONTINUOUS
10
4.17542
20
-6.93132
11
4.1669
21
-6.93879
0
LINE
8
BLACK
6
CONTINUOUS
10
4.1669
20
-6.93879
11
4.15748
21
-6.94509
0
LINE
8
BLACK
6
CONTINUOUS
10
4.15748
20
-6.94509
11
4.14732
21
-6.9501
0
LINE
8
BLACK
6
CONTINUOUS
10
4.14732
20
-6.9501
11
4.13659
21
-6.95374
0
LINE
8
BLACK
6
CONTINUOUS
10
4.13659
20
-6.95374
11
4.12548
21
-6.95595
0
LINE
8
BLACK
6
CONTINUOUS
10
4.12548
20
-6.95595
11
4.11417
21
-6.95669
0
LINE
8
BLACK
6
CONTINUOUS
10
4.11417
20
-6.95669
11
4.10287
21
-6.95595
0
LINE
8
BLACK
6
CONTINUOUS
10
4.10287
20
-6.95595
11
4.09176
21
-6.95374
0
LINE
8
BLACK
6
CONTINUOUS
10
4.09176
20
-6.95374
11
4.08103
21
-6.9501
0
LINE
8
BLACK
6
CONTINUOUS
10
4.08103
20
-6.9501
11
4.07087
21
-6.94509
0
LINE
8
BLACK
6
CONTINUOUS
10
4.07087
20
-6.94509
11
4.06145
21
-6.93879
0
LINE
8
BLACK
6
CONTINUOUS
10
4.06145
20
-6.93879
11
4.05293
21
-6.93132
0
LINE
8
BLACK
6
CONTINUOUS
10
4.05293
20
-6.93132
11
4.04546
21
-6.92281
0
LINE
8
BLACK
6
CONTINUOUS
10
4.04546
20
-6.92281
11
4.03916
21
-6.91339
0
LINE
8
BLACK
6
CONTINUOUS
10
4.03916
20
-6.91339
11
4.03415
21
-6.90322
0
LINE
8
BLACK
6
CONTINUOUS
10
4.03415
20
-6.90322
11
4.03051
21
-6.8925
0
LINE
8
BLACK
6
CONTINUOUS
10
4.03051
20
-6.8925
11
4.0283
21
-6.88138
0
LINE
8
BLACK
6
CONTINUOUS
10
4.0283
20
-6.88138
11
4.02756
21
-6.87008
0
LINE
8
BLACK
6
CONTINUOUS
10
4.02756
20
-6.87008
11
4.0283
21
-6.85877
0
LINE
8
BLACK
6
CONTINUOUS
10
4.0283
20
-6.85877
11
4.03051
21
-6.84766
0
LINE
8
BLACK
6
CONTINUOUS
10
4.03051
20
-6.84766
11
4.03415
21
-6.83693
0
LINE
8
BLACK
6
CONTINUOUS
10
4.03415
20
-6.83693
11
4.03916
21
-6.82677
0
LINE
8
BLACK
6
CONTINUOUS
10
4.03916
20
-6.82677
11
4.04546
21
-6.81735
0
LINE
8
BLACK
6
CONTINUOUS
10
4.04546
20
-6.81735
11
4.05293
21
-6.80883
0
LINE
8
BLACK
6
CONTINUOUS
10
4.05293
20
-6.80883
11
4.06145
21
-6.80136
0
LINE
8
BLACK
6
CONTINUOUS
10
4.06145
20
-6.80136
11
4.07087
21
-6.79507
0
LINE
8
BLACK
6
CONTINUOUS
10
4.07087
20
-6.79507
11
4.08103
21
-6.79006
0
LINE
8
BLACK
6
CONTINUOUS
10
4.08103
20
-6.79006
11
4.09176
21
-6.78642
0
LINE
8
BLACK
6
CONTINUOUS
10
4.09176
20
-6.78642
11
4.10287
21
-6.78421
0
LINE
8
BLACK
6
CONTINUOUS
10
4.10287
20
-6.78421
11
4.11417
21
-6.78346
0
LINE
8
BLACK
6
CONTINUOUS
10
4.11417
20
-6.78346
11
4.12548
21
-6.78421
0
LINE
8
BLACK
6
CONTINUOUS
10
2.58942
20
-6.8059
11
2.59562
21
-6.80811
0
LINE
8
BLACK
6
CONTINUOUS
10
2.59562
20
-6.80811
11
2.60118
21
-6.81163
0
LINE
8
BLACK
6
CONTINUOUS
10
2.60118
20
-6.81163
11
2.60582
21
-6.8163
0
LINE
8
BLACK
6
CONTINUOUS
10
2.60582
20
-6.8163
11
2.60931
21
-6.82189
0
LINE
8
BLACK
6
CONTINUOUS
10
2.60931
20
-6.82189
11
2.61147
21
-6.8281
0
LINE
8
BLACK
6
CONTINUOUS
10
2.61147
20
-6.8281
11
2.6122
21
-6.83465
0
LINE
8
BLACK
6
CONTINUOUS
10
2.6122
20
-6.83465
11
2.61219
21
-6.83547
0
LINE
8
BLACK
6
CONTINUOUS
10
2.61219
20
-6.83547
11
2.61128
21
-6.84199
0
LINE
8
BLACK
6
CONTINUOUS
10
2.61128
20
-6.84199
11
2.60894
21
-6.84814
0
LINE
8
BLACK
6
CONTINUOUS
10
2.60894
20
-6.84814
11
2.6053
21
-6.85363
0
LINE
8
BLACK
6
CONTINUOUS
10
2.6053
20
-6.85363
11
2.60053
21
-6.85817
0
LINE
8
BLACK
6
CONTINUOUS
10
2.60053
20
-6.85817
11
2.59488
21
-6.86154
0
LINE
8
BLACK
6
CONTINUOUS
10
2.59488
20
-6.86154
11
2.58861
21
-6.86357
0
LINE
8
BLACK
6
CONTINUOUS
10
2.58861
20
-6.86357
11
2.58206
21
-6.86417
0
LINE
8
BLACK
6
CONTINUOUS
10
2.58206
20
-6.86417
11
2.57553
21
-6.8633
0
LINE
8
BLACK
6
CONTINUOUS
10
2.57553
20
-6.8633
11
2.56936
21
-6.861
0
LINE
8
BLACK
6
CONTINUOUS
10
2.56936
20
-6.861
11
2.56386
21
-6.8574
0
LINE
8
BLACK
6
CONTINUOUS
10
2.56386
20
-6.8574
11
2.55928
21
-6.85266
0
LINE
8
BLACK
6
CONTINUOUS
10
2.55928
20
-6.85266
11
2.55587
21
-6.84703
0
LINE
8
BLACK
6
CONTINUOUS
10
2.55587
20
-6.84703
11
2.55379
21
-6.84078
0
LINE
8
BLACK
6
CONTINUOUS
10
2.55379
20
-6.84078
11
2.55315
21
-6.83423
0
LINE
8
BLACK
6
CONTINUOUS
10
2.55315
20
-6.83423
11
2.55398
21
-6.8277
0
LINE
8
BLACK
6
CONTINUOUS
10
2.55398
20
-6.8277
11
2.55623
21
-6.82152
0
LINE
8
BLACK
6
CONTINUOUS
10
2.55623
20
-6.82152
11
2.55979
21
-6.81598
0
LINE
8
BLACK
6
CONTINUOUS
10
2.55979
20
-6.81598
11
2.5645
21
-6.81138
0
LINE
8
BLACK
6
CONTINUOUS
10
2.5645
20
-6.81138
11
2.5701
21
-6.80793
0
LINE
8
BLACK
6
CONTINUOUS
10
2.5701
20
-6.80793
11
2.57634
21
-6.80581
0
LINE
8
BLACK
6
CONTINUOUS
10
2.57634
20
-6.80581
11
2.58288
21
-6.80512
0
LINE
8
BLACK
6
CONTINUOUS
10
2.58288
20
-6.80512
11
2.58942
21
-6.8059
0
LINE
8
BLACK
6
CONTINUOUS
10
3.15053
20
-6.71243
11
3.15232
21
-6.71362
0
LINE
8
BLACK
6
CONTINUOUS
10
3.15232
20
-6.71362
11
3.15352
21
-6.71541
0
LINE
8
BLACK
6
CONTINUOUS
10
3.15352
20
-6.71541
11
3.15394
21
-6.71752
0
LINE
8
BLACK
6
CONTINUOUS
10
3.15394
20
-6.71752
11
3.15394
21
-6.72854
0
LINE
8
BLACK
6
CONTINUOUS
10
3.15394
20
-6.72854
11
3.15352
21
-6.73065
0
LINE
8
BLACK
6
CONTINUOUS
10
3.15352
20
-6.73065
11
3.15232
21
-6.73244
0
LINE
8
BLACK
6
CONTINUOUS
10
3.15232
20
-6.73244
11
3.15053
21
-6.73364
0
LINE
8
BLACK
6
CONTINUOUS
10
3.15053
20
-6.73364
11
3.14843
21
-6.73406
0
LINE
8
BLACK
6
CONTINUOUS
10
3.14843
20
-6.73406
11
3.13504
21
-6.73406
0
LINE
8
BLACK
6
CONTINUOUS
10
3.13504
20
-6.73406
11
3.13293
21
-6.73364
0
LINE
8
BLACK
6
CONTINUOUS
10
3.13293
20
-6.73364
11
3.13114
21
-6.73244
0
LINE
8
BLACK
6
CONTINUOUS
10
3.13114
20
-6.73244
11
3.12995
21
-6.73065
0
LINE
8
BLACK
6
CONTINUOUS
10
3.12995
20
-6.73065
11
3.12953
21
-6.72854
0
LINE
8
BLACK
6
CONTINUOUS
10
3.12953
20
-6.72854
11
3.12953
21
-6.71752
0
LINE
8
BLACK
6
CONTINUOUS
10
3.12953
20
-6.71752
11
3.12995
21
-6.71541
0
LINE
8
BLACK
6
CONTINUOUS
10
3.12995
20
-6.71541
11
3.13114
21
-6.71362
0
LINE
8
BLACK
6
CONTINUOUS
10
3.13114
20
-6.71362
11
3.13293
21
-6.71243
0
LINE
8
BLACK
6
CONTINUOUS
10
3.13293
20
-6.71243
11
3.13504
21
-6.71201
0
LINE
8
BLACK
6
CONTINUOUS
10
3.13504
20
-6.71201
11
3.14843
21
-6.71201
0
LINE
8
BLACK
6
CONTINUOUS
10
3.14843
20
-6.71201
11
3.15053
21
-6.71243
0
LINE
8
BLACK
6
CONTINUOUS
10
3.11116
20
-6.71223
11
3.11295
21
-6.71343
0
LINE
8
BLACK
6
CONTINUOUS
10
3.11295
20
-6.71343
11
3.11415
21
-6.71521
0
LINE
8
BLACK
6
CONTINUOUS
10
3.11415
20
-6.71521
11
3.11457
21
-6.71732
0
LINE
8
BLACK
6
CONTINUOUS
10
3.11457
20
-6.71732
11
3.11457
21
-6.72835
0
LINE
8
BLACK
6
CONTINUOUS
10
3.11457
20
-6.72835
11
3.11415
21
-6.73046
0
LINE
8
BLACK
6
CONTINUOUS
10
3.11415
20
-6.73046
11
3.11295
21
-6.73224
0
LINE
8
BLACK
6
CONTINUOUS
10
3.11295
20
-6.73224
11
3.11116
21
-6.73344
0
LINE
8
BLACK
6
CONTINUOUS
10
3.11116
20
-6.73344
11
3.10906
21
-6.73386
0
LINE
8
BLACK
6
CONTINUOUS
10
3.10906
20
-6.73386
11
3.09567
21
-6.73386
0
LINE
8
BLACK
6
CONTINUOUS
10
3.09567
20
-6.73386
11
3.09356
21
-6.73344
0
LINE
8
BLACK
6
CONTINUOUS
10
3.09356
20
-6.73344
11
3.09177
21
-6.73224
0
LINE
8
BLACK
6
CONTINUOUS
10
3.09177
20
-6.73224
11
3.09058
21
-6.73046
0
LINE
8
BLACK
6
CONTINUOUS
10
3.09058
20
-6.73046
11
3.09016
21
-6.72835
0
LINE
8
BLACK
6
CONTINUOUS
10
3.09016
20
-6.72835
11
3.09016
21
-6.71732
0
LINE
8
BLACK
6
CONTINUOUS
10
3.09016
20
-6.71732
11
3.09058
21
-6.71521
0
LINE
8
BLACK
6
CONTINUOUS
10
3.09058
20
-6.71521
11
3.09177
21
-6.71343
0
LINE
8
BLACK
6
CONTINUOUS
10
3.09177
20
-6.71343
11
3.09356
21
-6.71223
0
LINE
8
BLACK
6
CONTINUOUS
10
3.09356
20
-6.71223
11
3.09567
21
-6.71181
0
LINE
8
BLACK
6
CONTINUOUS
10
3.09567
20
-6.71181
11
3.10906
21
-6.71181
0
LINE
8
BLACK
6
CONTINUOUS
10
3.10906
20
-6.71181
11
3.11116
21
-6.71223
0
LINE
8
BLACK
6
CONTINUOUS
10
2.31884
20
-6.71223
11
2.32063
21
-6.71343
0
LINE
8
BLACK
6
CONTINUOUS
10
2.32063
20
-6.71343
11
2.32182
21
-6.71521
0
LINE
8
BLACK
6
CONTINUOUS
10
2.32182
20
-6.71521
11
2.32224
21
-6.71732
0
LINE
8
BLACK
6
CONTINUOUS
10
2.32224
20
-6.71732
11
2.32224
21
-6.72835
0
LINE
8
BLACK
6
CONTINUOUS
10
2.32224
20
-6.72835
11
2.32182
21
-6.73046
0
LINE
8
BLACK
6
CONTINUOUS
10
2.32182
20
-6.73046
11
2.32063
21
-6.73224
0
LINE
8
BLACK
6
CONTINUOUS
10
2.32063
20
-6.73224
11
2.31884
21
-6.73344
0
LINE
8
BLACK
6
CONTINUOUS
10
2.31884
20
-6.73344
11
2.31673
21
-6.73386
0
LINE
8
BLACK
6
CONTINUOUS
10
2.31673
20
-6.73386
11
2.30335
21
-6.73386
0
LINE
8
BLACK
6
CONTINUOUS
10
2.30335
20
-6.73386
11
2.30124
21
-6.73344
0
LINE
8
BLACK
6
CONTINUOUS
10
2.30124
20
-6.73344
11
2.29945
21
-6.73224
0
LINE
8
BLACK
6
CONTINUOUS
10
2.29945
20
-6.73224
11
2.29825
21
-6.73046
0
LINE
8
BLACK
6
CONTINUOUS
10
2.29825
20
-6.73046
11
2.29783
21
-6.72835
0
LINE
8
BLACK
6
CONTINUOUS
10
2.29783
20
-6.72835
11
2.29783
21
-6.71732
0
LINE
8
BLACK
6
CONTINUOUS
10
2.29783
20
-6.71732
11
2.29825
21
-6.71521
0
LINE
8
BLACK
6
CONTINUOUS
10
2.29825
20
-6.71521
11
2.29945
21
-6.71343
0
LINE
8
BLACK
6
CONTINUOUS
10
2.29945
20
-6.71343
11
2.30124
21
-6.71223
0
LINE
8
BLACK
6
CONTINUOUS
10
2.30124
20
-6.71223
11
2.30335
21
-6.71181
0
LINE
8
BLACK
6
CONTINUOUS
10
2.30335
20
-6.71181
11
2.31673
21
-6.71181
0
LINE
8
BLACK
6
CONTINUOUS
10
2.31673
20
-6.71181
11
2.31884
21
-6.71223
0
LINE
8
BLACK
6
CONTINUOUS
10
2.27849
20
-6.71223
11
2.28028
21
-6.71343
0
LINE
8
BLACK
6
CONTINUOUS
10
2.28028
20
-6.71343
11
2.28147
21
-6.71521
0
LINE
8
BLACK
6
CONTINUOUS
10
2.28147
20
-6.71521
11
2.28189
21
-6.71732
0
LINE
8
BLACK
6
CONTINUOUS
10
2.28189
20
-6.71732
11
2.28189
21
-6.72835
0
LINE
8
BLACK
6
CONTINUOUS
10
2.28189
20
-6.72835
11
2.28147
21
-6.73046
0
LINE
8
BLACK
6
CONTINUOUS
10
2.28147
20
-6.73046
11
2.28028
21
-6.73224
0
LINE
8
BLACK
6
CONTINUOUS
10
2.28028
20
-6.73224
11
2.27849
21
-6.73344
0
LINE
8
BLACK
6
CONTINUOUS
10
2.27849
20
-6.73344
11
2.27638
21
-6.73386
0
LINE
8
BLACK
6
CONTINUOUS
10
2.27638
20
-6.73386
11
2.26299
21
-6.73386
0
LINE
8
BLACK
6
CONTINUOUS
10
2.26299
20
-6.73386
11
2.26088
21
-6.73344
0
LINE
8
BLACK
6
CONTINUOUS
10
2.26088
20
-6.73344
11
2.25909
21
-6.73224
0
LINE
8
BLACK
6
CONTINUOUS
10
2.25909
20
-6.73224
11
2.2579
21
-6.73046
0
LINE
8
BLACK
6
CONTINUOUS
10
2.2579
20
-6.73046
11
2.25748
21
-6.72835
0
LINE
8
BLACK
6
CONTINUOUS
10
2.25748
20
-6.72835
11
2.25748
21
-6.71732
0
LINE
8
BLACK
6
CONTINUOUS
10
2.25748
20
-6.71732
11
2.2579
21
-6.71521
0
LINE
8
BLACK
6
CONTINUOUS
10
2.2579
20
-6.71521
11
2.25909
21
-6.71343
0
LINE
8
BLACK
6
CONTINUOUS
10
2.25909
20
-6.71343
11
2.26088
21
-6.71223
0
LINE
8
BLACK
6
CONTINUOUS
10
2.26088
20
-6.71223
11
2.26299
21
-6.71181
0
LINE
8
BLACK
6
CONTINUOUS
10
2.26299
20
-6.71181
11
2.27638
21
-6.71181
0
LINE
8
BLACK
6
CONTINUOUS
10
2.27638
20
-6.71181
11
2.27849
21
-6.71223
0
LINE
8
BLACK
6
CONTINUOUS
10
2.3592
20
-6.71223
11
2.36098
21
-6.71343
0
LINE
8
BLACK
6
CONTINUOUS
10
2.36098
20
-6.71343
11
2.36218
21
-6.71521
0
LINE
8
BLACK
6
CONTINUOUS
10
2.36218
20
-6.71521
11
2.3626
21
-6.71732
0
LINE
8
BLACK
6
CONTINUOUS
10
2.3626
20
-6.71732
11
2.3626
21
-6.72835
0
LINE
8
BLACK
6
CONTINUOUS
10
2.3626
20
-6.72835
11
2.36218
21
-6.73046
0
LINE
8
BLACK
6
CONTINUOUS
10
2.36218
20
-6.73046
11
2.36098
21
-6.73224
0
LINE
8
BLACK
6
CONTINUOUS
10
2.36098
20
-6.73224
11
2.3592
21
-6.73344
0
LINE
8
BLACK
6
CONTINUOUS
10
2.3592
20
-6.73344
11
2.35709
21
-6.73386
0
LINE
8
BLACK
6
CONTINUOUS
10
2.35709
20
-6.73386
11
2.3437
21
-6.73386
0
LINE
8
BLACK
6
CONTINUOUS
10
2.3437
20
-6.73386
11
2.34159
21
-6.73344
0
LINE
8
BLACK
6
CONTINUOUS
10
2.34159
20
-6.73344
11
2.3398
21
-6.73224
0
LINE
8
BLACK
6
CONTINUOUS
10
2.3398
20
-6.73224
11
2.33861
21
-6.73046
0
LINE
8
BLACK
6
CONTINUOUS
10
2.33861
20
-6.73046
11
2.33819
21
-6.72835
0
LINE
8
BLACK
6
CONTINUOUS
10
2.33819
20
-6.72835
11
2.33819
21
-6.71732
0
LINE
8
BLACK
6
CONTINUOUS
10
2.33819
20
-6.71732
11
2.33861
21
-6.71521
0
LINE
8
BLACK
6
CONTINUOUS
10
2.33861
20
-6.71521
11
2.3398
21
-6.71343
0
LINE
8
BLACK
6
CONTINUOUS
10
2.3398
20
-6.71343
11
2.34159
21
-6.71223
0
LINE
8
BLACK
6
CONTINUOUS
10
2.34159
20
-6.71223
11
2.3437
21
-6.71181
0
LINE
8
BLACK
6
CONTINUOUS
10
2.3437
20
-6.71181
11
2.35709
21
-6.71181
0
LINE
8
BLACK
6
CONTINUOUS
10
2.35709
20
-6.71181
11
2.3592
21
-6.71223
0
LINE
8
BLACK
6
CONTINUOUS
10
3.0714
20
-6.71223
11
3.07319
21
-6.71343
0
LINE
8
BLACK
6
CONTINUOUS
10
3.07319
20
-6.71343
11
3.07438
21
-6.71521
0
LINE
8
BLACK
6
CONTINUOUS
10
3.07438
20
-6.71521
11
3.0748
21
-6.71732
0
LINE
8
BLACK
6
CONTINUOUS
10
3.0748
20
-6.71732
11
3.0748
21
-6.72835
0
LINE
8
BLACK
6
CONTINUOUS
10
3.0748
20
-6.72835
11
3.07438
21
-6.73046
0
LINE
8
BLACK
6
CONTINUOUS
10
3.07438
20
-6.73046
11
3.07319
21
-6.73224
0
LINE
8
BLACK
6
CONTINUOUS
10
3.07319
20
-6.73224
11
3.0714
21
-6.73344
0
LINE
8
BLACK
6
CONTINUOUS
10
3.0714
20
-6.73344
11
3.06929
21
-6.73386
0
LINE
8
BLACK
6
CONTINUOUS
10
3.06929
20
-6.73386
11
3.05591
21
-6.73386
0
LINE
8
BLACK
6
CONTINUOUS
10
3.05591
20
-6.73386
11
3.0538
21
-6.73344
0
LINE
8
BLACK
6
CONTINUOUS
10
3.0538
20
-6.73344
11
3.05201
21
-6.73224
0
LINE
8
BLACK
6
CONTINUOUS
10
3.05201
20
-6.73224
11
3.05081
21
-6.73046
0
LINE
8
BLACK
6
CONTINUOUS
10
3.05081
20
-6.73046
11
3.05039
21
-6.72835
0
LINE
8
BLACK
6
CONTINUOUS
10
3.05039
20
-6.72835
11
3.05039
21
-6.71732
0
LINE
8
BLACK
6
CONTINUOUS
10
3.05039
20
-6.71732
11
3.05081
21
-6.71521
0
LINE
8
BLACK
6
CONTINUOUS
10
3.05081
20
-6.71521
11
3.05201
21
-6.71343
0
LINE
8
BLACK
6
CONTINUOUS
10
3.05201
20
-6.71343
11
3.0538
21
-6.71223
0
LINE
8
BLACK
6
CONTINUOUS
10
3.0538
20
-6.71223
11
3.05591
21
-6.71181
0
LINE
8
BLACK
6
CONTINUOUS
10
3.05591
20
-6.71181
11
3.06929
21
-6.71181
0
LINE
8
BLACK
6
CONTINUOUS
10
3.06929
20
-6.71181
11
3.0714
21
-6.71223
0
LINE
8
BLACK
6
CONTINUOUS
10
3.94778
20
-6.71184
11
3.94957
21
-6.71303
0
LINE
8
BLACK
6
CONTINUOUS
10
3.94957
20
-6.71303
11
3.95076
21
-6.71482
0
LINE
8
BLACK
6
CONTINUOUS
10
3.95076
20
-6.71482
11
3.95118
21
-6.71693
0
LINE
8
BLACK
6
CONTINUOUS
10
3.95118
20
-6.71693
11
3.95118
21
-6.72795
0
LINE
8
BLACK
6
CONTINUOUS
10
3.95118
20
-6.72795
11
3.95076
21
-6.73006
0
LINE
8
BLACK
6
CONTINUOUS
10
3.95076
20
-6.73006
11
3.94957
21
-6.73185
0
LINE
8
BLACK
6
CONTINUOUS
10
3.94957
20
-6.73185
11
3.94778
21
-6.73304
0
LINE
8
BLACK
6
CONTINUOUS
10
3.94778
20
-6.73304
11
3.94567
21
-6.73346
0
LINE
8
BLACK
6
CONTINUOUS
10
3.94567
20
-6.73346
11
3.93228
21
-6.73346
0
LINE
8
BLACK
6
CONTINUOUS
10
3.93228
20
-6.73346
11
3.93017
21
-6.73304
0
LINE
8
BLACK
6
CONTINUOUS
10
3.93017
20
-6.73304
11
3.92839
21
-6.73185
0
LINE
8
BLACK
6
CONTINUOUS
10
3.92839
20
-6.73185
11
3.92719
21
-6.73006
0
LINE
8
BLACK
6
CONTINUOUS
10
3.92719
20
-6.73006
11
3.92677
21
-6.72795
0
LINE
8
BLACK
6
CONTINUOUS
10
3.92677
20
-6.72795
11
3.92677
21
-6.71693
0
LINE
8
BLACK
6
CONTINUOUS
10
3.92677
20
-6.71693
11
3.92719
21
-6.71482
0
LINE
8
BLACK
6
CONTINUOUS
10
3.92719
20
-6.71482
11
3.92839
21
-6.71303
0
LINE
8
BLACK
6
CONTINUOUS
10
3.92839
20
-6.71303
11
3.93017
21
-6.71184
0
LINE
8
BLACK
6
CONTINUOUS
10
3.93017
20
-6.71184
11
3.93228
21
-6.71142
0
LINE
8
BLACK
6
CONTINUOUS
10
3.93228
20
-6.71142
11
3.94567
21
-6.71142
0
LINE
8
BLACK
6
CONTINUOUS
10
3.94567
20
-6.71142
11
3.94778
21
-6.71184
0
LINE
8
BLACK
6
CONTINUOUS
10
3.90841
20
-6.71184
11
3.9102
21
-6.71303
0
LINE
8
BLACK
6
CONTINUOUS
10
3.9102
20
-6.71303
11
3.91139
21
-6.71482
0
LINE
8
BLACK
6
CONTINUOUS
10
3.91139
20
-6.71482
11
3.91181
21
-6.71693
0
LINE
8
BLACK
6
CONTINUOUS
10
3.91181
20
-6.71693
11
3.91181
21
-6.72795
0
LINE
8
BLACK
6
CONTINUOUS
10
3.91181
20
-6.72795
11
3.91139
21
-6.73006
0
LINE
8
BLACK
6
CONTINUOUS
10
3.91139
20
-6.73006
11
3.9102
21
-6.73185
0
LINE
8
BLACK
6
CONTINUOUS
10
3.9102
20
-6.73185
11
3.90841
21
-6.73304
0
LINE
8
BLACK
6
CONTINUOUS
10
3.90841
20
-6.73304
11
3.9063
21
-6.73346
0
LINE
8
BLACK
6
CONTINUOUS
10
3.9063
20
-6.73346
11
3.89291
21
-6.73346
0
LINE
8
BLACK
6
CONTINUOUS
10
3.89291
20
-6.73346
11
3.8908
21
-6.73304
0
LINE
8
BLACK
6
CONTINUOUS
10
3.8908
20
-6.73304
11
3.88902
21
-6.73185
0
LINE
8
BLACK
6
CONTINUOUS
10
3.88902
20
-6.73185
11
3.88782
21
-6.73006
0
LINE
8
BLACK
6
CONTINUOUS
10
3.88782
20
-6.73006
11
3.8874
21
-6.72795
0
LINE
8
BLACK
6
CONTINUOUS
10
3.8874
20
-6.72795
11
3.8874
21
-6.71693
0
LINE
8
BLACK
6
CONTINUOUS
10
3.8874
20
-6.71693
11
3.88782
21
-6.71482
0
LINE
8
BLACK
6
CONTINUOUS
10
3.88782
20
-6.71482
11
3.88902
21
-6.71303
0
LINE
8
BLACK
6
CONTINUOUS
10
3.88902
20
-6.71303
11
3.8908
21
-6.71184
0
LINE
8
BLACK
6
CONTINUOUS
10
3.8908
20
-6.71184
11
3.89291
21
-6.71142
0
LINE
8
BLACK
6
CONTINUOUS
10
3.89291
20
-6.71142
11
3.9063
21
-6.71142
0
LINE
8
BLACK
6
CONTINUOUS
10
3.9063
20
-6.71142
11
3.90841
21
-6.71184
0
LINE
8
BLACK
6
CONTINUOUS
10
3.86904
20
-6.71184
11
3.87083
21
-6.71303
0
LINE
8
BLACK
6
CONTINUOUS
10
3.87083
20
-6.71303
11
3.87202
21
-6.71482
0
LINE
8
BLACK
6
CONTINUOUS
10
3.87202
20
-6.71482
11
3.87244
21
-6.71693
0
LINE
8
BLACK
6
CONTINUOUS
10
3.87244
20
-6.71693
11
3.87244
21
-6.72795
0
LINE
8
BLACK
6
CONTINUOUS
10
3.87244
20
-6.72795
11
3.87202
21
-6.73006
0
LINE
8
BLACK
6
CONTINUOUS
10
3.87202
20
-6.73006
11
3.87083
21
-6.73185
0
LINE
8
BLACK
6
CONTINUOUS
10
3.87083
20
-6.73185
11
3.86904
21
-6.73304
0
LINE
8
BLACK
6
CONTINUOUS
10
3.86904
20
-6.73304
11
3.86693
21
-6.73346
0
LINE
8
BLACK
6
CONTINUOUS
10
3.86693
20
-6.73346
11
3.85354
21
-6.73346
0
LINE
8
BLACK
6
CONTINUOUS
10
3.85354
20
-6.73346
11
3.85143
21
-6.73304
0
LINE
8
BLACK
6
CONTINUOUS
10
3.85143
20
-6.73304
11
3.84965
21
-6.73185
0
LINE
8
BLACK
6
CONTINUOUS
10
3.84965
20
-6.73185
11
3.84845
21
-6.73006
0
LINE
8
BLACK
6
CONTINUOUS
10
3.84845
20
-6.73006
11
3.84803
21
-6.72795
0
LINE
8
BLACK
6
CONTINUOUS
10
3.84803
20
-6.72795
11
3.84803
21
-6.71693
0
LINE
8
BLACK
6
CONTINUOUS
10
3.84803
20
-6.71693
11
3.84845
21
-6.71482
0
LINE
8
BLACK
6
CONTINUOUS
10
3.84845
20
-6.71482
11
3.84965
21
-6.71303
0
LINE
8
BLACK
6
CONTINUOUS
10
3.84965
20
-6.71303
11
3.85143
21
-6.71184
0
LINE
8
BLACK
6
CONTINUOUS
10
3.85143
20
-6.71184
11
3.85354
21
-6.71142
0
LINE
8
BLACK
6
CONTINUOUS
10
3.85354
20
-6.71142
11
3.86693
21
-6.71142
0
LINE
8
BLACK
6
CONTINUOUS
10
3.86693
20
-6.71142
11
3.86904
21
-6.71184
0
LINE
8
BLACK
6
CONTINUOUS
10
1.56786
20
-6.71184
11
1.56965
21
-6.71303
0
LINE
8
BLACK
6
CONTINUOUS
10
1.56965
20
-6.71303
11
1.57084
21
-6.71482
0
LINE
8
BLACK
6
CONTINUOUS
10
1.57084
20
-6.71482
11
1.57126
21
-6.71693
0
LINE
8
BLACK
6
CONTINUOUS
10
1.57126
20
-6.71693
11
1.57126
21
-6.72795
0
LINE
8
BLACK
6
CONTINUOUS
10
1.57126
20
-6.72795
11
1.57084
21
-6.73006
0
LINE
8
BLACK
6
CONTINUOUS
10
1.57084
20
-6.73006
11
1.56965
21
-6.73185
0
LINE
8
BLACK
6
CONTINUOUS
10
1.56965
20
-6.73185
11
1.56786
21
-6.73304
0
LINE
8
BLACK
6
CONTINUOUS
10
1.56786
20
-6.73304
11
1.56575
21
-6.73346
0
LINE
8
BLACK
6
CONTINUOUS
10
1.56575
20
-6.73346
11
1.55236
21
-6.73346
0
LINE
8
BLACK
6
CONTINUOUS
10
1.55236
20
-6.73346
11
1.55025
21
-6.73304
0
LINE
8
BLACK
6
CONTINUOUS
10
1.55025
20
-6.73304
11
1.54846
21
-6.73185
0
LINE
8
BLACK
6
CONTINUOUS
10
1.54846
20
-6.73185
11
1.54727
21
-6.73006
0
LINE
8
BLACK
6
CONTINUOUS
10
1.54727
20
-6.73006
11
1.54685
21
-6.72795
0
LINE
8
BLACK
6
CONTINUOUS
10
1.54685
20
-6.72795
11
1.54685
21
-6.71693
0
LINE
8
BLACK
6
CONTINUOUS
10
1.54685
20
-6.71693
11
1.54727
21
-6.71482
0
LINE
8
BLACK
6
CONTINUOUS
10
1.54727
20
-6.71482
11
1.54846
21
-6.71303
0
LINE
8
BLACK
6
CONTINUOUS
10
1.54846
20
-6.71303
11
1.55025
21
-6.71184
0
LINE
8
BLACK
6
CONTINUOUS
10
1.55025
20
-6.71184
11
1.55236
21
-6.71142
0
LINE
8
BLACK
6
CONTINUOUS
10
1.55236
20
-6.71142
11
1.56575
21
-6.71142
0
LINE
8
BLACK
6
CONTINUOUS
10
1.56575
20
-6.71142
11
1.56786
21
-6.71184
0
LINE
8
BLACK
6
CONTINUOUS
10
1.48715
20
-6.71184
11
1.48894
21
-6.71303
0
LINE
8
BLACK
6
CONTINUOUS
10
1.48894
20
-6.71303
11
1.49013
21
-6.71482
0
LINE
8
BLACK
6
CONTINUOUS
10
1.49013
20
-6.71482
11
1.49055
21
-6.71693
0
LINE
8
BLACK
6
CONTINUOUS
10
1.49055
20
-6.71693
11
1.49055
21
-6.72795
0
LINE
8
BLACK
6
CONTINUOUS
10
1.49055
20
-6.72795
11
1.49013
21
-6.73006
0
LINE
8
BLACK
6
CONTINUOUS
10
1.49013
20
-6.73006
11
1.48894
21
-6.73185
0
LINE
8
BLACK
6
CONTINUOUS
10
1.48894
20
-6.73185
11
1.48715
21
-6.73304
0
LINE
8
BLACK
6
CONTINUOUS
10
1.48715
20
-6.73304
11
1.48504
21
-6.73346
0
LINE
8
BLACK
6
CONTINUOUS
10
1.48504
20
-6.73346
11
1.47165
21
-6.73346
0
LINE
8
BLACK
6
CONTINUOUS
10
1.47165
20
-6.73346
11
1.46954
21
-6.73304
0
LINE
8
BLACK
6
CONTINUOUS
10
1.46954
20
-6.73304
11
1.46776
21
-6.73185
0
LINE
8
BLACK
6
CONTINUOUS
10
1.46776
20
-6.73185
11
1.46656
21
-6.73006
0
LINE
8
BLACK
6
CONTINUOUS
10
1.46656
20
-6.73006
11
1.46614
21
-6.72795
0
LINE
8
BLACK
6
CONTINUOUS
10
1.46614
20
-6.72795
11
1.46614
21
-6.71693
0
LINE
8
BLACK
6
CONTINUOUS
10
1.46614
20
-6.71693
11
1.46656
21
-6.71482
0
LINE
8
BLACK
6
CONTINUOUS
10
1.46656
20
-6.71482
11
1.46776
21
-6.71303
0
LINE
8
BLACK
6
CONTINUOUS
10
1.46776
20
-6.71303
11
1.46954
21
-6.71184
0
LINE
8
BLACK
6
CONTINUOUS
10
1.46954
20
-6.71184
11
1.47165
21
-6.71142
0
LINE
8
BLACK
6
CONTINUOUS
10
1.47165
20
-6.71142
11
1.48504
21
-6.71142
0
LINE
8
BLACK
6
CONTINUOUS
10
1.48504
20
-6.71142
11
1.48715
21
-6.71184
0
LINE
8
BLACK
6
CONTINUOUS
10
1.5275
20
-6.71184
11
1.52929
21
-6.71303
0
LINE
8
BLACK
6
CONTINUOUS
10
1.52929
20
-6.71303
11
1.53049
21
-6.71482
0
LINE
8
BLACK
6
CONTINUOUS
10
1.53049
20
-6.71482
11
1.53091
21
-6.71693
0
LINE
8
BLACK
6
CONTINUOUS
10
1.53091
20
-6.71693
11
1.53091
21
-6.72795
0
LINE
8
BLACK
6
CONTINUOUS
10
1.53091
20
-6.72795
11
1.53049
21
-6.73006
0
LINE
8
BLACK
6
CONTINUOUS
10
1.53049
20
-6.73006
11
1.52929
21
-6.73185
0
LINE
8
BLACK
6
CONTINUOUS
10
1.52929
20
-6.73185
11
1.5275
21
-6.73304
0
LINE
8
BLACK
6
CONTINUOUS
10
1.5275
20
-6.73304
11
1.52539
21
-6.73346
0
LINE
8
BLACK
6
CONTINUOUS
10
1.52539
20
-6.73346
11
1.51201
21
-6.73346
0
LINE
8
BLACK
6
CONTINUOUS
10
1.51201
20
-6.73346
11
1.5099
21
-6.73304
0
LINE
8
BLACK
6
CONTINUOUS
10
1.5099
20
-6.73304
11
1.50811
21
-6.73185
0
LINE
8
BLACK
6
CONTINUOUS
10
1.50811
20
-6.73185
11
1.50692
21
-6.73006
0
LINE
8
BLACK
6
CONTINUOUS
10
1.50692
20
-6.73006
11
1.5065
21
-6.72795
0
LINE
8
BLACK
6
CONTINUOUS
10
1.5065
20
-6.72795
11
1.5065
21
-6.71693
0
LINE
8
BLACK
6
CONTINUOUS
10
1.5065
20
-6.71693
11
1.50692
21
-6.71482
0
LINE
8
BLACK
6
CONTINUOUS
10
1.50692
20
-6.71482
11
1.50811
21
-6.71303
0
LINE
8
BLACK
6
CONTINUOUS
10
1.50811
20
-6.71303
11
1.5099
21
-6.71184
0
LINE
8
BLACK
6
CONTINUOUS
10
1.5099
20
-6.71184
11
1.51201
21
-6.71142
0
LINE
8
BLACK
6
CONTINUOUS
10
1.51201
20
-6.71142
11
1.52539
21
-6.71142
0
LINE
8
BLACK
6
CONTINUOUS
10
1.52539
20
-6.71142
11
1.5275
21
-6.71184
0
LINE
8
BLACK
6
CONTINUOUS
10
1.78047
20
-6.67935
11
1.78582
21
-6.68095
0
LINE
8
BLACK
6
CONTINUOUS
10
1.78582
20
-6.68095
11
1.7905
21
-6.68398
0
LINE
8
BLACK
6
CONTINUOUS
10
1.7905
20
-6.68398
11
1.79414
21
-6.68821
0
LINE
8
BLACK
6
CONTINUOUS
10
1.79414
20
-6.68821
11
1.79645
21
-6.69329
0
LINE
8
BLACK
6
CONTINUOUS
10
1.79645
20
-6.69329
11
1.79724
21
-6.69882
0
LINE
8
BLACK
6
CONTINUOUS
10
1.79724
20
-6.69882
11
1.79724
21
-6.6993
0
LINE
8
BLACK
6
CONTINUOUS
10
1.79724
20
-6.6993
11
1.79631
21
-6.7048
0
LINE
8
BLACK
6
CONTINUOUS
10
1.79631
20
-6.7048
11
1.79388
21
-6.70983
0
LINE
8
BLACK
6
CONTINUOUS
10
1.79388
20
-6.70983
11
1.79013
21
-6.71396
0
LINE
8
BLACK
6
CONTINUOUS
10
1.79013
20
-6.71396
11
1.78538
21
-6.71688
0
LINE
8
BLACK
6
CONTINUOUS
10
1.78538
20
-6.71688
11
1.77999
21
-6.71835
0
LINE
8
BLACK
6
CONTINUOUS
10
1.77999
20
-6.71835
11
1.77441
21
-6.71825
0
LINE
8
BLACK
6
CONTINUOUS
10
1.77441
20
-6.71825
11
1.76908
21
-6.71659
0
LINE
8
BLACK
6
CONTINUOUS
10
1.76908
20
-6.71659
11
1.76444
21
-6.71349
0
LINE
8
BLACK
6
CONTINUOUS
10
1.76444
20
-6.71349
11
1.76085
21
-6.70922
0
LINE
8
BLACK
6
CONTINUOUS
10
1.76085
20
-6.70922
11
1.7586
21
-6.70411
0
LINE
8
BLACK
6
CONTINUOUS
10
1.7586
20
-6.70411
11
1.75788
21
-6.69858
0
LINE
8
BLACK
6
CONTINUOUS
10
1.75788
20
-6.69858
11
1.75873
21
-6.69306
0
LINE
8
BLACK
6
CONTINUOUS
10
1.75873
20
-6.69306
11
1.76111
21
-6.68801
0
LINE
8
BLACK
6
CONTINUOUS
10
1.76111
20
-6.68801
11
1.7648
21
-6.68383
0
LINE
8
BLACK
6
CONTINUOUS
10
1.7648
20
-6.68383
11
1.76952
21
-6.68085
0
LINE
8
BLACK
6
CONTINUOUS
10
1.76952
20
-6.68085
11
1.77489
21
-6.67932
0
LINE
8
BLACK
6
CONTINUOUS
10
1.77489
20
-6.67932
11
1.78047
21
-6.67935
0
LINE
8
BLACK
6
CONTINUOUS
10
2.56196
20
-6.67738
11
2.56731
21
-6.67898
0
LINE
8
BLACK
6
CONTINUOUS
10
2.56731
20
-6.67898
11
2.572
21
-6.68202
0
LINE
8
BLACK
6
CONTINUOUS
10
2.572
20
-6.68202
11
2.57564
21
-6.68624
0
LINE
8
BLACK
6
CONTINUOUS
10
2.57564
20
-6.68624
11
2.57795
21
-6.69133
0
LINE
8
BLACK
6
CONTINUOUS
10
2.57795
20
-6.69133
11
2.57874
21
-6.69685
0
LINE
8
BLACK
6
CONTINUOUS
10
2.57874
20
-6.69685
11
2.57873
21
-6.69733
0
LINE
8
BLACK
6
CONTINUOUS
10
2.57873
20
-6.69733
11
2.57781
21
-6.70284
0
LINE
8
BLACK
6
CONTINUOUS
10
2.57781
20
-6.70284
11
2.57537
21
-6.70786
0
LINE
8
BLACK
6
CONTINUOUS
10
2.57537
20
-6.70786
11
2.57163
21
-6.712
0
LINE
8
BLACK
6
CONTINUOUS
10
2.57163
20
-6.712
11
2.56687
21
-6.71492
0
LINE
8
BLACK
6
CONTINUOUS
10
2.56687
20
-6.71492
11
2.56149
21
-6.71638
0
LINE
8
BLACK
6
CONTINUOUS
10
2.56149
20
-6.71638
11
2.55591
21
-6.71628
0
LINE
8
BLACK
6
CONTINUOUS
10
2.55591
20
-6.71628
11
2.55058
21
-6.71462
0
LINE
8
BLACK
6
CONTINUOUS
10
2.55058
20
-6.71462
11
2.54593
21
-6.71153
0
LINE
8
BLACK
6
CONTINUOUS
10
2.54593
20
-6.71153
11
2.54234
21
-6.70725
0
LINE
8
BLACK
6
CONTINUOUS
10
2.54234
20
-6.70725
11
2.5401
21
-6.70214
0
LINE
8
BLACK
6
CONTINUOUS
10
2.5401
20
-6.70214
11
2.53937
21
-6.69661
0
LINE
8
BLACK
6
CONTINUOUS
10
2.53937
20
-6.69661
11
2.54023
21
-6.6911
0
LINE
8
BLACK
6
CONTINUOUS
10
2.54023
20
-6.6911
11
2.5426
21
-6.68604
0
LINE
8
BLACK
6
CONTINUOUS
10
2.5426
20
-6.68604
11
2.5463
21
-6.68186
0
LINE
8
BLACK
6
CONTINUOUS
10
2.5463
20
-6.68186
11
2.55102
21
-6.67888
0
LINE
8
BLACK
6
CONTINUOUS
10
2.55102
20
-6.67888
11
2.55638
21
-6.67735
0
LINE
8
BLACK
6
CONTINUOUS
10
2.55638
20
-6.67735
11
2.56196
21
-6.67738
0
LINE
8
BLACK
6
CONTINUOUS
10
3.38874
20
-6.67738
11
3.39408
21
-6.67898
0
LINE
8
BLACK
6
CONTINUOUS
10
3.39408
20
-6.67898
11
3.39877
21
-6.68202
0
LINE
8
BLACK
6
CONTINUOUS
10
3.39877
20
-6.68202
11
3.40241
21
-6.68624
0
LINE
8
BLACK
6
CONTINUOUS
10
3.40241
20
-6.68624
11
3.40472
21
-6.69133
0
LINE
8
BLACK
6
CONTINUOUS
10
3.40472
20
-6.69133
11
3.40551
21
-6.69685
0
LINE
8
BLACK
6
CONTINUOUS
10
3.40551
20
-6.69685
11
3.40551
21
-6.69733
0
LINE
8
BLACK
6
CONTINUOUS
10
3.40551
20
-6.69733
11
3.40458
21
-6.70284
0
LINE
8
BLACK
6
CONTINUOUS
10
3.40458
20
-6.70284
11
3.40215
21
-6.70786
0
LINE
8
BLACK
6
CONTINUOUS
10
3.40215
20
-6.70786
11
3.3984
21
-6.712
0
LINE
8
BLACK
6
CONTINUOUS
10
3.3984
20
-6.712
11
3.39364
21
-6.71492
0
LINE
8
BLACK
6
CONTINUOUS
10
3.39364
20
-6.71492
11
3.38826
21
-6.71638
0
LINE
8
BLACK
6
CONTINUOUS
10
3.38826
20
-6.71638
11
3.38268
21
-6.71628
0
LINE
8
BLACK
6
CONTINUOUS
10
3.38268
20
-6.71628
11
3.37735
21
-6.71462
0
LINE
8
BLACK
6
CONTINUOUS
10
3.37735
20
-6.71462
11
3.37271
21
-6.71153
0
LINE
8
BLACK
6
CONTINUOUS
10
3.37271
20
-6.71153
11
3.36911
21
-6.70725
0
LINE
8
BLACK
6
CONTINUOUS
10
3.36911
20
-6.70725
11
3.36687
21
-6.70214
0
LINE
8
BLACK
6
CONTINUOUS
10
3.36687
20
-6.70214
11
3.36614
21
-6.69661
0
LINE
8
BLACK
6
CONTINUOUS
10
3.36614
20
-6.69661
11
3.367
21
-6.6911
0
LINE
8
BLACK
6
CONTINUOUS
10
3.367
20
-6.6911
11
3.36937
21
-6.68604
0
LINE
8
BLACK
6
CONTINUOUS
10
3.36937
20
-6.68604
11
3.37307
21
-6.68186
0
LINE
8
BLACK
6
CONTINUOUS
10
3.37307
20
-6.68186
11
3.37779
21
-6.67888
0
LINE
8
BLACK
6
CONTINUOUS
10
3.37779
20
-6.67888
11
3.38316
21
-6.67735
0
LINE
8
BLACK
6
CONTINUOUS
10
3.38316
20
-6.67735
11
3.38874
21
-6.67738
0
LINE
8
BLACK
6
CONTINUOUS
10
3.15053
20
-6.67463
11
3.15232
21
-6.67583
0
LINE
8
BLACK
6
CONTINUOUS
10
3.15232
20
-6.67583
11
3.15352
21
-6.67762
0
LINE
8
BLACK
6
CONTINUOUS
10
3.15352
20
-6.67762
11
3.15394
21
-6.67972
0
LINE
8
BLACK
6
CONTINUOUS
10
3.15394
20
-6.67972
11
3.15394
21
-6.69075
0
LINE
8
BLACK
6
CONTINUOUS
10
3.15394
20
-6.69075
11
3.15352
21
-6.69286
0
LINE
8
BLACK
6
CONTINUOUS
10
3.15352
20
-6.69286
11
3.15232
21
-6.69465
0
LINE
8
BLACK
6
CONTINUOUS
10
3.15232
20
-6.69465
11
3.15053
21
-6.69584
0
LINE
8
BLACK
6
CONTINUOUS
10
3.15053
20
-6.69584
11
3.14843
21
-6.69626
0
LINE
8
BLACK
6
CONTINUOUS
10
3.14843
20
-6.69626
11
3.13504
21
-6.69626
0
LINE
8
BLACK
6
CONTINUOUS
10
3.13504
20
-6.69626
11
3.13293
21
-6.69584
0
LINE
8
BLACK
6
CONTINUOUS
10
3.13293
20
-6.69584
11
3.13114
21
-6.69465
0
LINE
8
BLACK
6
CONTINUOUS
10
3.13114
20
-6.69465
11
3.12995
21
-6.69286
0
LINE
8
BLACK
6
CONTINUOUS
10
3.12995
20
-6.69286
11
3.12953
21
-6.69075
0
LINE
8
BLACK
6
CONTINUOUS
10
3.12953
20
-6.69075
11
3.12953
21
-6.67972
0
LINE
8
BLACK
6
CONTINUOUS
10
3.12953
20
-6.67972
11
3.12995
21
-6.67762
0
LINE
8
BLACK
6
CONTINUOUS
10
3.12995
20
-6.67762
11
3.13114
21
-6.67583
0
LINE
8
BLACK
6
CONTINUOUS
10
3.13114
20
-6.67583
11
3.13293
21
-6.67463
0
LINE
8
BLACK
6
CONTINUOUS
10
3.13293
20
-6.67463
11
3.13504
21
-6.67421
0
LINE
8
BLACK
6
CONTINUOUS
10
3.13504
20
-6.67421
11
3.14843
21
-6.67421
0
LINE
8
BLACK
6
CONTINUOUS
10
3.14843
20
-6.67421
11
3.15053
21
-6.67463
0
LINE
8
BLACK
6
CONTINUOUS
10
2.27849
20
-6.67444
11
2.28028
21
-6.67563
0
LINE
8
BLACK
6
CONTINUOUS
10
2.28028
20
-6.67563
11
2.28147
21
-6.67742
0
LINE
8
BLACK
6
CONTINUOUS
10
2.28147
20
-6.67742
11
2.28189
21
-6.67953
0
LINE
8
BLACK
6
CONTINUOUS
10
2.28189
20
-6.67953
11
2.28189
21
-6.69055
0
LINE
8
BLACK
6
CONTINUOUS
10
2.28189
20
-6.69055
11
2.28147
21
-6.69266
0
LINE
8
BLACK
6
CONTINUOUS
10
2.28147
20
-6.69266
11
2.28028
21
-6.69445
0
LINE
8
BLACK
6
CONTINUOUS
10
2.28028
20
-6.69445
11
2.27849
21
-6.69564
0
LINE
8
BLACK
6
CONTINUOUS
10
2.27849
20
-6.69564
11
2.27638
21
-6.69606
0
LINE
8
BLACK
6
CONTINUOUS
10
2.27638
20
-6.69606
11
2.26299
21
-6.69606
0
LINE
8
BLACK
6
CONTINUOUS
10
2.26299
20
-6.69606
11
2.26088
21
-6.69564
0
LINE
8
BLACK
6
CONTINUOUS
10
2.26088
20
-6.69564
11
2.25909
21
-6.69445
0
LINE
8
BLACK
6
CONTINUOUS
10
2.25909
20
-6.69445
11
2.2579
21
-6.69266
0
LINE
8
BLACK
6
CONTINUOUS
10
2.2579
20
-6.69266
11
2.25748
21
-6.69055
0
LINE
8
BLACK
6
CONTINUOUS
10
2.25748
20
-6.69055
11
2.25748
21
-6.67953
0
LINE
8
BLACK
6
CONTINUOUS
10
2.25748
20
-6.67953
11
2.2579
21
-6.67742
0
LINE
8
BLACK
6
CONTINUOUS
10
2.2579
20
-6.67742
11
2.25909
21
-6.67563
0
LINE
8
BLACK
6
CONTINUOUS
10
2.25909
20
-6.67563
11
2.26088
21
-6.67444
0
LINE
8
BLACK
6
CONTINUOUS
10
2.26088
20
-6.67444
11
2.26299
21
-6.67402
0
LINE
8
BLACK
6
CONTINUOUS
10
2.26299
20
-6.67402
11
2.27638
21
-6.67402
0
LINE
8
BLACK
6
CONTINUOUS
10
2.27638
20
-6.67402
11
2.27849
21
-6.67444
0
LINE
8
BLACK
6
CONTINUOUS
10
3.0714
20
-6.67444
11
3.07319
21
-6.67563
0
LINE
8
BLACK
6
CONTINUOUS
10
3.07319
20
-6.67563
11
3.07438
21
-6.67742
0
LINE
8
BLACK
6
CONTINUOUS
10
3.07438
20
-6.67742
11
3.0748
21
-6.67953
0
LINE
8
BLACK
6
CONTINUOUS
10
3.0748
20
-6.67953
11
3.0748
21
-6.69055
0
LINE
8
BLACK
6
CONTINUOUS
10
3.0748
20
-6.69055
11
3.07438
21
-6.69266
0
LINE
8
BLACK
6
CONTINUOUS
10
3.07438
20
-6.69266
11
3.07319
21
-6.69445
0
LINE
8
BLACK
6
CONTINUOUS
10
3.07319
20
-6.69445
11
3.0714
21
-6.69564
0
LINE
8
BLACK
6
CONTINUOUS
10
3.0714
20
-6.69564
11
3.06929
21
-6.69606
0
LINE
8
BLACK
6
CONTINUOUS
10
3.06929
20
-6.69606
11
3.05591
21
-6.69606
0
LINE
8
BLACK
6
CONTINUOUS
10
3.05591
20
-6.69606
11
3.0538
21
-6.69564
0
LINE
8
BLACK
6
CONTINUOUS
10
3.0538
20
-6.69564
11
3.05201
21
-6.69445
0
LINE
8
BLACK
6
CONTINUOUS
10
3.05201
20
-6.69445
11
3.05081
21
-6.69266
0
LINE
8
BLACK
6
CONTINUOUS
10
3.05081
20
-6.69266
11
3.05039
21
-6.69055
0
LINE
8
BLACK
6
CONTINUOUS
10
3.05039
20
-6.69055
11
3.05039
21
-6.67953
0
LINE
8
BLACK
6
CONTINUOUS
10
3.05039
20
-6.67953
11
3.05081
21
-6.67742
0
LINE
8
BLACK
6
CONTINUOUS
10
3.05081
20
-6.67742
11
3.05201
21
-6.67563
0
LINE
8
BLACK
6
CONTINUOUS
10
3.05201
20
-6.67563
11
3.0538
21
-6.67444
0
LINE
8
BLACK
6
CONTINUOUS
10
3.0538
20
-6.67444
11
3.05591
21
-6.67402
0
LINE
8
BLACK
6
CONTINUOUS
10
3.05591
20
-6.67402
11
3.06929
21
-6.67402
0
LINE
8
BLACK
6
CONTINUOUS
10
3.06929
20
-6.67402
11
3.0714
21
-6.67444
0
LINE
8
BLACK
6
CONTINUOUS
10
2.3592
20
-6.67444
11
2.36098
21
-6.67563
0
LINE
8
BLACK
6
CONTINUOUS
10
2.36098
20
-6.67563
11
2.36218
21
-6.67742
0
LINE
8
BLACK
6
CONTINUOUS
10
2.36218
20
-6.67742
11
2.3626
21
-6.67953
0
LINE
8
BLACK
6
CONTINUOUS
10
2.3626
20
-6.67953
11
2.3626
21
-6.69055
0
LINE
8
BLACK
6
CONTINUOUS
10
2.3626
20
-6.69055
11
2.36218
21
-6.69266
0
LINE
8
BLACK
6
CONTINUOUS
10
2.36218
20
-6.69266
11
2.36098
21
-6.69445
0
LINE
8
BLACK
6
CONTINUOUS
10
2.36098
20
-6.69445
11
2.3592
21
-6.69564
0
LINE
8
BLACK
6
CONTINUOUS
10
2.3592
20
-6.69564
11
2.35709
21
-6.69606
0
LINE
8
BLACK
6
CONTINUOUS
10
2.35709
20
-6.69606
11
2.3437
21
-6.69606
0
LINE
8
BLACK
6
CONTINUOUS
10
2.3437
20
-6.69606
11
2.34159
21
-6.69564
0
LINE
8
BLACK
6
CONTINUOUS
10
2.34159
20
-6.69564
11
2.3398
21
-6.69445
0
LINE
8
BLACK
6
CONTINUOUS
10
2.3398
20
-6.69445
11
2.33861
21
-6.69266
0
LINE
8
BLACK
6
CONTINUOUS
10
2.33861
20
-6.69266
11
2.33819
21
-6.69055
0
LINE
8
BLACK
6
CONTINUOUS
10
2.33819
20
-6.69055
11
2.33819
21
-6.67953
0
LINE
8
BLACK
6
CONTINUOUS
10
2.33819
20
-6.67953
11
2.33861
21
-6.67742
0
LINE
8
BLACK
6
CONTINUOUS
10
2.33861
20
-6.67742
11
2.3398
21
-6.67563
0
LINE
8
BLACK
6
CONTINUOUS
10
2.3398
20
-6.67563
11
2.34159
21
-6.67444
0
LINE
8
BLACK
6
CONTINUOUS
10
2.34159
20
-6.67444
11
2.3437
21
-6.67402
0
LINE
8
BLACK
6
CONTINUOUS
10
2.3437
20
-6.67402
11
2.35709
21
-6.67402
0
LINE
8
BLACK
6
CONTINUOUS
10
2.35709
20
-6.67402
11
2.3592
21
-6.67444
0
LINE
8
BLACK
6
CONTINUOUS
10
2.31884
20
-6.67444
11
2.32063
21
-6.67563
0
LINE
8
BLACK
6
CONTINUOUS
10
2.32063
20
-6.67563
11
2.32182
21
-6.67742
0
LINE
8
BLACK
6
CONTINUOUS
10
2.32182
20
-6.67742
11
2.32224
21
-6.67953
0
LINE
8
BLACK
6
CONTINUOUS
10
2.32224
20
-6.67953
11
2.32224
21
-6.69055
0
LINE
8
BLACK
6
CONTINUOUS
10
2.32224
20
-6.69055
11
2.32182
21
-6.69266
0
LINE
8
BLACK
6
CONTINUOUS
10
2.32182
20
-6.69266
11
2.32063
21
-6.69445
0
LINE
8
BLACK
6
CONTINUOUS
10
2.32063
20
-6.69445
11
2.31884
21
-6.69564
0
LINE
8
BLACK
6
CONTINUOUS
10
2.31884
20
-6.69564
11
2.31673
21
-6.69606
0
LINE
8
BLACK
6
CONTINUOUS
10
2.31673
20
-6.69606
11
2.30335
21
-6.69606
0
LINE
8
BLACK
6
CONTINUOUS
10
2.30335
20
-6.69606
11
2.30124
21
-6.69564
0
LINE
8
BLACK
6
CONTINUOUS
10
2.30124
20
-6.69564
11
2.29945
21
-6.69445
0
LINE
8
BLACK
6
CONTINUOUS
10
2.29945
20
-6.69445
11
2.29825
21
-6.69266
0
LINE
8
BLACK
6
CONTINUOUS
10
2.29825
20
-6.69266
11
2.29783
21
-6.69055
0
LINE
8
BLACK
6
CONTINUOUS
10
2.29783
20
-6.69055
11
2.29783
21
-6.67953
0
LINE
8
BLACK
6
CONTINUOUS
10
2.29783
20
-6.67953
11
2.29825
21
-6.67742
0
LINE
8
BLACK
6
CONTINUOUS
10
2.29825
20
-6.67742
11
2.29945
21
-6.67563
0
LINE
8
BLACK
6
CONTINUOUS
10
2.29945
20
-6.67563
11
2.30124
21
-6.67444
0
LINE
8
BLACK
6
CONTINUOUS
10
2.30124
20
-6.67444
11
2.30335
21
-6.67402
0
LINE
8
BLACK
6
CONTINUOUS
10
2.30335
20
-6.67402
11
2.31673
21
-6.67402
0
LINE
8
BLACK
6
CONTINUOUS
10
2.31673
20
-6.67402
11
2.31884
21
-6.67444
0
LINE
8
BLACK
6
CONTINUOUS
10
3.11116
20
-6.67444
11
3.11295
21
-6.67563
0
LINE
8
BLACK
6
CONTINUOUS
10
3.11295
20
-6.67563
11
3.11415
21
-6.67742
0
LINE
8
BLACK
6
CONTINUOUS
10
3.11415
20
-6.67742
11
3.11457
21
-6.67953
0
LINE
8
BLACK
6
CONTINUOUS
10
3.11457
20
-6.67953
11
3.11457
21
-6.69055
0
LINE
8
BLACK
6
CONTINUOUS
10
3.11457
20
-6.69055
11
3.11415
21
-6.69266
0
LINE
8
BLACK
6
CONTINUOUS
10
3.11415
20
-6.69266
11
3.11295
21
-6.69445
0
LINE
8
BLACK
6
CONTINUOUS
10
3.11295
20
-6.69445
11
3.11116
21
-6.69564
0
LINE
8
BLACK
6
CONTINUOUS
10
3.11116
20
-6.69564
11
3.10906
21
-6.69606
0
LINE
8
BLACK
6
CONTINUOUS
10
3.10906
20
-6.69606
11
3.09567
21
-6.69606
0
LINE
8
BLACK
6
CONTINUOUS
10
3.09567
20
-6.69606
11
3.09356
21
-6.69564
0
LINE
8
BLACK
6
CONTINUOUS
10
3.09356
20
-6.69564
11
3.09177
21
-6.69445
0
LINE
8
BLACK
6
CONTINUOUS
10
3.09177
20
-6.69445
11
3.09058
21
-6.69266
0
LINE
8
BLACK
6
CONTINUOUS
10
3.09058
20
-6.69266
11
3.09016
21
-6.69055
0
LINE
8
BLACK
6
CONTINUOUS
10
3.09016
20
-6.69055
11
3.09016
21
-6.67953
0
LINE
8
BLACK
6
CONTINUOUS
10
3.09016
20
-6.67953
11
3.09058
21
-6.67742
0
LINE
8
BLACK
6
CONTINUOUS
10
3.09058
20
-6.67742
11
3.09177
21
-6.67563
0
LINE
8
BLACK
6
CONTINUOUS
10
3.09177
20
-6.67563
11
3.09356
21
-6.67444
0
LINE
8
BLACK
6
CONTINUOUS
10
3.09356
20
-6.67444
11
3.09567
21
-6.67402
0
LINE
8
BLACK
6
CONTINUOUS
10
3.09567
20
-6.67402
11
3.10906
21
-6.67402
0
LINE
8
BLACK
6
CONTINUOUS
10
3.10906
20
-6.67402
11
3.11116
21
-6.67444
0
LINE
8
BLACK
6
CONTINUOUS
10
3.94778
20
-6.67404
11
3.94957
21
-6.67524
0
LINE
8
BLACK
6
CONTINUOUS
10
3.94957
20
-6.67524
11
3.95076
21
-6.67702
0
LINE
8
BLACK
6
CONTINUOUS
10
3.95076
20
-6.67702
11
3.95118
21
-6.67913
0
LINE
8
BLACK
6
CONTINUOUS
10
3.95118
20
-6.67913
11
3.95118
21
-6.69016
0
LINE
8
BLACK
6
CONTINUOUS
10
3.95118
20
-6.69016
11
3.95076
21
-6.69227
0
LINE
8
BLACK
6
CONTINUOUS
10
3.95076
20
-6.69227
11
3.94957
21
-6.69405
0
LINE
8
BLACK
6
CONTINUOUS
10
3.94957
20
-6.69405
11
3.94778
21
-6.69525
0
LINE
8
BLACK
6
CONTINUOUS
10
3.94778
20
-6.69525
11
3.94567
21
-6.69567
0
LINE
8
BLACK
6
CONTINUOUS
10
3.94567
20
-6.69567
11
3.93228
21
-6.69567
0
LINE
8
BLACK
6
CONTINUOUS
10
3.93228
20
-6.69567
11
3.93017
21
-6.69525
0
LINE
8
BLACK
6
CONTINUOUS
10
3.93017
20
-6.69525
11
3.92839
21
-6.69405
0
LINE
8
BLACK
6
CONTINUOUS
10
3.92839
20
-6.69405
11
3.92719
21
-6.69227
0
LINE
8
BLACK
6
CONTINUOUS
10
3.92719
20
-6.69227
11
3.92677
21
-6.69016
0
LINE
8
BLACK
6
CONTINUOUS
10
3.92677
20
-6.69016
11
3.92677
21
-6.67913
0
LINE
8
BLACK
6
CONTINUOUS
10
3.92677
20
-6.67913
11
3.92719
21
-6.67702
0
LINE
8
BLACK
6
CONTINUOUS
10
3.92719
20
-6.67702
11
3.92839
21
-6.67524
0
LINE
8
BLACK
6
CONTINUOUS
10
3.92839
20
-6.67524
11
3.93017
21
-6.67404
0
LINE
8
BLACK
6
CONTINUOUS
10
3.93017
20
-6.67404
11
3.93228
21
-6.67362
0
LINE
8
BLACK
6
CONTINUOUS
10
3.93228
20
-6.67362
11
3.94567
21
-6.67362
0
LINE
8
BLACK
6
CONTINUOUS
10
3.94567
20
-6.67362
11
3.94778
21
-6.67404
0
LINE
8
BLACK
6
CONTINUOUS
10
1.48715
20
-6.67404
11
1.48894
21
-6.67524
0
LINE
8
BLACK
6
CONTINUOUS
10
1.48894
20
-6.67524
11
1.49013
21
-6.67702
0
LINE
8
BLACK
6
CONTINUOUS
10
1.49013
20
-6.67702
11
1.49055
21
-6.67913
0
LINE
8
BLACK
6
CONTINUOUS
10
1.49055
20
-6.67913
11
1.49055
21
-6.69016
0
LINE
8
BLACK
6
CONTINUOUS
10
1.49055
20
-6.69016
11
1.49013
21
-6.69227
0
LINE
8
BLACK
6
CONTINUOUS
10
1.49013
20
-6.69227
11
1.48894
21
-6.69405
0
LINE
8
BLACK
6
CONTINUOUS
10
1.48894
20
-6.69405
11
1.48715
21
-6.69525
0
LINE
8
BLACK
6
CONTINUOUS
10
1.48715
20
-6.69525
11
1.48504
21
-6.69567
0
LINE
8
BLACK
6
CONTINUOUS
10
1.48504
20
-6.69567
11
1.47165
21
-6.69567
0
LINE
8
BLACK
6
CONTINUOUS
10
1.47165
20
-6.69567
11
1.46954
21
-6.69525
0
LINE
8
BLACK
6
CONTINUOUS
10
1.46954
20
-6.69525
11
1.46776
21
-6.69405
0
LINE
8
BLACK
6
CONTINUOUS
10
1.46776
20
-6.69405
11
1.46656
21
-6.69227
0
LINE
8
BLACK
6
CONTINUOUS
10
1.46656
20
-6.69227
11
1.46614
21
-6.69016
0
LINE
8
BLACK
6
CONTINUOUS
10
1.46614
20
-6.69016
11
1.46614
21
-6.67913
0
LINE
8
BLACK
6
CONTINUOUS
10
1.46614
20
-6.67913
11
1.46656
21
-6.67702
0
LINE
8
BLACK
6
CONTINUOUS
10
1.46656
20
-6.67702
11
1.46776
21
-6.67524
0
LINE
8
BLACK
6
CONTINUOUS
10
1.46776
20
-6.67524
11
1.46954
21
-6.67404
0
LINE
8
BLACK
6
CONTINUOUS
10
1.46954
20
-6.67404
11
1.47165
21
-6.67362
0
LINE
8
BLACK
6
CONTINUOUS
10
1.47165
20
-6.67362
11
1.48504
21
-6.67362
0
LINE
8
BLACK
6
CONTINUOUS
10
1.48504
20
-6.67362
11
1.48715
21
-6.67404
0
LINE
8
BLACK
6
CONTINUOUS
10
3.86904
20
-6.67404
11
3.87083
21
-6.67524
0
LINE
8
BLACK
6
CONTINUOUS
10
3.87083
20
-6.67524
11
3.87202
21
-6.67702
0
LINE
8
BLACK
6
CONTINUOUS
10
3.87202
20
-6.67702
11
3.87244
21
-6.67913
0
LINE
8
BLACK
6
CONTINUOUS
10
3.87244
20
-6.67913
11
3.87244
21
-6.69016
0
LINE
8
BLACK
6
CONTINUOUS
10
3.87244
20
-6.69016
11
3.87202
21
-6.69227
0
LINE
8
BLACK
6
CONTINUOUS
10
3.87202
20
-6.69227
11
3.87083
21
-6.69405
0
LINE
8
BLACK
6
CONTINUOUS
10
3.87083
20
-6.69405
11
3.86904
21
-6.69525
0
LINE
8
BLACK
6
CONTINUOUS
10
3.86904
20
-6.69525
11
3.86693
21
-6.69567
0
LINE
8
BLACK
6
CONTINUOUS
10
3.86693
20
-6.69567
11
3.85354
21
-6.69567
0
LINE
8
BLACK
6
CONTINUOUS
10
3.85354
20
-6.69567
11
3.85143
21
-6.69525
0
LINE
8
BLACK
6
CONTINUOUS
10
3.85143
20
-6.69525
11
3.84965
21
-6.69405
0
LINE
8
BLACK
6
CONTINUOUS
10
3.84965
20
-6.69405
11
3.84845
21
-6.69227
0
LINE
8
BLACK
6
CONTINUOUS
10
3.84845
20
-6.69227
11
3.84803
21
-6.69016
0
LINE
8
BLACK
6
CONTINUOUS
10
3.84803
20
-6.69016
11
3.84803
21
-6.67913
0
LINE
8
BLACK
6
CONTINUOUS
10
3.84803
20
-6.67913
11
3.84845
21
-6.67702
0
LINE
8
BLACK
6
CONTINUOUS
10
3.84845
20
-6.67702
11
3.84965
21
-6.67524
0
LINE
8
BLACK
6
CONTINUOUS
10
3.84965
20
-6.67524
11
3.85143
21
-6.67404
0
LINE
8
BLACK
6
CONTINUOUS
10
3.85143
20
-6.67404
11
3.85354
21
-6.67362
0
LINE
8
BLACK
6
CONTINUOUS
10
3.85354
20
-6.67362
11
3.86693
21
-6.67362
0
LINE
8
BLACK
6
CONTINUOUS
10
3.86693
20
-6.67362
11
3.86904
21
-6.67404
0
LINE
8
BLACK
6
CONTINUOUS
10
1.56786
20
-6.67404
11
1.56965
21
-6.67524
0
LINE
8
BLACK
6
CONTINUOUS
10
1.56965
20
-6.67524
11
1.57084
21
-6.67702
0
LINE
8
BLACK
6
CONTINUOUS
10
1.57084
20
-6.67702
11
1.57126
21
-6.67913
0
LINE
8
BLACK
6
CONTINUOUS
10
1.57126
20
-6.67913
11
1.57126
21
-6.69016
0
LINE
8
BLACK
6
CONTINUOUS
10
1.57126
20
-6.69016
11
1.57084
21
-6.69227
0
LINE
8
BLACK
6
CONTINUOUS
10
1.57084
20
-6.69227
11
1.56965
21
-6.69405
0
LINE
8
BLACK
6
CONTINUOUS
10
1.56965
20
-6.69405
11
1.56786
21
-6.69525
0
LINE
8
BLACK
6
CONTINUOUS
10
1.56786
20
-6.69525
11
1.56575
21
-6.69567
0
LINE
8
BLACK
6
CONTINUOUS
10
1.56575
20
-6.69567
11
1.55236
21
-6.69567
0
LINE
8
BLACK
6
CONTINUOUS
10
1.55236
20
-6.69567
11
1.55025
21
-6.69525
0
LINE
8
BLACK
6
CONTINUOUS
10
1.55025
20
-6.69525
11
1.54846
21
-6.69405
0
LINE
8
BLACK
6
CONTINUOUS
10
1.54846
20
-6.69405
11
1.54727
21
-6.69227
0
LINE
8
BLACK
6
CONTINUOUS
10
1.54727
20
-6.69227
11
1.54685
21
-6.69016
0
LINE
8
BLACK
6
CONTINUOUS
10
1.54685
20
-6.69016
11
1.54685
21
-6.67913
0
LINE
8
BLACK
6
CONTINUOUS
10
1.54685
20
-6.67913
11
1.54727
21
-6.67702
0
LINE
8
BLACK
6
CONTINUOUS
10
1.54727
20
-6.67702
11
1.54846
21
-6.67524
0
LINE
8
BLACK
6
CONTINUOUS
10
1.54846
20
-6.67524
11
1.55025
21
-6.67404
0
LINE
8
BLACK
6
CONTINUOUS
10
1.55025
20
-6.67404
11
1.55236
21
-6.67362
0
LINE
8
BLACK
6
CONTINUOUS
10
1.55236
20
-6.67362
11
1.56575
21
-6.67362
0
LINE
8
BLACK
6
CONTINUOUS
10
1.56575
20
-6.67362
11
1.56786
21
-6.67404
0
LINE
8
BLACK
6
CONTINUOUS
10
3.90841
20
-6.67404
11
3.9102
21
-6.67524
0
LINE
8
BLACK
6
CONTINUOUS
10
3.9102
20
-6.67524
11
3.91139
21
-6.67702
0
LINE
8
BLACK
6
CONTINUOUS
10
3.91139
20
-6.67702
11
3.91181
21
-6.67913
0
LINE
8
BLACK
6
CONTINUOUS
10
3.91181
20
-6.67913
11
3.91181
21
-6.69016
0
LINE
8
BLACK
6
CONTINUOUS
10
3.91181
20
-6.69016
11
3.91139
21
-6.69227
0
LINE
8
BLACK
6
CONTINUOUS
10
3.91139
20
-6.69227
11
3.9102
21
-6.69405
0
LINE
8
BLACK
6
CONTINUOUS
10
3.9102
20
-6.69405
11
3.90841
21
-6.69525
0
LINE
8
BLACK
6
CONTINUOUS
10
3.90841
20
-6.69525
11
3.9063
21
-6.69567
0
LINE
8
BLACK
6
CONTINUOUS
10
3.9063
20
-6.69567
11
3.89291
21
-6.69567
0
LINE
8
BLACK
6
CONTINUOUS
10
3.89291
20
-6.69567
11
3.8908
21
-6.69525
0
LINE
8
BLACK
6
CONTINUOUS
10
3.8908
20
-6.69525
11
3.88902
21
-6.69405
0
LINE
8
BLACK
6
CONTINUOUS
10
3.88902
20
-6.69405
11
3.88782
21
-6.69227
0
LINE
8
BLACK
6
CONTINUOUS
10
3.88782
20
-6.69227
11
3.8874
21
-6.69016
0
LINE
8
BLACK
6
CONTINUOUS
10
3.8874
20
-6.69016
11
3.8874
21
-6.67913
0
LINE
8
BLACK
6
CONTINUOUS
10
3.8874
20
-6.67913
11
3.88782
21
-6.67702
0
LINE
8
BLACK
6
CONTINUOUS
10
3.88782
20
-6.67702
11
3.88902
21
-6.67524
0
LINE
8
BLACK
6
CONTINUOUS
10
3.88902
20
-6.67524
11
3.8908
21
-6.67404
0
LINE
8
BLACK
6
CONTINUOUS
10
3.8908
20
-6.67404
11
3.89291
21
-6.67362
0
LINE
8
BLACK
6
CONTINUOUS
10
3.89291
20
-6.67362
11
3.9063
21
-6.67362
0
LINE
8
BLACK
6
CONTINUOUS
10
3.9063
20
-6.67362
11
3.90841
21
-6.67404
0
LINE
8
BLACK
6
CONTINUOUS
10
1.5275
20
-6.67404
11
1.52929
21
-6.67524
0
LINE
8
BLACK
6
CONTINUOUS
10
1.52929
20
-6.67524
11
1.53049
21
-6.67702
0
LINE
8
BLACK
6
CONTINUOUS
10
1.53049
20
-6.67702
11
1.53091
21
-6.67913
0
LINE
8
BLACK
6
CONTINUOUS
10
1.53091
20
-6.67913
11
1.53091
21
-6.69016
0
LINE
8
BLACK
6
CONTINUOUS
10
1.53091
20
-6.69016
11
1.53049
21
-6.69227
0
LINE
8
BLACK
6
CONTINUOUS
10
1.53049
20
-6.69227
11
1.52929
21
-6.69405
0
LINE
8
BLACK
6
CONTINUOUS
10
1.52929
20
-6.69405
11
1.5275
21
-6.69525
0
LINE
8
BLACK
6
CONTINUOUS
10
1.5275
20
-6.69525
11
1.52539
21
-6.69567
0
LINE
8
BLACK
6
CONTINUOUS
10
1.52539
20
-6.69567
11
1.51201
21
-6.69567
0
LINE
8
BLACK
6
CONTINUOUS
10
1.51201
20
-6.69567
11
1.5099
21
-6.69525
0
LINE
8
BLACK
6
CONTINUOUS
10
1.5099
20
-6.69525
11
1.50811
21
-6.69405
0
LINE
8
BLACK
6
CONTINUOUS
10
1.50811
20
-6.69405
11
1.50692
21
-6.69227
0
LINE
8
BLACK
6
CONTINUOUS
10
1.50692
20
-6.69227
11
1.5065
21
-6.69016
0
LINE
8
BLACK
6
CONTINUOUS
10
1.5065
20
-6.69016
11
1.5065
21
-6.67913
0
LINE
8
BLACK
6
CONTINUOUS
10
1.5065
20
-6.67913
11
1.50692
21
-6.67702
0
LINE
8
BLACK
6
CONTINUOUS
10
1.50692
20
-6.67702
11
1.50811
21
-6.67524
0
LINE
8
BLACK
6
CONTINUOUS
10
1.50811
20
-6.67524
11
1.5099
21
-6.67404
0
LINE
8
BLACK
6
CONTINUOUS
10
1.5099
20
-6.67404
11
1.51201
21
-6.67362
0
LINE
8
BLACK
6
CONTINUOUS
10
1.51201
20
-6.67362
11
1.52539
21
-6.67362
0
LINE
8
BLACK
6
CONTINUOUS
10
1.52539
20
-6.67362
11
1.5275
21
-6.67404
0
LINE
8
BLACK
6
CONTINUOUS
10
4.16826
20
-6.64982
11
4.17361
21
-6.65142
0
LINE
8
BLACK
6
CONTINUOUS
10
4.17361
20
-6.65142
11
4.17829
21
-6.65446
0
LINE
8
BLACK
6
CONTINUOUS
10
4.17829
20
-6.65446
11
4.18194
21
-6.65869
0
LINE
8
BLACK
6
CONTINUOUS
10
4.18194
20
-6.65869
11
4.18425
21
-6.66377
0
LINE
8
BLACK
6
CONTINUOUS
10
4.18425
20
-6.66377
11
4.18504
21
-6.66929
0
LINE
8
BLACK
6
CONTINUOUS
10
4.18504
20
-6.66929
11
4.18503
21
-6.66977
0
LINE
8
BLACK
6
CONTINUOUS
10
4.18503
20
-6.66977
11
4.18411
21
-6.67528
0
LINE
8
BLACK
6
CONTINUOUS
10
4.18411
20
-6.67528
11
4.18167
21
-6.6803
0
LINE
8
BLACK
6
CONTINUOUS
10
4.18167
20
-6.6803
11
4.17793
21
-6.68444
0
LINE
8
BLACK
6
CONTINUOUS
10
4.17793
20
-6.68444
11
4.17317
21
-6.68736
0
LINE
8
BLACK
6
CONTINUOUS
10
4.17317
20
-6.68736
11
4.16779
21
-6.68883
0
LINE
8
BLACK
6
CONTINUOUS
10
4.16779
20
-6.68883
11
4.16221
21
-6.68872
0
LINE
8
BLACK
6
CONTINUOUS
10
4.16221
20
-6.68872
11
4.15688
21
-6.68706
0
LINE
8
BLACK
6
CONTINUOUS
10
4.15688
20
-6.68706
11
4.15223
21
-6.68397
0
LINE
8
BLACK
6
CONTINUOUS
10
4.15223
20
-6.68397
11
4.14864
21
-6.67969
0
LINE
8
BLACK
6
CONTINUOUS
10
4.14864
20
-6.67969
11
4.14639
21
-6.67459
0
LINE
8
BLACK
6
CONTINUOUS
10
4.14639
20
-6.67459
11
4.14567
21
-6.66905
0
LINE
8
BLACK
6
CONTINUOUS
10
4.14567
20
-6.66905
11
4.14653
21
-6.66354
0
LINE
8
BLACK
6
CONTINUOUS
10
4.14653
20
-6.66354
11
4.1489
21
-6.65848
0
LINE
8
BLACK
6
CONTINUOUS
10
4.1489
20
-6.65848
11
4.1526
21
-6.6543
0
LINE
8
BLACK
6
CONTINUOUS
10
4.1526
20
-6.6543
11
4.15732
21
-6.65132
0
LINE
8
BLACK
6
CONTINUOUS
10
4.15732
20
-6.65132
11
4.16268
21
-6.64979
0
LINE
8
BLACK
6
CONTINUOUS
10
4.16268
20
-6.64979
11
4.16826
21
-6.64982
0
LINE
8
BLACK
6
CONTINUOUS
10
1.78047
20
-6.59951
11
1.78582
21
-6.60111
0
LINE
8
BLACK
6
CONTINUOUS
10
1.78582
20
-6.60111
11
1.7905
21
-6.60414
0
LINE
8
BLACK
6
CONTINUOUS
10
1.7905
20
-6.60414
11
1.79414
21
-6.60837
0
LINE
8
BLACK
6
CONTINUOUS
10
1.79414
20
-6.60837
11
1.79645
21
-6.61345
0
LINE
8
BLACK
6
CONTINUOUS
10
1.79645
20
-6.61345
11
1.79724
21
-6.61898
0
LINE
8
BLACK
6
CONTINUOUS
10
1.79724
20
-6.61898
11
1.79724
21
-6.61946
0
LINE
8
BLACK
6
CONTINUOUS
10
1.79724
20
-6.61946
11
1.79631
21
-6.62496
0
LINE
8
BLACK
6
CONTINUOUS
10
1.79631
20
-6.62496
11
1.79388
21
-6.62998
0
LINE
8
BLACK
6
CONTINUOUS
10
1.79388
20
-6.62998
11
1.79013
21
-6.63412
0
LINE
8
BLACK
6
CONTINUOUS
10
1.79013
20
-6.63412
11
1.78538
21
-6.63704
0
LINE
8
BLACK
6
CONTINUOUS
10
1.78538
20
-6.63704
11
1.77999
21
-6.63851
0
LINE
8
BLACK
6
CONTINUOUS
10
1.77999
20
-6.63851
11
1.77441
21
-6.63841
0
LINE
8
BLACK
6
CONTINUOUS
10
1.77441
20
-6.63841
11
1.76908
21
-6.63674
0
LINE
8
BLACK
6
CONTINUOUS
10
1.76908
20
-6.63674
11
1.76444
21
-6.63365
0
LINE
8
BLACK
6
CONTINUOUS
10
1.76444
20
-6.63365
11
1.76085
21
-6.62938
0
LINE
8
BLACK
6
CONTINUOUS
10
1.76085
20
-6.62938
11
1.7586
21
-6.62427
0
LINE
8
BLACK
6
CONTINUOUS
10
1.7586
20
-6.62427
11
1.75788
21
-6.61874
0
LINE
8
BLACK
6
CONTINUOUS
10
1.75788
20
-6.61874
11
1.75873
21
-6.61322
0
LINE
8
BLACK
6
CONTINUOUS
10
1.75873
20
-6.61322
11
1.76111
21
-6.60817
0
LINE
8
BLACK
6
CONTINUOUS
10
1.76111
20
-6.60817
11
1.7648
21
-6.60399
0
LINE
8
BLACK
6
CONTINUOUS
10
1.7648
20
-6.60399
11
1.76952
21
-6.60101
0
LINE
8
BLACK
6
CONTINUOUS
10
1.76952
20
-6.60101
11
1.77489
21
-6.59947
0
LINE
8
BLACK
6
CONTINUOUS
10
1.77489
20
-6.59947
11
1.78047
21
-6.59951
0
LINE
8
BLACK
6
CONTINUOUS
10
2.56196
20
-6.59864
11
2.56731
21
-6.60024
0
LINE
8
BLACK
6
CONTINUOUS
10
2.56731
20
-6.60024
11
2.572
21
-6.60328
0
LINE
8
BLACK
6
CONTINUOUS
10
2.572
20
-6.60328
11
2.57564
21
-6.6075
0
LINE
8
BLACK
6
CONTINUOUS
10
2.57564
20
-6.6075
11
2.57795
21
-6.61259
0
LINE
8
BLACK
6
CONTINUOUS
10
2.57795
20
-6.61259
11
2.57874
21
-6.61811
0
LINE
8
BLACK
6
CONTINUOUS
10
2.57874
20
-6.61811
11
2.57873
21
-6.61859
0
LINE
8
BLACK
6
CONTINUOUS
10
2.57873
20
-6.61859
11
2.57781
21
-6.6241
0
LINE
8
BLACK
6
CONTINUOUS
10
2.57781
20
-6.6241
11
2.57537
21
-6.62912
0
LINE
8
BLACK
6
CONTINUOUS
10
2.57537
20
-6.62912
11
2.57163
21
-6.63326
0
LINE
8
BLACK
6
CONTINUOUS
10
2.57163
20
-6.63326
11
2.56687
21
-6.63618
0
LINE
8
BLACK
6
CONTINUOUS
10
2.56687
20
-6.63618
11
2.56149
21
-6.63764
0
LINE
8
BLACK
6
CONTINUOUS
10
2.56149
20
-6.63764
11
2.55591
21
-6.63754
0
LINE
8
BLACK
6
CONTINUOUS
10
2.55591
20
-6.63754
11
2.55058
21
-6.63588
0
LINE
8
BLACK
6
CONTINUOUS
10
2.55058
20
-6.63588
11
2.54593
21
-6.63278
0
LINE
8
BLACK
6
CONTINUOUS
10
2.54593
20
-6.63278
11
2.54234
21
-6.62851
0
LINE
8
BLACK
6
CONTINUOUS
10
2.54234
20
-6.62851
11
2.5401
21
-6.6234
0
LINE
8
BLACK
6
CONTINUOUS
10
2.5401
20
-6.6234
11
2.53937
21
-6.61787
0
LINE
8
BLACK
6
CONTINUOUS
10
2.53937
20
-6.61787
11
2.54023
21
-6.61235
0
LINE
8
BLACK
6
CONTINUOUS
10
2.54023
20
-6.61235
11
2.5426
21
-6.6073
0
LINE
8
BLACK
6
CONTINUOUS
10
2.5426
20
-6.6073
11
2.5463
21
-6.60312
0
LINE
8
BLACK
6
CONTINUOUS
10
2.5463
20
-6.60312
11
2.55102
21
-6.60014
0
LINE
8
BLACK
6
CONTINUOUS
10
2.55102
20
-6.60014
11
2.55638
21
-6.59861
0
LINE
8
BLACK
6
CONTINUOUS
10
2.55638
20
-6.59861
11
2.56196
21
-6.59864
0
LINE
8
BLACK
6
CONTINUOUS
10
3.38874
20
-6.59864
11
3.39408
21
-6.60024
0
LINE
8
BLACK
6
CONTINUOUS
10
3.39408
20
-6.60024
11
3.39877
21
-6.60328
0
LINE
8
BLACK
6
CONTINUOUS
10
3.39877
20
-6.60328
11
3.40241
21
-6.6075
0
LINE
8
BLACK
6
CONTINUOUS
10
3.40241
20
-6.6075
11
3.40472
21
-6.61259
0
LINE
8
BLACK
6
CONTINUOUS
10
3.40472
20
-6.61259
11
3.40551
21
-6.61811
0
LINE
8
BLACK
6
CONTINUOUS
10
3.40551
20
-6.61811
11
3.40551
21
-6.61859
0
LINE
8
BLACK
6
CONTINUOUS
10
3.40551
20
-6.61859
11
3.40458
21
-6.6241
0
LINE
8
BLACK
6
CONTINUOUS
10
3.40458
20
-6.6241
11
3.40215
21
-6.62912
0
LINE
8
BLACK
6
CONTINUOUS
10
3.40215
20
-6.62912
11
3.3984
21
-6.63326
0
LINE
8
BLACK
6
CONTINUOUS
10
3.3984
20
-6.63326
11
3.39364
21
-6.63618
0
LINE
8
BLACK
6
CONTINUOUS
10
3.39364
20
-6.63618
11
3.38826
21
-6.63764
0
LINE
8
BLACK
6
CONTINUOUS
10
3.38826
20
-6.63764
11
3.38268
21
-6.63754
0
LINE
8
BLACK
6
CONTINUOUS
10
3.38268
20
-6.63754
11
3.37735
21
-6.63588
0
LINE
8
BLACK
6
CONTINUOUS
10
3.37735
20
-6.63588
11
3.37271
21
-6.63278
0
LINE
8
BLACK
6
CONTINUOUS
10
3.37271
20
-6.63278
11
3.36911
21
-6.62851
0
LINE
8
BLACK
6
CONTINUOUS
10
3.36911
20
-6.62851
11
3.36687
21
-6.6234
0
LINE
8
BLACK
6
CONTINUOUS
10
3.36687
20
-6.6234
11
3.36614
21
-6.61787
0
LINE
8
BLACK
6
CONTINUOUS
10
3.36614
20
-6.61787
11
3.367
21
-6.61235
0
LINE
8
BLACK
6
CONTINUOUS
10
3.367
20
-6.61235
11
3.36937
21
-6.6073
0
LINE
8
BLACK
6
CONTINUOUS
10
3.36937
20
-6.6073
11
3.37307
21
-6.60312
0
LINE
8
BLACK
6
CONTINUOUS
10
3.37307
20
-6.60312
11
3.37779
21
-6.60014
0
LINE
8
BLACK
6
CONTINUOUS
10
3.37779
20
-6.60014
11
3.38316
21
-6.59861
0
LINE
8
BLACK
6
CONTINUOUS
10
3.38316
20
-6.59861
11
3.38874
21
-6.59864
0
LINE
8
BLACK
6
CONTINUOUS
10
4.16826
20
-6.57108
11
4.17361
21
-6.57268
0
LINE
8
BLACK
6
CONTINUOUS
10
4.17361
20
-6.57268
11
4.17829
21
-6.57572
0
LINE
8
BLACK
6
CONTINUOUS
10
4.17829
20
-6.57572
11
4.18194
21
-6.57995
0
LINE
8
BLACK
6
CONTINUOUS
10
4.18194
20
-6.57995
11
4.18425
21
-6.58503
0
LINE
8
BLACK
6
CONTINUOUS
10
4.18425
20
-6.58503
11
4.18504
21
-6.59055
0
LINE
8
BLACK
6
CONTINUOUS
10
4.18504
20
-6.59055
11
4.18503
21
-6.59103
0
LINE
8
BLACK
6
CONTINUOUS
10
4.18503
20
-6.59103
11
4.18411
21
-6.59654
0
LINE
8
BLACK
6
CONTINUOUS
10
4.18411
20
-6.59654
11
4.18167
21
-6.60156
0
LINE
8
BLACK
6
CONTINUOUS
10
4.18167
20
-6.60156
11
4.17793
21
-6.6057
0
LINE
8
BLACK
6
CONTINUOUS
10
4.17793
20
-6.6057
11
4.17317
21
-6.60862
0
LINE
8
BLACK
6
CONTINUOUS
10
4.17317
20
-6.60862
11
4.16779
21
-6.61009
0
LINE
8
BLACK
6
CONTINUOUS
10
4.16779
20
-6.61009
11
4.16221
21
-6.60998
0
LINE
8
BLACK
6
CONTINUOUS
10
4.16221
20
-6.60998
11
4.15688
21
-6.60832
0
LINE
8
BLACK
6
CONTINUOUS
10
4.15688
20
-6.60832
11
4.15223
21
-6.60523
0
LINE
8
BLACK
6
CONTINUOUS
10
4.15223
20
-6.60523
11
4.14864
21
-6.60095
0
LINE
8
BLACK
6
CONTINUOUS
10
4.14864
20
-6.60095
11
4.14639
21
-6.59584
0
LINE
8
BLACK
6
CONTINUOUS
10
4.14639
20
-6.59584
11
4.14567
21
-6.59031
0
LINE
8
BLACK
6
CONTINUOUS
10
4.14567
20
-6.59031
11
4.14653
21
-6.5848
0
LINE
8
BLACK
6
CONTINUOUS
10
4.14653
20
-6.5848
11
4.1489
21
-6.57974
0
LINE
8
BLACK
6
CONTINUOUS
10
4.1489
20
-6.57974
11
4.1526
21
-6.57556
0
LINE
8
BLACK
6
CONTINUOUS
10
4.1526
20
-6.57556
11
4.15732
21
-6.57258
0
LINE
8
BLACK
6
CONTINUOUS
10
4.15732
20
-6.57258
11
4.16268
21
-6.57105
0
LINE
8
BLACK
6
CONTINUOUS
10
4.16268
20
-6.57105
11
4.16826
21
-6.57108
0
LINE
8
BLACK
6
CONTINUOUS
10
3.38874
20
-6.5199
11
3.39408
21
-6.5215
0
LINE
8
BLACK
6
CONTINUOUS
10
3.39408
20
-6.5215
11
3.39877
21
-6.52454
0
LINE
8
BLACK
6
CONTINUOUS
10
3.39877
20
-6.52454
11
3.40241
21
-6.52876
0
LINE
8
BLACK
6
CONTINUOUS
10
3.40241
20
-6.52876
11
3.40472
21
-6.53385
0
LINE
8
BLACK
6
CONTINUOUS
10
3.40472
20
-6.53385
11
3.40551
21
-6.53937
0
LINE
8
BLACK
6
CONTINUOUS
10
3.40551
20
-6.53937
11
3.40551
21
-6.53985
0
LINE
8
BLACK
6
CONTINUOUS
10
3.40551
20
-6.53985
11
3.40458
21
-6.54535
0
LINE
8
BLACK
6
CONTINUOUS
10
3.40458
20
-6.54535
11
3.40215
21
-6.55038
0
LINE
8
BLACK
6
CONTINUOUS
10
3.40215
20
-6.55038
11
3.3984
21
-6.55452
0
LINE
8
BLACK
6
CONTINUOUS
10
3.3984
20
-6.55452
11
3.39364
21
-6.55744
0
LINE
8
BLACK
6
CONTINUOUS
10
3.39364
20
-6.55744
11
3.38826
21
-6.5589
0
LINE
8
BLACK
6
CONTINUOUS
10
3.38826
20
-6.5589
11
3.38268
21
-6.5588
0
LINE
8
BLACK
6
CONTINUOUS
10
3.38268
20
-6.5588
11
3.37735
21
-6.55714
0
LINE
8
BLACK
6
CONTINUOUS
10
3.37735
20
-6.55714
11
3.37271
21
-6.55404
0
LINE
8
BLACK
6
CONTINUOUS
10
3.37271
20
-6.55404
11
3.36911
21
-6.54977
0
LINE
8
BLACK
6
CONTINUOUS
10
3.36911
20
-6.54977
11
3.36687
21
-6.54466
0
LINE
8
BLACK
6
CONTINUOUS
10
3.36687
20
-6.54466
11
3.36614
21
-6.53913
0
LINE
8
BLACK
6
CONTINUOUS
10
3.36614
20
-6.53913
11
3.367
21
-6.53361
0
LINE
8
BLACK
6
CONTINUOUS
10
3.367
20
-6.53361
11
3.36937
21
-6.52856
0
LINE
8
BLACK
6
CONTINUOUS
10
3.36937
20
-6.52856
11
3.37307
21
-6.52438
0
LINE
8
BLACK
6
CONTINUOUS
10
3.37307
20
-6.52438
11
3.37779
21
-6.5214
0
LINE
8
BLACK
6
CONTINUOUS
10
3.37779
20
-6.5214
11
3.38316
21
-6.51987
0
LINE
8
BLACK
6
CONTINUOUS
10
3.38316
20
-6.51987
11
3.38874
21
-6.5199
0
LINE
8
BLACK
6
CONTINUOUS
10
1.78047
20
-6.5199
11
1.78582
21
-6.5215
0
LINE
8
BLACK
6
CONTINUOUS
10
1.78582
20
-6.5215
11
1.7905
21
-6.52454
0
LINE
8
BLACK
6
CONTINUOUS
10
1.7905
20
-6.52454
11
1.79414
21
-6.52876
0
LINE
8
BLACK
6
CONTINUOUS
10
1.79414
20
-6.52876
11
1.79645
21
-6.53385
0
LINE
8
BLACK
6
CONTINUOUS
10
1.79645
20
-6.53385
11
1.79724
21
-6.53937
0
LINE
8
BLACK
6
CONTINUOUS
10
1.79724
20
-6.53937
11
1.79724
21
-6.53985
0
LINE
8
BLACK
6
CONTINUOUS
10
1.79724
20
-6.53985
11
1.79631
21
-6.54535
0
LINE
8
BLACK
6
CONTINUOUS
10
1.79631
20
-6.54535
11
1.79388
21
-6.55038
0
LINE
8
BLACK
6
CONTINUOUS
10
1.79388
20
-6.55038
11
1.79013
21
-6.55452
0
LINE
8
BLACK
6
CONTINUOUS
10
1.79013
20
-6.55452
11
1.78538
21
-6.55744
0
LINE
8
BLACK
6
CONTINUOUS
10
1.78538
20
-6.55744
11
1.77999
21
-6.5589
0
LINE
8
BLACK
6
CONTINUOUS
10
1.77999
20
-6.5589
11
1.77441
21
-6.5588
0
LINE
8
BLACK
6
CONTINUOUS
10
1.77441
20
-6.5588
11
1.76908
21
-6.55714
0
LINE
8
BLACK
6
CONTINUOUS
10
1.76908
20
-6.55714
11
1.76444
21
-6.55404
0
LINE
8
BLACK
6
CONTINUOUS
10
1.76444
20
-6.55404
11
1.76085
21
-6.54977
0
LINE
8
BLACK
6
CONTINUOUS
10
1.76085
20
-6.54977
11
1.7586
21
-6.54466
0
LINE
8
BLACK
6
CONTINUOUS
10
1.7586
20
-6.54466
11
1.75788
21
-6.53913
0
LINE
8
BLACK
6
CONTINUOUS
10
1.75788
20
-6.53913
11
1.75873
21
-6.53361
0
LINE
8
BLACK
6
CONTINUOUS
10
1.75873
20
-6.53361
11
1.76111
21
-6.52856
0
LINE
8
BLACK
6
CONTINUOUS
10
1.76111
20
-6.52856
11
1.7648
21
-6.52438
0
LINE
8
BLACK
6
CONTINUOUS
10
1.7648
20
-6.52438
11
1.76952
21
-6.5214
0
LINE
8
BLACK
6
CONTINUOUS
10
1.76952
20
-6.5214
11
1.77489
21
-6.51987
0
LINE
8
BLACK
6
CONTINUOUS
10
1.77489
20
-6.51987
11
1.78047
21
-6.5199
0
LINE
8
BLACK
6
CONTINUOUS
10
2.56196
20
-6.5199
11
2.56731
21
-6.5215
0
LINE
8
BLACK
6
CONTINUOUS
10
2.56731
20
-6.5215
11
2.572
21
-6.52454
0
LINE
8
BLACK
6
CONTINUOUS
10
2.572
20
-6.52454
11
2.57564
21
-6.52876
0
LINE
8
BLACK
6
CONTINUOUS
10
2.57564
20
-6.52876
11
2.57795
21
-6.53385
0
LINE
8
BLACK
6
CONTINUOUS
10
2.57795
20
-6.53385
11
2.57874
21
-6.53937
0
LINE
8
BLACK
6
CONTINUOUS
10
2.57874
20
-6.53937
11
2.57873
21
-6.53985
0
LINE
8
BLACK
6
CONTINUOUS
10
2.57873
20
-6.53985
11
2.57781
21
-6.54535
0
LINE
8
BLACK
6
CONTINUOUS
10
2.57781
20
-6.54535
11
2.57537
21
-6.55038
0
LINE
8
BLACK
6
CONTINUOUS
10
2.57537
20
-6.55038
11
2.57163
21
-6.55452
0
LINE
8
BLACK
6
CONTINUOUS
10
2.57163
20
-6.55452
11
2.56687
21
-6.55744
0
LINE
8
BLACK
6
CONTINUOUS
10
2.56687
20
-6.55744
11
2.56149
21
-6.5589
0
LINE
8
BLACK
6
CONTINUOUS
10
2.56149
20
-6.5589
11
2.55591
21
-6.5588
0
LINE
8
BLACK
6
CONTINUOUS
10
2.55591
20
-6.5588
11
2.55058
21
-6.55714
0
LINE
8
BLACK
6
CONTINUOUS
10
2.55058
20
-6.55714
11
2.54593
21
-6.55404
0
LINE
8
BLACK
6
CONTINUOUS
10
2.54593
20
-6.55404
11
2.54234
21
-6.54977
0
LINE
8
BLACK
6
CONTINUOUS
10
2.54234
20
-6.54977
11
2.5401
21
-6.54466
0
LINE
8
BLACK
6
CONTINUOUS
10
2.5401
20
-6.54466
11
2.53937
21
-6.53913
0
LINE
8
BLACK
6
CONTINUOUS
10
2.53937
20
-6.53913
11
2.54023
21
-6.53361
0
LINE
8
BLACK
6
CONTINUOUS
10
2.54023
20
-6.53361
11
2.5426
21
-6.52856
0
LINE
8
BLACK
6
CONTINUOUS
10
2.5426
20
-6.52856
11
2.5463
21
-6.52438
0
LINE
8
BLACK
6
CONTINUOUS
10
2.5463
20
-6.52438
11
2.55102
21
-6.5214
0
LINE
8
BLACK
6
CONTINUOUS
10
2.55102
20
-6.5214
11
2.55638
21
-6.51987
0
LINE
8
BLACK
6
CONTINUOUS
10
2.55638
20
-6.51987
11
2.56196
21
-6.5199
0
LINE
8
BLACK
6
CONTINUOUS
10
4.16826
20
-6.49234
11
4.17361
21
-6.49394
0
LINE
8
BLACK
6
CONTINUOUS
10
4.17361
20
-6.49394
11
4.17829
21
-6.49698
0
LINE
8
BLACK
6
CONTINUOUS
10
4.17829
20
-6.49698
11
4.18194
21
-6.50121
0
LINE
8
BLACK
6
CONTINUOUS
10
4.18194
20
-6.50121
11
4.18425
21
-6.50629
0
LINE
8
BLACK
6
CONTINUOUS
10
4.18425
20
-6.50629
11
4.18504
21
-6.51181
0
LINE
8
BLACK
6
CONTINUOUS
10
4.18504
20
-6.51181
11
4.18503
21
-6.51229
0
LINE
8
BLACK
6
CONTINUOUS
10
4.18503
20
-6.51229
11
4.18411
21
-6.5178
0
LINE
8
BLACK
6
CONTINUOUS
10
4.18411
20
-6.5178
11
4.18167
21
-6.52282
0
LINE
8
BLACK
6
CONTINUOUS
10
4.18167
20
-6.52282
11
4.17793
21
-6.52696
0
LINE
8
BLACK
6
CONTINUOUS
10
4.17793
20
-6.52696
11
4.17317
21
-6.52988
0
LINE
8
BLACK
6
CONTINUOUS
10
4.17317
20
-6.52988
11
4.16779
21
-6.53135
0
LINE
8
BLACK
6
CONTINUOUS
10
4.16779
20
-6.53135
11
4.16221
21
-6.53124
0
LINE
8
BLACK
6
CONTINUOUS
10
4.16221
20
-6.53124
11
4.15688
21
-6.52958
0
LINE
8
BLACK
6
CONTINUOUS
10
4.15688
20
-6.52958
11
4.15223
21
-6.52649
0
LINE
8
BLACK
6
CONTINUOUS
10
4.15223
20
-6.52649
11
4.14864
21
-6.52221
0
LINE
8
BLACK
6
CONTINUOUS
10
4.14864
20
-6.52221
11
4.14639
21
-6.5171
0
LINE
8
BLACK
6
CONTINUOUS
10
4.14639
20
-6.5171
11
4.14567
21
-6.51157
0
LINE
8
BLACK
6
CONTINUOUS
10
4.14567
20
-6.51157
11
4.14653
21
-6.50606
0
LINE
8
BLACK
6
CONTINUOUS
10
4.14653
20
-6.50606
11
4.1489
21
-6.501
0
LINE
8
BLACK
6
CONTINUOUS
10
4.1489
20
-6.501
11
4.1526
21
-6.49682
0
LINE
8
BLACK
6
CONTINUOUS
10
4.1526
20
-6.49682
11
4.15732
21
-6.49384
0
LINE
8
BLACK
6
CONTINUOUS
10
4.15732
20
-6.49384
11
4.16268
21
-6.49231
0
LINE
8
BLACK
6
CONTINUOUS
10
4.16268
20
-6.49231
11
4.16826
21
-6.49234
0
LINE
8
BLACK
6
CONTINUOUS
10
1.33362
20
-6.4077
11
1.33897
21
-6.4093
0
LINE
8
BLACK
6
CONTINUOUS
10
1.33897
20
-6.4093
11
1.34365
21
-6.41233
0
LINE
8
BLACK
6
CONTINUOUS
10
1.34365
20
-6.41233
11
1.34729
21
-6.41656
0
LINE
8
BLACK
6
CONTINUOUS
10
1.34729
20
-6.41656
11
1.3496
21
-6.42164
0
LINE
8
BLACK
6
CONTINUOUS
10
1.3496
20
-6.42164
11
1.35039
21
-6.42717
0
LINE
8
BLACK
6
CONTINUOUS
10
1.35039
20
-6.42717
11
1.35039
21
-6.42765
0
LINE
8
BLACK
6
CONTINUOUS
10
1.35039
20
-6.42765
11
1.34946
21
-6.43315
0
LINE
8
BLACK
6
CONTINUOUS
10
1.34946
20
-6.43315
11
1.34703
21
-6.43817
0
LINE
8
BLACK
6
CONTINUOUS
10
1.34703
20
-6.43817
11
1.34328
21
-6.44231
0
LINE
8
BLACK
6
CONTINUOUS
10
1.34328
20
-6.44231
11
1.33853
21
-6.44523
0
LINE
8
BLACK
6
CONTINUOUS
10
1.33853
20
-6.44523
11
1.33314
21
-6.4467
0
LINE
8
BLACK
6
CONTINUOUS
10
1.33314
20
-6.4467
11
1.32756
21
-6.4466
0
LINE
8
BLACK
6
CONTINUOUS
10
1.32756
20
-6.4466
11
1.32223
21
-6.44493
0
LINE
8
BLACK
6
CONTINUOUS
10
1.32223
20
-6.44493
11
1.31759
21
-6.44184
0
LINE
8
BLACK
6
CONTINUOUS
10
1.31759
20
-6.44184
11
1.314
21
-6.43757
0
LINE
8
BLACK
6
CONTINUOUS
10
1.314
20
-6.43757
11
1.31175
21
-6.43246
0
LINE
8
BLACK
6
CONTINUOUS
10
1.31175
20
-6.43246
11
1.31103
21
-6.42692
0
LINE
8
BLACK
6
CONTINUOUS
10
1.31103
20
-6.42692
11
1.31188
21
-6.42141
0
LINE
8
BLACK
6
CONTINUOUS
10
1.31188
20
-6.42141
11
1.31426
21
-6.41636
0
LINE
8
BLACK
6
CONTINUOUS
10
1.31426
20
-6.41636
11
1.31795
21
-6.41217
0
LINE
8
BLACK
6
CONTINUOUS
10
1.31795
20
-6.41217
11
1.32267
21
-6.4092
0
LINE
8
BLACK
6
CONTINUOUS
10
1.32267
20
-6.4092
11
1.32804
21
-6.40766
0
LINE
8
BLACK
6
CONTINUOUS
10
1.32804
20
-6.40766
11
1.33362
21
-6.4077
0
LINE
8
BLACK
6
CONTINUOUS
10
2.07968
20
-6.4077
11
2.08503
21
-6.4093
0
LINE
8
BLACK
6
CONTINUOUS
10
2.08503
20
-6.4093
11
2.08971
21
-6.41233
0
LINE
8
BLACK
6
CONTINUOUS
10
2.08971
20
-6.41233
11
2.09336
21
-6.41656
0
LINE
8
BLACK
6
CONTINUOUS
10
2.09336
20
-6.41656
11
2.09567
21
-6.42164
0
LINE
8
BLACK
6
CONTINUOUS
10
2.09567
20
-6.42164
11
2.09646
21
-6.42717
0
LINE
8
BLACK
6
CONTINUOUS
10
2.09646
20
-6.42717
11
2.09645
21
-6.42765
0
LINE
8
BLACK
6
CONTINUOUS
10
2.09645
20
-6.42765
11
2.09552
21
-6.43315
0
LINE
8
BLACK
6
CONTINUOUS
10
2.09552
20
-6.43315
11
2.09309
21
-6.43817
0
LINE
8
BLACK
6
CONTINUOUS
10
2.09309
20
-6.43817
11
2.08935
21
-6.44231
0
LINE
8
BLACK
6
CONTINUOUS
10
2.08935
20
-6.44231
11
2.08459
21
-6.44523
0
LINE
8
BLACK
6
CONTINUOUS
10
2.08459
20
-6.44523
11
2.0792
21
-6.4467
0
LINE
8
BLACK
6
CONTINUOUS
10
2.0792
20
-6.4467
11
2.07362
21
-6.4466
0
LINE
8
BLACK
6
CONTINUOUS
10
2.07362
20
-6.4466
11
2.0683
21
-6.44493
0
LINE
8
BLACK
6
CONTINUOUS
10
2.0683
20
-6.44493
11
2.06365
21
-6.44184
0
LINE
8
BLACK
6
CONTINUOUS
10
2.06365
20
-6.44184
11
2.06006
21
-6.43757
0
LINE
8
BLACK
6
CONTINUOUS
10
2.06006
20
-6.43757
11
2.05781
21
-6.43246
0
LINE
8
BLACK
6
CONTINUOUS
10
2.05781
20
-6.43246
11
2.05709
21
-6.42692
0
LINE
8
BLACK
6
CONTINUOUS
10
2.05709
20
-6.42692
11
2.05795
21
-6.42141
0
LINE
8
BLACK
6
CONTINUOUS
10
2.05795
20
-6.42141
11
2.06032
21
-6.41636
0
LINE
8
BLACK
6
CONTINUOUS
10
2.06032
20
-6.41636
11
2.06401
21
-6.41217
0
LINE
8
BLACK
6
CONTINUOUS
10
2.06401
20
-6.41217
11
2.06873
21
-6.4092
0
LINE
8
BLACK
6
CONTINUOUS
10
2.06873
20
-6.4092
11
2.0741
21
-6.40766
0
LINE
8
BLACK
6
CONTINUOUS
10
2.0741
20
-6.40766
11
2.07968
21
-6.4077
0
LINE
8
BLACK
6
CONTINUOUS
10
3.65055
20
-6.40179
11
3.65589
21
-6.40339
0
LINE
8
BLACK
6
CONTINUOUS
10
3.65589
20
-6.40339
11
3.66058
21
-6.40643
0
LINE
8
BLACK
6
CONTINUOUS
10
3.66058
20
-6.40643
11
3.66422
21
-6.41065
0
LINE
8
BLACK
6
CONTINUOUS
10
3.66422
20
-6.41065
11
3.66653
21
-6.41573
0
LINE
8
BLACK
6
CONTINUOUS
10
3.66653
20
-6.41573
11
3.66732
21
-6.42126
0
LINE
8
BLACK
6
CONTINUOUS
10
3.66732
20
-6.42126
11
3.66732
21
-6.42174
0
LINE
8
BLACK
6
CONTINUOUS
10
3.66732
20
-6.42174
11
3.66639
21
-6.42724
0
LINE
8
BLACK
6
CONTINUOUS
10
3.66639
20
-6.42724
11
3.66396
21
-6.43227
0
LINE
8
BLACK
6
CONTINUOUS
10
3.66396
20
-6.43227
11
3.66021
21
-6.43641
0
LINE
8
BLACK
6
CONTINUOUS
10
3.66021
20
-6.43641
11
3.65546
21
-6.43933
0
LINE
8
BLACK
6
CONTINUOUS
10
3.65546
20
-6.43933
11
3.65007
21
-6.44079
0
LINE
8
BLACK
6
CONTINUOUS
10
3.65007
20
-6.44079
11
3.64449
21
-6.44069
0
LINE
8
BLACK
6
CONTINUOUS
10
3.64449
20
-6.44069
11
3.63916
21
-6.43903
0
LINE
8
BLACK
6
CONTINUOUS
10
3.63916
20
-6.43903
11
3.63452
21
-6.43593
0
LINE
8
BLACK
6
CONTINUOUS
10
3.63452
20
-6.43593
11
3.63093
21
-6.43166
0
LINE
8
BLACK
6
CONTINUOUS
10
3.63093
20
-6.43166
11
3.62868
21
-6.42655
0
LINE
8
BLACK
6
CONTINUOUS
10
3.62868
20
-6.42655
11
3.62795
21
-6.42102
0
LINE
8
BLACK
6
CONTINUOUS
10
3.62795
20
-6.42102
11
3.62881
21
-6.4155
0
LINE
8
BLACK
6
CONTINUOUS
10
3.62881
20
-6.4155
11
3.63118
21
-6.41045
0
LINE
8
BLACK
6
CONTINUOUS
10
3.63118
20
-6.41045
11
3.63488
21
-6.40627
0
LINE
8
BLACK
6
CONTINUOUS
10
3.63488
20
-6.40627
11
3.6396
21
-6.40329
0
LINE
8
BLACK
6
CONTINUOUS
10
3.6396
20
-6.40329
11
3.64497
21
-6.40176
0
LINE
8
BLACK
6
CONTINUOUS
10
3.64497
20
-6.40176
11
3.65055
21
-6.40179
0
LINE
8
BLACK
6
CONTINUOUS
10
2.91826
20
-6.39293
11
2.92361
21
-6.39453
0
LINE
8
BLACK
6
CONTINUOUS
10
2.92361
20
-6.39453
11
2.92829
21
-6.39757
0
LINE
8
BLACK
6
CONTINUOUS
10
2.92829
20
-6.39757
11
2.93194
21
-6.4018
0
LINE
8
BLACK
6
CONTINUOUS
10
2.93194
20
-6.4018
11
2.93425
21
-6.40688
0
LINE
8
BLACK
6
CONTINUOUS
10
2.93425
20
-6.40688
11
2.93504
21
-6.4124
0
LINE
8
BLACK
6
CONTINUOUS
10
2.93504
20
-6.4124
11
2.93503
21
-6.41288
0
LINE
8
BLACK
6
CONTINUOUS
10
2.93503
20
-6.41288
11
2.93411
21
-6.41839
0
LINE
8
BLACK
6
CONTINUOUS
10
2.93411
20
-6.41839
11
2.93167
21
-6.42341
0
LINE
8
BLACK
6
CONTINUOUS
10
2.93167
20
-6.42341
11
2.92793
21
-6.42755
0
LINE
8
BLACK
6
CONTINUOUS
10
2.92793
20
-6.42755
11
2.92317
21
-6.43047
0
LINE
8
BLACK
6
CONTINUOUS
10
2.92317
20
-6.43047
11
2.91779
21
-6.43194
0
LINE
8
BLACK
6
CONTINUOUS
10
2.91779
20
-6.43194
11
2.91221
21
-6.43183
0
LINE
8
BLACK
6
CONTINUOUS
10
2.91221
20
-6.43183
11
2.90688
21
-6.43017
0
LINE
8
BLACK
6
CONTINUOUS
10
2.90688
20
-6.43017
11
2.90223
21
-6.42708
0
LINE
8
BLACK
6
CONTINUOUS
10
2.90223
20
-6.42708
11
2.89864
21
-6.4228
0
LINE
8
BLACK
6
CONTINUOUS
10
2.89864
20
-6.4228
11
2.89639
21
-6.4177
0
LINE
8
BLACK
6
CONTINUOUS
10
2.89639
20
-6.4177
11
2.89567
21
-6.41216
0
LINE
8
BLACK
6
CONTINUOUS
10
2.89567
20
-6.41216
11
2.89653
21
-6.40665
0
LINE
8
BLACK
6
CONTINUOUS
10
2.89653
20
-6.40665
11
2.8989
21
-6.40159
0
LINE
8
BLACK
6
CONTINUOUS
10
2.8989
20
-6.40159
11
2.9026
21
-6.39741
0
LINE
8
BLACK
6
CONTINUOUS
10
2.9026
20
-6.39741
11
2.90732
21
-6.39443
0
LINE
8
BLACK
6
CONTINUOUS
10
2.90732
20
-6.39443
11
2.91268
21
-6.3929
0
LINE
8
BLACK
6
CONTINUOUS
10
2.91268
20
-6.3929
11
2.91826
21
-6.39293
0
LINE
8
BLACK
6
CONTINUOUS
10
4.05803
20
-6.29648
11
4.06338
21
-6.29808
0
LINE
8
BLACK
6
CONTINUOUS
10
4.06338
20
-6.29808
11
4.06806
21
-6.30111
0
LINE
8
BLACK
6
CONTINUOUS
10
4.06806
20
-6.30111
11
4.0717
21
-6.30534
0
LINE
8
BLACK
6
CONTINUOUS
10
4.0717
20
-6.30534
11
4.07401
21
-6.31042
0
LINE
8
BLACK
6
CONTINUOUS
10
4.07401
20
-6.31042
11
4.0748
21
-6.31594
0
LINE
8
BLACK
6
CONTINUOUS
10
4.0748
20
-6.31594
11
4.0748
21
-6.31643
0
LINE
8
BLACK
6
CONTINUOUS
10
4.0748
20
-6.31643
11
4.07387
21
-6.32193
0
LINE
8
BLACK
6
CONTINUOUS
10
4.07387
20
-6.32193
11
4.07144
21
-6.32695
0
LINE
8
BLACK
6
CONTINUOUS
10
4.07144
20
-6.32695
11
4.06769
21
-6.33109
0
LINE
8
BLACK
6
CONTINUOUS
10
4.06769
20
-6.33109
11
4.06294
21
-6.33401
0
LINE
8
BLACK
6
CONTINUOUS
10
4.06294
20
-6.33401
11
4.05755
21
-6.33548
0
LINE
8
BLACK
6
CONTINUOUS
10
4.05755
20
-6.33548
11
4.05197
21
-6.33538
0
LINE
8
BLACK
6
CONTINUOUS
10
4.05197
20
-6.33538
11
4.04664
21
-6.33371
0
LINE
8
BLACK
6
CONTINUOUS
10
4.04664
20
-6.33371
11
4.042
21
-6.33062
0
LINE
8
BLACK
6
CONTINUOUS
10
4.042
20
-6.33062
11
4.03841
21
-6.32635
0
LINE
8
BLACK
6
CONTINUOUS
10
4.03841
20
-6.32635
11
4.03616
21
-6.32124
0
LINE
8
BLACK
6
CONTINUOUS
10
4.03616
20
-6.32124
11
4.03543
21
-6.3157
0
LINE
8
BLACK
6
CONTINUOUS
10
4.03543
20
-6.3157
11
4.03629
21
-6.31019
0
LINE
8
BLACK
6
CONTINUOUS
10
4.03629
20
-6.31019
11
4.03867
21
-6.30514
0
LINE
8
BLACK
6
CONTINUOUS
10
4.03867
20
-6.30514
11
4.04236
21
-6.30095
0
LINE
8
BLACK
6
CONTINUOUS
10
4.04236
20
-6.30095
11
4.04708
21
-6.29798
0
LINE
8
BLACK
6
CONTINUOUS
10
4.04708
20
-6.29798
11
4.05245
21
-6.29644
0
LINE
8
BLACK
6
CONTINUOUS
10
4.05245
20
-6.29644
11
4.05803
21
-6.29648
0
LINE
8
BLACK
6
CONTINUOUS
10
1.73519
20
-6.28762
11
1.74054
21
-6.28922
0
LINE
8
BLACK
6
CONTINUOUS
10
1.74054
20
-6.28922
11
1.74522
21
-6.29225
0
LINE
8
BLACK
6
CONTINUOUS
10
1.74522
20
-6.29225
11
1.74887
21
-6.29648
0
LINE
8
BLACK
6
CONTINUOUS
10
1.74887
20
-6.29648
11
1.75118
21
-6.30156
0
LINE
8
BLACK
6
CONTINUOUS
10
1.75118
20
-6.30156
11
1.75197
21
-6.30709
0
LINE
8
BLACK
6
CONTINUOUS
10
1.75197
20
-6.30709
11
1.75196
21
-6.30757
0
LINE
8
BLACK
6
CONTINUOUS
10
1.75196
20
-6.30757
11
1.75104
21
-6.31307
0
LINE
8
BLACK
6
CONTINUOUS
10
1.75104
20
-6.31307
11
1.7486
21
-6.31809
0
LINE
8
BLACK
6
CONTINUOUS
10
1.7486
20
-6.31809
11
1.74486
21
-6.32223
0
LINE
8
BLACK
6
CONTINUOUS
10
1.74486
20
-6.32223
11
1.7401
21
-6.32515
0
LINE
8
BLACK
6
CONTINUOUS
10
1.7401
20
-6.32515
11
1.73472
21
-6.32662
0
LINE
8
BLACK
6
CONTINUOUS
10
1.73472
20
-6.32662
11
1.72914
21
-6.32652
0
LINE
8
BLACK
6
CONTINUOUS
10
1.72914
20
-6.32652
11
1.72381
21
-6.32485
0
LINE
8
BLACK
6
CONTINUOUS
10
1.72381
20
-6.32485
11
1.71916
21
-6.32176
0
LINE
8
BLACK
6
CONTINUOUS
10
1.71916
20
-6.32176
11
1.71557
21
-6.31749
0
LINE
8
BLACK
6
CONTINUOUS
10
1.71557
20
-6.31749
11
1.71332
21
-6.31238
0
LINE
8
BLACK
6
CONTINUOUS
10
1.71332
20
-6.31238
11
1.7126
21
-6.30685
0
LINE
8
BLACK
6
CONTINUOUS
10
1.7126
20
-6.30685
11
1.71346
21
-6.30133
0
LINE
8
BLACK
6
CONTINUOUS
10
1.71346
20
-6.30133
11
1.71583
21
-6.29628
0
LINE
8
BLACK
6
CONTINUOUS
10
1.71583
20
-6.29628
11
1.71953
21
-6.2921
0
LINE
8
BLACK
6
CONTINUOUS
10
1.71953
20
-6.2921
11
1.72425
21
-6.28912
0
LINE
8
BLACK
6
CONTINUOUS
10
1.72425
20
-6.28912
11
1.72961
21
-6.28758
0
LINE
8
BLACK
6
CONTINUOUS
10
1.72961
20
-6.28758
11
1.73519
21
-6.28762
0
LINE
8
BLACK
6
CONTINUOUS
10
3.37693
20
-6.24037
11
3.38227
21
-6.24197
0
LINE
8
BLACK
6
CONTINUOUS
10
3.38227
20
-6.24197
11
3.38696
21
-6.24501
0
LINE
8
BLACK
6
CONTINUOUS
10
3.38696
20
-6.24501
11
3.3906
21
-6.24924
0
LINE
8
BLACK
6
CONTINUOUS
10
3.3906
20
-6.24924
11
3.39291
21
-6.25432
0
LINE
8
BLACK
6
CONTINUOUS
10
3.39291
20
-6.25432
11
3.3937
21
-6.25984
0
LINE
8
BLACK
6
CONTINUOUS
10
3.3937
20
-6.25984
11
3.39369
21
-6.26032
0
LINE
8
BLACK
6
CONTINUOUS
10
3.39369
20
-6.26032
11
3.39277
21
-6.26583
0
LINE
8
BLACK
6
CONTINUOUS
10
3.39277
20
-6.26583
11
3.39034
21
-6.27085
0
LINE
8
BLACK
6
CONTINUOUS
10
3.39034
20
-6.27085
11
3.38659
21
-6.27499
0
LINE
8
BLACK
6
CONTINUOUS
10
3.38659
20
-6.27499
11
3.38183
21
-6.27791
0
LINE
8
BLACK
6
CONTINUOUS
10
3.38183
20
-6.27791
11
3.37645
21
-6.27938
0
LINE
8
BLACK
6
CONTINUOUS
10
3.37645
20
-6.27938
11
3.37087
21
-6.27927
0
LINE
8
BLACK
6
CONTINUOUS
10
3.37087
20
-6.27927
11
3.36554
21
-6.27761
0
LINE
8
BLACK
6
CONTINUOUS
10
3.36554
20
-6.27761
11
3.3609
21
-6.27452
0
LINE
8
BLACK
6
CONTINUOUS
10
3.3609
20
-6.27452
11
3.3573
21
-6.27024
0
LINE
8
BLACK
6
CONTINUOUS
10
3.3573
20
-6.27024
11
3.35506
21
-6.26514
0
LINE
8
BLACK
6
CONTINUOUS
10
3.35506
20
-6.26514
11
3.35433
21
-6.2596
0
LINE
8
BLACK
6
CONTINUOUS
10
3.35433
20
-6.2596
11
3.35519
21
-6.25409
0
LINE
8
BLACK
6
CONTINUOUS
10
3.35519
20
-6.25409
11
3.35756
21
-6.24904
0
LINE
8
BLACK
6
CONTINUOUS
10
3.35756
20
-6.24904
11
3.36126
21
-6.24485
0
LINE
8
BLACK
6
CONTINUOUS
10
3.36126
20
-6.24485
11
3.36598
21
-6.24187
0
LINE
8
BLACK
6
CONTINUOUS
10
3.36598
20
-6.24187
11
3.37134
21
-6.24034
0
LINE
8
BLACK
6
CONTINUOUS
10
3.37134
20
-6.24034
11
3.37693
21
-6.24037
0
LINE
8
BLACK
6
CONTINUOUS
10
2.60527
20
-6.24037
11
2.61062
21
-6.24197
0
LINE
8
BLACK
6
CONTINUOUS
10
2.61062
20
-6.24197
11
2.6153
21
-6.24501
0
LINE
8
BLACK
6
CONTINUOUS
10
2.6153
20
-6.24501
11
2.61895
21
-6.24924
0
LINE
8
BLACK
6
CONTINUOUS
10
2.61895
20
-6.24924
11
2.62126
21
-6.25432
0
LINE
8
BLACK
6
CONTINUOUS
10
2.62126
20
-6.25432
11
2.62205
21
-6.25984
0
LINE
8
BLACK
6
CONTINUOUS
10
2.62205
20
-6.25984
11
2.62204
21
-6.26032
0
LINE
8
BLACK
6
CONTINUOUS
10
2.62204
20
-6.26032
11
2.62112
21
-6.26583
0
LINE
8
BLACK
6
CONTINUOUS
10
2.62112
20
-6.26583
11
2.61868
21
-6.27085
0
LINE
8
BLACK
6
CONTINUOUS
10
2.61868
20
-6.27085
11
2.61494
21
-6.27499
0
LINE
8
BLACK
6
CONTINUOUS
10
2.61494
20
-6.27499
11
2.61018
21
-6.27791
0
LINE
8
BLACK
6
CONTINUOUS
10
2.61018
20
-6.27791
11
2.6048
21
-6.27938
0
LINE
8
BLACK
6
CONTINUOUS
10
2.6048
20
-6.27938
11
2.59921
21
-6.27927
0
LINE
8
BLACK
6
CONTINUOUS
10
2.59921
20
-6.27927
11
2.59389
21
-6.27761
0
LINE
8
BLACK
6
CONTINUOUS
10
2.59389
20
-6.27761
11
2.58924
21
-6.27452
0
LINE
8
BLACK
6
CONTINUOUS
10
2.58924
20
-6.27452
11
2.58565
21
-6.27024
0
LINE
8
BLACK
6
CONTINUOUS
10
2.58565
20
-6.27024
11
2.5834
21
-6.26514
0
LINE
8
BLACK
6
CONTINUOUS
10
2.5834
20
-6.26514
11
2.58268
21
-6.2596
0
LINE
8
BLACK
6
CONTINUOUS
10
2.58268
20
-6.2596
11
2.58354
21
-6.25409
0
LINE
8
BLACK
6
CONTINUOUS
10
2.58354
20
-6.25409
11
2.58591
21
-6.24904
0
LINE
8
BLACK
6
CONTINUOUS
10
2.58591
20
-6.24904
11
2.5896
21
-6.24485
0
LINE
8
BLACK
6
CONTINUOUS
10
2.5896
20
-6.24485
11
2.59432
21
-6.24187
0
LINE
8
BLACK
6
CONTINUOUS
10
2.59432
20
-6.24187
11
2.59969
21
-6.24034
0
LINE
8
BLACK
6
CONTINUOUS
10
2.59969
20
-6.24034
11
2.60527
21
-6.24037
0
LINE
8
BLACK
6
CONTINUOUS
10
4.05803
20
-6.21774
11
4.06338
21
-6.21934
0
LINE
8
BLACK
6
CONTINUOUS
10
4.06338
20
-6.21934
11
4.06806
21
-6.22237
0
LINE
8
BLACK
6
CONTINUOUS
10
4.06806
20
-6.22237
11
4.0717
21
-6.2266
0
LINE
8
BLACK
6
CONTINUOUS
10
4.0717
20
-6.2266
11
4.07401
21
-6.23168
0
LINE
8
BLACK
6
CONTINUOUS
10
4.07401
20
-6.23168
11
4.0748
21
-6.2372
0
LINE
8
BLACK
6
CONTINUOUS
10
4.0748
20
-6.2372
11
4.0748
21
-6.23769
0
LINE
8
BLACK
6
CONTINUOUS
10
4.0748
20
-6.23769
11
4.07387
21
-6.24319
0
LINE
8
BLACK
6
CONTINUOUS
10
4.07387
20
-6.24319
11
4.07144
21
-6.24821
0
LINE
8
BLACK
6
CONTINUOUS
10
4.07144
20
-6.24821
11
4.06769
21
-6.25235
0
LINE
8
BLACK
6
CONTINUOUS
10
4.06769
20
-6.25235
11
4.06294
21
-6.25527
0
LINE
8
BLACK
6
CONTINUOUS
10
4.06294
20
-6.25527
11
4.05755
21
-6.25674
0
LINE
8
BLACK
6
CONTINUOUS
10
4.05755
20
-6.25674
11
4.05197
21
-6.25664
0
LINE
8
BLACK
6
CONTINUOUS
10
4.05197
20
-6.25664
11
4.04664
21
-6.25497
0
LINE
8
BLACK
6
CONTINUOUS
10
4.04664
20
-6.25497
11
4.042
21
-6.25188
0
LINE
8
BLACK
6
CONTINUOUS
10
4.042
20
-6.25188
11
4.03841
21
-6.24761
0
LINE
8
BLACK
6
CONTINUOUS
10
4.03841
20
-6.24761
11
4.03616
21
-6.2425
0
LINE
8
BLACK
6
CONTINUOUS
10
4.03616
20
-6.2425
11
4.03543
21
-6.23696
0
LINE
8
BLACK
6
CONTINUOUS
10
4.03543
20
-6.23696
11
4.03629
21
-6.23145
0
LINE
8
BLACK
6
CONTINUOUS
10
4.03629
20
-6.23145
11
4.03867
21
-6.2264
0
LINE
8
BLACK
6
CONTINUOUS
10
4.03867
20
-6.2264
11
4.04236
21
-6.22221
0
LINE
8
BLACK
6
CONTINUOUS
10
4.04236
20
-6.22221
11
4.04708
21
-6.21924
0
LINE
8
BLACK
6
CONTINUOUS
10
4.04708
20
-6.21924
11
4.05245
21
-6.2177
0
LINE
8
BLACK
6
CONTINUOUS
10
4.05245
20
-6.2177
11
4.05803
21
-6.21774
0
LINE
8
BLACK
6
CONTINUOUS
10
4.16826
20
-6.139
11
4.17361
21
-6.14059
0
LINE
8
BLACK
6
CONTINUOUS
10
4.17361
20
-6.14059
11
4.17829
21
-6.14363
0
LINE
8
BLACK
6
CONTINUOUS
10
4.17829
20
-6.14363
11
4.18194
21
-6.14786
0
LINE
8
BLACK
6
CONTINUOUS
10
4.18194
20
-6.14786
11
4.18425
21
-6.15294
0
LINE
8
BLACK
6
CONTINUOUS
10
4.18425
20
-6.15294
11
4.18504
21
-6.15846
0
LINE
8
BLACK
6
CONTINUOUS
10
4.18504
20
-6.15846
11
4.18503
21
-6.15895
0
LINE
8
BLACK
6
CONTINUOUS
10
4.18503
20
-6.15895
11
4.18411
21
-6.16445
0
LINE
8
BLACK
6
CONTINUOUS
10
4.18411
20
-6.16445
11
4.18167
21
-6.16947
0
LINE
8
BLACK
6
CONTINUOUS
10
4.18167
20
-6.16947
11
4.17793
21
-6.17361
0
LINE
8
BLACK
6
CONTINUOUS
10
4.17793
20
-6.17361
11
4.17317
21
-6.17653
0
LINE
8
BLACK
6
CONTINUOUS
10
4.17317
20
-6.17653
11
4.16779
21
-6.178
0
LINE
8
BLACK
6
CONTINUOUS
10
4.16779
20
-6.178
11
4.16221
21
-6.1779
0
LINE
8
BLACK
6
CONTINUOUS
10
4.16221
20
-6.1779
11
4.15688
21
-6.17623
0
LINE
8
BLACK
6
CONTINUOUS
10
4.15688
20
-6.17623
11
4.15223
21
-6.17314
0
LINE
8
BLACK
6
CONTINUOUS
10
4.15223
20
-6.17314
11
4.14864
21
-6.16887
0
LINE
8
BLACK
6
CONTINUOUS
10
4.14864
20
-6.16887
11
4.14639
21
-6.16376
0
LINE
8
BLACK
6
CONTINUOUS
10
4.14639
20
-6.16376
11
4.14567
21
-6.15822
0
LINE
8
BLACK
6
CONTINUOUS
10
4.14567
20
-6.15822
11
4.14653
21
-6.15271
0
LINE
8
BLACK
6
CONTINUOUS
10
4.14653
20
-6.15271
11
4.1489
21
-6.14766
0
LINE
8
BLACK
6
CONTINUOUS
10
4.1489
20
-6.14766
11
4.1526
21
-6.14347
0
LINE
8
BLACK
6
CONTINUOUS
10
4.1526
20
-6.14347
11
4.15732
21
-6.1405
0
LINE
8
BLACK
6
CONTINUOUS
10
4.15732
20
-6.1405
11
4.16268
21
-6.13896
0
LINE
8
BLACK
6
CONTINUOUS
10
4.16268
20
-6.13896
11
4.16826
21
-6.139
0
LINE
8
BLACK
6
CONTINUOUS
10
4.05803
20
-6.139
11
4.06338
21
-6.14059
0
LINE
8
BLACK
6
CONTINUOUS
10
4.06338
20
-6.14059
11
4.06806
21
-6.14363
0
LINE
8
BLACK
6
CONTINUOUS
10
4.06806
20
-6.14363
11
4.0717
21
-6.14786
0
LINE
8
BLACK
6
CONTINUOUS
10
4.0717
20
-6.14786
11
4.07401
21
-6.15294
0
LINE
8
BLACK
6
CONTINUOUS
10
4.07401
20
-6.15294
11
4.0748
21
-6.15846
0
LINE
8
BLACK
6
CONTINUOUS
10
4.0748
20
-6.15846
11
4.0748
21
-6.15895
0
LINE
8
BLACK
6
CONTINUOUS
10
4.0748
20
-6.15895
11
4.07387
21
-6.16445
0
LINE
8
BLACK
6
CONTINUOUS
10
4.07387
20
-6.16445
11
4.07144
21
-6.16947
0
LINE
8
BLACK
6
CONTINUOUS
10
4.07144
20
-6.16947
11
4.06769
21
-6.17361
0
LINE
8
BLACK
6
CONTINUOUS
10
4.06769
20
-6.17361
11
4.06294
21
-6.17653
0
LINE
8
BLACK
6
CONTINUOUS
10
4.06294
20
-6.17653
11
4.05755
21
-6.178
0
LINE
8
BLACK
6
CONTINUOUS
10
4.05755
20
-6.178
11
4.05197
21
-6.1779
0
LINE
8
BLACK
6
CONTINUOUS
10
4.05197
20
-6.1779
11
4.04664
21
-6.17623
0
LINE
8
BLACK
6
CONTINUOUS
10
4.04664
20
-6.17623
11
4.042
21
-6.17314
0
LINE
8
BLACK
6
CONTINUOUS
10
4.042
20
-6.17314
11
4.03841
21
-6.16887
0
LINE
8
BLACK
6
CONTINUOUS
10
4.03841
20
-6.16887
11
4.03616
21
-6.16376
0
LINE
8
BLACK
6
CONTINUOUS
10
4.03616
20
-6.16376
11
4.03543
21
-6.15822
0
LINE
8
BLACK
6
CONTINUOUS
10
4.03543
20
-6.15822
11
4.03629
21
-6.15271
0
LINE
8
BLACK
6
CONTINUOUS
10
4.03629
20
-6.15271
11
4.03867
21
-6.14766
0
LINE
8
BLACK
6
CONTINUOUS
10
4.03867
20
-6.14766
11
4.04236
21
-6.14347
0
LINE
8
BLACK
6
CONTINUOUS
10
4.04236
20
-6.14347
11
4.04708
21
-6.1405
0
LINE
8
BLACK
6
CONTINUOUS
10
4.04708
20
-6.1405
11
4.05245
21
-6.13896
0
LINE
8
BLACK
6
CONTINUOUS
10
4.05245
20
-6.13896
11
4.05803
21
-6.139
0
LINE
8
BLACK
6
CONTINUOUS
10
2.83756
20
-6.09274
11
2.8429
21
-6.09434
0
LINE
8
BLACK
6
CONTINUOUS
10
2.8429
20
-6.09434
11
2.84759
21
-6.09737
0
LINE
8
BLACK
6
CONTINUOUS
10
2.84759
20
-6.09737
11
2.85123
21
-6.1016
0
LINE
8
BLACK
6
CONTINUOUS
10
2.85123
20
-6.1016
11
2.85354
21
-6.10668
0
LINE
8
BLACK
6
CONTINUOUS
10
2.85354
20
-6.10668
11
2.85433
21
-6.1122
0
LINE
8
BLACK
6
CONTINUOUS
10
2.85433
20
-6.1122
11
2.85432
21
-6.11269
0
LINE
8
BLACK
6
CONTINUOUS
10
2.85432
20
-6.11269
11
2.8534
21
-6.11819
0
LINE
8
BLACK
6
CONTINUOUS
10
2.8534
20
-6.11819
11
2.85097
21
-6.12321
0
LINE
8
BLACK
6
CONTINUOUS
10
2.85097
20
-6.12321
11
2.84722
21
-6.12735
0
LINE
8
BLACK
6
CONTINUOUS
10
2.84722
20
-6.12735
11
2.84246
21
-6.13027
0
LINE
8
BLACK
6
CONTINUOUS
10
2.84246
20
-6.13027
11
2.83708
21
-6.13174
0
LINE
8
BLACK
6
CONTINUOUS
10
2.83708
20
-6.13174
11
2.8315
21
-6.13164
0
LINE
8
BLACK
6
CONTINUOUS
10
2.8315
20
-6.13164
11
2.82617
21
-6.12997
0
LINE
8
BLACK
6
CONTINUOUS
10
2.82617
20
-6.12997
11
2.82152
21
-6.12688
0
LINE
8
BLACK
6
CONTINUOUS
10
2.82152
20
-6.12688
11
2.81793
21
-6.12261
0
LINE
8
BLACK
6
CONTINUOUS
10
2.81793
20
-6.12261
11
2.81569
21
-6.1175
0
LINE
8
BLACK
6
CONTINUOUS
10
2.81569
20
-6.1175
11
2.81496
21
-6.11196
0
LINE
8
BLACK
6
CONTINUOUS
10
2.81496
20
-6.11196
11
2.81582
21
-6.10645
0
LINE
8
BLACK
6
CONTINUOUS
10
2.81582
20
-6.10645
11
2.81819
21
-6.1014
0
LINE
8
BLACK
6
CONTINUOUS
10
2.81819
20
-6.1014
11
2.82189
21
-6.09721
0
LINE
8
BLACK
6
CONTINUOUS
10
2.82189
20
-6.09721
11
2.82661
21
-6.09424
0
LINE
8
BLACK
6
CONTINUOUS
10
2.82661
20
-6.09424
11
2.83197
21
-6.0927
0
LINE
8
BLACK
6
CONTINUOUS
10
2.83197
20
-6.0927
11
2.83756
21
-6.09274
0
LINE
8
BLACK
6
CONTINUOUS
10
1.24307
20
-6.04352
11
1.24841
21
-6.04512
0
LINE
8
BLACK
6
CONTINUOUS
10
1.24841
20
-6.04512
11
1.2531
21
-6.04816
0
LINE
8
BLACK
6
CONTINUOUS
10
1.2531
20
-6.04816
11
1.25674
21
-6.05239
0
LINE
8
BLACK
6
CONTINUOUS
10
1.25674
20
-6.05239
11
1.25905
21
-6.05747
0
LINE
8
BLACK
6
CONTINUOUS
10
1.25905
20
-6.05747
11
1.25984
21
-6.06299
0
LINE
8
BLACK
6
CONTINUOUS
10
1.25984
20
-6.06299
11
1.25984
21
-6.06347
0
LINE
8
BLACK
6
CONTINUOUS
10
1.25984
20
-6.06347
11
1.25891
21
-6.06898
0
LINE
8
BLACK
6
CONTINUOUS
10
1.25891
20
-6.06898
11
1.25648
21
-6.074
0
LINE
8
BLACK
6
CONTINUOUS
10
1.25648
20
-6.074
11
1.25273
21
-6.07814
0
LINE
8
BLACK
6
CONTINUOUS
10
1.25273
20
-6.07814
11
1.24798
21
-6.08106
0
LINE
8
BLACK
6
CONTINUOUS
10
1.24798
20
-6.08106
11
1.24259
21
-6.08253
0
LINE
8
BLACK
6
CONTINUOUS
10
1.24259
20
-6.08253
11
1.23701
21
-6.08242
0
LINE
8
BLACK
6
CONTINUOUS
10
1.23701
20
-6.08242
11
1.23168
21
-6.08076
0
LINE
8
BLACK
6
CONTINUOUS
10
1.23168
20
-6.08076
11
1.22704
21
-6.07767
0
LINE
8
BLACK
6
CONTINUOUS
10
1.22704
20
-6.07767
11
1.22345
21
-6.07339
0
LINE
8
BLACK
6
CONTINUOUS
10
1.22345
20
-6.07339
11
1.2212
21
-6.06829
0
LINE
8
BLACK
6
CONTINUOUS
10
1.2212
20
-6.06829
11
1.22047
21
-6.06275
0
LINE
8
BLACK
6
CONTINUOUS
10
1.22047
20
-6.06275
11
1.22133
21
-6.05724
0
LINE
8
BLACK
6
CONTINUOUS
10
1.22133
20
-6.05724
11
1.2237
21
-6.05218
0
LINE
8
BLACK
6
CONTINUOUS
10
1.2237
20
-6.05218
11
1.2274
21
-6.048
0
LINE
8
BLACK
6
CONTINUOUS
10
1.2274
20
-6.048
11
1.23212
21
-6.04502
0
LINE
8
BLACK
6
CONTINUOUS
10
1.23212
20
-6.04502
11
1.23749
21
-6.04349
0
LINE
8
BLACK
6
CONTINUOUS
10
1.23749
20
-6.04349
11
1.24307
21
-6.04352
0
LINE
8
BLACK
6
CONTINUOUS
10
1.11698
20
-5.987
11
1.12318
21
-5.98921
0
LINE
8
BLACK
6
CONTINUOUS
10
1.12318
20
-5.98921
11
1.12874
21
-5.99274
0
LINE
8
BLACK
6
CONTINUOUS
10
1.12874
20
-5.99274
11
1.13338
21
-5.99741
0
LINE
8
BLACK
6
CONTINUOUS
10
1.13338
20
-5.99741
11
1.13687
21
-6.00299
0
LINE
8
BLACK
6
CONTINUOUS
10
1.13687
20
-6.00299
11
1.13903
21
-6.00921
0
LINE
8
BLACK
6
CONTINUOUS
10
1.13903
20
-6.00921
11
1.13976
21
-6.01575
0
LINE
8
BLACK
6
CONTINUOUS
10
1.13976
20
-6.01575
11
1.13975
21
-6.01657
0
LINE
8
BLACK
6
CONTINUOUS
10
1.13975
20
-6.01657
11
1.13884
21
-6.02309
0
LINE
8
BLACK
6
CONTINUOUS
10
1.13884
20
-6.02309
11
1.1365
21
-6.02924
0
LINE
8
BLACK
6
CONTINUOUS
10
1.1365
20
-6.02924
11
1.13286
21
-6.03473
0
LINE
8
BLACK
6
CONTINUOUS
10
1.13286
20
-6.03473
11
1.12809
21
-6.03927
0
LINE
8
BLACK
6
CONTINUOUS
10
1.12809
20
-6.03927
11
1.12243
21
-6.04264
0
LINE
8
BLACK
6
CONTINUOUS
10
1.12243
20
-6.04264
11
1.11617
21
-6.04467
0
LINE
8
BLACK
6
CONTINUOUS
10
1.11617
20
-6.04467
11
1.10962
21
-6.04527
0
LINE
8
BLACK
6
CONTINUOUS
10
1.10962
20
-6.04527
11
1.10309
21
-6.0444
0
LINE
8
BLACK
6
CONTINUOUS
10
1.10309
20
-6.0444
11
1.09692
21
-6.0421
0
LINE
8
BLACK
6
CONTINUOUS
10
1.09692
20
-6.0421
11
1.09141
21
-6.0385
0
LINE
8
BLACK
6
CONTINUOUS
10
1.09141
20
-6.0385
11
1.08684
21
-6.03376
0
LINE
8
BLACK
6
CONTINUOUS
10
1.08684
20
-6.03376
11
1.08343
21
-6.02813
0
LINE
8
BLACK
6
CONTINUOUS
10
1.08343
20
-6.02813
11
1.08135
21
-6.02189
0
LINE
8
BLACK
6
CONTINUOUS
10
1.08135
20
-6.02189
11
1.08071
21
-6.01534
0
LINE
8
BLACK
6
CONTINUOUS
10
1.08071
20
-6.01534
11
1.08154
21
-6.0088
0
LINE
8
BLACK
6
CONTINUOUS
10
1.08154
20
-6.0088
11
1.08379
21
-6.00262
0
LINE
8
BLACK
6
CONTINUOUS
10
1.08379
20
-6.00262
11
1.08735
21
-5.99709
0
LINE
8
BLACK
6
CONTINUOUS
10
1.08735
20
-5.99709
11
1.09206
21
-5.99248
0
LINE
8
BLACK
6
CONTINUOUS
10
1.09206
20
-5.99248
11
1.09766
21
-5.98903
0
LINE
8
BLACK
6
CONTINUOUS
10
1.09766
20
-5.98903
11
1.1039
21
-5.98691
0
LINE
8
BLACK
6
CONTINUOUS
10
1.1039
20
-5.98691
11
1.11044
21
-5.98622
0
LINE
8
BLACK
6
CONTINUOUS
10
1.11044
20
-5.98622
11
1.11698
21
-5.987
0
LINE
8
BLACK
6
CONTINUOUS
10
3.71551
20
-5.98053
11
3.72086
21
-5.98213
0
LINE
8
BLACK
6
CONTINUOUS
10
3.72086
20
-5.98213
11
3.72554
21
-5.98517
0
LINE
8
BLACK
6
CONTINUOUS
10
3.72554
20
-5.98517
11
3.72918
21
-5.98939
0
LINE
8
BLACK
6
CONTINUOUS
10
3.72918
20
-5.98939
11
3.73149
21
-5.99448
0
LINE
8
BLACK
6
CONTINUOUS
10
3.73149
20
-5.99448
11
3.73228
21
-6
0
LINE
8
BLACK
6
CONTINUOUS
10
3.73228
20
-6
11
3.73228
21
-6.00048
0
LINE
8
BLACK
6
CONTINUOUS
10
3.73228
20
-6.00048
11
3.73135
21
-6.00598
0
LINE
8
BLACK
6
CONTINUOUS
10
3.73135
20
-6.00598
11
3.72892
21
-6.01101
0
LINE
8
BLACK
6
CONTINUOUS
10
3.72892
20
-6.01101
11
3.72517
21
-6.01515
0
LINE
8
BLACK
6
CONTINUOUS
10
3.72517
20
-6.01515
11
3.72042
21
-6.01807
0
LINE
8
BLACK
6
CONTINUOUS
10
3.72042
20
-6.01807
11
3.71503
21
-6.01953
0
LINE
8
BLACK
6
CONTINUOUS
10
3.71503
20
-6.01953
11
3.70945
21
-6.01943
0
LINE
8
BLACK
6
CONTINUOUS
10
3.70945
20
-6.01943
11
3.70412
21
-6.01777
0
LINE
8
BLACK
6
CONTINUOUS
10
3.70412
20
-6.01777
11
3.69948
21
-6.01467
0
LINE
8
BLACK
6
CONTINUOUS
10
3.69948
20
-6.01467
11
3.69589
21
-6.0104
0
LINE
8
BLACK
6
CONTINUOUS
10
3.69589
20
-6.0104
11
3.69364
21
-6.00529
0
LINE
8
BLACK
6
CONTINUOUS
10
3.69364
20
-6.00529
11
3.69291
21
-5.99976
0
LINE
8
BLACK
6
CONTINUOUS
10
3.69291
20
-5.99976
11
3.69377
21
-5.99424
0
LINE
8
BLACK
6
CONTINUOUS
10
3.69377
20
-5.99424
11
3.69615
21
-5.98919
0
LINE
8
BLACK
6
CONTINUOUS
10
3.69615
20
-5.98919
11
3.69984
21
-5.98501
0
LINE
8
BLACK
6
CONTINUOUS
10
3.69984
20
-5.98501
11
3.70456
21
-5.98203
0
LINE
8
BLACK
6
CONTINUOUS
10
3.70456
20
-5.98203
11
3.70993
21
-5.9805
0
LINE
8
BLACK
6
CONTINUOUS
10
3.70993
20
-5.9805
11
3.71551
21
-5.98053
0
LINE
8
BLACK
6
CONTINUOUS
10
1.98703
20
-5.94563
11
1.99023
21
-5.94776
0
LINE
8
BLACK
6
CONTINUOUS
10
1.99023
20
-5.94776
11
1.99236
21
-5.95096
0
LINE
8
BLACK
6
CONTINUOUS
10
1.99236
20
-5.95096
11
1.99311
21
-5.95472
0
LINE
8
BLACK
6
CONTINUOUS
10
1.99311
20
-5.95472
11
1.99311
21
-5.97441
0
LINE
8
BLACK
6
CONTINUOUS
10
1.99311
20
-5.97441
11
1.99236
21
-5.97818
0
LINE
8
BLACK
6
CONTINUOUS
10
1.99236
20
-5.97818
11
1.99023
21
-5.98137
0
LINE
8
BLACK
6
CONTINUOUS
10
1.99023
20
-5.98137
11
1.98703
21
-5.9835
0
LINE
8
BLACK
6
CONTINUOUS
10
1.98703
20
-5.9835
11
1.98327
21
-5.98425
0
LINE
8
BLACK
6
CONTINUOUS
10
1.98327
20
-5.98425
11
1.94587
21
-5.98425
0
LINE
8
BLACK
6
CONTINUOUS
10
1.94587
20
-5.98425
11
1.9421
21
-5.9835
0
LINE
8
BLACK
6
CONTINUOUS
10
1.9421
20
-5.9835
11
1.93891
21
-5.98137
0
LINE
8
BLACK
6
CONTINUOUS
10
1.93891
20
-5.98137
11
1.93677
21
-5.97818
0
LINE
8
BLACK
6
CONTINUOUS
10
1.93677
20
-5.97818
11
1.93602
21
-5.97441
0
LINE
8
BLACK
6
CONTINUOUS
10
1.93602
20
-5.97441
11
1.93602
21
-5.95472
0
LINE
8
BLACK
6
CONTINUOUS
10
1.93602
20
-5.95472
11
1.93677
21
-5.95096
0
LINE
8
BLACK
6
CONTINUOUS
10
1.93677
20
-5.95096
11
1.93891
21
-5.94776
0
LINE
8
BLACK
6
CONTINUOUS
10
1.93891
20
-5.94776
11
1.9421
21
-5.94563
0
LINE
8
BLACK
6
CONTINUOUS
10
1.9421
20
-5.94563
11
1.94587
21
-5.94488
0
LINE
8
BLACK
6
CONTINUOUS
10
1.94587
20
-5.94488
11
1.98327
21
-5.94488
0
LINE
8
BLACK
6
CONTINUOUS
10
1.98327
20
-5.94488
11
1.98703
21
-5.94563
0
LINE
8
BLACK
6
CONTINUOUS
10
3.47719
20
-5.94563
11
3.48038
21
-5.94776
0
LINE
8
BLACK
6
CONTINUOUS
10
3.48038
20
-5.94776
11
3.48252
21
-5.95096
0
LINE
8
BLACK
6
CONTINUOUS
10
3.48252
20
-5.95096
11
3.48327
21
-5.95472
0
LINE
8
BLACK
6
CONTINUOUS
10
3.48327
20
-5.95472
11
3.48327
21
-5.97441
0
LINE
8
BLACK
6
CONTINUOUS
10
3.48327
20
-5.97441
11
3.48252
21
-5.97818
0
LINE
8
BLACK
6
CONTINUOUS
10
3.48252
20
-5.97818
11
3.48038
21
-5.98137
0
LINE
8
BLACK
6
CONTINUOUS
10
3.48038
20
-5.98137
11
3.47719
21
-5.9835
0
LINE
8
BLACK
6
CONTINUOUS
10
3.47719
20
-5.9835
11
3.47343
21
-5.98425
0
LINE
8
BLACK
6
CONTINUOUS
10
3.47343
20
-5.98425
11
3.43602
21
-5.98425
0
LINE
8
BLACK
6
CONTINUOUS
10
3.43602
20
-5.98425
11
3.43226
21
-5.9835
0
LINE
8
BLACK
6
CONTINUOUS
10
3.43226
20
-5.9835
11
3.42906
21
-5.98137
0
LINE
8
BLACK
6
CONTINUOUS
10
3.42906
20
-5.98137
11
3.42693
21
-5.97818
0
LINE
8
BLACK
6
CONTINUOUS
10
3.42693
20
-5.97818
11
3.42618
21
-5.97441
0
LINE
8
BLACK
6
CONTINUOUS
10
3.42618
20
-5.97441
11
3.42618
21
-5.95472
0
LINE
8
BLACK
6
CONTINUOUS
10
3.42618
20
-5.95472
11
3.42693
21
-5.95096
0
LINE
8
BLACK
6
CONTINUOUS
10
3.42693
20
-5.95096
11
3.42906
21
-5.94776
0
LINE
8
BLACK
6
CONTINUOUS
10
3.42906
20
-5.94776
11
3.43226
21
-5.94563
0
LINE
8
BLACK
6
CONTINUOUS
10
3.43226
20
-5.94563
11
3.43602
21
-5.94488
0
LINE
8
BLACK
6
CONTINUOUS
10
3.43602
20
-5.94488
11
3.47343
21
-5.94488
0
LINE
8
BLACK
6
CONTINUOUS
10
3.47343
20
-5.94488
11
3.47719
21
-5.94563
0
LINE
8
BLACK
6
CONTINUOUS
10
3.56774
20
-5.94563
11
3.57094
21
-5.94776
0
LINE
8
BLACK
6
CONTINUOUS
10
3.57094
20
-5.94776
11
3.57307
21
-5.95096
0
LINE
8
BLACK
6
CONTINUOUS
10
3.57307
20
-5.95096
11
3.57382
21
-5.95472
0
LINE
8
BLACK
6
CONTINUOUS
10
3.57382
20
-5.95472
11
3.57382
21
-5.97441
0
LINE
8
BLACK
6
CONTINUOUS
10
3.57382
20
-5.97441
11
3.57307
21
-5.97818
0
LINE
8
BLACK
6
CONTINUOUS
10
3.57307
20
-5.97818
11
3.57094
21
-5.98137
0
LINE
8
BLACK
6
CONTINUOUS
10
3.57094
20
-5.98137
11
3.56774
21
-5.9835
0
LINE
8
BLACK
6
CONTINUOUS
10
3.56774
20
-5.9835
11
3.56398
21
-5.98425
0
LINE
8
BLACK
6
CONTINUOUS
10
3.56398
20
-5.98425
11
3.52657
21
-5.98425
0
LINE
8
BLACK
6
CONTINUOUS
10
3.52657
20
-5.98425
11
3.52281
21
-5.9835
0
LINE
8
BLACK
6
CONTINUOUS
10
3.52281
20
-5.9835
11
3.51962
21
-5.98137
0
LINE
8
BLACK
6
CONTINUOUS
10
3.51962
20
-5.98137
11
3.51748
21
-5.97818
0
LINE
8
BLACK
6
CONTINUOUS
10
3.51748
20
-5.97818
11
3.51673
21
-5.97441
0
LINE
8
BLACK
6
CONTINUOUS
10
3.51673
20
-5.97441
11
3.51673
21
-5.95472
0
LINE
8
BLACK
6
CONTINUOUS
10
3.51673
20
-5.95472
11
3.51748
21
-5.95096
0
LINE
8
BLACK
6
CONTINUOUS
10
3.51748
20
-5.95096
11
3.51962
21
-5.94776
0
LINE
8
BLACK
6
CONTINUOUS
10
3.51962
20
-5.94776
11
3.52281
21
-5.94563
0
LINE
8
BLACK
6
CONTINUOUS
10
3.52281
20
-5.94563
11
3.52657
21
-5.94488
0
LINE
8
BLACK
6
CONTINUOUS
10
3.52657
20
-5.94488
11
3.56398
21
-5.94488
0
LINE
8
BLACK
6
CONTINUOUS
10
3.56398
20
-5.94488
11
3.56774
21
-5.94563
0
LINE
8
BLACK
6
CONTINUOUS
10
1.89648
20
-5.94563
11
1.89968
21
-5.94776
0
LINE
8
BLACK
6
CONTINUOUS
10
1.89968
20
-5.94776
11
1.90181
21
-5.95096
0
LINE
8
BLACK
6
CONTINUOUS
10
1.90181
20
-5.95096
11
1.90256
21
-5.95472
0
LINE
8
BLACK
6
CONTINUOUS
10
1.90256
20
-5.95472
11
1.90256
21
-5.97441
0
LINE
8
BLACK
6
CONTINUOUS
10
1.90256
20
-5.97441
11
1.90181
21
-5.97818
0
LINE
8
BLACK
6
CONTINUOUS
10
1.90181
20
-5.97818
11
1.89968
21
-5.98137
0
LINE
8
BLACK
6
CONTINUOUS
10
1.89968
20
-5.98137
11
1.89648
21
-5.9835
0
LINE
8
BLACK
6
CONTINUOUS
10
1.89648
20
-5.9835
11
1.89272
21
-5.98425
0
LINE
8
BLACK
6
CONTINUOUS
10
1.89272
20
-5.98425
11
1.85531
21
-5.98425
0
LINE
8
BLACK
6
CONTINUOUS
10
1.85531
20
-5.98425
11
1.85155
21
-5.9835
0
LINE
8
BLACK
6
CONTINUOUS
10
1.85155
20
-5.9835
11
1.84836
21
-5.98137
0
LINE
8
BLACK
6
CONTINUOUS
10
1.84836
20
-5.98137
11
1.84622
21
-5.97818
0
LINE
8
BLACK
6
CONTINUOUS
10
1.84622
20
-5.97818
11
1.84547
21
-5.97441
0
LINE
8
BLACK
6
CONTINUOUS
10
1.84547
20
-5.97441
11
1.84547
21
-5.95472
0
LINE
8
BLACK
6
CONTINUOUS
10
1.84547
20
-5.95472
11
1.84622
21
-5.95096
0
LINE
8
BLACK
6
CONTINUOUS
10
1.84622
20
-5.95096
11
1.84836
21
-5.94776
0
LINE
8
BLACK
6
CONTINUOUS
10
1.84836
20
-5.94776
11
1.85155
21
-5.94563
0
LINE
8
BLACK
6
CONTINUOUS
10
1.85155
20
-5.94563
11
1.85531
21
-5.94488
0
LINE
8
BLACK
6
CONTINUOUS
10
1.85531
20
-5.94488
11
1.89272
21
-5.94488
0
LINE
8
BLACK
6
CONTINUOUS
10
1.89272
20
-5.94488
11
1.89648
21
-5.94563
0
LINE
8
BLACK
6
CONTINUOUS
10
2.05212
20
-5.93329
11
2.05747
21
-5.93489
0
LINE
8
BLACK
6
CONTINUOUS
10
2.05747
20
-5.93489
11
2.06215
21
-5.93792
0
LINE
8
BLACK
6
CONTINUOUS
10
2.06215
20
-5.93792
11
2.0658
21
-5.94215
0
LINE
8
BLACK
6
CONTINUOUS
10
2.0658
20
-5.94215
11
2.06811
21
-5.94723
0
LINE
8
BLACK
6
CONTINUOUS
10
2.06811
20
-5.94723
11
2.0689
21
-5.95276
0
LINE
8
BLACK
6
CONTINUOUS
10
2.0689
20
-5.95276
11
2.06889
21
-5.95324
0
LINE
8
BLACK
6
CONTINUOUS
10
2.06889
20
-5.95324
11
2.06797
21
-5.95874
0
LINE
8
BLACK
6
CONTINUOUS
10
2.06797
20
-5.95874
11
2.06553
21
-5.96376
0
LINE
8
BLACK
6
CONTINUOUS
10
2.06553
20
-5.96376
11
2.06179
21
-5.9679
0
LINE
8
BLACK
6
CONTINUOUS
10
2.06179
20
-5.9679
11
2.05703
21
-5.97082
0
LINE
8
BLACK
6
CONTINUOUS
10
2.05703
20
-5.97082
11
2.05165
21
-5.97229
0
LINE
8
BLACK
6
CONTINUOUS
10
2.05165
20
-5.97229
11
2.04607
21
-5.97219
0
LINE
8
BLACK
6
CONTINUOUS
10
2.04607
20
-5.97219
11
2.04074
21
-5.97052
0
LINE
8
BLACK
6
CONTINUOUS
10
2.04074
20
-5.97052
11
2.03609
21
-5.96743
0
LINE
8
BLACK
6
CONTINUOUS
10
2.03609
20
-5.96743
11
2.0325
21
-5.96316
0
LINE
8
BLACK
6
CONTINUOUS
10
2.0325
20
-5.96316
11
2.03025
21
-5.95805
0
LINE
8
BLACK
6
CONTINUOUS
10
2.03025
20
-5.95805
11
2.02953
21
-5.95252
0
LINE
8
BLACK
6
CONTINUOUS
10
2.02953
20
-5.95252
11
2.03039
21
-5.947
0
LINE
8
BLACK
6
CONTINUOUS
10
2.03039
20
-5.947
11
2.03276
21
-5.94195
0
LINE
8
BLACK
6
CONTINUOUS
10
2.03276
20
-5.94195
11
2.03645
21
-5.93776
0
LINE
8
BLACK
6
CONTINUOUS
10
2.03645
20
-5.93776
11
2.04117
21
-5.93479
0
LINE
8
BLACK
6
CONTINUOUS
10
2.04117
20
-5.93479
11
2.04654
21
-5.93325
0
LINE
8
BLACK
6
CONTINUOUS
10
2.04654
20
-5.93325
11
2.05212
21
-5.93329
0
LINE
8
BLACK
6
CONTINUOUS
10
3.47719
20
-5.87083
11
3.48038
21
-5.87296
0
LINE
8
BLACK
6
CONTINUOUS
10
3.48038
20
-5.87296
11
3.48252
21
-5.87615
0
LINE
8
BLACK
6
CONTINUOUS
10
3.48252
20
-5.87615
11
3.48327
21
-5.87992
0
LINE
8
BLACK
6
CONTINUOUS
10
3.48327
20
-5.87992
11
3.48327
21
-5.89961
0
LINE
8
BLACK
6
CONTINUOUS
10
3.48327
20
-5.89961
11
3.48252
21
-5.90337
0
LINE
8
BLACK
6
CONTINUOUS
10
3.48252
20
-5.90337
11
3.48038
21
-5.90657
0
LINE
8
BLACK
6
CONTINUOUS
10
3.48038
20
-5.90657
11
3.47719
21
-5.9087
0
LINE
8
BLACK
6
CONTINUOUS
10
3.47719
20
-5.9087
11
3.47343
21
-5.90945
0
LINE
8
BLACK
6
CONTINUOUS
10
3.47343
20
-5.90945
11
3.43602
21
-5.90945
0
LINE
8
BLACK
6
CONTINUOUS
10
3.43602
20
-5.90945
11
3.43226
21
-5.9087
0
LINE
8
BLACK
6
CONTINUOUS
10
3.43226
20
-5.9087
11
3.42906
21
-5.90657
0
LINE
8
BLACK
6
CONTINUOUS
10
3.42906
20
-5.90657
11
3.42693
21
-5.90337
0
LINE
8
BLACK
6
CONTINUOUS
10
3.42693
20
-5.90337
11
3.42618
21
-5.89961
0
LINE
8
BLACK
6
CONTINUOUS
10
3.42618
20
-5.89961
11
3.42618
21
-5.87992
0
LINE
8
BLACK
6
CONTINUOUS
10
3.42618
20
-5.87992
11
3.42693
21
-5.87615
0
LINE
8
BLACK
6
CONTINUOUS
10
3.42693
20
-5.87615
11
3.42906
21
-5.87296
0
LINE
8
BLACK
6
CONTINUOUS
10
3.42906
20
-5.87296
11
3.43226
21
-5.87083
0
LINE
8
BLACK
6
CONTINUOUS
10
3.43226
20
-5.87083
11
3.43602
21
-5.87008
0
LINE
8
BLACK
6
CONTINUOUS
10
3.43602
20
-5.87008
11
3.47343
21
-5.87008
0
LINE
8
BLACK
6
CONTINUOUS
10
3.47343
20
-5.87008
11
3.47719
21
-5.87083
0
LINE
8
BLACK
6
CONTINUOUS
10
1.98703
20
-5.87083
11
1.99023
21
-5.87296
0
LINE
8
BLACK
6
CONTINUOUS
10
1.99023
20
-5.87296
11
1.99236
21
-5.87615
0
LINE
8
BLACK
6
CONTINUOUS
10
1.99236
20
-5.87615
11
1.99311
21
-5.87992
0
LINE
8
BLACK
6
CONTINUOUS
10
1.99311
20
-5.87992
11
1.99311
21
-5.89961
0
LINE
8
BLACK
6
CONTINUOUS
10
1.99311
20
-5.89961
11
1.99236
21
-5.90337
0
LINE
8
BLACK
6
CONTINUOUS
10
1.99236
20
-5.90337
11
1.99023
21
-5.90657
0
LINE
8
BLACK
6
CONTINUOUS
10
1.99023
20
-5.90657
11
1.98703
21
-5.9087
0
LINE
8
BLACK
6
CONTINUOUS
10
1.98703
20
-5.9087
11
1.98327
21
-5.90945
0
LINE
8
BLACK
6
CONTINUOUS
10
1.98327
20
-5.90945
11
1.94587
21
-5.90945
0
LINE
8
BLACK
6
CONTINUOUS
10
1.94587
20
-5.90945
11
1.9421
21
-5.9087
0
LINE
8
BLACK
6
CONTINUOUS
10
1.9421
20
-5.9087
11
1.93891
21
-5.90657
0
LINE
8
BLACK
6
CONTINUOUS
10
1.93891
20
-5.90657
11
1.93677
21
-5.90337
0
LINE
8
BLACK
6
CONTINUOUS
10
1.93677
20
-5.90337
11
1.93602
21
-5.89961
0
LINE
8
BLACK
6
CONTINUOUS
10
1.93602
20
-5.89961
11
1.93602
21
-5.87992
0
LINE
8
BLACK
6
CONTINUOUS
10
1.93602
20
-5.87992
11
1.93677
21
-5.87615
0
LINE
8
BLACK
6
CONTINUOUS
10
1.93677
20
-5.87615
11
1.93891
21
-5.87296
0
LINE
8
BLACK
6
CONTINUOUS
10
1.93891
20
-5.87296
11
1.9421
21
-5.87083
0
LINE
8
BLACK
6
CONTINUOUS
10
1.9421
20
-5.87083
11
1.94587
21
-5.87008
0
LINE
8
BLACK
6
CONTINUOUS
10
1.94587
20
-5.87008
11
1.98327
21
-5.87008
0
LINE
8
BLACK
6
CONTINUOUS
10
1.98327
20
-5.87008
11
1.98703
21
-5.87083
0
LINE
8
BLACK
6
CONTINUOUS
10
3.56774
20
-5.87083
11
3.57094
21
-5.87296
0
LINE
8
BLACK
6
CONTINUOUS
10
3.57094
20
-5.87296
11
3.57307
21
-5.87615
0
LINE
8
BLACK
6
CONTINUOUS
10
3.57307
20
-5.87615
11
3.57382
21
-5.87992
0
LINE
8
BLACK
6
CONTINUOUS
10
3.57382
20
-5.87992
11
3.57382
21
-5.89961
0
LINE
8
BLACK
6
CONTINUOUS
10
3.57382
20
-5.89961
11
3.57307
21
-5.90337
0
LINE
8
BLACK
6
CONTINUOUS
10
3.57307
20
-5.90337
11
3.57094
21
-5.90657
0
LINE
8
BLACK
6
CONTINUOUS
10
3.57094
20
-5.90657
11
3.56774
21
-5.9087
0
LINE
8
BLACK
6
CONTINUOUS
10
3.56774
20
-5.9087
11
3.56398
21
-5.90945
0
LINE
8
BLACK
6
CONTINUOUS
10
3.56398
20
-5.90945
11
3.52657
21
-5.90945
0
LINE
8
BLACK
6
CONTINUOUS
10
3.52657
20
-5.90945
11
3.52281
21
-5.9087
0
LINE
8
BLACK
6
CONTINUOUS
10
3.52281
20
-5.9087
11
3.51962
21
-5.90657
0
LINE
8
BLACK
6
CONTINUOUS
10
3.51962
20
-5.90657
11
3.51748
21
-5.90337
0
LINE
8
BLACK
6
CONTINUOUS
10
3.51748
20
-5.90337
11
3.51673
21
-5.89961
0
LINE
8
BLACK
6
CONTINUOUS
10
3.51673
20
-5.89961
11
3.51673
21
-5.87992
0
LINE
8
BLACK
6
CONTINUOUS
10
3.51673
20
-5.87992
11
3.51748
21
-5.87615
0
LINE
8
BLACK
6
CONTINUOUS
10
3.51748
20
-5.87615
11
3.51962
21
-5.87296
0
LINE
8
BLACK
6
CONTINUOUS
10
3.51962
20
-5.87296
11
3.52281
21
-5.87083
0
LINE
8
BLACK
6
CONTINUOUS
10
3.52281
20
-5.87083
11
3.52657
21
-5.87008
0
LINE
8
BLACK
6
CONTINUOUS
10
3.52657
20
-5.87008
11
3.56398
21
-5.87008
0
LINE
8
BLACK
6
CONTINUOUS
10
3.56398
20
-5.87008
11
3.56774
21
-5.87083
0
LINE
8
BLACK
6
CONTINUOUS
10
1.89648
20
-5.87083
11
1.89968
21
-5.87296
0
LINE
8
BLACK
6
CONTINUOUS
10
1.89968
20
-5.87296
11
1.90181
21
-5.87615
0
LINE
8
BLACK
6
CONTINUOUS
10
1.90181
20
-5.87615
11
1.90256
21
-5.87992
0
LINE
8
BLACK
6
CONTINUOUS
10
1.90256
20
-5.87992
11
1.90256
21
-5.89961
0
LINE
8
BLACK
6
CONTINUOUS
10
1.90256
20
-5.89961
11
1.90181
21
-5.90337
0
LINE
8
BLACK
6
CONTINUOUS
10
1.90181
20
-5.90337
11
1.89968
21
-5.90657
0
LINE
8
BLACK
6
CONTINUOUS
10
1.89968
20
-5.90657
11
1.89648
21
-5.9087
0
LINE
8
BLACK
6
CONTINUOUS
10
1.89648
20
-5.9087
11
1.89272
21
-5.90945
0
LINE
8
BLACK
6
CONTINUOUS
10
1.89272
20
-5.90945
11
1.85531
21
-5.90945
0
LINE
8
BLACK
6
CONTINUOUS
10
1.85531
20
-5.90945
11
1.85155
21
-5.9087
0
LINE
8
BLACK
6
CONTINUOUS
10
1.85155
20
-5.9087
11
1.84836
21
-5.90657
0
LINE
8
BLACK
6
CONTINUOUS
10
1.84836
20
-5.90657
11
1.84622
21
-5.90337
0
LINE
8
BLACK
6
CONTINUOUS
10
1.84622
20
-5.90337
11
1.84547
21
-5.89961
0
LINE
8
BLACK
6
CONTINUOUS
10
1.84547
20
-5.89961
11
1.84547
21
-5.87992
0
LINE
8
BLACK
6
CONTINUOUS
10
1.84547
20
-5.87992
11
1.84622
21
-5.87615
0
LINE
8
BLACK
6
CONTINUOUS
10
1.84622
20
-5.87615
11
1.84836
21
-5.87296
0
LINE
8
BLACK
6
CONTINUOUS
10
1.84836
20
-5.87296
11
1.85155
21
-5.87083
0
LINE
8
BLACK
6
CONTINUOUS
10
1.85155
20
-5.87083
11
1.85531
21
-5.87008
0
LINE
8
BLACK
6
CONTINUOUS
10
1.85531
20
-5.87008
11
1.89272
21
-5.87008
0
LINE
8
BLACK
6
CONTINUOUS
10
1.89272
20
-5.87008
11
1.89648
21
-5.87083
0
LINE
8
BLACK
6
CONTINUOUS
10
2.13664
20
-5.66807
11
2.13983
21
-5.67021
0
LINE
8
BLACK
6
CONTINUOUS
10
2.13983
20
-5.67021
11
2.14197
21
-5.6734
0
LINE
8
BLACK
6
CONTINUOUS
10
2.14197
20
-5.6734
11
2.14272
21
-5.67717
0
LINE
8
BLACK
6
CONTINUOUS
10
2.14272
20
-5.67717
11
2.14272
21
-5.69685
0
LINE
8
BLACK
6
CONTINUOUS
10
2.14272
20
-5.69685
11
2.14197
21
-5.70062
0
LINE
8
BLACK
6
CONTINUOUS
10
2.14197
20
-5.70062
11
2.13983
21
-5.70381
0
LINE
8
BLACK
6
CONTINUOUS
10
2.13983
20
-5.70381
11
2.13664
21
-5.70594
0
LINE
8
BLACK
6
CONTINUOUS
10
2.13664
20
-5.70594
11
2.13287
21
-5.70669
0
LINE
8
BLACK
6
CONTINUOUS
10
2.13287
20
-5.70669
11
2.09547
21
-5.70669
0
LINE
8
BLACK
6
CONTINUOUS
10
2.09547
20
-5.70669
11
2.09171
21
-5.70594
0
LINE
8
BLACK
6
CONTINUOUS
10
2.09171
20
-5.70594
11
2.08851
21
-5.70381
0
LINE
8
BLACK
6
CONTINUOUS
10
2.08851
20
-5.70381
11
2.08638
21
-5.70062
0
LINE
8
BLACK
6
CONTINUOUS
10
2.08638
20
-5.70062
11
2.08563
21
-5.69685
0
LINE
8
BLACK
6
CONTINUOUS
10
2.08563
20
-5.69685
11
2.08563
21
-5.67717
0
LINE
8
BLACK
6
CONTINUOUS
10
2.08563
20
-5.67717
11
2.08638
21
-5.6734
0
LINE
8
BLACK
6
CONTINUOUS
10
2.08638
20
-5.6734
11
2.08851
21
-5.67021
0
LINE
8
BLACK
6
CONTINUOUS
10
2.08851
20
-5.67021
11
2.09171
21
-5.66807
0
LINE
8
BLACK
6
CONTINUOUS
10
2.09171
20
-5.66807
11
2.09547
21
-5.66732
0
LINE
8
BLACK
6
CONTINUOUS
10
2.09547
20
-5.66732
11
2.13287
21
-5.66732
0
LINE
8
BLACK
6
CONTINUOUS
10
2.13287
20
-5.66732
11
2.13664
21
-5.66807
0
LINE
8
BLACK
6
CONTINUOUS
10
2.13664
20
-5.59327
11
2.13983
21
-5.5954
0
LINE
8
BLACK
6
CONTINUOUS
10
2.13983
20
-5.5954
11
2.14197
21
-5.5986
0
LINE
8
BLACK
6
CONTINUOUS
10
2.14197
20
-5.5986
11
2.14272
21
-5.60236
0
LINE
8
BLACK
6
CONTINUOUS
10
2.14272
20
-5.60236
11
2.14272
21
-5.62205
0
LINE
8
BLACK
6
CONTINUOUS
10
2.14272
20
-5.62205
11
2.14197
21
-5.62581
0
LINE
8
BLACK
6
CONTINUOUS
10
2.14197
20
-5.62581
11
2.13983
21
-5.62901
0
LINE
8
BLACK
6
CONTINUOUS
10
2.13983
20
-5.62901
11
2.13664
21
-5.63114
0
LINE
8
BLACK
6
CONTINUOUS
10
2.13664
20
-5.63114
11
2.13287
21
-5.63189
0
LINE
8
BLACK
6
CONTINUOUS
10
2.13287
20
-5.63189
11
2.09547
21
-5.63189
0
LINE
8
BLACK
6
CONTINUOUS
10
2.09547
20
-5.63189
11
2.09171
21
-5.63114
0
LINE
8
BLACK
6
CONTINUOUS
10
2.09171
20
-5.63114
11
2.08851
21
-5.62901
0
LINE
8
BLACK
6
CONTINUOUS
10
2.08851
20
-5.62901
11
2.08638
21
-5.62581
0
LINE
8
BLACK
6
CONTINUOUS
10
2.08638
20
-5.62581
11
2.08563
21
-5.62205
0
LINE
8
BLACK
6
CONTINUOUS
10
2.08563
20
-5.62205
11
2.08563
21
-5.60236
0
LINE
8
BLACK
6
CONTINUOUS
10
2.08563
20
-5.60236
11
2.08638
21
-5.5986
0
LINE
8
BLACK
6
CONTINUOUS
10
2.08638
20
-5.5986
11
2.08851
21
-5.5954
0
LINE
8
BLACK
6
CONTINUOUS
10
2.08851
20
-5.5954
11
2.09171
21
-5.59327
0
LINE
8
BLACK
6
CONTINUOUS
10
2.09171
20
-5.59327
11
2.09547
21
-5.59252
0
LINE
8
BLACK
6
CONTINUOUS
10
2.09547
20
-5.59252
11
2.13287
21
-5.59252
0
LINE
8
BLACK
6
CONTINUOUS
10
2.13287
20
-5.59252
11
2.13664
21
-5.59327
0
LINE
8
BLACK
6
CONTINUOUS
10
3.45973
20
-5.56717
11
3.46503
21
-5.56875
0
LINE
8
BLACK
6
CONTINUOUS
10
3.46503
20
-5.56875
11
3.46967
21
-5.57176
0
LINE
8
BLACK
6
CONTINUOUS
10
3.46967
20
-5.57176
11
3.47328
21
-5.57595
0
LINE
8
BLACK
6
CONTINUOUS
10
3.47328
20
-5.57595
11
3.47557
21
-5.58098
0
LINE
8
BLACK
6
CONTINUOUS
10
3.47557
20
-5.58098
11
3.47636
21
-5.58646
0
LINE
8
BLACK
6
CONTINUOUS
10
3.47636
20
-5.58646
11
3.47635
21
-5.58694
0
LINE
8
BLACK
6
CONTINUOUS
10
3.47635
20
-5.58694
11
3.47543
21
-5.59239
0
LINE
8
BLACK
6
CONTINUOUS
10
3.47543
20
-5.59239
11
3.47302
21
-5.59737
0
LINE
8
BLACK
6
CONTINUOUS
10
3.47302
20
-5.59737
11
3.46931
21
-5.60147
0
LINE
8
BLACK
6
CONTINUOUS
10
3.46931
20
-5.60147
11
3.4646
21
-5.60436
0
LINE
8
BLACK
6
CONTINUOUS
10
3.4646
20
-5.60436
11
3.45926
21
-5.60582
0
LINE
8
BLACK
6
CONTINUOUS
10
3.45926
20
-5.60582
11
3.45373
21
-5.60572
0
LINE
8
BLACK
6
CONTINUOUS
10
3.45373
20
-5.60572
11
3.44845
21
-5.60407
0
LINE
8
BLACK
6
CONTINUOUS
10
3.44845
20
-5.60407
11
3.44385
21
-5.601
0
LINE
8
BLACK
6
CONTINUOUS
10
3.44385
20
-5.601
11
3.44029
21
-5.59677
0
LINE
8
BLACK
6
CONTINUOUS
10
3.44029
20
-5.59677
11
3.43806
21
-5.5917
0
LINE
8
BLACK
6
CONTINUOUS
10
3.43806
20
-5.5917
11
3.43734
21
-5.58622
0
LINE
8
BLACK
6
CONTINUOUS
10
3.43734
20
-5.58622
11
3.43819
21
-5.58076
0
LINE
8
BLACK
6
CONTINUOUS
10
3.43819
20
-5.58076
11
3.44054
21
-5.57575
0
LINE
8
BLACK
6
CONTINUOUS
10
3.44054
20
-5.57575
11
3.4442
21
-5.5716
0
LINE
8
BLACK
6
CONTINUOUS
10
3.4442
20
-5.5716
11
3.44888
21
-5.56865
0
LINE
8
BLACK
6
CONTINUOUS
10
3.44888
20
-5.56865
11
3.4542
21
-5.56713
0
LINE
8
BLACK
6
CONTINUOUS
10
3.4542
20
-5.56713
11
3.45973
21
-5.56717
0
LINE
8
BLACK
6
CONTINUOUS
10
3.62941
20
-5.454
11
3.63471
21
-5.45558
0
LINE
8
BLACK
6
CONTINUOUS
10
3.63471
20
-5.45558
11
3.63935
21
-5.45859
0
LINE
8
BLACK
6
CONTINUOUS
10
3.63935
20
-5.45859
11
3.64296
21
-5.46278
0
LINE
8
BLACK
6
CONTINUOUS
10
3.64296
20
-5.46278
11
3.64525
21
-5.46782
0
LINE
8
BLACK
6
CONTINUOUS
10
3.64525
20
-5.46782
11
3.64603
21
-5.47329
0
LINE
8
BLACK
6
CONTINUOUS
10
3.64603
20
-5.47329
11
3.64603
21
-5.47377
0
LINE
8
BLACK
6
CONTINUOUS
10
3.64603
20
-5.47377
11
3.64511
21
-5.47922
0
LINE
8
BLACK
6
CONTINUOUS
10
3.64511
20
-5.47922
11
3.6427
21
-5.4842
0
LINE
8
BLACK
6
CONTINUOUS
10
3.6427
20
-5.4842
11
3.63899
21
-5.4883
0
LINE
8
BLACK
6
CONTINUOUS
10
3.63899
20
-5.4883
11
3.63427
21
-5.4912
0
LINE
8
BLACK
6
CONTINUOUS
10
3.63427
20
-5.4912
11
3.62894
21
-5.49265
0
LINE
8
BLACK
6
CONTINUOUS
10
3.62894
20
-5.49265
11
3.62341
21
-5.49255
0
LINE
8
BLACK
6
CONTINUOUS
10
3.62341
20
-5.49255
11
3.61813
21
-5.4909
0
LINE
8
BLACK
6
CONTINUOUS
10
3.61813
20
-5.4909
11
3.61352
21
-5.48784
0
LINE
8
BLACK
6
CONTINUOUS
10
3.61352
20
-5.48784
11
3.60996
21
-5.4836
0
LINE
8
BLACK
6
CONTINUOUS
10
3.60996
20
-5.4836
11
3.60774
21
-5.47854
0
LINE
8
BLACK
6
CONTINUOUS
10
3.60774
20
-5.47854
11
3.60702
21
-5.47306
0
LINE
8
BLACK
6
CONTINUOUS
10
3.60702
20
-5.47306
11
3.60787
21
-5.46759
0
LINE
8
BLACK
6
CONTINUOUS
10
3.60787
20
-5.46759
11
3.61022
21
-5.46258
0
LINE
8
BLACK
6
CONTINUOUS
10
3.61022
20
-5.46258
11
3.61388
21
-5.45844
0
LINE
8
BLACK
6
CONTINUOUS
10
3.61388
20
-5.45844
11
3.61856
21
-5.45549
0
LINE
8
BLACK
6
CONTINUOUS
10
3.61856
20
-5.45549
11
3.62388
21
-5.45397
0
LINE
8
BLACK
6
CONTINUOUS
10
3.62388
20
-5.45397
11
3.62941
21
-5.454
0
LINE
8
BLACK
6
CONTINUOUS
10
3.5729
20
-5.39749
11
3.5782
21
-5.39907
0
LINE
8
BLACK
6
CONTINUOUS
10
3.5782
20
-5.39907
11
3.58284
21
-5.40208
0
LINE
8
BLACK
6
CONTINUOUS
10
3.58284
20
-5.40208
11
3.58645
21
-5.40627
0
LINE
8
BLACK
6
CONTINUOUS
10
3.58645
20
-5.40627
11
3.58874
21
-5.41131
0
LINE
8
BLACK
6
CONTINUOUS
10
3.58874
20
-5.41131
11
3.58952
21
-5.41678
0
LINE
8
BLACK
6
CONTINUOUS
10
3.58952
20
-5.41678
11
3.58952
21
-5.41726
0
LINE
8
BLACK
6
CONTINUOUS
10
3.58952
20
-5.41726
11
3.5886
21
-5.42271
0
LINE
8
BLACK
6
CONTINUOUS
10
3.5886
20
-5.42271
11
3.58619
21
-5.42769
0
LINE
8
BLACK
6
CONTINUOUS
10
3.58619
20
-5.42769
11
3.58247
21
-5.43179
0
LINE
8
BLACK
6
CONTINUOUS
10
3.58247
20
-5.43179
11
3.57776
21
-5.43468
0
LINE
8
BLACK
6
CONTINUOUS
10
3.57776
20
-5.43468
11
3.57242
21
-5.43614
0
LINE
8
BLACK
6
CONTINUOUS
10
3.57242
20
-5.43614
11
3.56689
21
-5.43604
0
LINE
8
BLACK
6
CONTINUOUS
10
3.56689
20
-5.43604
11
3.56161
21
-5.43439
0
LINE
8
BLACK
6
CONTINUOUS
10
3.56161
20
-5.43439
11
3.55701
21
-5.43132
0
LINE
8
BLACK
6
CONTINUOUS
10
3.55701
20
-5.43132
11
3.55345
21
-5.42709
0
LINE
8
BLACK
6
CONTINUOUS
10
3.55345
20
-5.42709
11
3.55122
21
-5.42203
0
LINE
8
BLACK
6
CONTINUOUS
10
3.55122
20
-5.42203
11
3.55051
21
-5.41654
0
LINE
8
BLACK
6
CONTINUOUS
10
3.55051
20
-5.41654
11
3.55136
21
-5.41108
0
LINE
8
BLACK
6
CONTINUOUS
10
3.55136
20
-5.41108
11
3.55371
21
-5.40607
0
LINE
8
BLACK
6
CONTINUOUS
10
3.55371
20
-5.40607
11
3.55737
21
-5.40192
0
LINE
8
BLACK
6
CONTINUOUS
10
3.55737
20
-5.40192
11
3.56205
21
-5.39897
0
LINE
8
BLACK
6
CONTINUOUS
10
3.56205
20
-5.39897
11
3.56737
21
-5.39745
0
LINE
8
BLACK
6
CONTINUOUS
10
3.56737
20
-5.39745
11
3.5729
21
-5.39749
0
LINE
8
BLACK
6
CONTINUOUS
10
1.30852
20
-5.29744
11
1.31334
21
-5.29888
0
LINE
8
BLACK
6
CONTINUOUS
10
1.31334
20
-5.29888
11
1.31755
21
-5.30161
0
LINE
8
BLACK
6
CONTINUOUS
10
1.31755
20
-5.30161
11
1.32083
21
-5.30542
0
LINE
8
BLACK
6
CONTINUOUS
10
1.32083
20
-5.30542
11
1.32291
21
-5.30999
0
LINE
8
BLACK
6
CONTINUOUS
10
1.32291
20
-5.30999
11
1.32362
21
-5.31496
0
LINE
8
BLACK
6
CONTINUOUS
10
1.32362
20
-5.31496
11
1.32362
21
-5.31539
0
LINE
8
BLACK
6
CONTINUOUS
10
1.32362
20
-5.31539
11
1.32278
21
-5.32035
0
LINE
8
BLACK
6
CONTINUOUS
10
1.32278
20
-5.32035
11
1.32059
21
-5.32487
0
LINE
8
BLACK
6
CONTINUOUS
10
1.32059
20
-5.32487
11
1.31722
21
-5.32859
0
LINE
8
BLACK
6
CONTINUOUS
10
1.31722
20
-5.32859
11
1.31294
21
-5.33122
0
LINE
8
BLACK
6
CONTINUOUS
10
1.31294
20
-5.33122
11
1.3081
21
-5.33254
0
LINE
8
BLACK
6
CONTINUOUS
10
1.3081
20
-5.33254
11
1.30307
21
-5.33245
0
LINE
8
BLACK
6
CONTINUOUS
10
1.30307
20
-5.33245
11
1.29828
21
-5.33095
0
LINE
8
BLACK
6
CONTINUOUS
10
1.29828
20
-5.33095
11
1.2941
21
-5.32817
0
LINE
8
BLACK
6
CONTINUOUS
10
1.2941
20
-5.32817
11
1.29086
21
-5.32432
0
LINE
8
BLACK
6
CONTINUOUS
10
1.29086
20
-5.32432
11
1.28884
21
-5.31972
0
LINE
8
BLACK
6
CONTINUOUS
10
1.28884
20
-5.31972
11
1.28819
21
-5.31474
0
LINE
8
BLACK
6
CONTINUOUS
10
1.28819
20
-5.31474
11
1.28896
21
-5.30978
0
LINE
8
BLACK
6
CONTINUOUS
10
1.28896
20
-5.30978
11
1.2911
21
-5.30523
0
LINE
8
BLACK
6
CONTINUOUS
10
1.2911
20
-5.30523
11
1.29442
21
-5.30147
0
LINE
8
BLACK
6
CONTINUOUS
10
1.29442
20
-5.30147
11
1.29867
21
-5.29879
0
LINE
8
BLACK
6
CONTINUOUS
10
1.29867
20
-5.29879
11
1.3035
21
-5.29741
0
LINE
8
BLACK
6
CONTINUOUS
10
1.3035
20
-5.29741
11
1.30852
21
-5.29744
0
LINE
8
BLACK
6
CONTINUOUS
10
3.89728
20
-5.29698
11
3.90139
21
-5.29908
0
LINE
8
BLACK
6
CONTINUOUS
10
3.90139
20
-5.29908
11
3.90466
21
-5.30235
0
LINE
8
BLACK
6
CONTINUOUS
10
3.90466
20
-5.30235
11
3.90676
21
-5.30646
0
LINE
8
BLACK
6
CONTINUOUS
10
3.90676
20
-5.30646
11
3.90748
21
-5.31102
0
LINE
8
BLACK
6
CONTINUOUS
10
3.90748
20
-5.31102
11
3.90676
21
-5.31559
0
LINE
8
BLACK
6
CONTINUOUS
10
3.90676
20
-5.31559
11
3.90466
21
-5.3197
0
LINE
8
BLACK
6
CONTINUOUS
10
3.90466
20
-5.3197
11
3.90139
21
-5.32297
0
LINE
8
BLACK
6
CONTINUOUS
10
3.90139
20
-5.32297
11
3.89728
21
-5.32506
0
LINE
8
BLACK
6
CONTINUOUS
10
3.89728
20
-5.32506
11
3.89272
21
-5.32579
0
LINE
8
BLACK
6
CONTINUOUS
10
3.89272
20
-5.32579
11
3.88815
21
-5.32506
0
LINE
8
BLACK
6
CONTINUOUS
10
3.88815
20
-5.32506
11
3.88404
21
-5.32297
0
LINE
8
BLACK
6
CONTINUOUS
10
3.88404
20
-5.32297
11
3.88077
21
-5.3197
0
LINE
8
BLACK
6
CONTINUOUS
10
3.88077
20
-5.3197
11
3.87868
21
-5.31559
0
LINE
8
BLACK
6
CONTINUOUS
10
3.87868
20
-5.31559
11
3.87795
21
-5.31102
0
LINE
8
BLACK
6
CONTINUOUS
10
3.87795
20
-5.31102
11
3.87868
21
-5.30646
0
LINE
8
BLACK
6
CONTINUOUS
10
3.87868
20
-5.30646
11
3.88077
21
-5.30235
0
LINE
8
BLACK
6
CONTINUOUS
10
3.88077
20
-5.30235
11
3.88404
21
-5.29908
0
LINE
8
BLACK
6
CONTINUOUS
10
3.88404
20
-5.29908
11
3.88815
21
-5.29698
0
LINE
8
BLACK
6
CONTINUOUS
10
3.88815
20
-5.29698
11
3.89272
21
-5.29626
0
LINE
8
BLACK
6
CONTINUOUS
10
3.89272
20
-5.29626
11
3.89728
21
-5.29698
0
LINE
8
BLACK
6
CONTINUOUS
10
4.00555
20
-5.29698
11
4.00966
21
-5.29908
0
LINE
8
BLACK
6
CONTINUOUS
10
4.00966
20
-5.29908
11
4.01293
21
-5.30235
0
LINE
8
BLACK
6
CONTINUOUS
10
4.01293
20
-5.30235
11
4.01503
21
-5.30646
0
LINE
8
BLACK
6
CONTINUOUS
10
4.01503
20
-5.30646
11
4.01575
21
-5.31102
0
LINE
8
BLACK
6
CONTINUOUS
10
4.01575
20
-5.31102
11
4.01503
21
-5.31559
0
LINE
8
BLACK
6
CONTINUOUS
10
4.01503
20
-5.31559
11
4.01293
21
-5.3197
0
LINE
8
BLACK
6
CONTINUOUS
10
4.01293
20
-5.3197
11
4.00966
21
-5.32297
0
LINE
8
BLACK
6
CONTINUOUS
10
4.00966
20
-5.32297
11
4.00555
21
-5.32506
0
LINE
8
BLACK
6
CONTINUOUS
10
4.00555
20
-5.32506
11
4.00098
21
-5.32579
0
LINE
8
BLACK
6
CONTINUOUS
10
4.00098
20
-5.32579
11
3.99642
21
-5.32506
0
LINE
8
BLACK
6
CONTINUOUS
10
3.99642
20
-5.32506
11
3.99231
21
-5.32297
0
LINE
8
BLACK
6
CONTINUOUS
10
3.99231
20
-5.32297
11
3.98904
21
-5.3197
0
LINE
8
BLACK
6
CONTINUOUS
10
3.98904
20
-5.3197
11
3.98694
21
-5.31559
0
LINE
8
BLACK
6
CONTINUOUS
10
3.98694
20
-5.31559
11
3.98622
21
-5.31102
0
LINE
8
BLACK
6
CONTINUOUS
10
3.98622
20
-5.31102
11
3.98694
21
-5.30646
0
LINE
8
BLACK
6
CONTINUOUS
10
3.98694
20
-5.30646
11
3.98904
21
-5.30235
0
LINE
8
BLACK
6
CONTINUOUS
10
3.98904
20
-5.30235
11
3.99231
21
-5.29908
0
LINE
8
BLACK
6
CONTINUOUS
10
3.99231
20
-5.29908
11
3.99642
21
-5.29698
0
LINE
8
BLACK
6
CONTINUOUS
10
3.99642
20
-5.29698
11
4.00098
21
-5.29626
0
LINE
8
BLACK
6
CONTINUOUS
10
4.00098
20
-5.29626
11
4.00555
21
-5.29698
0
LINE
8
BLACK
6
CONTINUOUS
10
1.30852
20
-5.17933
11
1.31334
21
-5.18077
0
LINE
8
BLACK
6
CONTINUOUS
10
1.31334
20
-5.18077
11
1.31755
21
-5.1835
0
LINE
8
BLACK
6
CONTINUOUS
10
1.31755
20
-5.1835
11
1.32083
21
-5.18731
0
LINE
8
BLACK
6
CONTINUOUS
10
1.32083
20
-5.18731
11
1.32291
21
-5.19188
0
LINE
8
BLACK
6
CONTINUOUS
10
1.32291
20
-5.19188
11
1.32362
21
-5.19685
0
LINE
8
BLACK
6
CONTINUOUS
10
1.32362
20
-5.19685
11
1.32362
21
-5.19728
0
LINE
8
BLACK
6
CONTINUOUS
10
1.32362
20
-5.19728
11
1.32278
21
-5.20224
0
LINE
8
BLACK
6
CONTINUOUS
10
1.32278
20
-5.20224
11
1.32059
21
-5.20676
0
LINE
8
BLACK
6
CONTINUOUS
10
1.32059
20
-5.20676
11
1.31722
21
-5.21048
0
LINE
8
BLACK
6
CONTINUOUS
10
1.31722
20
-5.21048
11
1.31294
21
-5.21311
0
LINE
8
BLACK
6
CONTINUOUS
10
1.31294
20
-5.21311
11
1.3081
21
-5.21443
0
LINE
8
BLACK
6
CONTINUOUS
10
1.3081
20
-5.21443
11
1.30307
21
-5.21434
0
LINE
8
BLACK
6
CONTINUOUS
10
1.30307
20
-5.21434
11
1.29828
21
-5.21284
0
LINE
8
BLACK
6
CONTINUOUS
10
1.29828
20
-5.21284
11
1.2941
21
-5.21006
0
LINE
8
BLACK
6
CONTINUOUS
10
1.2941
20
-5.21006
11
1.29086
21
-5.20621
0
LINE
8
BLACK
6
CONTINUOUS
10
1.29086
20
-5.20621
11
1.28884
21
-5.20161
0
LINE
8
BLACK
6
CONTINUOUS
10
1.28884
20
-5.20161
11
1.28819
21
-5.19663
0
LINE
8
BLACK
6
CONTINUOUS
10
1.28819
20
-5.19663
11
1.28896
21
-5.19167
0
LINE
8
BLACK
6
CONTINUOUS
10
1.28896
20
-5.19167
11
1.2911
21
-5.18712
0
LINE
8
BLACK
6
CONTINUOUS
10
1.2911
20
-5.18712
11
1.29442
21
-5.18336
0
LINE
8
BLACK
6
CONTINUOUS
10
1.29442
20
-5.18336
11
1.29867
21
-5.18068
0
LINE
8
BLACK
6
CONTINUOUS
10
1.29867
20
-5.18068
11
1.3035
21
-5.1793
0
LINE
8
BLACK
6
CONTINUOUS
10
1.3035
20
-5.1793
11
1.30852
21
-5.17933
0
LINE
8
BLACK
6
CONTINUOUS
10
3.89728
20
-4.96627
11
3.90139
21
-4.96837
0
LINE
8
BLACK
6
CONTINUOUS
10
3.90139
20
-4.96837
11
3.90466
21
-4.97164
0
LINE
8
BLACK
6
CONTINUOUS
10
3.90466
20
-4.97164
11
3.90676
21
-4.97575
0
LINE
8
BLACK
6
CONTINUOUS
10
3.90676
20
-4.97575
11
3.90748
21
-4.98031
0
LINE
8
BLACK
6
CONTINUOUS
10
3.90748
20
-4.98031
11
3.90676
21
-4.98488
0
LINE
8
BLACK
6
CONTINUOUS
10
3.90676
20
-4.98488
11
3.90466
21
-4.98899
0
LINE
8
BLACK
6
CONTINUOUS
10
3.90466
20
-4.98899
11
3.90139
21
-4.99226
0
LINE
8
BLACK
6
CONTINUOUS
10
3.90139
20
-4.99226
11
3.89728
21
-4.99436
0
LINE
8
BLACK
6
CONTINUOUS
10
3.89728
20
-4.99436
11
3.89272
21
-4.99508
0
LINE
8
BLACK
6
CONTINUOUS
10
3.89272
20
-4.99508
11
3.88815
21
-4.99436
0
LINE
8
BLACK
6
CONTINUOUS
10
3.88815
20
-4.99436
11
3.88404
21
-4.99226
0
LINE
8
BLACK
6
CONTINUOUS
10
3.88404
20
-4.99226
11
3.88077
21
-4.98899
0
LINE
8
BLACK
6
CONTINUOUS
10
3.88077
20
-4.98899
11
3.87868
21
-4.98488
0
LINE
8
BLACK
6
CONTINUOUS
10
3.87868
20
-4.98488
11
3.87795
21
-4.98031
0
LINE
8
BLACK
6
CONTINUOUS
10
3.87795
20
-4.98031
11
3.87868
21
-4.97575
0
LINE
8
BLACK
6
CONTINUOUS
10
3.87868
20
-4.97575
11
3.88077
21
-4.97164
0
LINE
8
BLACK
6
CONTINUOUS
10
3.88077
20
-4.97164
11
3.88404
21
-4.96837
0
LINE
8
BLACK
6
CONTINUOUS
10
3.88404
20
-4.96837
11
3.88815
21
-4.96627
0
LINE
8
BLACK
6
CONTINUOUS
10
3.88815
20
-4.96627
11
3.89272
21
-4.96555
0
LINE
8
BLACK
6
CONTINUOUS
10
3.89272
20
-4.96555
11
3.89728
21
-4.96627
0
LINE
8
BLACK
6
CONTINUOUS
10
4.00555
20
-4.96627
11
4.00966
21
-4.96837
0
LINE
8
BLACK
6
CONTINUOUS
10
4.00966
20
-4.96837
11
4.01293
21
-4.97164
0
LINE
8
BLACK
6
CONTINUOUS
10
4.01293
20
-4.97164
11
4.01503
21
-4.97575
0
LINE
8
BLACK
6
CONTINUOUS
10
4.01503
20
-4.97575
11
4.01575
21
-4.98031
0
LINE
8
BLACK
6
CONTINUOUS
10
4.01575
20
-4.98031
11
4.01503
21
-4.98488
0
LINE
8
BLACK
6
CONTINUOUS
10
4.01503
20
-4.98488
11
4.01293
21
-4.98899
0
LINE
8
BLACK
6
CONTINUOUS
10
4.01293
20
-4.98899
11
4.00966
21
-4.99226
0
LINE
8
BLACK
6
CONTINUOUS
10
4.00966
20
-4.99226
11
4.00555
21
-4.99436
0
LINE
8
BLACK
6
CONTINUOUS
10
4.00555
20
-4.99436
11
4.00098
21
-4.99508
0
LINE
8
BLACK
6
CONTINUOUS
10
4.00098
20
-4.99508
11
3.99642
21
-4.99436
0
LINE
8
BLACK
6
CONTINUOUS
10
3.99642
20
-4.99436
11
3.99231
21
-4.99226
0
LINE
8
BLACK
6
CONTINUOUS
10
3.99231
20
-4.99226
11
3.98904
21
-4.98899
0
LINE
8
BLACK
6
CONTINUOUS
10
3.98904
20
-4.98899
11
3.98694
21
-4.98488
0
LINE
8
BLACK
6
CONTINUOUS
10
3.98694
20
-4.98488
11
3.98622
21
-4.98031
0
LINE
8
BLACK
6
CONTINUOUS
10
3.98622
20
-4.98031
11
3.98694
21
-4.97575
0
LINE
8
BLACK
6
CONTINUOUS
10
3.98694
20
-4.97575
11
3.98904
21
-4.97164
0
LINE
8
BLACK
6
CONTINUOUS
10
3.98904
20
-4.97164
11
3.99231
21
-4.96837
0
LINE
8
BLACK
6
CONTINUOUS
10
3.99231
20
-4.96837
11
3.99642
21
-4.96627
0
LINE
8
BLACK
6
CONTINUOUS
10
3.99642
20
-4.96627
11
4.00098
21
-4.96555
0
LINE
8
BLACK
6
CONTINUOUS
10
4.00098
20
-4.96555
11
4.00555
21
-4.96627
0
LINE
8
BLACK
6
CONTINUOUS
10
2.17181
20
-4.36814
11
2.17715
21
-4.36974
0
LINE
8
BLACK
6
CONTINUOUS
10
2.17715
20
-4.36974
11
2.18184
21
-4.37277
0
LINE
8
BLACK
6
CONTINUOUS
10
2.18184
20
-4.37277
11
2.18548
21
-4.377
0
LINE
8
BLACK
6
CONTINUOUS
10
2.18548
20
-4.377
11
2.18779
21
-4.38208
0
LINE
8
BLACK
6
CONTINUOUS
10
2.18779
20
-4.38208
11
2.18858
21
-4.38761
0
LINE
8
BLACK
6
CONTINUOUS
10
2.18858
20
-4.38761
11
2.18858
21
-4.43091
0
LINE
8
BLACK
6
CONTINUOUS
10
2.18858
20
-4.43091
11
2.18858
21
-4.43115
0
LINE
8
BLACK
6
CONTINUOUS
10
2.18858
20
-4.43115
11
2.18772
21
-4.43667
0
LINE
8
BLACK
6
CONTINUOUS
10
2.18772
20
-4.43667
11
2.18535
21
-4.44172
0
LINE
8
BLACK
6
CONTINUOUS
10
2.18535
20
-4.44172
11
2.18166
21
-4.44591
0
LINE
8
BLACK
6
CONTINUOUS
10
2.18166
20
-4.44591
11
2.17694
21
-4.44888
0
LINE
8
BLACK
6
CONTINUOUS
10
2.17694
20
-4.44888
11
2.17157
21
-4.45042
0
LINE
8
BLACK
6
CONTINUOUS
10
2.17157
20
-4.45042
11
2.16599
21
-4.45038
0
LINE
8
BLACK
6
CONTINUOUS
10
2.16599
20
-4.45038
11
2.16064
21
-4.44878
0
LINE
8
BLACK
6
CONTINUOUS
10
2.16064
20
-4.44878
11
2.15596
21
-4.44575
0
LINE
8
BLACK
6
CONTINUOUS
10
2.15596
20
-4.44575
11
2.15231
21
-4.44152
0
LINE
8
BLACK
6
CONTINUOUS
10
2.15231
20
-4.44152
11
2.15
21
-4.43644
0
LINE
8
BLACK
6
CONTINUOUS
10
2.15
20
-4.43644
11
2.14921
21
-4.43091
0
LINE
8
BLACK
6
CONTINUOUS
10
2.14921
20
-4.43091
11
2.14921
21
-4.38761
0
LINE
8
BLACK
6
CONTINUOUS
10
2.14921
20
-4.38761
11
2.14921
21
-4.38737
0
LINE
8
BLACK
6
CONTINUOUS
10
2.14921
20
-4.38737
11
2.15007
21
-4.38185
0
LINE
8
BLACK
6
CONTINUOUS
10
2.15007
20
-4.38185
11
2.15244
21
-4.3768
0
LINE
8
BLACK
6
CONTINUOUS
10
2.15244
20
-4.3768
11
2.15614
21
-4.37262
0
LINE
8
BLACK
6
CONTINUOUS
10
2.15614
20
-4.37262
11
2.16086
21
-4.36964
0
LINE
8
BLACK
6
CONTINUOUS
10
2.16086
20
-4.36964
11
2.16623
21
-4.3681
0
LINE
8
BLACK
6
CONTINUOUS
10
2.16623
20
-4.3681
11
2.17181
21
-4.36814
0
LINE
8
BLACK
6
CONTINUOUS
10
1.83165
20
-4.36814
11
1.837
21
-4.36974
0
LINE
8
BLACK
6
CONTINUOUS
10
1.837
20
-4.36974
11
1.84168
21
-4.37277
0
LINE
8
BLACK
6
CONTINUOUS
10
1.84168
20
-4.37277
11
1.84532
21
-4.377
0
LINE
8
BLACK
6
CONTINUOUS
10
1.84532
20
-4.377
11
1.84763
21
-4.38208
0
LINE
8
BLACK
6
CONTINUOUS
10
1.84763
20
-4.38208
11
1.84843
21
-4.38761
0
LINE
8
BLACK
6
CONTINUOUS
10
1.84843
20
-4.38761
11
1.84843
21
-4.43091
0
LINE
8
BLACK
6
CONTINUOUS
10
1.84843
20
-4.43091
11
1.84842
21
-4.43115
0
LINE
8
BLACK
6
CONTINUOUS
10
1.84842
20
-4.43115
11
1.84757
21
-4.43667
0
LINE
8
BLACK
6
CONTINUOUS
10
1.84757
20
-4.43667
11
1.84519
21
-4.44172
0
LINE
8
BLACK
6
CONTINUOUS
10
1.84519
20
-4.44172
11
1.8415
21
-4.44591
0
LINE
8
BLACK
6
CONTINUOUS
10
1.8415
20
-4.44591
11
1.83678
21
-4.44888
0
LINE
8
BLACK
6
CONTINUOUS
10
1.83678
20
-4.44888
11
1.83141
21
-4.45042
0
LINE
8
BLACK
6
CONTINUOUS
10
1.83141
20
-4.45042
11
1.82583
21
-4.45038
0
LINE
8
BLACK
6
CONTINUOUS
10
1.82583
20
-4.45038
11
1.82048
21
-4.44878
0
LINE
8
BLACK
6
CONTINUOUS
10
1.82048
20
-4.44878
11
1.8158
21
-4.44575
0
LINE
8
BLACK
6
CONTINUOUS
10
1.8158
20
-4.44575
11
1.81216
21
-4.44152
0
LINE
8
BLACK
6
CONTINUOUS
10
1.81216
20
-4.44152
11
1.80985
21
-4.43644
0
LINE
8
BLACK
6
CONTINUOUS
10
1.80985
20
-4.43644
11
1.80906
21
-4.43091
0
LINE
8
BLACK
6
CONTINUOUS
10
1.80906
20
-4.43091
11
1.80906
21
-4.38761
0
LINE
8
BLACK
6
CONTINUOUS
10
1.80906
20
-4.38761
11
1.80906
21
-4.38737
0
LINE
8
BLACK
6
CONTINUOUS
10
1.80906
20
-4.38737
11
1.80992
21
-4.38185
0
LINE
8
BLACK
6
CONTINUOUS
10
1.80992
20
-4.38185
11
1.81229
21
-4.3768
0
LINE
8
BLACK
6
CONTINUOUS
10
1.81229
20
-4.3768
11
1.81598
21
-4.37262
0
LINE
8
BLACK
6
CONTINUOUS
10
1.81598
20
-4.37262
11
1.8207
21
-4.36964
0
LINE
8
BLACK
6
CONTINUOUS
10
1.8207
20
-4.36964
11
1.82607
21
-4.3681
0
LINE
8
BLACK
6
CONTINUOUS
10
1.82607
20
-4.3681
11
1.83165
21
-4.36814
0
LINE
8
BLACK
6
CONTINUOUS
10
3.43359
20
-4.3693
11
3.43889
21
-4.37088
0
LINE
8
BLACK
6
CONTINUOUS
10
3.43889
20
-4.37088
11
3.44353
21
-4.37389
0
LINE
8
BLACK
6
CONTINUOUS
10
3.44353
20
-4.37389
11
3.44714
21
-4.37808
0
LINE
8
BLACK
6
CONTINUOUS
10
3.44714
20
-4.37808
11
3.44943
21
-4.38312
0
LINE
8
BLACK
6
CONTINUOUS
10
3.44943
20
-4.38312
11
3.45022
21
-4.38859
0
LINE
8
BLACK
6
CONTINUOUS
10
3.45022
20
-4.38859
11
3.45021
21
-4.38907
0
LINE
8
BLACK
6
CONTINUOUS
10
3.45021
20
-4.38907
11
3.44929
21
-4.39452
0
LINE
8
BLACK
6
CONTINUOUS
10
3.44929
20
-4.39452
11
3.44688
21
-4.3995
0
LINE
8
BLACK
6
CONTINUOUS
10
3.44688
20
-4.3995
11
3.44317
21
-4.4036
0
LINE
8
BLACK
6
CONTINUOUS
10
3.44317
20
-4.4036
11
3.43846
21
-4.4065
0
LINE
8
BLACK
6
CONTINUOUS
10
3.43846
20
-4.4065
11
3.43312
21
-4.40795
0
LINE
8
BLACK
6
CONTINUOUS
10
3.43312
20
-4.40795
11
3.42759
21
-4.40785
0
LINE
8
BLACK
6
CONTINUOUS
10
3.42759
20
-4.40785
11
3.42231
21
-4.4062
0
LINE
8
BLACK
6
CONTINUOUS
10
3.42231
20
-4.4062
11
3.41771
21
-4.40313
0
LINE
8
BLACK
6
CONTINUOUS
10
3.41771
20
-4.40313
11
3.41415
21
-4.3989
0
LINE
8
BLACK
6
CONTINUOUS
10
3.41415
20
-4.3989
11
3.41192
21
-4.39384
0
LINE
8
BLACK
6
CONTINUOUS
10
3.41192
20
-4.39384
11
3.4112
21
-4.38835
0
LINE
8
BLACK
6
CONTINUOUS
10
3.4112
20
-4.38835
11
3.41205
21
-4.38289
0
LINE
8
BLACK
6
CONTINUOUS
10
3.41205
20
-4.38289
11
3.4144
21
-4.37788
0
LINE
8
BLACK
6
CONTINUOUS
10
3.4144
20
-4.37788
11
3.41807
21
-4.37374
0
LINE
8
BLACK
6
CONTINUOUS
10
3.41807
20
-4.37374
11
3.42274
21
-4.37078
0
LINE
8
BLACK
6
CONTINUOUS
10
3.42274
20
-4.37078
11
3.42806
21
-4.36926
0
LINE
8
BLACK
6
CONTINUOUS
10
3.42806
20
-4.36926
11
3.43359
21
-4.3693
0
LINE
8
BLACK
6
CONTINUOUS
10
1.89144
20
-4.37849
11
1.89484
21
-4.38135
0
LINE
8
BLACK
6
CONTINUOUS
10
1.89484
20
-4.38135
11
1.89706
21
-4.3852
0
LINE
8
BLACK
6
CONTINUOUS
10
1.89706
20
-4.3852
11
1.89783
21
-4.38958
0
LINE
8
BLACK
6
CONTINUOUS
10
1.89783
20
-4.38958
11
1.89706
21
-4.39395
0
LINE
8
BLACK
6
CONTINUOUS
10
1.89706
20
-4.39395
11
1.89484
21
-4.3978
0
LINE
8
BLACK
6
CONTINUOUS
10
1.89484
20
-4.3978
11
1.89144
21
-4.40066
0
LINE
8
BLACK
6
CONTINUOUS
10
1.89144
20
-4.40066
11
1.88726
21
-4.40218
0
LINE
8
BLACK
6
CONTINUOUS
10
1.88726
20
-4.40218
11
1.88282
21
-4.40218
0
LINE
8
BLACK
6
CONTINUOUS
10
1.88282
20
-4.40218
11
1.87864
21
-4.40066
0
LINE
8
BLACK
6
CONTINUOUS
10
1.87864
20
-4.40066
11
1.87524
21
-4.3978
0
LINE
8
BLACK
6
CONTINUOUS
10
1.87524
20
-4.3978
11
1.87302
21
-4.39395
0
LINE
8
BLACK
6
CONTINUOUS
10
1.87302
20
-4.39395
11
1.87224
21
-4.38958
0
LINE
8
BLACK
6
CONTINUOUS
10
1.87224
20
-4.38958
11
1.87302
21
-4.3852
0
LINE
8
BLACK
6
CONTINUOUS
10
1.87302
20
-4.3852
11
1.87524
21
-4.38135
0
LINE
8
BLACK
6
CONTINUOUS
10
1.87524
20
-4.38135
11
1.87864
21
-4.37849
0
LINE
8
BLACK
6
CONTINUOUS
10
1.87864
20
-4.37849
11
1.88282
21
-4.37697
0
LINE
8
BLACK
6
CONTINUOUS
10
1.88282
20
-4.37697
11
1.88726
21
-4.37697
0
LINE
8
BLACK
6
CONTINUOUS
10
1.88726
20
-4.37697
11
1.89144
21
-4.37849
0
LINE
8
BLACK
6
CONTINUOUS
10
2.119
20
-4.37849
11
2.1224
21
-4.38135
0
LINE
8
BLACK
6
CONTINUOUS
10
2.1224
20
-4.38135
11
2.12462
21
-4.3852
0
LINE
8
BLACK
6
CONTINUOUS
10
2.12462
20
-4.3852
11
2.12539
21
-4.38958
0
LINE
8
BLACK
6
CONTINUOUS
10
2.12539
20
-4.38958
11
2.12462
21
-4.39395
0
LINE
8
BLACK
6
CONTINUOUS
10
2.12462
20
-4.39395
11
2.1224
21
-4.3978
0
LINE
8
BLACK
6
CONTINUOUS
10
2.1224
20
-4.3978
11
2.119
21
-4.40066
0
LINE
8
BLACK
6
CONTINUOUS
10
2.119
20
-4.40066
11
2.11482
21
-4.40218
0
LINE
8
BLACK
6
CONTINUOUS
10
2.11482
20
-4.40218
11
2.11038
21
-4.40218
0
LINE
8
BLACK
6
CONTINUOUS
10
2.11038
20
-4.40218
11
2.1062
21
-4.40066
0
LINE
8
BLACK
6
CONTINUOUS
10
2.1062
20
-4.40066
11
2.1028
21
-4.3978
0
LINE
8
BLACK
6
CONTINUOUS
10
2.1028
20
-4.3978
11
2.10057
21
-4.39395
0
LINE
8
BLACK
6
CONTINUOUS
10
2.10057
20
-4.39395
11
2.0998
21
-4.38958
0
LINE
8
BLACK
6
CONTINUOUS
10
2.0998
20
-4.38958
11
2.10057
21
-4.3852
0
LINE
8
BLACK
6
CONTINUOUS
10
2.10057
20
-4.3852
11
2.1028
21
-4.38135
0
LINE
8
BLACK
6
CONTINUOUS
10
2.1028
20
-4.38135
11
2.1062
21
-4.37849
0
LINE
8
BLACK
6
CONTINUOUS
10
2.1062
20
-4.37849
11
2.11038
21
-4.37697
0
LINE
8
BLACK
6
CONTINUOUS
10
2.11038
20
-4.37697
11
2.11482
21
-4.37697
0
LINE
8
BLACK
6
CONTINUOUS
10
2.11482
20
-4.37697
11
2.119
21
-4.37849
0
LINE
8
BLACK
6
CONTINUOUS
10
3.13359
20
-4.32934
11
3.13889
21
-4.33092
0
LINE
8
BLACK
6
CONTINUOUS
10
3.13889
20
-4.33092
11
3.14353
21
-4.33393
0
LINE
8
BLACK
6
CONTINUOUS
10
3.14353
20
-4.33393
11
3.14714
21
-4.33812
0
LINE
8
BLACK
6
CONTINUOUS
10
3.14714
20
-4.33812
11
3.14943
21
-4.34316
0
LINE
8
BLACK
6
CONTINUOUS
10
3.14943
20
-4.34316
11
3.15022
21
-4.34863
0
LINE
8
BLACK
6
CONTINUOUS
10
3.15022
20
-4.34863
11
3.15021
21
-4.34911
0
LINE
8
BLACK
6
CONTINUOUS
10
3.15021
20
-4.34911
11
3.14929
21
-4.35456
0
LINE
8
BLACK
6
CONTINUOUS
10
3.14929
20
-4.35456
11
3.14688
21
-4.35954
0
LINE
8
BLACK
6
CONTINUOUS
10
3.14688
20
-4.35954
11
3.14317
21
-4.36364
0
LINE
8
BLACK
6
CONTINUOUS
10
3.14317
20
-4.36364
11
3.13846
21
-4.36653
0
LINE
8
BLACK
6
CONTINUOUS
10
3.13846
20
-4.36653
11
3.13312
21
-4.36799
0
LINE
8
BLACK
6
CONTINUOUS
10
3.13312
20
-4.36799
11
3.12759
21
-4.36789
0
LINE
8
BLACK
6
CONTINUOUS
10
3.12759
20
-4.36789
11
3.12231
21
-4.36624
0
LINE
8
BLACK
6
CONTINUOUS
10
3.12231
20
-4.36624
11
3.11771
21
-4.36317
0
LINE
8
BLACK
6
CONTINUOUS
10
3.11771
20
-4.36317
11
3.11415
21
-4.35894
0
LINE
8
BLACK
6
CONTINUOUS
10
3.11415
20
-4.35894
11
3.11192
21
-4.35388
0
LINE
8
BLACK
6
CONTINUOUS
10
3.11192
20
-4.35388
11
3.1112
21
-4.34839
0
LINE
8
BLACK
6
CONTINUOUS
10
3.1112
20
-4.34839
11
3.11205
21
-4.34293
0
LINE
8
BLACK
6
CONTINUOUS
10
3.11205
20
-4.34293
11
3.1144
21
-4.33792
0
LINE
8
BLACK
6
CONTINUOUS
10
3.1144
20
-4.33792
11
3.11807
21
-4.33378
0
LINE
8
BLACK
6
CONTINUOUS
10
3.11807
20
-4.33378
11
3.12274
21
-4.33082
0
LINE
8
BLACK
6
CONTINUOUS
10
3.12274
20
-4.33082
11
3.12806
21
-4.3293
0
LINE
8
BLACK
6
CONTINUOUS
10
3.12806
20
-4.3293
11
3.13359
21
-4.32934
0
LINE
8
BLACK
6
CONTINUOUS
10
3.43359
20
-4.28938
11
3.43889
21
-4.29096
0
LINE
8
BLACK
6
CONTINUOUS
10
3.43889
20
-4.29096
11
3.44353
21
-4.29397
0
LINE
8
BLACK
6
CONTINUOUS
10
3.44353
20
-4.29397
11
3.44714
21
-4.29816
0
LINE
8
BLACK
6
CONTINUOUS
10
3.44714
20
-4.29816
11
3.44943
21
-4.3032
0
LINE
8
BLACK
6
CONTINUOUS
10
3.44943
20
-4.3032
11
3.45022
21
-4.30867
0
LINE
8
BLACK
6
CONTINUOUS
10
3.45022
20
-4.30867
11
3.45021
21
-4.30915
0
LINE
8
BLACK
6
CONTINUOUS
10
3.45021
20
-4.30915
11
3.44929
21
-4.3146
0
LINE
8
BLACK
6
CONTINUOUS
10
3.44929
20
-4.3146
11
3.44688
21
-4.31958
0
LINE
8
BLACK
6
CONTINUOUS
10
3.44688
20
-4.31958
11
3.44317
21
-4.32368
0
LINE
8
BLACK
6
CONTINUOUS
10
3.44317
20
-4.32368
11
3.43846
21
-4.32657
0
LINE
8
BLACK
6
CONTINUOUS
10
3.43846
20
-4.32657
11
3.43312
21
-4.32803
0
LINE
8
BLACK
6
CONTINUOUS
10
3.43312
20
-4.32803
11
3.42759
21
-4.32793
0
LINE
8
BLACK
6
CONTINUOUS
10
3.42759
20
-4.32793
11
3.42231
21
-4.32628
0
LINE
8
BLACK
6
CONTINUOUS
10
3.42231
20
-4.32628
11
3.41771
21
-4.32321
0
LINE
8
BLACK
6
CONTINUOUS
10
3.41771
20
-4.32321
11
3.41415
21
-4.31898
0
LINE
8
BLACK
6
CONTINUOUS
10
3.41415
20
-4.31898
11
3.41192
21
-4.31392
0
LINE
8
BLACK
6
CONTINUOUS
10
3.41192
20
-4.31392
11
3.4112
21
-4.30843
0
LINE
8
BLACK
6
CONTINUOUS
10
3.4112
20
-4.30843
11
3.41205
21
-4.30297
0
LINE
8
BLACK
6
CONTINUOUS
10
3.41205
20
-4.30297
11
3.4144
21
-4.29796
0
LINE
8
BLACK
6
CONTINUOUS
10
3.4144
20
-4.29796
11
3.41807
21
-4.29381
0
LINE
8
BLACK
6
CONTINUOUS
10
3.41807
20
-4.29381
11
3.42274
21
-4.29086
0
LINE
8
BLACK
6
CONTINUOUS
10
3.42274
20
-4.29086
11
3.42806
21
-4.28934
0
LINE
8
BLACK
6
CONTINUOUS
10
3.42806
20
-4.28934
11
3.43359
21
-4.28938
0
LINE
8
BLACK
6
CONTINUOUS
10
1.83165
20
-4.21341
11
1.837
21
-4.21501
0
LINE
8
BLACK
6
CONTINUOUS
10
1.837
20
-4.21501
11
1.84168
21
-4.21805
0
LINE
8
BLACK
6
CONTINUOUS
10
1.84168
20
-4.21805
11
1.84532
21
-4.22228
0
LINE
8
BLACK
6
CONTINUOUS
10
1.84532
20
-4.22228
11
1.84763
21
-4.22736
0
LINE
8
BLACK
6
CONTINUOUS
10
1.84763
20
-4.22736
11
1.84843
21
-4.23288
0
LINE
8
BLACK
6
CONTINUOUS
10
1.84843
20
-4.23288
11
1.84843
21
-4.25651
0
LINE
8
BLACK
6
CONTINUOUS
10
1.84843
20
-4.25651
11
1.84842
21
-4.25675
0
LINE
8
BLACK
6
CONTINUOUS
10
1.84842
20
-4.25675
11
1.84757
21
-4.26226
0
LINE
8
BLACK
6
CONTINUOUS
10
1.84757
20
-4.26226
11
1.84519
21
-4.26731
0
LINE
8
BLACK
6
CONTINUOUS
10
1.84519
20
-4.26731
11
1.8415
21
-4.2715
0
LINE
8
BLACK
6
CONTINUOUS
10
1.8415
20
-4.2715
11
1.83678
21
-4.27447
0
LINE
8
BLACK
6
CONTINUOUS
10
1.83678
20
-4.27447
11
1.83141
21
-4.27601
0
LINE
8
BLACK
6
CONTINUOUS
10
1.83141
20
-4.27601
11
1.82583
21
-4.27597
0
LINE
8
BLACK
6
CONTINUOUS
10
1.82583
20
-4.27597
11
1.82048
21
-4.27437
0
LINE
8
BLACK
6
CONTINUOUS
10
1.82048
20
-4.27437
11
1.8158
21
-4.27134
0
LINE
8
BLACK
6
CONTINUOUS
10
1.8158
20
-4.27134
11
1.81216
21
-4.26711
0
LINE
8
BLACK
6
CONTINUOUS
10
1.81216
20
-4.26711
11
1.80985
21
-4.26203
0
LINE
8
BLACK
6
CONTINUOUS
10
1.80985
20
-4.26203
11
1.80906
21
-4.25651
0
LINE
8
BLACK
6
CONTINUOUS
10
1.80906
20
-4.25651
11
1.80906
21
-4.23288
0
LINE
8
BLACK
6
CONTINUOUS
10
1.80906
20
-4.23288
11
1.80906
21
-4.23264
0
LINE
8
BLACK
6
CONTINUOUS
10
1.80906
20
-4.23264
11
1.80992
21
-4.22713
0
LINE
8
BLACK
6
CONTINUOUS
10
1.80992
20
-4.22713
11
1.81229
21
-4.22208
0
LINE
8
BLACK
6
CONTINUOUS
10
1.81229
20
-4.22208
11
1.81598
21
-4.21789
0
LINE
8
BLACK
6
CONTINUOUS
10
1.81598
20
-4.21789
11
1.8207
21
-4.21491
0
LINE
8
BLACK
6
CONTINUOUS
10
1.8207
20
-4.21491
11
1.82607
21
-4.21338
0
LINE
8
BLACK
6
CONTINUOUS
10
1.82607
20
-4.21338
11
1.83165
21
-4.21341
0
LINE
8
BLACK
6
CONTINUOUS
10
2.17181
20
-4.21341
11
2.17715
21
-4.21501
0
LINE
8
BLACK
6
CONTINUOUS
10
2.17715
20
-4.21501
11
2.18184
21
-4.21805
0
LINE
8
BLACK
6
CONTINUOUS
10
2.18184
20
-4.21805
11
2.18548
21
-4.22228
0
LINE
8
BLACK
6
CONTINUOUS
10
2.18548
20
-4.22228
11
2.18779
21
-4.22736
0
LINE
8
BLACK
6
CONTINUOUS
10
2.18779
20
-4.22736
11
2.18858
21
-4.23288
0
LINE
8
BLACK
6
CONTINUOUS
10
2.18858
20
-4.23288
11
2.18858
21
-4.25651
0
LINE
8
BLACK
6
CONTINUOUS
10
2.18858
20
-4.25651
11
2.18858
21
-4.25675
0
LINE
8
BLACK
6
CONTINUOUS
10
2.18858
20
-4.25675
11
2.18772
21
-4.26226
0
LINE
8
BLACK
6
CONTINUOUS
10
2.18772
20
-4.26226
11
2.18535
21
-4.26731
0
LINE
8
BLACK
6
CONTINUOUS
10
2.18535
20
-4.26731
11
2.18166
21
-4.2715
0
LINE
8
BLACK
6
CONTINUOUS
10
2.18166
20
-4.2715
11
2.17694
21
-4.27447
0
LINE
8
BLACK
6
CONTINUOUS
10
2.17694
20
-4.27447
11
2.17157
21
-4.27601
0
LINE
8
BLACK
6
CONTINUOUS
10
2.17157
20
-4.27601
11
2.16599
21
-4.27597
0
LINE
8
BLACK
6
CONTINUOUS
10
2.16599
20
-4.27597
11
2.16064
21
-4.27437
0
LINE
8
BLACK
6
CONTINUOUS
10
2.16064
20
-4.27437
11
2.15596
21
-4.27134
0
LINE
8
BLACK
6
CONTINUOUS
10
2.15596
20
-4.27134
11
2.15231
21
-4.26711
0
LINE
8
BLACK
6
CONTINUOUS
10
2.15231
20
-4.26711
11
2.15
21
-4.26203
0
LINE
8
BLACK
6
CONTINUOUS
10
2.15
20
-4.26203
11
2.14921
21
-4.25651
0
LINE
8
BLACK
6
CONTINUOUS
10
2.14921
20
-4.25651
11
2.14921
21
-4.23288
0
LINE
8
BLACK
6
CONTINUOUS
10
2.14921
20
-4.23288
11
2.14921
21
-4.23264
0
LINE
8
BLACK
6
CONTINUOUS
10
2.14921
20
-4.23264
11
2.15007
21
-4.22713
0
LINE
8
BLACK
6
CONTINUOUS
10
2.15007
20
-4.22713
11
2.15244
21
-4.22208
0
LINE
8
BLACK
6
CONTINUOUS
10
2.15244
20
-4.22208
11
2.15614
21
-4.21789
0
LINE
8
BLACK
6
CONTINUOUS
10
2.15614
20
-4.21789
11
2.16086
21
-4.21491
0
LINE
8
BLACK
6
CONTINUOUS
10
2.16086
20
-4.21491
11
2.16623
21
-4.21338
0
LINE
8
BLACK
6
CONTINUOUS
10
2.16623
20
-4.21338
11
2.17181
21
-4.21341
0
LINE
8
BLACK
6
CONTINUOUS
10
2.75586
20
-4.21183
11
2.76121
21
-4.21343
0
LINE
8
BLACK
6
CONTINUOUS
10
2.76121
20
-4.21343
11
2.76589
21
-4.21647
0
LINE
8
BLACK
6
CONTINUOUS
10
2.76589
20
-4.21647
11
2.76954
21
-4.22069
0
LINE
8
BLACK
6
CONTINUOUS
10
2.76954
20
-4.22069
11
2.77185
21
-4.22577
0
LINE
8
BLACK
6
CONTINUOUS
10
2.77185
20
-4.22577
11
2.77264
21
-4.2313
0
LINE
8
BLACK
6
CONTINUOUS
10
2.77264
20
-4.2313
11
2.77263
21
-4.23178
0
LINE
8
BLACK
6
CONTINUOUS
10
2.77263
20
-4.23178
11
2.77171
21
-4.23728
0
LINE
8
BLACK
6
CONTINUOUS
10
2.77171
20
-4.23728
11
2.76927
21
-4.24231
0
LINE
8
BLACK
6
CONTINUOUS
10
2.76927
20
-4.24231
11
2.76553
21
-4.24644
0
LINE
8
BLACK
6
CONTINUOUS
10
2.76553
20
-4.24644
11
2.76077
21
-4.24937
0
LINE
8
BLACK
6
CONTINUOUS
10
2.76077
20
-4.24937
11
2.75539
21
-4.25083
0
LINE
8
BLACK
6
CONTINUOUS
10
2.75539
20
-4.25083
11
2.74981
21
-4.25073
0
LINE
8
BLACK
6
CONTINUOUS
10
2.74981
20
-4.25073
11
2.74448
21
-4.24907
0
LINE
8
BLACK
6
CONTINUOUS
10
2.74448
20
-4.24907
11
2.73983
21
-4.24597
0
LINE
8
BLACK
6
CONTINUOUS
10
2.73983
20
-4.24597
11
2.73624
21
-4.2417
0
LINE
8
BLACK
6
CONTINUOUS
10
2.73624
20
-4.2417
11
2.73399
21
-4.23659
0
LINE
8
BLACK
6
CONTINUOUS
10
2.73399
20
-4.23659
11
2.73327
21
-4.23106
0
LINE
8
BLACK
6
CONTINUOUS
10
2.73327
20
-4.23106
11
2.73413
21
-4.22554
0
LINE
8
BLACK
6
CONTINUOUS
10
2.73413
20
-4.22554
11
2.7365
21
-4.22049
0
LINE
8
BLACK
6
CONTINUOUS
10
2.7365
20
-4.22049
11
2.74019
21
-4.21631
0
LINE
8
BLACK
6
CONTINUOUS
10
2.74019
20
-4.21631
11
2.74491
21
-4.21333
0
LINE
8
BLACK
6
CONTINUOUS
10
2.74491
20
-4.21333
11
2.75028
21
-4.2118
0
LINE
8
BLACK
6
CONTINUOUS
10
2.75028
20
-4.2118
11
2.75586
21
-4.21183
0
LINE
8
BLACK
6
CONTINUOUS
10
2.59838
20
-4.21183
11
2.60373
21
-4.21343
0
LINE
8
BLACK
6
CONTINUOUS
10
2.60373
20
-4.21343
11
2.60841
21
-4.21647
0
LINE
8
BLACK
6
CONTINUOUS
10
2.60841
20
-4.21647
11
2.61206
21
-4.22069
0
LINE
8
BLACK
6
CONTINUOUS
10
2.61206
20
-4.22069
11
2.61437
21
-4.22577
0
LINE
8
BLACK
6
CONTINUOUS
10
2.61437
20
-4.22577
11
2.61516
21
-4.2313
0
LINE
8
BLACK
6
CONTINUOUS
10
2.61516
20
-4.2313
11
2.61515
21
-4.23178
0
LINE
8
BLACK
6
CONTINUOUS
10
2.61515
20
-4.23178
11
2.61423
21
-4.23728
0
LINE
8
BLACK
6
CONTINUOUS
10
2.61423
20
-4.23728
11
2.61179
21
-4.24231
0
LINE
8
BLACK
6
CONTINUOUS
10
2.61179
20
-4.24231
11
2.60805
21
-4.24644
0
LINE
8
BLACK
6
CONTINUOUS
10
2.60805
20
-4.24644
11
2.60329
21
-4.24937
0
LINE
8
BLACK
6
CONTINUOUS
10
2.60329
20
-4.24937
11
2.59791
21
-4.25083
0
LINE
8
BLACK
6
CONTINUOUS
10
2.59791
20
-4.25083
11
2.59233
21
-4.25073
0
LINE
8
BLACK
6
CONTINUOUS
10
2.59233
20
-4.25073
11
2.587
21
-4.24907
0
LINE
8
BLACK
6
CONTINUOUS
10
2.587
20
-4.24907
11
2.58235
21
-4.24597
0
LINE
8
BLACK
6
CONTINUOUS
10
2.58235
20
-4.24597
11
2.57876
21
-4.2417
0
LINE
8
BLACK
6
CONTINUOUS
10
2.57876
20
-4.2417
11
2.57651
21
-4.23659
0
LINE
8
BLACK
6
CONTINUOUS
10
2.57651
20
-4.23659
11
2.57579
21
-4.23106
0
LINE
8
BLACK
6
CONTINUOUS
10
2.57579
20
-4.23106
11
2.57665
21
-4.22554
0
LINE
8
BLACK
6
CONTINUOUS
10
2.57665
20
-4.22554
11
2.57902
21
-4.22049
0
LINE
8
BLACK
6
CONTINUOUS
10
2.57902
20
-4.22049
11
2.58271
21
-4.21631
0
LINE
8
BLACK
6
CONTINUOUS
10
2.58271
20
-4.21631
11
2.58743
21
-4.21333
0
LINE
8
BLACK
6
CONTINUOUS
10
2.58743
20
-4.21333
11
2.5928
21
-4.2118
0
LINE
8
BLACK
6
CONTINUOUS
10
2.5928
20
-4.2118
11
2.59838
21
-4.21183
0
LINE
8
BLACK
6
CONTINUOUS
10
2.51964
20
-4.21183
11
2.52499
21
-4.21343
0
LINE
8
BLACK
6
CONTINUOUS
10
2.52499
20
-4.21343
11
2.52967
21
-4.21647
0
LINE
8
BLACK
6
CONTINUOUS
10
2.52967
20
-4.21647
11
2.53332
21
-4.22069
0
LINE
8
BLACK
6
CONTINUOUS
10
2.53332
20
-4.22069
11
2.53563
21
-4.22577
0
LINE
8
BLACK
6
CONTINUOUS
10
2.53563
20
-4.22577
11
2.53642
21
-4.2313
0
LINE
8
BLACK
6
CONTINUOUS
10
2.53642
20
-4.2313
11
2.53641
21
-4.23178
0
LINE
8
BLACK
6
CONTINUOUS
10
2.53641
20
-4.23178
11
2.53549
21
-4.23728
0
LINE
8
BLACK
6
CONTINUOUS
10
2.53549
20
-4.23728
11
2.53305
21
-4.24231
0
LINE
8
BLACK
6
CONTINUOUS
10
2.53305
20
-4.24231
11
2.52931
21
-4.24644
0
LINE
8
BLACK
6
CONTINUOUS
10
2.52931
20
-4.24644
11
2.52455
21
-4.24937
0
LINE
8
BLACK
6
CONTINUOUS
10
2.52455
20
-4.24937
11
2.51917
21
-4.25083
0
LINE
8
BLACK
6
CONTINUOUS
10
2.51917
20
-4.25083
11
2.51358
21
-4.25073
0
LINE
8
BLACK
6
CONTINUOUS
10
2.51358
20
-4.25073
11
2.50826
21
-4.24907
0
LINE
8
BLACK
6
CONTINUOUS
10
2.50826
20
-4.24907
11
2.50361
21
-4.24597
0
LINE
8
BLACK
6
CONTINUOUS
10
2.50361
20
-4.24597
11
2.50002
21
-4.2417
0
LINE
8
BLACK
6
CONTINUOUS
10
2.50002
20
-4.2417
11
2.49777
21
-4.23659
0
LINE
8
BLACK
6
CONTINUOUS
10
2.49777
20
-4.23659
11
2.49705
21
-4.23106
0
LINE
8
BLACK
6
CONTINUOUS
10
2.49705
20
-4.23106
11
2.49791
21
-4.22554
0
LINE
8
BLACK
6
CONTINUOUS
10
2.49791
20
-4.22554
11
2.50028
21
-4.22049
0
LINE
8
BLACK
6
CONTINUOUS
10
2.50028
20
-4.22049
11
2.50397
21
-4.21631
0
LINE
8
BLACK
6
CONTINUOUS
10
2.50397
20
-4.21631
11
2.50869
21
-4.21333
0
LINE
8
BLACK
6
CONTINUOUS
10
2.50869
20
-4.21333
11
2.51406
21
-4.2118
0
LINE
8
BLACK
6
CONTINUOUS
10
2.51406
20
-4.2118
11
2.51964
21
-4.21183
0
LINE
8
BLACK
6
CONTINUOUS
10
2.4409
20
-4.21183
11
2.44625
21
-4.21343
0
LINE
8
BLACK
6
CONTINUOUS
10
2.44625
20
-4.21343
11
2.45093
21
-4.21647
0
LINE
8
BLACK
6
CONTINUOUS
10
2.45093
20
-4.21647
11
2.45458
21
-4.22069
0
LINE
8
BLACK
6
CONTINUOUS
10
2.45458
20
-4.22069
11
2.45689
21
-4.22577
0
LINE
8
BLACK
6
CONTINUOUS
10
2.45689
20
-4.22577
11
2.45768
21
-4.2313
0
LINE
8
BLACK
6
CONTINUOUS
10
2.45768
20
-4.2313
11
2.45767
21
-4.23178
0
LINE
8
BLACK
6
CONTINUOUS
10
2.45767
20
-4.23178
11
2.45675
21
-4.23728
0
LINE
8
BLACK
6
CONTINUOUS
10
2.45675
20
-4.23728
11
2.45431
21
-4.24231
0
LINE
8
BLACK
6
CONTINUOUS
10
2.45431
20
-4.24231
11
2.45057
21
-4.24644
0
LINE
8
BLACK
6
CONTINUOUS
10
2.45057
20
-4.24644
11
2.44581
21
-4.24937
0
LINE
8
BLACK
6
CONTINUOUS
10
2.44581
20
-4.24937
11
2.44043
21
-4.25083
0
LINE
8
BLACK
6
CONTINUOUS
10
2.44043
20
-4.25083
11
2.43484
21
-4.25073
0
LINE
8
BLACK
6
CONTINUOUS
10
2.43484
20
-4.25073
11
2.42952
21
-4.24907
0
LINE
8
BLACK
6
CONTINUOUS
10
2.42952
20
-4.24907
11
2.42487
21
-4.24597
0
LINE
8
BLACK
6
CONTINUOUS
10
2.42487
20
-4.24597
11
2.42128
21
-4.2417
0
LINE
8
BLACK
6
CONTINUOUS
10
2.42128
20
-4.2417
11
2.41903
21
-4.23659
0
LINE
8
BLACK
6
CONTINUOUS
10
2.41903
20
-4.23659
11
2.41831
21
-4.23106
0
LINE
8
BLACK
6
CONTINUOUS
10
2.41831
20
-4.23106
11
2.41917
21
-4.22554
0
LINE
8
BLACK
6
CONTINUOUS
10
2.41917
20
-4.22554
11
2.42154
21
-4.22049
0
LINE
8
BLACK
6
CONTINUOUS
10
2.42154
20
-4.22049
11
2.42523
21
-4.21631
0
LINE
8
BLACK
6
CONTINUOUS
10
2.42523
20
-4.21631
11
2.42995
21
-4.21333
0
LINE
8
BLACK
6
CONTINUOUS
10
2.42995
20
-4.21333
11
2.43532
21
-4.2118
0
LINE
8
BLACK
6
CONTINUOUS
10
2.43532
20
-4.2118
11
2.4409
21
-4.21183
0
LINE
8
BLACK
6
CONTINUOUS
10
2.67712
20
-4.21183
11
2.68247
21
-4.21343
0
LINE
8
BLACK
6
CONTINUOUS
10
2.68247
20
-4.21343
11
2.68715
21
-4.21647
0
LINE
8
BLACK
6
CONTINUOUS
10
2.68715
20
-4.21647
11
2.6908
21
-4.22069
0
LINE
8
BLACK
6
CONTINUOUS
10
2.6908
20
-4.22069
11
2.69311
21
-4.22577
0
LINE
8
BLACK
6
CONTINUOUS
10
2.69311
20
-4.22577
11
2.6939
21
-4.2313
0
LINE
8
BLACK
6
CONTINUOUS
10
2.6939
20
-4.2313
11
2.69389
21
-4.23178
0
LINE
8
BLACK
6
CONTINUOUS
10
2.69389
20
-4.23178
11
2.69297
21
-4.23728
0
LINE
8
BLACK
6
CONTINUOUS
10
2.69297
20
-4.23728
11
2.69053
21
-4.24231
0
LINE
8
BLACK
6
CONTINUOUS
10
2.69053
20
-4.24231
11
2.68679
21
-4.24644
0
LINE
8
BLACK
6
CONTINUOUS
10
2.68679
20
-4.24644
11
2.68203
21
-4.24937
0
LINE
8
BLACK
6
CONTINUOUS
10
2.68203
20
-4.24937
11
2.67665
21
-4.25083
0
LINE
8
BLACK
6
CONTINUOUS
10
2.67665
20
-4.25083
11
2.67107
21
-4.25073
0
LINE
8
BLACK
6
CONTINUOUS
10
2.67107
20
-4.25073
11
2.66574
21
-4.24907
0
LINE
8
BLACK
6
CONTINUOUS
10
2.66574
20
-4.24907
11
2.66109
21
-4.24597
0
LINE
8
BLACK
6
CONTINUOUS
10
2.66109
20
-4.24597
11
2.6575
21
-4.2417
0
LINE
8
BLACK
6
CONTINUOUS
10
2.6575
20
-4.2417
11
2.65525
21
-4.23659
0
LINE
8
BLACK
6
CONTINUOUS
10
2.65525
20
-4.23659
11
2.65453
21
-4.23106
0
LINE
8
BLACK
6
CONTINUOUS
10
2.65453
20
-4.23106
11
2.65539
21
-4.22554
0
LINE
8
BLACK
6
CONTINUOUS
10
2.65539
20
-4.22554
11
2.65776
21
-4.22049
0
LINE
8
BLACK
6
CONTINUOUS
10
2.65776
20
-4.22049
11
2.66145
21
-4.21631
0
LINE
8
BLACK
6
CONTINUOUS
10
2.66145
20
-4.21631
11
2.66617
21
-4.21333
0
LINE
8
BLACK
6
CONTINUOUS
10
2.66617
20
-4.21333
11
2.67154
21
-4.2118
0
LINE
8
BLACK
6
CONTINUOUS
10
2.67154
20
-4.2118
11
2.67712
21
-4.21183
0
LINE
8
BLACK
6
CONTINUOUS
10
3.55989
20
-4.18976
11
3.56609
21
-4.19196
0
LINE
8
BLACK
6
CONTINUOUS
10
3.56609
20
-4.19196
11
3.57165
21
-4.19549
0
LINE
8
BLACK
6
CONTINUOUS
10
3.57165
20
-4.19549
11
3.57629
21
-4.20016
0
LINE
8
BLACK
6
CONTINUOUS
10
3.57629
20
-4.20016
11
3.57978
21
-4.20575
0
LINE
8
BLACK
6
CONTINUOUS
10
3.57978
20
-4.20575
11
3.58194
21
-4.21196
0
LINE
8
BLACK
6
CONTINUOUS
10
3.58194
20
-4.21196
11
3.58268
21
-4.2185
0
LINE
8
BLACK
6
CONTINUOUS
10
3.58268
20
-4.2185
11
3.58267
21
-4.21933
0
LINE
8
BLACK
6
CONTINUOUS
10
3.58267
20
-4.21933
11
3.58175
21
-4.22585
0
LINE
8
BLACK
6
CONTINUOUS
10
3.58175
20
-4.22585
11
3.57941
21
-4.232
0
LINE
8
BLACK
6
CONTINUOUS
10
3.57941
20
-4.232
11
3.57577
21
-4.23748
0
LINE
8
BLACK
6
CONTINUOUS
10
3.57577
20
-4.23748
11
3.571
21
-4.24202
0
LINE
8
BLACK
6
CONTINUOUS
10
3.571
20
-4.24202
11
3.56535
21
-4.24539
0
LINE
8
BLACK
6
CONTINUOUS
10
3.56535
20
-4.24539
11
3.55909
21
-4.24743
0
LINE
8
BLACK
6
CONTINUOUS
10
3.55909
20
-4.24743
11
3.55253
21
-4.24803
0
LINE
8
BLACK
6
CONTINUOUS
10
3.55253
20
-4.24803
11
3.54601
21
-4.24715
0
LINE
8
BLACK
6
CONTINUOUS
10
3.54601
20
-4.24715
11
3.53984
21
-4.24486
0
LINE
8
BLACK
6
CONTINUOUS
10
3.53984
20
-4.24486
11
3.53433
21
-4.24126
0
LINE
8
BLACK
6
CONTINUOUS
10
3.53433
20
-4.24126
11
3.52976
21
-4.23652
0
LINE
8
BLACK
6
CONTINUOUS
10
3.52976
20
-4.23652
11
3.52635
21
-4.23089
0
LINE
8
BLACK
6
CONTINUOUS
10
3.52635
20
-4.23089
11
3.52427
21
-4.22464
0
LINE
8
BLACK
6
CONTINUOUS
10
3.52427
20
-4.22464
11
3.52362
21
-4.21809
0
LINE
8
BLACK
6
CONTINUOUS
10
3.52362
20
-4.21809
11
3.52445
21
-4.21156
0
LINE
8
BLACK
6
CONTINUOUS
10
3.52445
20
-4.21156
11
3.5267
21
-4.20537
0
LINE
8
BLACK
6
CONTINUOUS
10
3.5267
20
-4.20537
11
3.53027
21
-4.19984
0
LINE
8
BLACK
6
CONTINUOUS
10
3.53027
20
-4.19984
11
3.53497
21
-4.19524
0
LINE
8
BLACK
6
CONTINUOUS
10
3.53497
20
-4.19524
11
3.54058
21
-4.19179
0
LINE
8
BLACK
6
CONTINUOUS
10
3.54058
20
-4.19179
11
3.54681
21
-4.18967
0
LINE
8
BLACK
6
CONTINUOUS
10
3.54681
20
-4.18967
11
3.55336
21
-4.18898
0
LINE
8
BLACK
6
CONTINUOUS
10
3.55336
20
-4.18898
11
3.55989
21
-4.18976
0
LINE
8
BLACK
6
CONTINUOUS
10
1.21209
20
-4.06767
11
1.2232
21
-4.06988
0
LINE
8
BLACK
6
CONTINUOUS
10
1.2232
20
-4.06988
11
1.23393
21
-4.07352
0
LINE
8
BLACK
6
CONTINUOUS
10
1.23393
20
-4.07352
11
1.24409
21
-4.07853
0
LINE
8
BLACK
6
CONTINUOUS
10
1.24409
20
-4.07853
11
1.25351
21
-4.08483
0
LINE
8
BLACK
6
CONTINUOUS
10
1.25351
20
-4.08483
11
1.26203
21
-4.0923
0
LINE
8
BLACK
6
CONTINUOUS
10
1.26203
20
-4.0923
11
1.2695
21
-4.10082
0
LINE
8
BLACK
6
CONTINUOUS
10
1.2695
20
-4.10082
11
1.2758
21
-4.11024
0
LINE
8
BLACK
6
CONTINUOUS
10
1.2758
20
-4.11024
11
1.28081
21
-4.1204
0
LINE
8
BLACK
6
CONTINUOUS
10
1.28081
20
-4.1204
11
1.28445
21
-4.13113
0
LINE
8
BLACK
6
CONTINUOUS
10
1.28445
20
-4.13113
11
1.28666
21
-4.14224
0
LINE
8
BLACK
6
CONTINUOUS
10
1.28666
20
-4.14224
11
1.2874
21
-4.15354
0
LINE
8
BLACK
6
CONTINUOUS
10
1.2874
20
-4.15354
11
1.28666
21
-4.16485
0
LINE
8
BLACK
6
CONTINUOUS
10
1.28666
20
-4.16485
11
1.28445
21
-4.17596
0
LINE
8
BLACK
6
CONTINUOUS
10
1.28445
20
-4.17596
11
1.28081
21
-4.18669
0
LINE
8
BLACK
6
CONTINUOUS
10
1.28081
20
-4.18669
11
1.2758
21
-4.19685
0
LINE
8
BLACK
6
CONTINUOUS
10
1.2758
20
-4.19685
11
1.2695
21
-4.20627
0
LINE
8
BLACK
6
CONTINUOUS
10
1.2695
20
-4.20627
11
1.26203
21
-4.21479
0
LINE
8
BLACK
6
CONTINUOUS
10
1.26203
20
-4.21479
11
1.25351
21
-4.22226
0
LINE
8
BLACK
6
CONTINUOUS
10
1.25351
20
-4.22226
11
1.24409
21
-4.22855
0
LINE
8
BLACK
6
CONTINUOUS
10
1.24409
20
-4.22855
11
1.23393
21
-4.23356
0
LINE
8
BLACK
6
CONTINUOUS
10
1.23393
20
-4.23356
11
1.2232
21
-4.23721
0
LINE
8
BLACK
6
CONTINUOUS
10
1.2232
20
-4.23721
11
1.21209
21
-4.23942
0
LINE
8
BLACK
6
CONTINUOUS
10
1.21209
20
-4.23942
11
1.20079
21
-4.24016
0
LINE
8
BLACK
6
CONTINUOUS
10
1.20079
20
-4.24016
11
1.18948
21
-4.23942
0
LINE
8
BLACK
6
CONTINUOUS
10
1.18948
20
-4.23942
11
1.17837
21
-4.23721
0
LINE
8
BLACK
6
CONTINUOUS
10
1.17837
20
-4.23721
11
1.16764
21
-4.23356
0
LINE
8
BLACK
6
CONTINUOUS
10
1.16764
20
-4.23356
11
1.15748
21
-4.22855
0
LINE
8
BLACK
6
CONTINUOUS
10
1.15748
20
-4.22855
11
1.14806
21
-4.22226
0
LINE
8
BLACK
6
CONTINUOUS
10
1.14806
20
-4.22226
11
1.13954
21
-4.21479
0
LINE
8
BLACK
6
CONTINUOUS
10
1.13954
20
-4.21479
11
1.13207
21
-4.20627
0
LINE
8
BLACK
6
CONTINUOUS
10
1.13207
20
-4.20627
11
1.12578
21
-4.19685
0
LINE
8
BLACK
6
CONTINUOUS
10
1.12578
20
-4.19685
11
1.12077
21
-4.18669
0
LINE
8
BLACK
6
CONTINUOUS
10
1.12077
20
-4.18669
11
1.11712
21
-4.17596
0
LINE
8
BLACK
6
CONTINUOUS
10
1.11712
20
-4.17596
11
1.11491
21
-4.16485
0
LINE
8
BLACK
6
CONTINUOUS
10
1.11491
20
-4.16485
11
1.11417
21
-4.15354
0
LINE
8
BLACK
6
CONTINUOUS
10
1.11417
20
-4.15354
11
1.11491
21
-4.14224
0
LINE
8
BLACK
6
CONTINUOUS
10
1.11491
20
-4.14224
11
1.11712
21
-4.13113
0
LINE
8
BLACK
6
CONTINUOUS
10
1.11712
20
-4.13113
11
1.12077
21
-4.1204
0
LINE
8
BLACK
6
CONTINUOUS
10
1.12077
20
-4.1204
11
1.12578
21
-4.11024
0
LINE
8
BLACK
6
CONTINUOUS
10
1.12578
20
-4.11024
11
1.13207
21
-4.10082
0
LINE
8
BLACK
6
CONTINUOUS
10
1.13207
20
-4.10082
11
1.13954
21
-4.0923
0
LINE
8
BLACK
6
CONTINUOUS
10
1.13954
20
-4.0923
11
1.14806
21
-4.08483
0
LINE
8
BLACK
6
CONTINUOUS
10
1.14806
20
-4.08483
11
1.15748
21
-4.07853
0
LINE
8
BLACK
6
CONTINUOUS
10
1.15748
20
-4.07853
11
1.16764
21
-4.07352
0
LINE
8
BLACK
6
CONTINUOUS
10
1.16764
20
-4.07352
11
1.17837
21
-4.06988
0
LINE
8
BLACK
6
CONTINUOUS
10
1.17837
20
-4.06988
11
1.18948
21
-4.06767
0
LINE
8
BLACK
6
CONTINUOUS
10
1.18948
20
-4.06767
11
1.20079
21
-4.06693
0
LINE
8
BLACK
6
CONTINUOUS
10
1.20079
20
-4.06693
11
1.21209
21
-4.06767
0
LINE
8
BLACK
6
CONTINUOUS
10
4.04674
20
-4.06767
11
4.05785
21
-4.06988
0
LINE
8
BLACK
6
CONTINUOUS
10
4.05785
20
-4.06988
11
4.06858
21
-4.07352
0
LINE
8
BLACK
6
CONTINUOUS
10
4.06858
20
-4.07352
11
4.07874
21
-4.07853
0
LINE
8
BLACK
6
CONTINUOUS
10
4.07874
20
-4.07853
11
4.08816
21
-4.08483
0
LINE
8
BLACK
6
CONTINUOUS
10
4.08816
20
-4.08483
11
4.09668
21
-4.0923
0
LINE
8
BLACK
6
CONTINUOUS
10
4.09668
20
-4.0923
11
4.10415
21
-4.10082
0
LINE
8
BLACK
6
CONTINUOUS
10
4.10415
20
-4.10082
11
4.11044
21
-4.11024
0
LINE
8
BLACK
6
CONTINUOUS
10
4.11044
20
-4.11024
11
4.11545
21
-4.1204
0
LINE
8
BLACK
6
CONTINUOUS
10
4.11545
20
-4.1204
11
4.1191
21
-4.13113
0
LINE
8
BLACK
6
CONTINUOUS
10
4.1191
20
-4.13113
11
4.12131
21
-4.14224
0
LINE
8
BLACK
6
CONTINUOUS
10
4.12131
20
-4.14224
11
4.12205
21
-4.15354
0
LINE
8
BLACK
6
CONTINUOUS
10
4.12205
20
-4.15354
11
4.12131
21
-4.16485
0
LINE
8
BLACK
6
CONTINUOUS
10
4.12131
20
-4.16485
11
4.1191
21
-4.17596
0
LINE
8
BLACK
6
CONTINUOUS
10
4.1191
20
-4.17596
11
4.11545
21
-4.18669
0
LINE
8
BLACK
6
CONTINUOUS
10
4.11545
20
-4.18669
11
4.11044
21
-4.19685
0
LINE
8
BLACK
6
CONTINUOUS
10
4.11044
20
-4.19685
11
4.10415
21
-4.20627
0
LINE
8
BLACK
6
CONTINUOUS
10
4.10415
20
-4.20627
11
4.09668
21
-4.21479
0
LINE
8
BLACK
6
CONTINUOUS
10
4.09668
20
-4.21479
11
4.08816
21
-4.22226
0
LINE
8
BLACK
6
CONTINUOUS
10
4.08816
20
-4.22226
11
4.07874
21
-4.22855
0
LINE
8
BLACK
6
CONTINUOUS
10
4.07874
20
-4.22855
11
4.06858
21
-4.23356
0
LINE
8
BLACK
6
CONTINUOUS
10
4.06858
20
-4.23356
11
4.05785
21
-4.23721
0
LINE
8
BLACK
6
CONTINUOUS
10
4.05785
20
-4.23721
11
4.04674
21
-4.23942
0
LINE
8
BLACK
6
CONTINUOUS
10
4.04674
20
-4.23942
11
4.03543
21
-4.24016
0
LINE
8
BLACK
6
CONTINUOUS
10
4.03543
20
-4.24016
11
4.02413
21
-4.23942
0
LINE
8
BLACK
6
CONTINUOUS
10
4.02413
20
-4.23942
11
4.01302
21
-4.23721
0
LINE
8
BLACK
6
CONTINUOUS
10
4.01302
20
-4.23721
11
4.00229
21
-4.23356
0
LINE
8
BLACK
6
CONTINUOUS
10
4.00229
20
-4.23356
11
3.99213
21
-4.22855
0
LINE
8
BLACK
6
CONTINUOUS
10
3.99213
20
-4.22855
11
3.98271
21
-4.22226
0
LINE
8
BLACK
6
CONTINUOUS
10
3.98271
20
-4.22226
11
3.97419
21
-4.21479
0
LINE
8
BLACK
6
CONTINUOUS
10
3.97419
20
-4.21479
11
3.96672
21
-4.20627
0
LINE
8
BLACK
6
CONTINUOUS
10
3.96672
20
-4.20627
11
3.96042
21
-4.19685
0
LINE
8
BLACK
6
CONTINUOUS
10
3.96042
20
-4.19685
11
3.95541
21
-4.18669
0
LINE
8
BLACK
6
CONTINUOUS
10
3.95541
20
-4.18669
11
3.95177
21
-4.17596
0
LINE
8
BLACK
6
CONTINUOUS
10
3.95177
20
-4.17596
11
3.94956
21
-4.16485
0
LINE
8
BLACK
6
CONTINUOUS
10
3.94956
20
-4.16485
11
3.94882
21
-4.15354
0
LINE
8
BLACK
6
CONTINUOUS
10
3.94882
20
-4.15354
11
3.94956
21
-4.14224
0
LINE
8
BLACK
6
CONTINUOUS
10
3.94956
20
-4.14224
11
3.95177
21
-4.13113
0
LINE
8
BLACK
6
CONTINUOUS
10
3.95177
20
-4.13113
11
3.95541
21
-4.1204
0
LINE
8
BLACK
6
CONTINUOUS
10
3.95541
20
-4.1204
11
3.96042
21
-4.11024
0
LINE
8
BLACK
6
CONTINUOUS
10
3.96042
20
-4.11024
11
3.96672
21
-4.10082
0
LINE
8
BLACK
6
CONTINUOUS
10
3.96672
20
-4.10082
11
3.97419
21
-4.0923
0
LINE
8
BLACK
6
CONTINUOUS
10
3.97419
20
-4.0923
11
3.98271
21
-4.08483
0
LINE
8
BLACK
6
CONTINUOUS
10
3.98271
20
-4.08483
11
3.99213
21
-4.07853
0
LINE
8
BLACK
6
CONTINUOUS
10
3.99213
20
-4.07853
11
4.00229
21
-4.07352
0
LINE
8
BLACK
6
CONTINUOUS
10
4.00229
20
-4.07352
11
4.01302
21
-4.06988
0
LINE
8
BLACK
6
CONTINUOUS
10
4.01302
20
-4.06988
11
4.02413
21
-4.06767
0
LINE
8
BLACK
6
CONTINUOUS
10
4.02413
20
-4.06767
11
4.03543
21
-4.06693
0
LINE
8
BLACK
6
CONTINUOUS
10
4.03543
20
-4.06693
11
4.04674
21
-4.06767
  0
ENDSEC
  0
EOF
