M48
; DRILL file {KiCad (6.0.10-0)} date Wednesday, January 04, 2023 at 10:37:43 AM
; FORMAT={-:-/ absolute / inch / decimal}
; #@! TF.CreationDate,2023-01-04T10:37:43-05:00
; #@! TF.GenerationSoftware,Kicad,Pcbnew,(6.0.10-0)
; #@! TF.FileFunction,Plated,1,4,PTH
FMAT,2
INCH
; #@! TA.AperFunction,Plated,PTH,ViaDrill
T1C0.0079
; #@! TA.AperFunction,Plated,PTH,ComponentDrill
T2C0.0079
; #@! TA.AperFunction,Plated,PTH,ViaDrill
T3C0.0098
; #@! TA.AperFunction,Plated,PTH,ViaDrill
T4C0.0118
; #@! TA.AperFunction,Plated,PTH,ComponentDrill
T5C0.0118
; #@! TA.AperFunction,Plated,PTH,ViaDrill
T6C0.0157
; #@! TA.AperFunction,Plated,PTH,ComponentDrill
T7C0.0157
; #@! TA.AperFunction,Plated,PTH,ViaDrill
T8C0.0197
; #@! TA.AperFunction,Plated,PTH,ComponentDrill
T9C0.0236
; #@! TA.AperFunction,Plated,PTH,ComponentDrill
T10C0.0866
%
G90
G05
T1
X3.4344Y-2.8583
X3.4605Y-2.8583
X4.2392Y-2.9549
X4.2576Y-2.9365
T2
X2.8484Y-4.3459
X2.8484Y-4.3872
X2.8484Y-4.4285
X2.8484Y-4.4699
X2.8898Y-4.3459
X2.8898Y-4.3872
X2.8898Y-4.4285
X2.8898Y-4.4699
X2.9311Y-4.3459
X2.9311Y-4.3872
X2.9311Y-4.4285
X2.9311Y-4.4699
X2.9724Y-4.3459
X2.9724Y-4.3872
X2.9724Y-4.4285
X2.9724Y-4.4699
X3.6388Y-4.3469
X3.6388Y-4.3882
X3.6388Y-4.4295
X3.6388Y-4.4709
X3.6801Y-4.3469
X3.6801Y-4.3882
X3.6801Y-4.4295
X3.6801Y-4.4709
X3.7215Y-4.3469
X3.7215Y-4.3882
X3.7215Y-4.4295
X3.7215Y-4.4709
X3.7628Y-4.3469
X3.7628Y-4.3882
X3.7628Y-4.4295
X3.7628Y-4.4709
X4.4311Y-4.3469
X4.4311Y-4.3882
X4.4311Y-4.4295
X4.4311Y-4.4709
X4.4724Y-4.3469
X4.4724Y-4.3882
X4.4724Y-4.4295
X4.4724Y-4.4709
X4.5138Y-4.3469
X4.5138Y-4.3882
X4.5138Y-4.4295
X4.5138Y-4.4709
X4.5551Y-4.3469
X4.5551Y-4.3882
X4.5551Y-4.4295
X4.5551Y-4.4709
X5.2264Y-4.3469
X5.2264Y-4.3882
X5.2264Y-4.4295
X5.2264Y-4.4709
X5.2677Y-4.3469
X5.2677Y-4.3882
X5.2677Y-4.4295
X5.2677Y-4.4709
X5.3091Y-4.3469
X5.3091Y-4.3882
X5.3091Y-4.4295
X5.3091Y-4.4709
X5.3504Y-4.3469
X5.3504Y-4.3882
X5.3504Y-4.4295
X5.3504Y-4.4709
T3
X2.7343Y-4.0
X2.7598Y-4.25
X2.7638Y-4.2854
X2.7736Y-3.8287
X2.8051Y-4.0886
X2.8169Y-3.8287
X2.8209Y-2.811
X2.8209Y-2.8406
X2.8209Y-2.8701
X2.8386Y-4.0945
X2.8642Y-3.8287
X2.8996Y-4.1122
X2.9114Y-3.8287
X2.9705Y-2.6181
X2.9705Y-2.6457
X2.9862Y-4.1654
X2.998Y-2.6181
X2.998Y-2.6457
X3.0197Y-4.185
X3.0197Y-4.2165
X3.0197Y-4.2441
X3.0236Y-2.8445
X3.0236Y-2.872
X3.0256Y-2.6181
X3.0256Y-2.6457
X3.0256Y-2.6732
X3.0256Y-2.7008
X3.0276Y-4.5463
X3.0443Y-4.5236
X3.0512Y-2.8445
X3.0512Y-2.872
X3.0531Y-2.6181
X3.0531Y-2.6457
X3.0531Y-2.6732
X3.0531Y-2.7008
X3.0748Y-4.4269
X3.0758Y-4.4725
X3.0787Y-2.8445
X3.0787Y-2.872
X3.0807Y-2.6181
X3.0807Y-2.6457
X3.0807Y-2.6732
X3.0807Y-2.7008
X3.0984Y-4.0512
X3.1063Y-2.8445
X3.1063Y-2.872
X3.1339Y-2.8445
X3.1339Y-2.872
X3.1772Y-3.7362
X3.1772Y-3.7717
X3.2047Y-3.9606
X3.2126Y-3.7362
X3.2126Y-3.7717
X3.2323Y-4.2008
X3.2559Y-3.7717
X3.2559Y-3.9606
X3.2913Y-4.0827
X3.3701Y-3.7953
X3.3701Y-3.8622
X3.3701Y-3.9252
X3.3701Y-4.0827
X3.3701Y-4.1378
X3.4646Y-4.0827
X3.498Y-3.9331
X3.5Y-3.5512
X3.5118Y-3.6378
X3.5118Y-3.6654
X3.5118Y-3.6929
X3.5472Y-3.6772
X3.5551Y-3.7835
X3.5551Y-3.8327
X3.565Y-4.1181
X3.5866Y-3.689
X3.5923Y-4.121
X3.6004Y-3.8307
X3.622Y-4.1288
X3.6476Y-3.8307
X3.6752Y-3.2736
X3.6949Y-3.2933
X3.6949Y-3.8307
X3.748Y-4.061
X3.7598Y-3.7913
X3.7677Y-3.6969
X3.7913Y-4.1043
X3.8063Y-4.1575
X3.8075Y-4.1909
X3.8091Y-4.5492
X3.8101Y-4.2216
X3.8228Y-4.1043
X3.8268Y-3.5354
X3.8337Y-4.5256
X3.8645Y-4.4691
X3.8661Y-3.5591
X3.8676Y-4.4274
X3.8858Y-3.6142
X3.8858Y-3.7126
X3.8858Y-3.7953
X3.9016Y-3.5591
X3.9104Y-2.4039
X3.9163Y-2.2096
X3.925Y-2.3345
X3.9488Y-2.4197
X3.9606Y-3.5551
X3.9606Y-3.5827
X3.9606Y-3.6102
X3.9656Y-2.2205
X3.9862Y-2.4217
X3.9882Y-3.6417
X3.9882Y-3.7106
X3.9921Y-3.8228
X3.9921Y-3.8681
X3.9921Y-4.1772
X4.0217Y-3.5315
X4.0256Y-4.002
X4.0276Y-3.6378
X4.0354Y-3.6732
X4.0394Y-2.4984
X4.0443Y-2.2303
X4.0492Y-3.5315
X4.0571Y-3.4173
X4.0709Y-2.4213
X4.0709Y-2.9311
X4.0709Y-3.5138
X4.0939Y-3.4655
X4.123Y-2.2195
X4.126Y-3.5079
X4.1468Y-3.4696
X4.1496Y-3.622
X4.1722Y-2.2096
X4.1791Y-3.0906
X4.1987Y-3.3249
X4.2047Y-3.1535
X4.205Y-3.2981
X4.2126Y-3.2126
X4.2153Y-3.179
X4.2272Y-3.3239
X4.2597Y-3.3269
X4.2638Y-2.7323
X4.2953Y-3.2618
X4.3071Y-4.0079
X4.3246Y-4.2707
X4.3346Y-2.628
X4.3465Y-4.2874
X4.3543Y-3.7047
X4.3543Y-3.7795
X4.372Y-4.0866
X4.374Y-3.8327
X4.3937Y-3.3425
X4.3976Y-3.3898
X4.4005Y-4.0874
X4.4134Y-3.8327
X4.435Y-4.0886
X4.4508Y-3.8327
X4.4882Y-3.8327
X4.4921Y-3.3661
X4.5787Y-3.6083
X4.5945Y-3.7047
X4.6024Y-4.2461
X4.6032Y-4.2177
X4.6033Y-4.5463
X4.6042Y-4.1893
X4.6083Y-3.0728
X4.6252Y-4.1146
X4.6262Y-4.5229
X4.6417Y-3.6417
X4.6457Y-2.2047
X4.6495Y-3.5887
X4.6565Y-4.4262
X4.6565Y-4.4689
X4.6811Y-3.878
X4.689Y-2.3882
X4.7126Y-3.8189
X4.7126Y-3.8543
X4.7421Y-2.3665
X4.748Y-3.8189
X4.748Y-3.8543
X4.7697Y-3.6437
X4.7953Y-2.3819
X4.7953Y-3.9606
X4.8295Y-2.2291
X4.8346Y-3.9134
X4.8366Y-3.5295
X4.8583Y-4.0827
X4.8701Y-4.1969
X4.9055Y-2.463
X4.9094Y-2.4158
X4.9311Y-3.7776
X4.9488Y-3.9291
X4.9488Y-4.0827
X4.9488Y-4.1378
X5.0354Y-4.0827
X5.0748Y-4.1319
X5.0984Y-3.9724
X5.1339Y-3.8642
X5.1417Y-4.2874
X5.1662Y-4.1212
X5.1791Y-3.8642
X5.1919Y-4.1311
X5.2244Y-4.122
X5.2283Y-3.8622
X5.2697Y-3.8622
X5.2992Y-4.0551
X5.3583Y-4.1102
X5.3976Y-4.1496
X5.3986Y-4.2175
X5.3986Y-4.19
X5.3986Y-4.2461
X5.3986Y-4.5512
X5.4252Y-4.5276
X5.4497Y-4.4279
X5.4498Y-4.4693
X5.5079Y-3.8189
X5.6142Y-4.1988
T4
X2.5138Y-4.4931
X2.5187Y-4.2126
X2.5187Y-4.252
X2.5197Y-4.2913
X2.5197Y-4.3307
X2.6083Y-4.4685
X2.6083Y-4.5079
X2.6614Y-4.1841
X2.6988Y-4.1516
X2.7126Y-3.4016
X2.7126Y-3.4331
X2.7126Y-3.4646
X2.7126Y-3.4961
X2.7126Y-3.5276
X2.7126Y-3.5591
X2.7126Y-3.5906
X2.7126Y-3.622
X2.7323Y-2.685
X2.7323Y-2.748
X2.7323Y-2.811
X2.7441Y-3.4016
X2.7441Y-3.4331
X2.7441Y-3.4646
X2.7441Y-3.4961
X2.7441Y-3.5276
X2.7441Y-3.5591
X2.7441Y-3.5906
X2.7441Y-3.622
X2.7717Y-4.6575
X2.7874Y-4.5768
X2.8051Y-4.9862
X2.8051Y-5.0187
X2.8051Y-5.0512
X2.8051Y-5.0837
X2.8051Y-5.1161
X2.8051Y-5.1496
X2.8091Y-4.7047
X2.8091Y-4.7362
X2.8091Y-4.7677
X2.8091Y-4.7992
X2.8091Y-4.8307
X2.8091Y-4.8622
X2.8091Y-4.8937
X2.815Y-4.6575
X2.8248Y-4.9252
X2.8386Y-4.9862
X2.8386Y-5.1496
X2.8543Y-3.3297
X2.8543Y-3.3612
X2.8583Y-4.9252
X2.8583Y-4.9567
X2.872Y-5.1496
X2.8858Y-3.3297
X2.8858Y-3.3612
X2.8898Y-2.435
X2.9055Y-2.4626
X2.9055Y-2.4941
X2.9055Y-3.0492
X2.9055Y-5.1496
X2.907Y-4.2402
X2.9111Y-4.6056
X2.9213Y-2.435
X2.938Y-5.1496
X2.9385Y-4.5782
X2.94Y-4.0906
X2.94Y-4.1299
X2.9488Y-4.7362
X2.9488Y-4.7677
X2.9488Y-4.7992
X2.9488Y-4.8307
X2.9488Y-4.8622
X2.9488Y-4.8937
X2.9488Y-4.9252
X2.9488Y-4.9567
X2.9587Y-4.7008
X2.9705Y-4.9862
X2.9705Y-5.1496
X2.9724Y-2.2638
X2.9724Y-2.3031
X2.9902Y-4.7008
X3.0039Y-4.9862
X3.0039Y-5.0187
X3.0039Y-5.0512
X3.0039Y-5.0837
X3.0039Y-5.1161
X3.0039Y-5.1496
X3.0049Y-3.3297
X3.0049Y-3.3612
X3.0118Y-2.2638
X3.0118Y-2.3031
X3.0118Y-2.3504
X3.0118Y-2.3819
X3.0128Y-4.1398
X3.0197Y-3.0453
X3.0217Y-3.7953
X3.0217Y-3.8268
X3.0217Y-4.7008
X3.0364Y-3.3297
X3.0364Y-3.3612
X3.0374Y-4.1161
X3.0502Y-4.5738
X3.0512Y-2.2638
X3.0512Y-2.3031
X3.1063Y-4.5866
X3.1063Y-4.6181
X3.1063Y-4.6496
X3.122Y-3.8228
X3.1378Y-4.3307
X3.1457Y-4.622
X3.1457Y-4.6535
X3.1772Y-4.622
X3.1772Y-4.6535
X3.1772Y-4.8386
X3.1772Y-4.8701
X3.2087Y-4.8386
X3.2087Y-4.8701
X3.2402Y-4.8386
X3.2402Y-4.8701
X3.2717Y-4.8386
X3.2717Y-4.8701
X3.3031Y-4.8386
X3.3031Y-4.8701
X3.311Y-4.2126
X3.311Y-4.252
X3.311Y-4.2913
X3.311Y-4.3307
X3.311Y-4.4921
X3.3248Y-4.1142
X3.3307Y-2.6063
X3.3346Y-4.8386
X3.3346Y-4.8701
X3.3622Y-2.6063
X3.3622Y-2.6378
X3.3661Y-4.8386
X3.3661Y-4.8701
X3.3671Y-2.8583
X3.3976Y-4.8386
X3.3976Y-4.8701
X3.3986Y-2.8583
X3.3996Y-4.4665
X3.3996Y-4.5059
X3.4154Y-4.1142
X3.4685Y-4.1319
X3.4961Y-2.8583
X3.502Y-4.126
X3.5236Y-4.1496
X3.5276Y-2.8583
X3.5354Y-2.6063
X3.5354Y-2.6378
X3.5394Y-4.2697
X3.563Y-4.6575
X3.5669Y-2.6063
X3.5787Y-4.5768
X3.5955Y-4.9862
X3.5955Y-5.0187
X3.5955Y-5.0512
X3.5955Y-5.0837
X3.5955Y-5.1161
X3.5955Y-5.1496
X3.5994Y-4.7047
X3.5994Y-4.7362
X3.5994Y-4.7677
X3.5994Y-4.7992
X3.5994Y-4.8307
X3.5994Y-4.8622
X3.5994Y-4.8937
X3.6053Y-4.6575
X3.6152Y-4.9252
X3.6289Y-4.9862
X3.6289Y-5.1496
X3.6486Y-4.9252
X3.6486Y-4.9567
X3.6624Y-5.1496
X3.6732Y-2.8543
X3.6732Y-2.8858
X3.6959Y-5.1496
X3.6981Y-4.2404
X3.7013Y-4.6048
X3.7047Y-2.8543
X3.7047Y-2.8858
X3.7165Y-3.3465
X3.7165Y-3.378
X3.7264Y-3.6201
X3.7283Y-5.1496
X3.7303Y-4.5768
X3.7392Y-4.7362
X3.7392Y-4.7677
X3.7392Y-4.7992
X3.7392Y-4.8307
X3.7392Y-4.8622
X3.7392Y-4.8937
X3.7392Y-4.9252
X3.7392Y-4.9567
X3.748Y-3.3465
X3.748Y-3.378
X3.749Y-4.7008
X3.7608Y-4.9862
X3.7608Y-5.1496
X3.7805Y-4.7008
X3.7913Y-2.7283
X3.7913Y-2.7598
X3.7943Y-4.9862
X3.7943Y-5.0187
X3.7943Y-5.0512
X3.7943Y-5.0837
X3.7943Y-5.1161
X3.7943Y-5.1496
X3.811Y-3.7953
X3.811Y-3.8268
X3.812Y-4.7008
X3.8228Y-2.7283
X3.8228Y-2.7598
X3.8543Y-4.5748
X3.8976Y-4.5866
X3.8976Y-4.6181
X3.8976Y-4.6496
X3.9016Y-2.689
X3.9173Y-2.7362
X3.9173Y-2.7677
X3.9331Y-4.626
X3.9331Y-4.6575
X3.935Y-4.3356
X3.9449Y-2.9488
X3.9488Y-2.7362
X3.9488Y-2.7677
X3.9646Y-4.626
X3.9646Y-4.6575
X3.9646Y-4.8386
X3.9646Y-4.8701
X3.9665Y-2.9705
X3.9911Y-4.2254
X3.9911Y-4.2707
X3.9961Y-3.9587
X3.9961Y-4.8386
X3.9961Y-4.8701
X4.0118Y-2.4532
X4.0276Y-4.8386
X4.0276Y-4.8701
X4.0315Y-2.878
X4.0571Y-2.8957
X4.0591Y-4.8386
X4.0591Y-4.8701
X4.065Y-3.1122
X4.0886Y-3.0906
X4.0906Y-4.8386
X4.0906Y-4.8701
X4.1043Y-4.4921
X4.1063Y-4.1063
X4.122Y-4.8386
X4.122Y-4.8701
X4.126Y-4.252
X4.126Y-4.2835
X4.1299Y-2.8189
X4.1329Y-2.4118
X4.1329Y-2.4433
X4.1535Y-4.8386
X4.1535Y-4.8701
X4.1575Y-3.5807
X4.1575Y-4.252
X4.1575Y-4.2835
X4.1713Y-2.8287
X4.1789Y-4.1661
X4.185Y-3.6102
X4.185Y-4.8386
X4.185Y-4.8701
X4.187Y-2.9843
X4.187Y-3.5512
X4.1929Y-4.4665
X4.1929Y-4.5059
X4.2146Y-3.5748
X4.2268Y-2.985
X4.2323Y-3.8701
X4.2323Y-3.9094
X4.2362Y-2.5512
X4.2677Y-2.5512
X4.2717Y-2.2638
X4.2717Y-2.3031
X4.2717Y-3.9094
X4.2795Y-2.913
X4.311Y-2.2638
X4.311Y-2.3031
X4.3248Y-4.2323
X4.3504Y-2.2638
X4.3504Y-2.3031
X4.3543Y-4.6575
X4.3642Y-2.8799
X4.3681Y-4.5768
X4.3878Y-4.9862
X4.3878Y-5.0187
X4.3878Y-5.0512
X4.3878Y-5.0837
X4.3878Y-5.1161
X4.3878Y-5.1496
X4.3917Y-4.7047
X4.3917Y-4.7362
X4.3917Y-4.7677
X4.3917Y-4.7992
X4.3917Y-4.8307
X4.3917Y-4.8622
X4.3917Y-4.8937
X4.3976Y-4.6575
X4.4016Y-2.6909
X4.4075Y-4.9252
X4.4213Y-2.7146
X4.4213Y-4.9862
X4.4213Y-5.1496
X4.4252Y-2.8819
X4.4409Y-4.9252
X4.4409Y-4.9567
X4.4518Y-2.9271
X4.4547Y-5.1496
X4.4724Y-2.311
X4.4724Y-2.3425
X4.4882Y-5.1496
X4.4888Y-4.238
X4.4941Y-4.1398
X4.4959Y-4.6065
X4.5039Y-2.311
X4.5039Y-2.3425
X4.5207Y-5.1496
X4.5221Y-4.5773
X4.5236Y-2.5512
X4.5315Y-4.7362
X4.5315Y-4.7677
X4.5315Y-4.7992
X4.5315Y-4.8307
X4.5315Y-4.8622
X4.5315Y-4.8937
X4.5315Y-4.9252
X4.5315Y-4.9567
X4.5413Y-4.7008
X4.5531Y-4.9862
X4.5531Y-5.1496
X4.5551Y-2.5512
X4.5669Y-2.3878
X4.5728Y-4.7008
X4.5866Y-4.9862
X4.5866Y-5.0187
X4.5866Y-5.0512
X4.5866Y-5.0837
X4.5866Y-5.1161
X4.5866Y-5.1496
X4.6014Y-2.8396
X4.6024Y-3.7953
X4.6024Y-3.8268
X4.6043Y-4.7008
X4.6108Y-2.8978
X4.6191Y-3.4695
X4.6388Y-4.5709
X4.6496Y-3.5551
X4.6555Y-2.8927
X4.6811Y-3.1673
X4.6811Y-3.5551
X4.685Y-2.2126
X4.69Y-4.5866
X4.69Y-4.6181
X4.6909Y-4.6496
X4.6929Y-2.872
X4.6929Y-2.9646
X4.6959Y-3.4035
X4.6969Y-3.3425
X4.6988Y-2.9242
X4.7008Y-2.6457
X4.7008Y-2.6772
X4.7146Y-2.5433
X4.7165Y-2.2126
X4.7175Y-3.375
X4.7264Y-4.3337
X4.7323Y-2.6457
X4.7323Y-2.6772
X4.7323Y-4.6063
X4.7323Y-4.6378
X4.7461Y-2.498
X4.748Y-2.2126
X4.7598Y-2.9232
X4.7638Y-3.2697
X4.7638Y-4.6063
X4.7638Y-4.6378
X4.7638Y-4.8386
X4.7638Y-4.8701
X4.7795Y-2.2126
X4.7854Y-2.9469
X4.7874Y-2.498
X4.7874Y-3.5669
X4.7953Y-4.8386
X4.7953Y-4.8701
X4.7979Y-3.3984
X4.8228Y-2.9331
X4.8228Y-3.0118
X4.8268Y-3.3661
X4.8268Y-4.8386
X4.8268Y-4.8701
X4.8396Y-3.247
X4.8425Y-2.3701
X4.8543Y-2.4902
X4.8583Y-4.8386
X4.8583Y-4.8701
X4.8701Y-3.6024
X4.874Y-2.3858
X4.8898Y-4.8386
X4.8898Y-4.8701
X4.8937Y-4.4941
X4.9035Y-4.1142
X4.9203Y-3.2933
X4.9213Y-4.8386
X4.9213Y-4.8701
X4.9291Y-3.3858
X4.939Y-2.4862
X4.939Y-4.2126
X4.939Y-4.252
X4.939Y-4.2913
X4.939Y-4.3307
X4.9469Y-2.5374
X4.9528Y-3.3622
X4.9528Y-4.8386
X4.9528Y-4.8701
X4.9587Y-2.4508
X4.9606Y-2.9055
X4.9636Y-3.5423
X4.9744Y-2.4114
X4.9783Y-2.4862
X4.9843Y-4.4665
X4.9843Y-4.5059
X4.9843Y-4.8386
X4.9843Y-4.8701
X4.9961Y-4.1142
X4.998Y-2.3701
X5.002Y-2.3228
X5.0157Y-3.5197
X5.0394Y-2.6122
X5.0413Y-2.2323
X5.0433Y-2.6634
X5.0748Y-2.2323
X5.0768Y-2.7441
X5.1043Y-4.1004
X5.1063Y-2.9016
X5.1102Y-4.1319
X5.1496Y-4.6575
X5.1693Y-4.5748
X5.1831Y-4.9862
X5.1831Y-5.0187
X5.1831Y-5.0512
X5.1831Y-5.0837
X5.1831Y-5.1161
X5.1831Y-5.1496
X5.187Y-4.8622
X5.188Y-4.7047
X5.188Y-4.7362
X5.188Y-4.7677
X5.188Y-4.7992
X5.188Y-4.8307
X5.188Y-4.8937
X5.1929Y-4.6575
X5.2037Y-4.9252
X5.2165Y-4.9862
X5.2165Y-5.1496
X5.2372Y-4.9252
X5.2372Y-4.9567
X5.25Y-5.1496
X5.2835Y-5.1496
X5.2849Y-4.2381
X5.2935Y-4.6061
X5.3159Y-5.1496
X5.3204Y-4.5763
X5.3268Y-4.8622
X5.3278Y-4.7362
X5.3278Y-4.7677
X5.3278Y-4.7992
X5.3278Y-4.8307
X5.3278Y-4.8937
X5.3278Y-4.9252
X5.3278Y-4.9567
X5.3366Y-4.7008
X5.3484Y-4.9862
X5.3484Y-5.1496
X5.3681Y-4.7008
X5.3819Y-4.9862
X5.3819Y-5.0187
X5.3819Y-5.0512
X5.3819Y-5.0837
X5.3819Y-5.1161
X5.3819Y-5.1496
X5.3839Y-2.5807
X5.3957Y-3.7953
X5.3957Y-3.8268
X5.3996Y-4.7008
X5.435Y-4.5748
X5.4852Y-4.5866
X5.4852Y-4.6181
X5.4852Y-4.6496
X5.5207Y-4.3346
X5.5236Y-4.6024
X5.5236Y-4.6339
X5.5551Y-4.6024
X5.5551Y-4.6339
T5
X4.3065Y-3.1569
X4.3344Y-3.129
X4.3344Y-3.1847
X4.3622Y-3.1012
X4.3622Y-3.1569
X4.3622Y-3.2125
X4.39Y-3.129
X4.39Y-3.1847
X4.4179Y-3.1569
T6
X2.4724Y-3.8031
X2.4724Y-3.8819
X2.4724Y-3.9606
X2.4724Y-4.0394
X2.4724Y-4.1181
X2.4724Y-4.1969
X2.4724Y-4.2756
X2.4724Y-4.3543
X2.4724Y-4.4331
X2.4724Y-4.5118
X2.4724Y-4.5906
X2.4724Y-4.6693
X2.5118Y-3.7244
X2.5906Y-3.6457
X2.6693Y-2.2283
X2.6693Y-2.3071
X2.6693Y-2.3858
X2.6693Y-2.4646
X2.6693Y-2.5433
X2.6693Y-3.0157
X2.6693Y-3.4094
X2.6693Y-3.4882
X2.6693Y-3.5669
X2.6693Y-4.9843
X2.6693Y-5.063
X2.6693Y-5.1417
X2.7087Y-5.1811
X2.8268Y-2.1102
X2.9055Y-2.1102
X2.9843Y-2.1102
X3.0236Y-5.1811
X3.063Y-2.1102
X3.0906Y-2.1421
X3.0906Y-2.1815
X3.0906Y-2.2219
X3.1024Y-5.1811
X3.1299Y-2.1421
X3.1299Y-2.1815
X3.1299Y-2.2219
X3.1693Y-2.1421
X3.1693Y-2.1815
X3.1693Y-2.2219
X3.1811Y-5.1811
X3.2205Y-2.1102
X3.2992Y-2.1102
X3.3386Y-5.1811
X3.3583Y-2.2376
X3.3583Y-2.278
X3.378Y-2.1102
X3.3976Y-2.2376
X3.3976Y-2.278
X3.4173Y-5.1811
X3.4567Y-2.1102
X3.4961Y-5.1811
X3.5039Y-2.2376
X3.5039Y-2.278
X3.5354Y-2.1102
X3.5433Y-2.2376
X3.5433Y-2.278
X3.6142Y-2.1102
X3.6929Y-2.1102
X3.7136Y-2.2612
X3.7136Y-2.3006
X3.7136Y-2.341
X3.753Y-2.2612
X3.753Y-2.3006
X3.753Y-2.341
X3.7717Y-2.1102
X3.7923Y-2.2612
X3.7923Y-2.3006
X3.7923Y-2.341
X3.8504Y-5.1811
X3.9291Y-2.1102
X3.9291Y-5.1811
X4.0079Y-2.1102
X4.0079Y-5.1811
X4.0866Y-2.1102
X4.0866Y-5.1811
X4.1654Y-2.1102
X4.1654Y-5.1811
X4.2441Y-5.1811
X4.3228Y-2.1102
X4.3228Y-5.1811
X4.4016Y-2.1102
X4.4803Y-2.1102
X4.5591Y-2.1102
X4.6378Y-2.1102
X4.6378Y-5.1811
X4.7165Y-2.1102
X4.7165Y-5.1811
X4.7953Y-2.1102
X4.7953Y-5.1811
X4.874Y-2.1102
X4.9528Y-2.1102
X4.9528Y-5.1811
X5.0315Y-5.1811
X5.1102Y-2.1102
X5.1102Y-5.1811
X5.189Y-2.1102
X5.2677Y-2.1102
X5.4252Y-5.1811
X5.4646Y-2.3071
X5.4646Y-2.2283
X5.4646Y-2.3858
X5.4646Y-2.4646
X5.4646Y-2.5433
X5.4646Y-2.622
X5.4646Y-2.7008
X5.4646Y-2.7795
X5.4646Y-3.0945
X5.4646Y-3.4094
X5.4646Y-3.4882
X5.4646Y-3.5669
X5.4646Y-4.9843
X5.4646Y-5.063
X5.4646Y-5.1417
X5.5433Y-3.6457
X5.622Y-3.7244
X5.6614Y-3.8031
X5.6614Y-3.8819
X5.6614Y-3.9606
X5.6614Y-4.0394
X5.6614Y-4.1969
X5.6614Y-4.2756
X5.6614Y-4.3543
X5.6614Y-4.4331
X5.6614Y-4.5118
X5.6614Y-4.5906
X5.6614Y-4.6693
T7
X2.5059Y-4.8071
X2.5249Y-4.7612
X2.5249Y-4.853
X2.5709Y-4.7421
X2.5709Y-4.872
X2.5846Y-2.0906
X2.6037Y-2.0446
X2.6037Y-2.1365
X2.6168Y-4.7612
X2.6168Y-4.853
X2.6358Y-4.8071
X2.6496Y-2.0256
X2.6496Y-2.1555
X2.6955Y-2.0446
X2.6955Y-2.1365
X2.7146Y-2.0906
X5.4193Y-2.0906
X5.4383Y-2.0446
X5.4383Y-2.1365
X5.4843Y-2.0256
X5.4843Y-2.1555
X5.498Y-4.8071
X5.5171Y-4.7612
X5.5171Y-4.853
X5.5302Y-2.0446
X5.5302Y-2.1365
X5.5492Y-2.0906
X5.563Y-4.7421
X5.563Y-4.872
X5.6089Y-4.7612
X5.6089Y-4.853
X5.628Y-4.8071
T8
X3.2244Y-2.4646
X3.5906Y-2.4764
T10
X2.5709Y-4.8071
X2.6496Y-2.0906
X3.2598Y-5.0827
X4.874Y-5.0827
X5.4843Y-2.0906
X5.563Y-4.8071
T9
G00X3.2776Y-2.1935
M15
G01X3.2776Y-2.1699
M16
G05
G00X3.2776Y-2.3679
M15
G01X3.2776Y-2.3246
M16
G05
G00X3.6177Y-2.1935
M15
G01X3.6177Y-2.1699
M16
G05
G00X3.6177Y-2.3679
M15
G01X3.6177Y-2.3246
M16
G05
T0
M30
