G04 #@! TF.GenerationSoftware,KiCad,Pcbnew,(6.0.10-0)*
G04 #@! TF.CreationDate,2023-01-04T10:37:38-05:00*
G04 #@! TF.ProjectId,ReLoki_ECAD,52654c6f-6b69-45f4-9543-41442e6b6963,0.2.1*
G04 #@! TF.SameCoordinates,Original*
G04 #@! TF.FileFunction,Soldermask,Top*
G04 #@! TF.FilePolarity,Negative*
%FSLAX46Y46*%
G04 Gerber Fmt 4.6, Leading zero omitted, Abs format (unit mm)*
G04 Created by KiCad (PCBNEW (6.0.10-0)) date 2023-01-04 10:37:38*
%MOMM*%
%LPD*%
G01*
G04 APERTURE LIST*
G04 Aperture macros list*
%AMRoundRect*
0 Rectangle with rounded corners*
0 $1 Rounding radius*
0 $2 $3 $4 $5 $6 $7 $8 $9 X,Y pos of 4 corners*
0 Add a 4 corners polygon primitive as box body*
4,1,4,$2,$3,$4,$5,$6,$7,$8,$9,$2,$3,0*
0 Add four circle primitives for the rounded corners*
1,1,$1+$1,$2,$3*
1,1,$1+$1,$4,$5*
1,1,$1+$1,$6,$7*
1,1,$1+$1,$8,$9*
0 Add four rect primitives between the rounded corners*
20,1,$1+$1,$2,$3,$4,$5,0*
20,1,$1+$1,$4,$5,$6,$7,0*
20,1,$1+$1,$6,$7,$8,$9,0*
20,1,$1+$1,$8,$9,$2,$3,0*%
%AMRotRect*
0 Rectangle, with rotation*
0 The origin of the aperture is its center*
0 $1 length*
0 $2 width*
0 $3 Rotation angle, in degrees counterclockwise*
0 Add horizontal line*
21,1,$1,$2,0,0,$3*%
%AMOutline5P*
0 Free polygon, 5 corners , with rotation*
0 The origin of the aperture is its center*
0 number of corners: always 5*
0 $1 to $10 corner X, Y*
0 $11 Rotation angle, in degrees counterclockwise*
0 create outline with 5 corners*
4,1,5,$1,$2,$3,$4,$5,$6,$7,$8,$9,$10,$1,$2,$11*%
%AMOutline6P*
0 Free polygon, 6 corners , with rotation*
0 The origin of the aperture is its center*
0 number of corners: always 6*
0 $1 to $12 corner X, Y*
0 $13 Rotation angle, in degrees counterclockwise*
0 create outline with 6 corners*
4,1,6,$1,$2,$3,$4,$5,$6,$7,$8,$9,$10,$11,$12,$1,$2,$13*%
%AMOutline7P*
0 Free polygon, 7 corners , with rotation*
0 The origin of the aperture is its center*
0 number of corners: always 7*
0 $1 to $14 corner X, Y*
0 $15 Rotation angle, in degrees counterclockwise*
0 create outline with 7 corners*
4,1,7,$1,$2,$3,$4,$5,$6,$7,$8,$9,$10,$11,$12,$13,$14,$1,$2,$15*%
%AMOutline8P*
0 Free polygon, 8 corners , with rotation*
0 The origin of the aperture is its center*
0 number of corners: always 8*
0 $1 to $16 corner X, Y*
0 $17 Rotation angle, in degrees counterclockwise*
0 create outline with 8 corners*
4,1,8,$1,$2,$3,$4,$5,$6,$7,$8,$9,$10,$11,$12,$13,$14,$15,$16,$1,$2,$17*%
G04 Aperture macros list end*
%ADD10RoundRect,0.135000X-0.185000X0.135000X-0.185000X-0.135000X0.185000X-0.135000X0.185000X0.135000X0*%
%ADD11RoundRect,0.140000X-0.140000X-0.170000X0.140000X-0.170000X0.140000X0.170000X-0.140000X0.170000X0*%
%ADD12RoundRect,0.135000X-0.226274X-0.035355X-0.035355X-0.226274X0.226274X0.035355X0.035355X0.226274X0*%
%ADD13RoundRect,0.125000X0.459619X0.565685X-0.565685X-0.459619X-0.459619X-0.565685X0.565685X0.459619X0*%
%ADD14RoundRect,0.125000X-0.459619X0.565685X-0.565685X0.459619X0.459619X-0.565685X0.565685X-0.459619X0*%
%ADD15C,0.700000*%
%ADD16RoundRect,0.100000X0.000000X2.269813X-2.269813X0.000000X0.000000X-2.269813X2.269813X0.000000X0*%
%ADD17RoundRect,0.140000X-0.170000X0.140000X-0.170000X-0.140000X0.170000X-0.140000X0.170000X0.140000X0*%
%ADD18RoundRect,0.140000X0.170000X-0.140000X0.170000X0.140000X-0.170000X0.140000X-0.170000X-0.140000X0*%
%ADD19RoundRect,0.135000X0.185000X-0.135000X0.185000X0.135000X-0.185000X0.135000X-0.185000X-0.135000X0*%
%ADD20RoundRect,0.135000X0.135000X0.185000X-0.135000X0.185000X-0.135000X-0.185000X0.135000X-0.185000X0*%
%ADD21RoundRect,0.218750X-0.256250X0.218750X-0.256250X-0.218750X0.256250X-0.218750X0.256250X0.218750X0*%
%ADD22RoundRect,0.140000X0.021213X-0.219203X0.219203X-0.021213X-0.021213X0.219203X-0.219203X0.021213X0*%
%ADD23RoundRect,0.140000X-0.021213X0.219203X-0.219203X0.021213X0.021213X-0.219203X0.219203X-0.021213X0*%
%ADD24RoundRect,0.140000X0.140000X0.170000X-0.140000X0.170000X-0.140000X-0.170000X0.140000X-0.170000X0*%
%ADD25RoundRect,0.140000X0.219203X0.021213X0.021213X0.219203X-0.219203X-0.021213X-0.021213X-0.219203X0*%
%ADD26R,0.700000X1.000000*%
%ADD27R,0.700000X0.600000*%
%ADD28RoundRect,0.225000X0.250000X-0.225000X0.250000X0.225000X-0.250000X0.225000X-0.250000X-0.225000X0*%
%ADD29R,0.330000X0.270000*%
%ADD30RotRect,0.600000X1.100000X135.000000*%
%ADD31C,0.650000*%
%ADD32R,0.300000X1.150000*%
%ADD33O,1.000000X1.600000*%
%ADD34O,1.000000X2.100000*%
%ADD35RoundRect,0.225000X-0.250000X0.225000X-0.250000X-0.225000X0.250000X-0.225000X0.250000X0.225000X0*%
%ADD36RoundRect,0.218750X-0.218750X-0.256250X0.218750X-0.256250X0.218750X0.256250X-0.218750X0.256250X0*%
%ADD37R,0.800000X1.000000*%
%ADD38C,0.900000*%
%ADD39R,1.500000X0.700000*%
%ADD40C,0.750000*%
%ADD41R,1.000000X1.550000*%
%ADD42RoundRect,0.050000X-0.375000X-0.050000X0.375000X-0.050000X0.375000X0.050000X-0.375000X0.050000X0*%
%ADD43RoundRect,0.050000X-0.050000X-0.375000X0.050000X-0.375000X0.050000X0.375000X-0.050000X0.375000X0*%
%ADD44R,4.200000X4.200000*%
%ADD45RoundRect,0.140000X-0.219203X-0.021213X-0.021213X-0.219203X0.219203X0.021213X0.021213X0.219203X0*%
%ADD46RoundRect,0.135000X-0.135000X-0.185000X0.135000X-0.185000X0.135000X0.185000X-0.135000X0.185000X0*%
%ADD47RoundRect,0.050000X0.225000X0.075000X-0.225000X0.075000X-0.225000X-0.075000X0.225000X-0.075000X0*%
%ADD48RoundRect,0.040000X0.235000X0.060000X-0.235000X0.060000X-0.235000X-0.060000X0.235000X-0.060000X0*%
%ADD49RoundRect,0.050000X-0.075000X0.225000X-0.075000X-0.225000X0.075000X-0.225000X0.075000X0.225000X0*%
%ADD50RoundRect,0.050000X-0.225000X-0.075000X0.225000X-0.075000X0.225000X0.075000X-0.225000X0.075000X0*%
%ADD51RoundRect,0.040000X-0.235000X-0.060000X0.235000X-0.060000X0.235000X0.060000X-0.235000X0.060000X0*%
%ADD52RoundRect,0.050000X0.075000X-0.225000X0.075000X0.225000X-0.075000X0.225000X-0.075000X-0.225000X0*%
%ADD53RoundRect,0.160000X-0.270468X0.044194X0.044194X-0.270468X0.270468X-0.044194X-0.044194X0.270468X0*%
%ADD54RoundRect,0.218750X0.256250X-0.218750X0.256250X0.218750X-0.256250X0.218750X-0.256250X-0.218750X0*%
%ADD55R,0.800000X0.300000*%
%ADD56RoundRect,0.225000X0.225000X0.250000X-0.225000X0.250000X-0.225000X-0.250000X0.225000X-0.250000X0*%
%ADD57R,1.100000X1.100000*%
%ADD58R,1.000000X1.050000*%
%ADD59R,1.050000X2.200000*%
%ADD60C,1.500000*%
%ADD61RoundRect,0.250000X1.137500X0.550000X-1.137500X0.550000X-1.137500X-0.550000X1.137500X-0.550000X0*%
%ADD62RoundRect,0.135000X-0.035355X0.226274X-0.226274X0.035355X0.035355X-0.226274X0.226274X-0.035355X0*%
%ADD63C,4.400000*%
%ADD64RoundRect,0.225000X-0.017678X0.335876X-0.335876X0.017678X0.017678X-0.335876X0.335876X-0.017678X0*%
%ADD65C,0.991000*%
%ADD66C,0.787000*%
%ADD67RoundRect,0.150000X0.150000X0.625000X-0.150000X0.625000X-0.150000X-0.625000X0.150000X-0.625000X0*%
%ADD68RoundRect,0.250000X0.350000X0.650000X-0.350000X0.650000X-0.350000X-0.650000X0.350000X-0.650000X0*%
%ADD69RoundRect,0.225000X0.335876X0.017678X0.017678X0.335876X-0.335876X-0.017678X-0.017678X-0.335876X0*%
%ADD70RotRect,0.330000X0.270000X225.000000*%
%ADD71R,0.800000X0.900000*%
%ADD72RoundRect,0.218750X0.335876X0.026517X0.026517X0.335876X-0.335876X-0.026517X-0.026517X-0.335876X0*%
%ADD73Outline5P,-0.400000X0.125000X0.275000X0.125000X0.400000X0.000000X0.400000X-0.125000X-0.400000X-0.125000X0.000000*%
%ADD74R,1.100000X0.250000*%
%ADD75R,0.600000X1.950000*%
%ADD76R,0.700000X0.250000*%
%ADD77R,0.250000X0.700000*%
%ADD78R,0.250000X1.100000*%
%ADD79RotRect,1.600000X2.600000X45.000000*%
%ADD80RoundRect,0.150000X0.512500X0.150000X-0.512500X0.150000X-0.512500X-0.150000X0.512500X-0.150000X0*%
%ADD81RoundRect,0.225000X-0.225000X-0.250000X0.225000X-0.250000X0.225000X0.250000X-0.225000X0.250000X0*%
G04 APERTURE END LIST*
G04 #@! TO.C,G\u002A\u002A\u002A*
G36*
X84402750Y-89754560D02*
G01*
X84228918Y-89730159D01*
X84067466Y-89659717D01*
X83928995Y-89548121D01*
X83824108Y-89400259D01*
X83763405Y-89221020D01*
X83758638Y-89190783D01*
X83761020Y-89131100D01*
X84030747Y-89131100D01*
X84052402Y-89254038D01*
X84119536Y-89359830D01*
X84226962Y-89436642D01*
X84369494Y-89472636D01*
X84404365Y-89473902D01*
X84494945Y-89460920D01*
X84576230Y-89413533D01*
X84633081Y-89361498D01*
X84700492Y-89288037D01*
X84730501Y-89227625D01*
X84733663Y-89151332D01*
X84728636Y-89099609D01*
X84702770Y-88982151D01*
X84647236Y-88895317D01*
X84612542Y-88861448D01*
X84486386Y-88784590D01*
X84354709Y-88769788D01*
X84225102Y-88816723D01*
X84144617Y-88881129D01*
X84059757Y-89002852D01*
X84030747Y-89131100D01*
X83761020Y-89131100D01*
X83765492Y-89019070D01*
X83825413Y-88855515D01*
X83928092Y-88710495D01*
X84063220Y-88594384D01*
X84220492Y-88517557D01*
X84389597Y-88490390D01*
X84450296Y-88494617D01*
X84640847Y-88550443D01*
X84802802Y-88658610D01*
X84924765Y-88811051D01*
X84941461Y-88842307D01*
X85009715Y-89031813D01*
X85017355Y-89209852D01*
X84964500Y-89384302D01*
X84950063Y-89413118D01*
X84875277Y-89520723D01*
X84777737Y-89620283D01*
X84745152Y-89645680D01*
X84578362Y-89728029D01*
X84404365Y-89754316D01*
X84402750Y-89754560D01*
G37*
G36*
X83946205Y-85839750D02*
G01*
X84068739Y-85929654D01*
X84122945Y-85997336D01*
X84161842Y-86066624D01*
X84184129Y-86143902D01*
X84193944Y-86249549D01*
X84195608Y-86355403D01*
X84195608Y-86605646D01*
X83367001Y-86605646D01*
X83367761Y-86438331D01*
X83380173Y-86239705D01*
X83418238Y-86087935D01*
X83486285Y-85969810D01*
X83540131Y-85912484D01*
X83670948Y-85829570D01*
X83809957Y-85805857D01*
X83946205Y-85839750D01*
G37*
G36*
X84244264Y-83557968D02*
G01*
X84287871Y-83612421D01*
X84344121Y-83720884D01*
X84410728Y-83874227D01*
X84476658Y-84036407D01*
X84518698Y-84149043D01*
X84538790Y-84220860D01*
X84538874Y-84260583D01*
X84520891Y-84276938D01*
X84500814Y-84279172D01*
X84438868Y-84255772D01*
X84358755Y-84196420D01*
X84278850Y-84117387D01*
X84217529Y-84034946D01*
X84210398Y-84022002D01*
X84180358Y-83925731D01*
X84165159Y-83800145D01*
X84166821Y-83676661D01*
X84183083Y-83596584D01*
X84210326Y-83553899D01*
X84244264Y-83557968D01*
G37*
G36*
X84115935Y-93088741D02*
G01*
X83824163Y-93083549D01*
X83574715Y-93065821D01*
X83346857Y-93032326D01*
X83119856Y-92979833D01*
X82872979Y-92905112D01*
X82816673Y-92886296D01*
X82368512Y-92701855D01*
X81946234Y-92463086D01*
X81555130Y-92175280D01*
X81200492Y-91843728D01*
X80887613Y-91473718D01*
X80621783Y-91070541D01*
X80408296Y-90639488D01*
X80311672Y-90382183D01*
X80287339Y-90310909D01*
X80264939Y-90247288D01*
X80244393Y-90188577D01*
X80225621Y-90132035D01*
X80208543Y-90074917D01*
X80193080Y-90014480D01*
X80179151Y-89947982D01*
X80166678Y-89872678D01*
X80155581Y-89785827D01*
X80145781Y-89684684D01*
X80137197Y-89566507D01*
X80129750Y-89428552D01*
X80123361Y-89268076D01*
X80119800Y-89145865D01*
X81587379Y-89145865D01*
X81592583Y-89249624D01*
X81598887Y-89325569D01*
X81665656Y-89744200D01*
X81788700Y-90140118D01*
X81964257Y-90508593D01*
X82188564Y-90844894D01*
X82457858Y-91144291D01*
X82768379Y-91402054D01*
X83116362Y-91613452D01*
X83498047Y-91773755D01*
X83562571Y-91794524D01*
X83706926Y-91832044D01*
X83872985Y-91864211D01*
X84045090Y-91889229D01*
X84207585Y-91905300D01*
X84344811Y-91910629D01*
X84441112Y-91903418D01*
X84461925Y-91897724D01*
X84533291Y-91841558D01*
X84562844Y-91756770D01*
X84548760Y-91664373D01*
X84489213Y-91585379D01*
X84489059Y-91585257D01*
X84429506Y-91562554D01*
X84332715Y-91548128D01*
X84315503Y-91547413D01*
X84267515Y-91545420D01*
X83987706Y-91518353D01*
X83680487Y-91438132D01*
X83351289Y-91306233D01*
X83304533Y-91284101D01*
X83152957Y-91208184D01*
X83034310Y-91139391D01*
X82930005Y-91064248D01*
X82821457Y-90969280D01*
X82690081Y-90841016D01*
X82681585Y-90832487D01*
X82425416Y-90539788D01*
X82228791Y-90233294D01*
X82087741Y-89904545D01*
X81998293Y-89545080D01*
X81967782Y-89311561D01*
X81959010Y-89233685D01*
X82219699Y-89233685D01*
X82249606Y-89540823D01*
X82335463Y-89852063D01*
X82471472Y-90155695D01*
X82651838Y-90440008D01*
X82870763Y-90693293D01*
X83000502Y-90810997D01*
X83156842Y-90922349D01*
X83352011Y-91034569D01*
X83562383Y-91135796D01*
X83764332Y-91214169D01*
X83859707Y-91242343D01*
X84012489Y-91272365D01*
X84169223Y-91288560D01*
X84315503Y-91291088D01*
X84436921Y-91280112D01*
X84519071Y-91255793D01*
X84543620Y-91234693D01*
X84575117Y-91131947D01*
X84543587Y-91038147D01*
X84514303Y-91003639D01*
X84436228Y-90956378D01*
X84356887Y-90945304D01*
X84319177Y-90940041D01*
X84303784Y-90939900D01*
X84046526Y-90911578D01*
X83778798Y-90830912D01*
X83514748Y-90704352D01*
X83268525Y-90538347D01*
X83106072Y-90393860D01*
X82911033Y-90159304D01*
X82754178Y-89891862D01*
X82641808Y-89606125D01*
X82580226Y-89316687D01*
X82570888Y-89163513D01*
X82808597Y-89163513D01*
X82820348Y-89328440D01*
X82822842Y-89345057D01*
X82901726Y-89662382D01*
X83032187Y-89945866D01*
X83209866Y-90191337D01*
X83430408Y-90394626D01*
X83689455Y-90551561D01*
X83982650Y-90657972D01*
X84242852Y-90704334D01*
X84356887Y-90713225D01*
X84428232Y-90708390D01*
X84477124Y-90686252D01*
X84510311Y-90657066D01*
X84568403Y-90566809D01*
X84568608Y-90477502D01*
X84532086Y-90420454D01*
X84478914Y-90393124D01*
X84382710Y-90364837D01*
X84373181Y-90362968D01*
X84263809Y-90341513D01*
X84257876Y-90340620D01*
X83980938Y-90270151D01*
X83735696Y-90148840D01*
X83527657Y-89982277D01*
X83362328Y-89776053D01*
X83245219Y-89535759D01*
X83181836Y-89266988D01*
X83179401Y-89245824D01*
X83159390Y-89109318D01*
X83129327Y-89024846D01*
X83103046Y-89000940D01*
X83404623Y-89000940D01*
X83405374Y-89180518D01*
X83427639Y-89360224D01*
X83469164Y-89514120D01*
X83489637Y-89560657D01*
X83632069Y-89775664D01*
X83811003Y-89939932D01*
X84022165Y-90050799D01*
X84261282Y-90105601D01*
X84373181Y-90111267D01*
X84597203Y-90096033D01*
X84782173Y-90045474D01*
X84946242Y-89952390D01*
X85090819Y-89826514D01*
X85215963Y-89685429D01*
X85296285Y-89552917D01*
X85324434Y-89481555D01*
X85358510Y-89386037D01*
X85389526Y-89336336D01*
X85433638Y-89317494D01*
X85504820Y-89314555D01*
X85622260Y-89292627D01*
X85710432Y-89234242D01*
X85754686Y-89150497D01*
X85757214Y-89123338D01*
X85735585Y-89053960D01*
X85693475Y-88995860D01*
X85597402Y-88943071D01*
X85529943Y-88934682D01*
X85509350Y-88932121D01*
X85445303Y-88929280D01*
X85401892Y-88912233D01*
X85366081Y-88868195D01*
X85324838Y-88784381D01*
X85299124Y-88725900D01*
X85172128Y-88510293D01*
X84998007Y-88337326D01*
X84777809Y-88207897D01*
X84633814Y-88154478D01*
X84594685Y-88121806D01*
X84579004Y-88046571D01*
X84578043Y-88008905D01*
X84556107Y-87880243D01*
X84514303Y-87816688D01*
X84424068Y-87758391D01*
X84337834Y-87758571D01*
X84264645Y-87812166D01*
X84213544Y-87914113D01*
X84197513Y-87994045D01*
X84182487Y-88088318D01*
X84157309Y-88138693D01*
X84108982Y-88164945D01*
X84079753Y-88173253D01*
X83910654Y-88245447D01*
X83746243Y-88366302D01*
X83600453Y-88521411D01*
X83487217Y-88696369D01*
X83427641Y-88847433D01*
X83404623Y-89000940D01*
X83103046Y-89000940D01*
X83080821Y-88980723D01*
X83005479Y-88965267D01*
X82977334Y-88964478D01*
X82885675Y-88985019D01*
X82829901Y-89050201D01*
X82808597Y-89163513D01*
X82570888Y-89163513D01*
X82570263Y-89153256D01*
X82549593Y-89040017D01*
X82487069Y-88974645D01*
X82394981Y-88956023D01*
X82307924Y-88969647D01*
X82253803Y-89017013D01*
X82226472Y-89107857D01*
X82219699Y-89233685D01*
X81959010Y-89233685D01*
X81953070Y-89180958D01*
X81936136Y-89074593D01*
X81919745Y-89008444D01*
X81913125Y-88995895D01*
X81824877Y-88949134D01*
X81724529Y-88951340D01*
X81645762Y-88996145D01*
X81611609Y-89035706D01*
X81592934Y-89080086D01*
X81587379Y-89145865D01*
X80119800Y-89145865D01*
X80117949Y-89082337D01*
X80113436Y-88868591D01*
X80109742Y-88624094D01*
X80106787Y-88346104D01*
X80104491Y-88031878D01*
X80102775Y-87678672D01*
X80101560Y-87283744D01*
X80101292Y-87135503D01*
X82729611Y-87135503D01*
X82827312Y-87229107D01*
X82925013Y-87322710D01*
X85529943Y-87322710D01*
X85627644Y-87229107D01*
X85688336Y-87161104D01*
X85716921Y-87091886D01*
X85724357Y-86992554D01*
X85724331Y-86974151D01*
X85716382Y-86870862D01*
X85697307Y-86789700D01*
X85684494Y-86764994D01*
X85626222Y-86702375D01*
X85562288Y-86659878D01*
X85478059Y-86632726D01*
X85358902Y-86616140D01*
X85196495Y-86605646D01*
X84868285Y-86589712D01*
X85296121Y-86095734D01*
X85439996Y-85929176D01*
X85547369Y-85802604D01*
X85623593Y-85707929D01*
X85674017Y-85637064D01*
X85703992Y-85581920D01*
X85718868Y-85534409D01*
X85723995Y-85486443D01*
X85724651Y-85447925D01*
X85717512Y-85340740D01*
X85687194Y-85265388D01*
X85632188Y-85200936D01*
X85560503Y-85141368D01*
X85484243Y-85114035D01*
X85381291Y-85107779D01*
X85286307Y-85112225D01*
X85219533Y-85133650D01*
X85155731Y-85184180D01*
X85099453Y-85243225D01*
X85012139Y-85342730D01*
X84911095Y-85463938D01*
X84834124Y-85560341D01*
X84692892Y-85742011D01*
X84617344Y-85608145D01*
X84609912Y-85597639D01*
X84479347Y-85413064D01*
X84311904Y-85257030D01*
X84211543Y-85192856D01*
X84132524Y-85157401D01*
X84044772Y-85136292D01*
X83928941Y-85126323D01*
X83797239Y-85124215D01*
X83647357Y-85126960D01*
X83538290Y-85138012D01*
X83447237Y-85161675D01*
X83351402Y-85202255D01*
X83330579Y-85212327D01*
X83132804Y-85341117D01*
X82958436Y-85516388D01*
X82823732Y-85721283D01*
X82807311Y-85754903D01*
X82780363Y-85816131D01*
X82760537Y-85874478D01*
X82746739Y-85940877D01*
X82737874Y-86026264D01*
X82732849Y-86141572D01*
X82730567Y-86297735D01*
X82729936Y-86505688D01*
X82729922Y-86527977D01*
X82729611Y-87135503D01*
X80101292Y-87135503D01*
X80100765Y-86844349D01*
X80100312Y-86357746D01*
X80100120Y-85821190D01*
X80100110Y-85231939D01*
X80100202Y-84587249D01*
X80100318Y-83884378D01*
X80100323Y-83816975D01*
X83494040Y-83816975D01*
X83512921Y-84037672D01*
X83559726Y-84235927D01*
X83601274Y-84336032D01*
X83746979Y-84553814D01*
X83936326Y-84732840D01*
X84127154Y-84848108D01*
X84225035Y-84889721D01*
X84315599Y-84915108D01*
X84420482Y-84928052D01*
X84561322Y-84932335D01*
X84609912Y-84932497D01*
X84764629Y-84929954D01*
X84877359Y-84919805D01*
X84969739Y-84898266D01*
X85063406Y-84861555D01*
X85092670Y-84848108D01*
X85310810Y-84711641D01*
X85494714Y-84526802D01*
X85635673Y-84303620D01*
X85697257Y-84151694D01*
X85707614Y-84086123D01*
X85714103Y-83975231D01*
X85715927Y-83837361D01*
X85714564Y-83753325D01*
X85707784Y-83594256D01*
X85695247Y-83479475D01*
X85673231Y-83389561D01*
X85638015Y-83305097D01*
X85622952Y-83275282D01*
X85529943Y-83124659D01*
X85517718Y-83104861D01*
X85407608Y-82993271D01*
X85286640Y-82935616D01*
X85194791Y-82924718D01*
X85093292Y-82932771D01*
X85021830Y-82966503D01*
X84957862Y-83028797D01*
X84881441Y-83150363D01*
X84866767Y-83277563D01*
X84913863Y-83414380D01*
X84960477Y-83487492D01*
X85024121Y-83592049D01*
X85051200Y-83693680D01*
X85054956Y-83782009D01*
X85046423Y-83884971D01*
X85025780Y-83977612D01*
X84998300Y-84045864D01*
X84969258Y-84075658D01*
X84949302Y-84063788D01*
X84931660Y-84024736D01*
X84895086Y-83936382D01*
X84843668Y-83808861D01*
X84781498Y-83652306D01*
X84719278Y-83493799D01*
X84648901Y-83317452D01*
X84582864Y-83159128D01*
X84525871Y-83029557D01*
X84482621Y-82939467D01*
X84459728Y-82901439D01*
X84368613Y-82844626D01*
X84239270Y-82823275D01*
X84087908Y-82839692D01*
X84065237Y-82845306D01*
X83922038Y-82911375D01*
X83781998Y-83025133D01*
X83659324Y-83171495D01*
X83568220Y-83335374D01*
X83545360Y-83397419D01*
X83504410Y-83596127D01*
X83494040Y-83816975D01*
X80100323Y-83816975D01*
X80100376Y-83120582D01*
X80100376Y-82231466D01*
X82729611Y-82231466D01*
X82736551Y-82337167D01*
X82765302Y-82410229D01*
X82827312Y-82480550D01*
X82925013Y-82574153D01*
X85529943Y-82574153D01*
X85627644Y-82480550D01*
X85725345Y-82386946D01*
X85725345Y-80811061D01*
X85627291Y-80728555D01*
X85507689Y-80660381D01*
X85406650Y-80646048D01*
X85274497Y-80672016D01*
X85186008Y-80728555D01*
X85087955Y-80811061D01*
X85087955Y-81857089D01*
X84034678Y-81857089D01*
X83737860Y-81857510D01*
X83498165Y-81858957D01*
X83308980Y-81861707D01*
X83163692Y-81866039D01*
X83055690Y-81872231D01*
X82978360Y-81880559D01*
X82925092Y-81891301D01*
X82889272Y-81904736D01*
X82888321Y-81905223D01*
X82800446Y-81967589D01*
X82750612Y-82052276D01*
X82730877Y-82175606D01*
X82729611Y-82231466D01*
X80100376Y-82231466D01*
X80100376Y-79352636D01*
X83497614Y-79352636D01*
X83499635Y-79502091D01*
X83501283Y-79546550D01*
X83510260Y-79707027D01*
X83524855Y-79823832D01*
X83549167Y-79917014D01*
X83587300Y-80006622D01*
X83600932Y-80033648D01*
X83747140Y-80251679D01*
X83936702Y-80430731D01*
X84127154Y-80545724D01*
X84225035Y-80587337D01*
X84315599Y-80612724D01*
X84420482Y-80625668D01*
X84561322Y-80629951D01*
X84609912Y-80630113D01*
X84764629Y-80627570D01*
X84877359Y-80617421D01*
X84969739Y-80595882D01*
X85063406Y-80559171D01*
X85092670Y-80545724D01*
X85308382Y-80410784D01*
X85491395Y-80228559D01*
X85630786Y-80011669D01*
X85695543Y-79849310D01*
X85717773Y-79724219D01*
X85725270Y-79560450D01*
X85719050Y-79381090D01*
X85700128Y-79209223D01*
X85669521Y-79067935D01*
X85659893Y-79039375D01*
X85571516Y-78870718D01*
X85560191Y-78849106D01*
X85413656Y-78669183D01*
X85236678Y-78518057D01*
X85146861Y-78461790D01*
X85068903Y-78420757D01*
X85000945Y-78393718D01*
X84926478Y-78377770D01*
X84828996Y-78370011D01*
X84691991Y-78367539D01*
X84609912Y-78367378D01*
X84448822Y-78368377D01*
X84334956Y-78373308D01*
X84251806Y-78385074D01*
X84182865Y-78406577D01*
X84111627Y-78440721D01*
X84072963Y-78461790D01*
X83882368Y-78596966D01*
X83716538Y-78771394D01*
X83591656Y-78966744D01*
X83556979Y-79046146D01*
X83523970Y-79145478D01*
X83504954Y-79240703D01*
X83497614Y-79352636D01*
X80100376Y-79352636D01*
X80100376Y-77704403D01*
X82729533Y-77704403D01*
X82737790Y-77839252D01*
X82783703Y-77959705D01*
X82806525Y-77991134D01*
X82883440Y-78080552D01*
X85571516Y-78080552D01*
X85648430Y-77991134D01*
X85706472Y-77881073D01*
X85726876Y-77746770D01*
X85706604Y-77617517D01*
X85690910Y-77581782D01*
X85619520Y-77508273D01*
X85495356Y-77458709D01*
X85315770Y-77432318D01*
X85160685Y-77427215D01*
X84880803Y-77427202D01*
X85303767Y-77020878D01*
X85726731Y-76614555D01*
X85726038Y-76449553D01*
X85706312Y-76309805D01*
X85645604Y-76216501D01*
X85539548Y-76165538D01*
X85409799Y-76152447D01*
X85353476Y-76153818D01*
X85305769Y-76162269D01*
X85257562Y-76184303D01*
X85199736Y-76226425D01*
X85123175Y-76295140D01*
X85018760Y-76396953D01*
X84898417Y-76517262D01*
X84774603Y-76639127D01*
X84665838Y-76741842D01*
X84593418Y-76806348D01*
X84580146Y-76818170D01*
X84525552Y-76860877D01*
X84510408Y-76867103D01*
X84483596Y-76836412D01*
X84428799Y-76764149D01*
X84354129Y-76661278D01*
X84272011Y-76544948D01*
X84181702Y-76417542D01*
X84099191Y-76304962D01*
X84034246Y-76220305D01*
X83999247Y-76179172D01*
X83917437Y-76135778D01*
X83804847Y-76121254D01*
X83687799Y-76136150D01*
X83606511Y-76170992D01*
X83532802Y-76251468D01*
X83485000Y-76364581D01*
X83474122Y-76480995D01*
X83479172Y-76510100D01*
X83505094Y-76560384D01*
X83564272Y-76649683D01*
X83649443Y-76767808D01*
X83753341Y-76904572D01*
X83828021Y-76999319D01*
X84157484Y-77411292D01*
X83547123Y-77427227D01*
X83312707Y-77434525D01*
X83133476Y-77443738D01*
X83038890Y-77452903D01*
X83000877Y-77456586D01*
X82906357Y-77474791D01*
X82841362Y-77500076D01*
X82797340Y-77534161D01*
X82765736Y-77578768D01*
X82762211Y-77585210D01*
X82729533Y-77704403D01*
X80100376Y-77704403D01*
X80100376Y-76646424D01*
X80173879Y-76313910D01*
X80313699Y-75816276D01*
X80378665Y-75660092D01*
X82706027Y-75660092D01*
X82751584Y-75788572D01*
X82842852Y-75878968D01*
X82974656Y-75924512D01*
X83038890Y-75928652D01*
X83190953Y-75901885D01*
X83305891Y-75830058D01*
X83377366Y-75723533D01*
X83396463Y-75608220D01*
X83492782Y-75608220D01*
X83511778Y-75736077D01*
X83527293Y-75771778D01*
X83555553Y-75816397D01*
X83592032Y-75851758D01*
X83643916Y-75878925D01*
X83718394Y-75898959D01*
X83822652Y-75912923D01*
X83963877Y-75921880D01*
X84149257Y-75926890D01*
X84385977Y-75929018D01*
X84593418Y-75929360D01*
X84891712Y-75928395D01*
X85132436Y-75924264D01*
X85321746Y-75915111D01*
X85465798Y-75899082D01*
X85570748Y-75874320D01*
X85642752Y-75838972D01*
X85687965Y-75791182D01*
X85712544Y-75729095D01*
X85722644Y-75650856D01*
X85724376Y-75588540D01*
X85706514Y-75462347D01*
X85648430Y-75365454D01*
X85571516Y-75276035D01*
X83648308Y-75276035D01*
X83571394Y-75365454D01*
X83513738Y-75474690D01*
X83492782Y-75608220D01*
X83396463Y-75608220D01*
X83399037Y-75592675D01*
X83364566Y-75447847D01*
X83350736Y-75418810D01*
X83284895Y-75327771D01*
X83194734Y-75277722D01*
X83063995Y-75260390D01*
X83038764Y-75260101D01*
X82891601Y-75284682D01*
X82782980Y-75355276D01*
X82719343Y-75467158D01*
X82711354Y-75500293D01*
X82706027Y-75660092D01*
X80378665Y-75660092D01*
X80505786Y-75354479D01*
X80751537Y-74925949D01*
X81052349Y-74528120D01*
X81277155Y-74285687D01*
X81657450Y-73948924D01*
X82068004Y-73666914D01*
X82504594Y-73440805D01*
X82962997Y-73271743D01*
X83438991Y-73160875D01*
X83928352Y-73109349D01*
X84426856Y-73118311D01*
X84930282Y-73188908D01*
X85139660Y-73236577D01*
X85606773Y-73387172D01*
X86046357Y-73593129D01*
X86454895Y-73850765D01*
X86828870Y-74156400D01*
X87164766Y-74506352D01*
X87459066Y-74896939D01*
X87708253Y-75324480D01*
X87908811Y-75785294D01*
X88057222Y-76275699D01*
X88062020Y-76295860D01*
X88129573Y-76582685D01*
X88134502Y-82972522D01*
X88134931Y-83607038D01*
X88135233Y-84225083D01*
X88135410Y-84823595D01*
X88135466Y-85399509D01*
X88135405Y-85949763D01*
X88135228Y-86471292D01*
X88134940Y-86961033D01*
X88134545Y-87415923D01*
X88134045Y-87832898D01*
X88133444Y-88208894D01*
X88132746Y-88540848D01*
X88131953Y-88825696D01*
X88131069Y-89060375D01*
X88130098Y-89241821D01*
X88129042Y-89366971D01*
X88127906Y-89432761D01*
X88127394Y-89442033D01*
X88116910Y-89512454D01*
X88100617Y-89622998D01*
X88081897Y-89750714D01*
X88080434Y-89760728D01*
X87984218Y-90204096D01*
X87829074Y-90637723D01*
X87619733Y-91055093D01*
X87360923Y-91449696D01*
X87057375Y-91815018D01*
X86713818Y-92144547D01*
X86334981Y-92431769D01*
X85992547Y-92635791D01*
X85620995Y-92812229D01*
X85259857Y-92941637D01*
X84892183Y-93028104D01*
X84501028Y-93075721D01*
X84344811Y-93081003D01*
X84115935Y-93088741D01*
G37*
G36*
X84663604Y-78970139D02*
G01*
X84747638Y-79003325D01*
X84785200Y-79020706D01*
X84913303Y-79115839D01*
X85003586Y-79250502D01*
X85051734Y-79409999D01*
X85053432Y-79579637D01*
X85004365Y-79744722D01*
X85000264Y-79753066D01*
X84908599Y-79875800D01*
X84782799Y-79964770D01*
X84642766Y-80006946D01*
X84609912Y-80008658D01*
X84461103Y-79981431D01*
X84340289Y-79907235D01*
X84249459Y-79797293D01*
X84190606Y-79662829D01*
X84165721Y-79515066D01*
X84176796Y-79365230D01*
X84225821Y-79224544D01*
X84314789Y-79104233D01*
X84434624Y-79020706D01*
X84523569Y-78982012D01*
X84593013Y-78959387D01*
X84609912Y-78956964D01*
X84663604Y-78970139D01*
G37*
G04 #@! TD*
D10*
G04 #@! TO.C,R14*
X112799999Y-100599999D03*
X112799999Y-101619999D03*
G04 #@! TD*
D11*
G04 #@! TO.C,C81*
X119119999Y-111119999D03*
X120079999Y-111119999D03*
G04 #@! TD*
D12*
G04 #@! TO.C,R74*
X101739376Y-90539376D03*
X102460624Y-91260624D03*
G04 #@! TD*
D10*
G04 #@! TO.C,R54*
X100674999Y-100574999D03*
X100674999Y-101594999D03*
G04 #@! TD*
D13*
G04 #@! TO.C,U1*
X120469684Y-78999748D03*
X120116131Y-78646195D03*
X119762577Y-78292641D03*
X119409024Y-77939088D03*
X119055471Y-77585535D03*
X118701917Y-77231981D03*
X118348364Y-76878428D03*
X117994810Y-76524874D03*
X117641257Y-76171321D03*
X117287704Y-75817768D03*
X116934150Y-75464214D03*
X116580597Y-75110661D03*
X116227044Y-74757107D03*
X115873490Y-74403554D03*
X115519937Y-74050001D03*
X115166383Y-73696447D03*
X114812830Y-73342894D03*
X114459277Y-72989341D03*
X114105723Y-72635787D03*
X113752170Y-72282234D03*
X113398616Y-71928680D03*
X113045063Y-71575127D03*
X112691510Y-71221574D03*
X112337956Y-70868020D03*
X111984403Y-70514467D03*
D14*
X109615595Y-70514467D03*
X109262042Y-70868020D03*
X108908488Y-71221574D03*
X108554935Y-71575127D03*
X108201382Y-71928680D03*
X107847828Y-72282234D03*
X107494275Y-72635787D03*
X107140721Y-72989341D03*
X106787168Y-73342894D03*
X106433615Y-73696447D03*
X106080061Y-74050001D03*
X105726508Y-74403554D03*
X105372954Y-74757107D03*
X105019401Y-75110661D03*
X104665848Y-75464214D03*
X104312294Y-75817768D03*
X103958741Y-76171321D03*
X103605188Y-76524874D03*
X103251634Y-76878428D03*
X102898081Y-77231981D03*
X102544527Y-77585535D03*
X102190974Y-77939088D03*
X101837421Y-78292641D03*
X101483867Y-78646195D03*
X101130314Y-78999748D03*
D13*
X101130314Y-81368556D03*
X101483867Y-81722109D03*
X101837421Y-82075663D03*
X102190974Y-82429216D03*
X102544527Y-82782769D03*
X102898081Y-83136323D03*
X103251634Y-83489876D03*
X103605188Y-83843430D03*
X103958741Y-84196983D03*
X104312294Y-84550536D03*
X104665848Y-84904090D03*
X105019401Y-85257643D03*
X105372954Y-85611197D03*
X105726508Y-85964750D03*
X106080061Y-86318303D03*
X106433615Y-86671857D03*
X106787168Y-87025410D03*
X107140721Y-87378963D03*
X107494275Y-87732517D03*
X107847828Y-88086070D03*
X108201382Y-88439624D03*
X108554935Y-88793177D03*
X108908488Y-89146730D03*
X109262042Y-89500284D03*
X109615595Y-89853837D03*
D14*
X111984403Y-89853837D03*
X112337956Y-89500284D03*
X112691510Y-89146730D03*
X113045063Y-88793177D03*
X113398616Y-88439624D03*
X113752170Y-88086070D03*
X114105723Y-87732517D03*
X114459277Y-87378963D03*
X114812830Y-87025410D03*
X115166383Y-86671857D03*
X115519937Y-86318303D03*
X115873490Y-85964750D03*
X116227044Y-85611197D03*
X116580597Y-85257643D03*
X116934150Y-84904090D03*
X117287704Y-84550536D03*
X117641257Y-84196983D03*
X117994810Y-83843430D03*
X118348364Y-83489876D03*
X118701917Y-83136323D03*
X119055471Y-82782769D03*
X119409024Y-82429216D03*
X119762577Y-82075663D03*
X120116131Y-81722109D03*
X120469684Y-81368556D03*
D15*
X111507106Y-80891259D03*
X109385785Y-80184152D03*
X110799999Y-81598366D03*
X110092892Y-80891259D03*
D16*
X110799999Y-80184152D03*
D15*
X110092892Y-79477045D03*
X110799999Y-80184152D03*
X111507106Y-79477045D03*
X110799999Y-78769938D03*
X112214213Y-80184152D03*
G04 #@! TD*
D17*
G04 #@! TO.C,C65*
X116609999Y-117399999D03*
X116609999Y-118359999D03*
G04 #@! TD*
D18*
G04 #@! TO.C,C141*
X74674999Y-107069999D03*
X74674999Y-106109999D03*
G04 #@! TD*
D19*
G04 #@! TO.C,R76*
X104100000Y-98280000D03*
X104100000Y-97260000D03*
G04 #@! TD*
G04 #@! TO.C,R45*
X132649999Y-107084999D03*
X132649999Y-106064999D03*
G04 #@! TD*
D20*
G04 #@! TO.C,R30*
X129972500Y-68950000D03*
X128952500Y-68950000D03*
G04 #@! TD*
D10*
G04 #@! TO.C,R80*
X124537500Y-100550000D03*
X124537500Y-101570000D03*
G04 #@! TD*
D21*
G04 #@! TO.C,D13*
X97674999Y-100332499D03*
X97674999Y-101907499D03*
G04 #@! TD*
D20*
G04 #@! TO.C,R25*
X129972500Y-66350000D03*
X128952500Y-66350000D03*
G04 #@! TD*
D17*
G04 #@! TO.C,C127*
X74349999Y-117389999D03*
X74349999Y-118349999D03*
G04 #@! TD*
D21*
G04 #@! TO.C,D14*
X95974999Y-100332499D03*
X95974999Y-101907499D03*
G04 #@! TD*
D22*
G04 #@! TO.C,C17*
X117600000Y-71550000D03*
X118278822Y-70871178D03*
G04 #@! TD*
D19*
G04 #@! TO.C,R8*
X130374999Y-101619999D03*
X130374999Y-100599999D03*
G04 #@! TD*
D11*
G04 #@! TO.C,C102*
X95444999Y-116399999D03*
X96404999Y-116399999D03*
G04 #@! TD*
D21*
G04 #@! TO.C,D10*
X136249999Y-100344999D03*
X136249999Y-101919999D03*
G04 #@! TD*
D23*
G04 #@! TO.C,C28*
X105691455Y-89542696D03*
X105012633Y-90221518D03*
G04 #@! TD*
D20*
G04 #@! TO.C,R2*
X130282500Y-60200000D03*
X129262500Y-60200000D03*
G04 #@! TD*
D19*
G04 #@! TO.C,R63*
X68224999Y-112204999D03*
X68224999Y-111184999D03*
G04 #@! TD*
D24*
G04 #@! TO.C,C149*
X122817500Y-96950000D03*
X121857500Y-96950000D03*
G04 #@! TD*
D20*
G04 #@! TO.C,R50*
X107344999Y-107759999D03*
X106324999Y-107759999D03*
G04 #@! TD*
D10*
G04 #@! TO.C,R46*
X120749999Y-100569999D03*
X120749999Y-101589999D03*
G04 #@! TD*
D11*
G04 #@! TO.C,C73*
X119119999Y-114799999D03*
X120079999Y-114799999D03*
G04 #@! TD*
G04 #@! TO.C,C134*
X78919999Y-113759999D03*
X79879999Y-113759999D03*
G04 #@! TD*
D25*
G04 #@! TO.C,C151*
X104250000Y-72600000D03*
X103571178Y-71921178D03*
G04 #@! TD*
D26*
G04 #@! TO.C,D18*
X88570000Y-68510228D03*
D27*
X88570000Y-66810228D03*
X86570000Y-66810228D03*
X86570000Y-68710228D03*
G04 #@! TD*
D19*
G04 #@! TO.C,R57*
X86274999Y-116669999D03*
X86274999Y-115649999D03*
G04 #@! TD*
D28*
G04 #@! TO.C,C11*
X79149999Y-71449999D03*
X79149999Y-69899999D03*
G04 #@! TD*
D29*
G04 #@! TO.C,D20*
X101100000Y-63210228D03*
X101100000Y-62710228D03*
X101100000Y-62210228D03*
X100420000Y-62210228D03*
X100420000Y-62710228D03*
X100420000Y-63210228D03*
G04 #@! TD*
D30*
G04 #@! TO.C,Y2*
X99939411Y-84660589D03*
X98949461Y-83670639D03*
G04 #@! TD*
D18*
G04 #@! TO.C,C146*
X105250000Y-98250000D03*
X105250000Y-97290000D03*
G04 #@! TD*
D22*
G04 #@! TO.C,C29*
X115400000Y-69350000D03*
X116078822Y-68671178D03*
G04 #@! TD*
D11*
G04 #@! TO.C,C130*
X75344999Y-116399999D03*
X76304999Y-116399999D03*
G04 #@! TD*
D10*
G04 #@! TO.C,R37*
X76724999Y-81799999D03*
X76724999Y-82819999D03*
G04 #@! TD*
D31*
G04 #@! TO.C,J7*
X84680000Y-59095228D03*
X90460000Y-59095228D03*
D32*
X90920000Y-60160228D03*
X90120000Y-60160228D03*
X88820000Y-60160228D03*
X87820000Y-60160228D03*
X87320000Y-60160228D03*
X86320000Y-60160228D03*
X85020000Y-60160228D03*
X84220000Y-60160228D03*
X84520000Y-60160228D03*
X85320000Y-60160228D03*
X85820000Y-60160228D03*
X86820000Y-60160228D03*
X88320000Y-60160228D03*
X89320000Y-60160228D03*
X89820000Y-60160228D03*
X90620000Y-60160228D03*
D33*
X83250000Y-55415228D03*
D34*
X91890000Y-59595228D03*
X83250000Y-59595228D03*
D33*
X91890000Y-55415228D03*
G04 #@! TD*
D35*
G04 #@! TO.C,C117*
X77749999Y-117159999D03*
X77749999Y-118709999D03*
G04 #@! TD*
D36*
G04 #@! TO.C,D2*
X131725000Y-60200000D03*
X133300000Y-60200000D03*
G04 #@! TD*
D22*
G04 #@! TO.C,C9*
X98010589Y-86589411D03*
X98689411Y-85910589D03*
G04 #@! TD*
D37*
G04 #@! TO.C,SW3*
X71079999Y-84749999D03*
X68869999Y-84749999D03*
D38*
X69969999Y-82599999D03*
X69969999Y-79599999D03*
D37*
X68869999Y-77449999D03*
X71079999Y-77449999D03*
D39*
X71729999Y-78849999D03*
X71729999Y-81849999D03*
X71729999Y-83349999D03*
G04 #@! TD*
D36*
G04 #@! TO.C,D4*
X131725000Y-64000000D03*
X133300000Y-64000000D03*
G04 #@! TD*
D19*
G04 #@! TO.C,R43*
X137949999Y-98989999D03*
X137949999Y-97969999D03*
G04 #@! TD*
G04 #@! TO.C,R47*
X108449999Y-112209999D03*
X108449999Y-111189999D03*
G04 #@! TD*
D40*
G04 #@! TO.C,SW2*
X135674999Y-74099999D03*
X138424999Y-74099999D03*
D41*
X137899999Y-76724999D03*
X137899999Y-71474999D03*
X136199999Y-76724999D03*
X136199999Y-71474999D03*
G04 #@! TD*
D21*
G04 #@! TO.C,D16*
X75874999Y-100332499D03*
X75874999Y-101907499D03*
G04 #@! TD*
D24*
G04 #@! TO.C,C88*
X87224999Y-112159999D03*
X86264999Y-112159999D03*
G04 #@! TD*
D10*
G04 #@! TO.C,R73*
X87010000Y-70600228D03*
X87010000Y-71620228D03*
G04 #@! TD*
D42*
G04 #@! TO.C,U5*
X111174999Y-109784999D03*
X111174999Y-110184999D03*
X111174999Y-110584999D03*
X111174999Y-110984999D03*
X111174999Y-111384999D03*
X111174999Y-111784999D03*
X111174999Y-112184999D03*
X111174999Y-112584999D03*
X111174999Y-112984999D03*
X111174999Y-113384999D03*
X111174999Y-113784999D03*
X111174999Y-114184999D03*
D43*
X111924999Y-114934999D03*
X112324999Y-114934999D03*
X112724999Y-114934999D03*
X113124999Y-114934999D03*
X113524999Y-114934999D03*
X113924999Y-114934999D03*
X114324999Y-114934999D03*
X114724999Y-114934999D03*
X115124999Y-114934999D03*
X115524999Y-114934999D03*
X115924999Y-114934999D03*
X116324999Y-114934999D03*
D42*
X117074999Y-114184999D03*
X117074999Y-113784999D03*
X117074999Y-113384999D03*
X117074999Y-112984999D03*
X117074999Y-112584999D03*
X117074999Y-112184999D03*
X117074999Y-111784999D03*
X117074999Y-111384999D03*
X117074999Y-110984999D03*
X117074999Y-110584999D03*
X117074999Y-110184999D03*
X117074999Y-109784999D03*
D43*
X116324999Y-109034999D03*
X115924999Y-109034999D03*
X115524999Y-109034999D03*
X115124999Y-109034999D03*
X114724999Y-109034999D03*
X114324999Y-109034999D03*
X113924999Y-109034999D03*
X113524999Y-109034999D03*
X113124999Y-109034999D03*
X112724999Y-109034999D03*
X112324999Y-109034999D03*
X111924999Y-109034999D03*
D44*
X114124999Y-111984999D03*
G04 #@! TD*
D10*
G04 #@! TO.C,R15*
X92649999Y-100589999D03*
X92649999Y-101609999D03*
G04 #@! TD*
D17*
G04 #@! TO.C,C86*
X113974999Y-120749999D03*
X113974999Y-121709999D03*
G04 #@! TD*
D45*
G04 #@! TO.C,C150*
X121260589Y-84160589D03*
X121939411Y-84839411D03*
G04 #@! TD*
D46*
G04 #@! TO.C,R23*
X131389999Y-79850000D03*
X132409999Y-79850000D03*
G04 #@! TD*
D47*
G04 #@! TO.C,U12*
X91825000Y-90700000D03*
D48*
X91825000Y-90200000D03*
D47*
X91825000Y-89700000D03*
D49*
X91150000Y-89550000D03*
D50*
X90475000Y-89700000D03*
D51*
X90475000Y-90200000D03*
D50*
X90475000Y-90700000D03*
D52*
X91150000Y-90850000D03*
G04 #@! TD*
D53*
G04 #@! TO.C,L1*
X114497225Y-66204788D03*
X115306863Y-67014426D03*
G04 #@! TD*
D19*
G04 #@! TO.C,R60*
X95974999Y-98989999D03*
X95974999Y-97969999D03*
G04 #@! TD*
D24*
G04 #@! TO.C,C100*
X88384999Y-114559999D03*
X87424999Y-114559999D03*
G04 #@! TD*
D18*
G04 #@! TO.C,C68*
X109599999Y-116594999D03*
X109599999Y-115634999D03*
G04 #@! TD*
D11*
G04 #@! TO.C,C109*
X99019999Y-111119999D03*
X99979999Y-111119999D03*
G04 #@! TD*
G04 #@! TO.C,C69*
X119114999Y-112499999D03*
X120074999Y-112499999D03*
G04 #@! TD*
D17*
G04 #@! TO.C,C114*
X93849999Y-120749999D03*
X93849999Y-121709999D03*
G04 #@! TD*
D35*
G04 #@! TO.C,C61*
X117924999Y-117159999D03*
X117924999Y-118709999D03*
G04 #@! TD*
D20*
G04 #@! TO.C,R66*
X67144999Y-107759999D03*
X66124999Y-107759999D03*
G04 #@! TD*
D29*
G04 #@! TO.C,D6*
X123969999Y-62565229D03*
X123969999Y-62065229D03*
X123969999Y-61565229D03*
X123289999Y-61565229D03*
X123289999Y-62065229D03*
X123289999Y-62565229D03*
G04 #@! TD*
D17*
G04 #@! TO.C,C93*
X96499999Y-117399999D03*
X96499999Y-118359999D03*
G04 #@! TD*
G04 #@! TO.C,C59*
X132875000Y-120749999D03*
X132875000Y-121709999D03*
G04 #@! TD*
D11*
G04 #@! TO.C,C98*
X87414999Y-115659999D03*
X88374999Y-115659999D03*
G04 #@! TD*
D54*
G04 #@! TO.C,D8*
X76699999Y-80297499D03*
X76699999Y-78722499D03*
G04 #@! TD*
D55*
G04 #@! TO.C,U4*
X134175000Y-124159999D03*
X134175000Y-123509999D03*
X134175000Y-122859999D03*
X132875000Y-122859999D03*
X132875000Y-123509999D03*
X132875000Y-124159999D03*
G04 #@! TD*
D24*
G04 #@! TO.C,C32*
X127494999Y-112214999D03*
X126534999Y-112214999D03*
G04 #@! TD*
D10*
G04 #@! TO.C,R70*
X88820000Y-64150228D03*
X88820000Y-65170228D03*
G04 #@! TD*
D18*
G04 #@! TO.C,C38*
X131599999Y-107064999D03*
X131599999Y-106104999D03*
G04 #@! TD*
D19*
G04 #@! TO.C,R35*
X70649999Y-71570000D03*
X70649999Y-70550000D03*
G04 #@! TD*
G04 #@! TO.C,R39*
X128649999Y-112209999D03*
X128649999Y-111189999D03*
G04 #@! TD*
D56*
G04 #@! TO.C,C1*
X115949999Y-62020228D03*
X114399999Y-62020228D03*
G04 #@! TD*
D18*
G04 #@! TO.C,C84*
X110324999Y-107054999D03*
X110324999Y-106094999D03*
G04 #@! TD*
D57*
G04 #@! TO.C,D17*
X77920000Y-60110228D03*
X80720000Y-60110228D03*
G04 #@! TD*
D58*
G04 #@! TO.C,J6*
X73774999Y-127459999D03*
D59*
X75249999Y-128984999D03*
X72299999Y-128984999D03*
G04 #@! TD*
D24*
G04 #@! TO.C,C107*
X87229999Y-110009999D03*
X86269999Y-110009999D03*
G04 #@! TD*
G04 #@! TO.C,C72*
X108479999Y-114559999D03*
X107519999Y-114559999D03*
G04 #@! TD*
G04 #@! TO.C,C51*
X127479999Y-110009999D03*
X126519999Y-110009999D03*
G04 #@! TD*
D20*
G04 #@! TO.C,R42*
X127499999Y-107759999D03*
X126479999Y-107759999D03*
G04 #@! TD*
D21*
G04 #@! TO.C,D12*
X116074999Y-100332499D03*
X116074999Y-101907499D03*
G04 #@! TD*
D55*
G04 #@! TO.C,U8*
X93849999Y-124159999D03*
X93849999Y-123509999D03*
X93849999Y-122859999D03*
X92549999Y-122859999D03*
X92549999Y-123509999D03*
X92549999Y-124159999D03*
G04 #@! TD*
D24*
G04 #@! TO.C,C54*
X128679999Y-113459999D03*
X127719999Y-113459999D03*
G04 #@! TD*
D11*
G04 #@! TO.C,C78*
X119114999Y-113769999D03*
X120074999Y-113769999D03*
G04 #@! TD*
G04 #@! TO.C,C97*
X99019999Y-112499999D03*
X99979999Y-112499999D03*
G04 #@! TD*
D17*
G04 #@! TO.C,C120*
X65024999Y-113179999D03*
X65024999Y-114139999D03*
G04 #@! TD*
G04 #@! TO.C,C115*
X92549999Y-120749999D03*
X92549999Y-121709999D03*
G04 #@! TD*
D18*
G04 #@! TO.C,C113*
X94749999Y-107084999D03*
X94749999Y-106124999D03*
G04 #@! TD*
D58*
G04 #@! TO.C,J4*
X113974998Y-127459999D03*
D59*
X112499998Y-128984999D03*
X115449998Y-128984999D03*
G04 #@! TD*
D10*
G04 #@! TO.C,R22*
X93849999Y-100589999D03*
X93849999Y-101609999D03*
G04 #@! TD*
D24*
G04 #@! TO.C,C48*
X127479999Y-108909999D03*
X126519999Y-108909999D03*
G04 #@! TD*
D22*
G04 #@! TO.C,C16*
X101052044Y-74439411D03*
X101730866Y-73760589D03*
G04 #@! TD*
D18*
G04 #@! TO.C,C105*
X93674999Y-107069999D03*
X93674999Y-106109999D03*
G04 #@! TD*
D17*
G04 #@! TO.C,C92*
X85124999Y-113179999D03*
X85124999Y-114139999D03*
G04 #@! TD*
D19*
G04 #@! TO.C,R78*
X84450000Y-95660000D03*
X84450000Y-94640000D03*
G04 #@! TD*
D18*
G04 #@! TO.C,C124*
X69399999Y-116589999D03*
X69399999Y-115629999D03*
G04 #@! TD*
D19*
G04 #@! TO.C,R32*
X128700000Y-72510000D03*
X128700000Y-71490000D03*
G04 #@! TD*
D55*
G04 #@! TO.C,U10*
X73774999Y-124159999D03*
X73774999Y-123509999D03*
X73774999Y-122859999D03*
X72474999Y-122859999D03*
X72474999Y-123509999D03*
X72474999Y-124159999D03*
G04 #@! TD*
D11*
G04 #@! TO.C,C74*
X115569999Y-116409999D03*
X116529999Y-116409999D03*
G04 #@! TD*
D24*
G04 #@! TO.C,C135*
X67104999Y-110009999D03*
X66144999Y-110009999D03*
G04 #@! TD*
D60*
G04 #@! TO.C,FID3*
X76199999Y-56060228D03*
G04 #@! TD*
D25*
G04 #@! TO.C,C22*
X100352044Y-73182107D03*
X99673222Y-72503285D03*
G04 #@! TD*
D10*
G04 #@! TO.C,R18*
X110399999Y-100589999D03*
X110399999Y-101609999D03*
G04 #@! TD*
D19*
G04 #@! TO.C,R41*
X126539999Y-116674999D03*
X126539999Y-115654999D03*
G04 #@! TD*
D10*
G04 #@! TO.C,R29*
X121800000Y-61510229D03*
X121800000Y-62530229D03*
G04 #@! TD*
D21*
G04 #@! TO.C,D9*
X137949999Y-100332499D03*
X137949999Y-101907499D03*
G04 #@! TD*
D17*
G04 #@! TO.C,C62*
X111924999Y-116284999D03*
X111924999Y-117244999D03*
G04 #@! TD*
D45*
G04 #@! TO.C,C30*
X116602044Y-88842696D03*
X117280866Y-89521518D03*
G04 #@! TD*
D42*
G04 #@! TO.C,U7*
X91049999Y-109784999D03*
X91049999Y-110184999D03*
X91049999Y-110584999D03*
X91049999Y-110984999D03*
X91049999Y-111384999D03*
X91049999Y-111784999D03*
X91049999Y-112184999D03*
X91049999Y-112584999D03*
X91049999Y-112984999D03*
X91049999Y-113384999D03*
X91049999Y-113784999D03*
X91049999Y-114184999D03*
D43*
X91799999Y-114934999D03*
X92199999Y-114934999D03*
X92599999Y-114934999D03*
X92999999Y-114934999D03*
X93399999Y-114934999D03*
X93799999Y-114934999D03*
X94199999Y-114934999D03*
X94599999Y-114934999D03*
X94999999Y-114934999D03*
X95399999Y-114934999D03*
X95799999Y-114934999D03*
X96199999Y-114934999D03*
D42*
X96949999Y-114184999D03*
X96949999Y-113784999D03*
X96949999Y-113384999D03*
X96949999Y-112984999D03*
X96949999Y-112584999D03*
X96949999Y-112184999D03*
X96949999Y-111784999D03*
X96949999Y-111384999D03*
X96949999Y-110984999D03*
X96949999Y-110584999D03*
X96949999Y-110184999D03*
X96949999Y-109784999D03*
D43*
X96199999Y-109034999D03*
X95799999Y-109034999D03*
X95399999Y-109034999D03*
X94999999Y-109034999D03*
X94599999Y-109034999D03*
X94199999Y-109034999D03*
X93799999Y-109034999D03*
X93399999Y-109034999D03*
X92999999Y-109034999D03*
X92599999Y-109034999D03*
X92199999Y-109034999D03*
X91799999Y-109034999D03*
D44*
X93999999Y-111984999D03*
G04 #@! TD*
D24*
G04 #@! TO.C,C60*
X107329999Y-112159999D03*
X106369999Y-112159999D03*
G04 #@! TD*
D61*
G04 #@! TO.C,C3*
X74312499Y-60110000D03*
X70187499Y-60110000D03*
G04 #@! TD*
D19*
G04 #@! TO.C,R68*
X75874999Y-98989999D03*
X75874999Y-97969999D03*
G04 #@! TD*
D57*
G04 #@! TO.C,D19*
X109500000Y-60560229D03*
X106700000Y-60560229D03*
G04 #@! TD*
D11*
G04 #@! TO.C,C53*
X139329999Y-111119999D03*
X140289999Y-111119999D03*
G04 #@! TD*
D58*
G04 #@! TO.C,J3*
X134175000Y-127459999D03*
D59*
X135650000Y-128984999D03*
X132700000Y-128984999D03*
G04 #@! TD*
D10*
G04 #@! TO.C,R28*
X120439999Y-61510229D03*
X120439999Y-62530229D03*
G04 #@! TD*
D62*
G04 #@! TO.C,R75*
X99910624Y-87139376D03*
X99189376Y-87860624D03*
G04 #@! TD*
D10*
G04 #@! TO.C,R72*
X88120000Y-70600228D03*
X88120000Y-71620228D03*
G04 #@! TD*
D24*
G04 #@! TO.C,C79*
X107334999Y-110009999D03*
X106374999Y-110009999D03*
G04 #@! TD*
D18*
G04 #@! TO.C,C56*
X130549999Y-107064999D03*
X130549999Y-106104999D03*
G04 #@! TD*
D24*
G04 #@! TO.C,C148*
X91150000Y-92400000D03*
X90190000Y-92400000D03*
G04 #@! TD*
D10*
G04 #@! TO.C,R81*
X86750000Y-100550000D03*
X86750000Y-101570000D03*
G04 #@! TD*
D19*
G04 #@! TO.C,R4*
X70349999Y-101609999D03*
X70349999Y-100589999D03*
G04 #@! TD*
D24*
G04 #@! TO.C,C144*
X104260000Y-103250000D03*
X103300000Y-103250000D03*
G04 #@! TD*
D11*
G04 #@! TO.C,C42*
X127729999Y-115654999D03*
X128689999Y-115654999D03*
G04 #@! TD*
D22*
G04 #@! TO.C,C21*
X101852044Y-75239411D03*
X102530866Y-74560589D03*
G04 #@! TD*
D19*
G04 #@! TO.C,R52*
X116074999Y-98989999D03*
X116074999Y-97969999D03*
G04 #@! TD*
D10*
G04 #@! TO.C,R20*
X72749999Y-100579999D03*
X72749999Y-101599999D03*
G04 #@! TD*
D60*
G04 #@! TO.C,FID8*
X91799999Y-74599999D03*
G04 #@! TD*
D10*
G04 #@! TO.C,R71*
X85820000Y-64150228D03*
X85820000Y-65170228D03*
G04 #@! TD*
D11*
G04 #@! TO.C,C129*
X78919999Y-114799999D03*
X79879999Y-114799999D03*
G04 #@! TD*
D19*
G04 #@! TO.C,R3*
X73949999Y-101609999D03*
X73949999Y-100589999D03*
G04 #@! TD*
D63*
G04 #@! TO.C,H5*
X82800000Y-129100000D03*
G04 #@! TD*
D11*
G04 #@! TO.C,C126*
X67294999Y-115659999D03*
X68254999Y-115659999D03*
G04 #@! TD*
D60*
G04 #@! TO.C,FID1*
X109970000Y-55860228D03*
G04 #@! TD*
D11*
G04 #@! TO.C,C125*
X78924999Y-112499999D03*
X79884999Y-112499999D03*
G04 #@! TD*
D19*
G04 #@! TO.C,R49*
X106399999Y-116669999D03*
X106399999Y-115649999D03*
G04 #@! TD*
D17*
G04 #@! TO.C,C95*
X95474999Y-117399999D03*
X95474999Y-118359999D03*
G04 #@! TD*
D24*
G04 #@! TO.C,C104*
X87229999Y-108884999D03*
X86269999Y-108884999D03*
G04 #@! TD*
D19*
G04 #@! TO.C,R61*
X92274999Y-107084999D03*
X92274999Y-106064999D03*
G04 #@! TD*
D64*
G04 #@! TO.C,C147*
X96752044Y-74482107D03*
X95656028Y-75578123D03*
G04 #@! TD*
D17*
G04 #@! TO.C,C91*
X85124999Y-111249999D03*
X85124999Y-112209999D03*
G04 #@! TD*
D19*
G04 #@! TO.C,R6*
X132799999Y-101629999D03*
X132799999Y-100609999D03*
G04 #@! TD*
D17*
G04 #@! TO.C,C43*
X134849999Y-117389999D03*
X134849999Y-118349999D03*
G04 #@! TD*
G04 #@! TO.C,C5*
X127199999Y-71520000D03*
X127199999Y-72480000D03*
G04 #@! TD*
D24*
G04 #@! TO.C,C138*
X68259999Y-113459999D03*
X67299999Y-113459999D03*
G04 #@! TD*
D20*
G04 #@! TO.C,R21*
X102120000Y-64785228D03*
X101100000Y-64785228D03*
G04 #@! TD*
D11*
G04 #@! TO.C,C50*
X139319999Y-113769999D03*
X140279999Y-113769999D03*
G04 #@! TD*
D17*
G04 #@! TO.C,C34*
X132124999Y-116284999D03*
X132124999Y-117244999D03*
G04 #@! TD*
G04 #@! TO.C,C90*
X91799999Y-116284999D03*
X91799999Y-117244999D03*
G04 #@! TD*
D24*
G04 #@! TO.C,C154*
X82730000Y-98110000D03*
X81770000Y-98110000D03*
G04 #@! TD*
D11*
G04 #@! TO.C,C41*
X139329999Y-112499999D03*
X140289999Y-112499999D03*
G04 #@! TD*
D10*
G04 #@! TO.C,R40*
X139899999Y-100589999D03*
X139899999Y-101609999D03*
G04 #@! TD*
D65*
G04 #@! TO.C,J2*
X124603948Y-89496050D03*
X127478337Y-85186234D03*
X128913764Y-86621661D03*
D66*
X125950986Y-89047037D03*
X126849012Y-88149012D03*
X127747037Y-87250986D03*
X126849012Y-86352961D03*
X125950986Y-87250986D03*
X125052961Y-88149012D03*
G04 #@! TD*
D22*
G04 #@! TO.C,C23*
X116125000Y-70075000D03*
X116803822Y-69396178D03*
G04 #@! TD*
D20*
G04 #@! TO.C,R31*
X131059999Y-71509999D03*
X130039999Y-71509999D03*
G04 #@! TD*
D25*
G04 #@! TO.C,C25*
X101252044Y-72282107D03*
X100573222Y-71603285D03*
G04 #@! TD*
D10*
G04 #@! TO.C,R62*
X80474999Y-100574999D03*
X80474999Y-101594999D03*
G04 #@! TD*
G04 #@! TO.C,R27*
X119099999Y-61490000D03*
X119099999Y-62510000D03*
G04 #@! TD*
D19*
G04 #@! TO.C,R11*
X90274999Y-101609999D03*
X90274999Y-100589999D03*
G04 #@! TD*
D67*
G04 #@! TO.C,J8*
X105720000Y-57905228D03*
X104720000Y-57905228D03*
X103720000Y-57905228D03*
X102720000Y-57905228D03*
X101720000Y-57905228D03*
X100720000Y-57905228D03*
X99720000Y-57905228D03*
X98720000Y-57905228D03*
D68*
X97420000Y-54030228D03*
X107020000Y-54030228D03*
G04 #@! TD*
D22*
G04 #@! TO.C,C8*
X97000000Y-85600000D03*
X97678822Y-84921178D03*
G04 #@! TD*
D20*
G04 #@! TO.C,R58*
X87259999Y-107759999D03*
X86239999Y-107759999D03*
G04 #@! TD*
D18*
G04 #@! TO.C,C66*
X111374999Y-107054999D03*
X111374999Y-106094999D03*
G04 #@! TD*
G04 #@! TO.C,C77*
X113799999Y-107064999D03*
X113799999Y-106104999D03*
G04 #@! TD*
D17*
G04 #@! TO.C,C143*
X72474999Y-120749999D03*
X72474999Y-121709999D03*
G04 #@! TD*
D40*
G04 #@! TO.C,SW1*
X135674999Y-82499999D03*
X138424999Y-82499999D03*
D41*
X137899999Y-79874999D03*
X137899999Y-85124999D03*
X136199999Y-85124999D03*
X136199999Y-79874999D03*
G04 #@! TD*
D17*
G04 #@! TO.C,C99*
X94449999Y-117399999D03*
X94449999Y-118359999D03*
G04 #@! TD*
D19*
G04 #@! TO.C,R65*
X66174999Y-116644999D03*
X66174999Y-115624999D03*
G04 #@! TD*
D45*
G04 #@! TO.C,C26*
X122262633Y-83167696D03*
X122941455Y-83846518D03*
G04 #@! TD*
D19*
G04 #@! TO.C,R7*
X131574999Y-101629999D03*
X131574999Y-100609999D03*
G04 #@! TD*
D11*
G04 #@! TO.C,C145*
X105340000Y-103250000D03*
X106300000Y-103250000D03*
G04 #@! TD*
D18*
G04 #@! TO.C,C122*
X71174999Y-107059999D03*
X71174999Y-106099999D03*
G04 #@! TD*
D24*
G04 #@! TO.C,C128*
X68259999Y-114559999D03*
X67299999Y-114559999D03*
G04 #@! TD*
D45*
G04 #@! TO.C,C6*
X106730329Y-65421178D03*
X107409151Y-66100000D03*
G04 #@! TD*
D60*
G04 #@! TO.C,FID2*
X123400000Y-120700000D03*
G04 #@! TD*
D69*
G04 #@! TO.C,C27*
X99212633Y-74342696D03*
X98116617Y-73246680D03*
G04 #@! TD*
D10*
G04 #@! TO.C,R79*
X126837500Y-100550000D03*
X126837500Y-101570000D03*
G04 #@! TD*
D55*
G04 #@! TO.C,U6*
X113974999Y-124159999D03*
X113974999Y-123509999D03*
X113974999Y-122859999D03*
X112674999Y-122859999D03*
X112674999Y-123509999D03*
X112674999Y-124159999D03*
G04 #@! TD*
D35*
G04 #@! TO.C,C89*
X97824999Y-117184999D03*
X97824999Y-118734999D03*
G04 #@! TD*
D42*
G04 #@! TO.C,U9*
X70974999Y-109759999D03*
X70974999Y-110159999D03*
X70974999Y-110559999D03*
X70974999Y-110959999D03*
X70974999Y-111359999D03*
X70974999Y-111759999D03*
X70974999Y-112159999D03*
X70974999Y-112559999D03*
X70974999Y-112959999D03*
X70974999Y-113359999D03*
X70974999Y-113759999D03*
X70974999Y-114159999D03*
D43*
X71724999Y-114909999D03*
X72124999Y-114909999D03*
X72524999Y-114909999D03*
X72924999Y-114909999D03*
X73324999Y-114909999D03*
X73724999Y-114909999D03*
X74124999Y-114909999D03*
X74524999Y-114909999D03*
X74924999Y-114909999D03*
X75324999Y-114909999D03*
X75724999Y-114909999D03*
X76124999Y-114909999D03*
D42*
X76874999Y-114159999D03*
X76874999Y-113759999D03*
X76874999Y-113359999D03*
X76874999Y-112959999D03*
X76874999Y-112559999D03*
X76874999Y-112159999D03*
X76874999Y-111759999D03*
X76874999Y-111359999D03*
X76874999Y-110959999D03*
X76874999Y-110559999D03*
X76874999Y-110159999D03*
X76874999Y-109759999D03*
D43*
X76124999Y-109009999D03*
X75724999Y-109009999D03*
X75324999Y-109009999D03*
X74924999Y-109009999D03*
X74524999Y-109009999D03*
X74124999Y-109009999D03*
X73724999Y-109009999D03*
X73324999Y-109009999D03*
X72924999Y-109009999D03*
X72524999Y-109009999D03*
X72124999Y-109009999D03*
X71724999Y-109009999D03*
D44*
X73924999Y-111959999D03*
G04 #@! TD*
D20*
G04 #@! TO.C,R1*
X130282500Y-58350000D03*
X129262500Y-58350000D03*
G04 #@! TD*
D29*
G04 #@! TO.C,D21*
X103370000Y-62210228D03*
X103370000Y-62710228D03*
X103370000Y-63210228D03*
X104050000Y-63210228D03*
X104050000Y-62710228D03*
X104050000Y-62210228D03*
G04 #@! TD*
D24*
G04 #@! TO.C,C153*
X122817500Y-98110000D03*
X121857500Y-98110000D03*
G04 #@! TD*
D11*
G04 #@! TO.C,C137*
X78919999Y-111119999D03*
X79879999Y-111119999D03*
G04 #@! TD*
D19*
G04 #@! TO.C,R9*
X71549999Y-101609999D03*
X71549999Y-100589999D03*
G04 #@! TD*
D11*
G04 #@! TO.C,C46*
X135799999Y-116399999D03*
X136759999Y-116399999D03*
G04 #@! TD*
D15*
G04 #@! TO.C,H1*
X68466726Y-54266726D03*
X66133274Y-51933274D03*
X67300000Y-51450000D03*
X67300000Y-54750000D03*
X65650000Y-53100000D03*
X66133274Y-54266726D03*
D63*
X67300000Y-53100000D03*
D15*
X68466726Y-51933274D03*
X68950000Y-53100000D03*
G04 #@! TD*
D60*
G04 #@! TO.C,FID5*
X65000000Y-97650000D03*
G04 #@! TD*
D20*
G04 #@! TO.C,R34*
X71559999Y-66949999D03*
X70539999Y-66949999D03*
G04 #@! TD*
D19*
G04 #@! TO.C,R24*
X117599999Y-62550229D03*
X117599999Y-61530229D03*
G04 #@! TD*
D18*
G04 #@! TO.C,C133*
X73624999Y-107069999D03*
X73624999Y-106109999D03*
G04 #@! TD*
D24*
G04 #@! TO.C,C132*
X67104999Y-108884999D03*
X66144999Y-108884999D03*
G04 #@! TD*
D19*
G04 #@! TO.C,R67*
X77574999Y-98989999D03*
X77574999Y-97969999D03*
G04 #@! TD*
D22*
G04 #@! TO.C,C19*
X116885589Y-70839411D03*
X117564411Y-70160589D03*
G04 #@! TD*
D21*
G04 #@! TO.C,D15*
X77574999Y-100332499D03*
X77574999Y-101907499D03*
G04 #@! TD*
D10*
G04 #@! TO.C,R16*
X113999999Y-100609999D03*
X113999999Y-101629999D03*
G04 #@! TD*
D70*
G04 #@! TO.C,D5*
X122943970Y-91963137D03*
X122590416Y-91609584D03*
X122236863Y-91256030D03*
X121756030Y-91736863D03*
X122109584Y-92090416D03*
X122463137Y-92443970D03*
G04 #@! TD*
D18*
G04 #@! TO.C,C10*
X77349999Y-71450000D03*
X77349999Y-70490000D03*
G04 #@! TD*
D24*
G04 #@! TO.C,C44*
X128679999Y-114559999D03*
X127719999Y-114559999D03*
G04 #@! TD*
D71*
G04 #@! TO.C,U11*
X106350000Y-101500000D03*
X106350000Y-100100000D03*
X105250000Y-100100000D03*
X105250000Y-101500000D03*
G04 #@! TD*
D53*
G04 #@! TO.C,L2*
X94395181Y-82579334D03*
X95204819Y-83388972D03*
G04 #@! TD*
D37*
G04 #@! TO.C,D7*
X133062500Y-66850000D03*
X133062500Y-68350000D03*
X131962500Y-68350000D03*
X131962500Y-66850000D03*
G04 #@! TD*
D72*
G04 #@! TO.C,L3*
X99065738Y-76895801D03*
X97952044Y-75782107D03*
G04 #@! TD*
D10*
G04 #@! TO.C,R38*
X141099999Y-100599999D03*
X141099999Y-101619999D03*
G04 #@! TD*
D23*
G04 #@! TO.C,C20*
X103552044Y-87382107D03*
X102873222Y-88060929D03*
G04 #@! TD*
D42*
G04 #@! TO.C,U3*
X131374999Y-109784999D03*
X131374999Y-110184999D03*
X131374999Y-110584999D03*
X131374999Y-110984999D03*
X131374999Y-111384999D03*
X131374999Y-111784999D03*
X131374999Y-112184999D03*
X131374999Y-112584999D03*
X131374999Y-112984999D03*
X131374999Y-113384999D03*
X131374999Y-113784999D03*
X131374999Y-114184999D03*
D43*
X132124999Y-114934999D03*
X132524999Y-114934999D03*
X132924999Y-114934999D03*
X133324999Y-114934999D03*
X133724999Y-114934999D03*
X134124999Y-114934999D03*
X134524999Y-114934999D03*
X134924999Y-114934999D03*
X135324999Y-114934999D03*
X135724999Y-114934999D03*
X136124999Y-114934999D03*
X136524999Y-114934999D03*
D42*
X137274999Y-114184999D03*
X137274999Y-113784999D03*
X137274999Y-113384999D03*
X137274999Y-112984999D03*
X137274999Y-112584999D03*
X137274999Y-112184999D03*
X137274999Y-111784999D03*
X137274999Y-111384999D03*
X137274999Y-110984999D03*
X137274999Y-110584999D03*
X137274999Y-110184999D03*
X137274999Y-109784999D03*
D43*
X136524999Y-109034999D03*
X136124999Y-109034999D03*
X135724999Y-109034999D03*
X135324999Y-109034999D03*
X134924999Y-109034999D03*
X134524999Y-109034999D03*
X134124999Y-109034999D03*
X133724999Y-109034999D03*
X133324999Y-109034999D03*
X132924999Y-109034999D03*
X132524999Y-109034999D03*
X132124999Y-109034999D03*
D44*
X134324999Y-111984999D03*
G04 #@! TD*
D35*
G04 #@! TO.C,C33*
X138149999Y-117184999D03*
X138149999Y-118734999D03*
G04 #@! TD*
D10*
G04 #@! TO.C,R64*
X79224999Y-100569999D03*
X79224999Y-101589999D03*
G04 #@! TD*
G04 #@! TO.C,R17*
X91449999Y-100589999D03*
X91449999Y-101609999D03*
G04 #@! TD*
D18*
G04 #@! TO.C,C49*
X133999999Y-107064999D03*
X133999999Y-106104999D03*
G04 #@! TD*
D19*
G04 #@! TO.C,R44*
X136249999Y-98989999D03*
X136249999Y-97969999D03*
G04 #@! TD*
D10*
G04 #@! TO.C,R10*
X95750000Y-91090000D03*
X95750000Y-92110000D03*
G04 #@! TD*
D17*
G04 #@! TO.C,C71*
X114589999Y-117399999D03*
X114589999Y-118359999D03*
G04 #@! TD*
D19*
G04 #@! TO.C,R59*
X97674999Y-98989999D03*
X97674999Y-97969999D03*
G04 #@! TD*
D17*
G04 #@! TO.C,C121*
X76399999Y-117389999D03*
X76399999Y-118349999D03*
G04 #@! TD*
D20*
G04 #@! TO.C,R26*
X129972500Y-67650000D03*
X128952500Y-67650000D03*
G04 #@! TD*
D23*
G04 #@! TO.C,C24*
X107791455Y-91642696D03*
X107112633Y-92321518D03*
G04 #@! TD*
D19*
G04 #@! TO.C,R51*
X117749999Y-98989999D03*
X117749999Y-97969999D03*
G04 #@! TD*
D18*
G04 #@! TO.C,C112*
X90174999Y-107059999D03*
X90174999Y-106099999D03*
G04 #@! TD*
D73*
G04 #@! TO.C,U2*
X72649999Y-69349999D03*
D74*
X72799999Y-69999999D03*
X72799999Y-70649999D03*
X72799999Y-71299999D03*
D75*
X73049999Y-72149999D03*
D74*
X72799999Y-72149999D03*
X72799999Y-72999999D03*
D75*
X75049999Y-72149999D03*
D74*
X75299999Y-72999999D03*
X75299999Y-72149999D03*
X75299999Y-71299999D03*
X75299999Y-70649999D03*
X75299999Y-69999999D03*
D76*
X75499999Y-69349999D03*
D77*
X75299999Y-68449999D03*
X74799999Y-68449999D03*
D78*
X74299999Y-68649999D03*
X73799999Y-68649999D03*
D77*
X73299999Y-68449999D03*
X72799999Y-68449999D03*
G04 #@! TD*
D11*
G04 #@! TO.C,C4*
X73789999Y-66449999D03*
X74749999Y-66449999D03*
G04 #@! TD*
D18*
G04 #@! TO.C,C96*
X89499999Y-116589999D03*
X89499999Y-115629999D03*
G04 #@! TD*
D15*
G04 #@! TO.C,H2*
X66950000Y-122100000D03*
D63*
X65300000Y-122100000D03*
D15*
X66466726Y-123266726D03*
X64133274Y-120933274D03*
X64133274Y-123266726D03*
X65300000Y-123750000D03*
X65300000Y-120450000D03*
X66466726Y-120933274D03*
X63650000Y-122100000D03*
G04 #@! TD*
D79*
G04 #@! TO.C,Y1*
X104544937Y-68989214D03*
X105959151Y-67575000D03*
G04 #@! TD*
D80*
G04 #@! TO.C,U13*
X126825000Y-99050000D03*
X126825000Y-98100000D03*
X126825000Y-97150000D03*
X124550000Y-97150000D03*
X124550000Y-98100000D03*
X124550000Y-99050000D03*
G04 #@! TD*
D17*
G04 #@! TO.C,C63*
X105249999Y-111249999D03*
X105249999Y-112209999D03*
G04 #@! TD*
D18*
G04 #@! TO.C,C140*
X70100000Y-107060000D03*
X70100000Y-106100000D03*
G04 #@! TD*
D17*
G04 #@! TO.C,C119*
X65024999Y-111249999D03*
X65024999Y-112209999D03*
G04 #@! TD*
D19*
G04 #@! TO.C,R36*
X70649999Y-69350000D03*
X70649999Y-68330000D03*
G04 #@! TD*
D11*
G04 #@! TO.C,C106*
X99014999Y-113759999D03*
X99974999Y-113759999D03*
G04 #@! TD*
D21*
G04 #@! TO.C,D11*
X117749999Y-100332499D03*
X117749999Y-101907499D03*
G04 #@! TD*
D20*
G04 #@! TO.C,R12*
X130287500Y-62100000D03*
X129267500Y-62100000D03*
G04 #@! TD*
D10*
G04 #@! TO.C,R56*
X99449999Y-100569999D03*
X99449999Y-101589999D03*
G04 #@! TD*
D18*
G04 #@! TO.C,C85*
X114874999Y-107084999D03*
X114874999Y-106124999D03*
G04 #@! TD*
D25*
G04 #@! TO.C,C13*
X97691455Y-81021518D03*
X97012633Y-80342696D03*
G04 #@! TD*
D11*
G04 #@! TO.C,C101*
X99004999Y-114799999D03*
X99964999Y-114799999D03*
G04 #@! TD*
D45*
G04 #@! TO.C,C18*
X120502044Y-84932107D03*
X121180866Y-85610929D03*
G04 #@! TD*
D65*
G04 #@! TO.C,J1*
X116319999Y-58055228D03*
X123939999Y-57040228D03*
X123939999Y-59070228D03*
D66*
X117589999Y-58690228D03*
X118859999Y-58690228D03*
X120129999Y-58690228D03*
X121399999Y-58690228D03*
X122669999Y-58690228D03*
X122669999Y-57420228D03*
X121399999Y-57420228D03*
X120129999Y-57420228D03*
X118859999Y-57420228D03*
X117589999Y-57420228D03*
G04 #@! TD*
D19*
G04 #@! TO.C,R53*
X112424999Y-107084999D03*
X112424999Y-106064999D03*
G04 #@! TD*
D69*
G04 #@! TO.C,C12*
X96452044Y-82182107D03*
X95356028Y-81086091D03*
G04 #@! TD*
D17*
G04 #@! TO.C,C118*
X71700000Y-116284999D03*
X71700000Y-117244999D03*
G04 #@! TD*
D46*
G04 #@! TO.C,R33*
X70529999Y-65549999D03*
X71549999Y-65549999D03*
G04 #@! TD*
D17*
G04 #@! TO.C,C36*
X125339999Y-113179999D03*
X125339999Y-114139999D03*
G04 #@! TD*
D58*
G04 #@! TO.C,J5*
X93849999Y-127459999D03*
D59*
X92374999Y-128984999D03*
X95324999Y-128984999D03*
G04 #@! TD*
D18*
G04 #@! TO.C,C94*
X91224999Y-107059999D03*
X91224999Y-106099999D03*
G04 #@! TD*
D17*
G04 #@! TO.C,C37*
X136849999Y-117389999D03*
X136849999Y-118349999D03*
G04 #@! TD*
D11*
G04 #@! TO.C,C70*
X107519999Y-115654999D03*
X108479999Y-115654999D03*
G04 #@! TD*
D20*
G04 #@! TO.C,R13*
X130287500Y-64000000D03*
X129267500Y-64000000D03*
G04 #@! TD*
D81*
G04 #@! TO.C,C2*
X73799999Y-64749999D03*
X75349999Y-64749999D03*
G04 #@! TD*
D17*
G04 #@! TO.C,C58*
X134175000Y-120749999D03*
X134175000Y-121709999D03*
G04 #@! TD*
D24*
G04 #@! TO.C,C116*
X67104999Y-112199999D03*
X66144999Y-112199999D03*
G04 #@! TD*
G04 #@! TO.C,C152*
X82730000Y-97000000D03*
X81770000Y-97000000D03*
G04 #@! TD*
D10*
G04 #@! TO.C,R82*
X84450000Y-100550000D03*
X84450000Y-101570000D03*
G04 #@! TD*
D17*
G04 #@! TO.C,C35*
X125339999Y-111239999D03*
X125339999Y-112199999D03*
G04 #@! TD*
G04 #@! TO.C,C39*
X135849999Y-117389999D03*
X135849999Y-118349999D03*
G04 #@! TD*
D19*
G04 #@! TO.C,R69*
X72224999Y-107099999D03*
X72224999Y-106079999D03*
G04 #@! TD*
D15*
G04 #@! TO.C,H3*
X140133274Y-120933274D03*
X139650000Y-122100000D03*
X141300000Y-120450000D03*
X141300000Y-123750000D03*
X142466726Y-120933274D03*
D63*
X141300000Y-122100000D03*
D15*
X142466726Y-123266726D03*
X140133274Y-123266726D03*
X142950000Y-122100000D03*
G04 #@! TD*
D18*
G04 #@! TO.C,C57*
X135074999Y-107084999D03*
X135074999Y-106124999D03*
G04 #@! TD*
D80*
G04 #@! TO.C,U14*
X86737500Y-99050000D03*
X86737500Y-98100000D03*
X86737500Y-97150000D03*
X84462500Y-97150000D03*
X84462500Y-98100000D03*
X84462500Y-99050000D03*
G04 #@! TD*
D22*
G04 #@! TO.C,C31*
X118375000Y-72325000D03*
X119053822Y-71646178D03*
G04 #@! TD*
D10*
G04 #@! TO.C,R19*
X133999999Y-100609999D03*
X133999999Y-101629999D03*
G04 #@! TD*
D24*
G04 #@! TO.C,C82*
X108479999Y-113459999D03*
X107519999Y-113459999D03*
G04 #@! TD*
D19*
G04 #@! TO.C,R5*
X111599999Y-101609999D03*
X111599999Y-100589999D03*
G04 #@! TD*
D36*
G04 #@! TO.C,D3*
X131725000Y-62100000D03*
X133300000Y-62100000D03*
G04 #@! TD*
D10*
G04 #@! TO.C,R48*
X119549999Y-100569999D03*
X119549999Y-101589999D03*
G04 #@! TD*
D18*
G04 #@! TO.C,C40*
X129839999Y-116609999D03*
X129839999Y-115649999D03*
G04 #@! TD*
D17*
G04 #@! TO.C,C123*
X75374999Y-117389999D03*
X75374999Y-118349999D03*
G04 #@! TD*
D36*
G04 #@! TO.C,D1*
X131712500Y-58350000D03*
X133287500Y-58350000D03*
G04 #@! TD*
D11*
G04 #@! TO.C,C45*
X139319999Y-114799999D03*
X140279999Y-114799999D03*
G04 #@! TD*
D19*
G04 #@! TO.C,R55*
X88349999Y-112209999D03*
X88349999Y-111189999D03*
G04 #@! TD*
D24*
G04 #@! TO.C,C76*
X107329999Y-108909999D03*
X106369999Y-108909999D03*
G04 #@! TD*
D17*
G04 #@! TO.C,C87*
X112674999Y-120749999D03*
X112674999Y-121709999D03*
G04 #@! TD*
D63*
G04 #@! TO.C,H6*
X123800000Y-129100000D03*
G04 #@! TD*
D25*
G04 #@! TO.C,C15*
X98530866Y-80160929D03*
X97852044Y-79482107D03*
G04 #@! TD*
D17*
G04 #@! TO.C,C142*
X73774999Y-120749999D03*
X73774999Y-121709999D03*
G04 #@! TD*
D69*
G04 #@! TO.C,C14*
X113949999Y-68434152D03*
X112853983Y-67338136D03*
G04 #@! TD*
D24*
G04 #@! TO.C,C110*
X88384999Y-113459999D03*
X87424999Y-113459999D03*
G04 #@! TD*
D10*
G04 #@! TO.C,R77*
X106400000Y-97260000D03*
X106400000Y-98280000D03*
G04 #@! TD*
D17*
G04 #@! TO.C,C64*
X105249999Y-113179999D03*
X105249999Y-114139999D03*
G04 #@! TD*
G04 #@! TO.C,C67*
X115599999Y-117399999D03*
X115599999Y-118359999D03*
G04 #@! TD*
D15*
G04 #@! TO.C,H4*
X139300000Y-51450000D03*
X137650000Y-53100000D03*
X138133274Y-51933274D03*
X140950000Y-53100000D03*
X140466726Y-54266726D03*
X140466726Y-51933274D03*
X138133274Y-54266726D03*
D63*
X139300000Y-53100000D03*
D15*
X139300000Y-54750000D03*
G04 #@! TD*
D45*
G04 #@! TO.C,C7*
X102280329Y-69871178D03*
X102959151Y-70550000D03*
G04 #@! TD*
M02*
