G04 #@! TF.GenerationSoftware,KiCad,Pcbnew,(6.0.10-0)*
G04 #@! TF.CreationDate,2023-01-04T10:37:38-05:00*
G04 #@! TF.ProjectId,ReLoki_ECAD,52654c6f-6b69-45f4-9543-41442e6b6963,0.2.1*
G04 #@! TF.SameCoordinates,Original*
G04 #@! TF.FileFunction,Soldermask,Bot*
G04 #@! TF.FilePolarity,Negative*
%FSLAX46Y46*%
G04 Gerber Fmt 4.6, Leading zero omitted, Abs format (unit mm)*
G04 Created by KiCad (PCBNEW (6.0.10-0)) date 2023-01-04 10:37:38*
%MOMM*%
%LPD*%
G01*
G04 APERTURE LIST*
G04 Aperture macros list*
%AMRoundRect*
0 Rectangle with rounded corners*
0 $1 Rounding radius*
0 $2 $3 $4 $5 $6 $7 $8 $9 X,Y pos of 4 corners*
0 Add a 4 corners polygon primitive as box body*
4,1,4,$2,$3,$4,$5,$6,$7,$8,$9,$2,$3,0*
0 Add four circle primitives for the rounded corners*
1,1,$1+$1,$2,$3*
1,1,$1+$1,$4,$5*
1,1,$1+$1,$6,$7*
1,1,$1+$1,$8,$9*
0 Add four rect primitives between the rounded corners*
20,1,$1+$1,$2,$3,$4,$5,0*
20,1,$1+$1,$4,$5,$6,$7,0*
20,1,$1+$1,$6,$7,$8,$9,0*
20,1,$1+$1,$8,$9,$2,$3,0*%
G04 Aperture macros list end*
%ADD10C,0.650000*%
%ADD11O,1.000000X1.600000*%
%ADD12O,1.000000X2.100000*%
%ADD13C,0.900000*%
%ADD14C,0.750000*%
%ADD15C,4.400000*%
%ADD16C,0.991000*%
%ADD17C,0.700000*%
%ADD18C,1.000000*%
%ADD19RoundRect,0.140000X-0.170000X0.140000X-0.170000X-0.140000X0.170000X-0.140000X0.170000X0.140000X0*%
%ADD20C,1.500000*%
G04 APERTURE END LIST*
D10*
G04 #@! TO.C,J7*
X84680000Y-59095228D03*
X90460000Y-59095228D03*
D11*
X83250000Y-55415228D03*
D12*
X91890000Y-59595228D03*
X83250000Y-59595228D03*
D11*
X91890000Y-55415228D03*
G04 #@! TD*
D13*
G04 #@! TO.C,SW3*
X69969999Y-82599999D03*
X69969999Y-79599999D03*
G04 #@! TD*
D14*
G04 #@! TO.C,SW2*
X135674999Y-74099999D03*
X138424999Y-74099999D03*
G04 #@! TD*
D15*
G04 #@! TO.C,H5*
X82800000Y-129100000D03*
G04 #@! TD*
D16*
G04 #@! TO.C,J2*
X124603948Y-89496050D03*
X127478337Y-85186234D03*
X128913764Y-86621661D03*
G04 #@! TD*
D14*
G04 #@! TO.C,SW1*
X135674999Y-82499999D03*
X138424999Y-82499999D03*
G04 #@! TD*
D17*
G04 #@! TO.C,H1*
X68466726Y-54266726D03*
X66133274Y-51933274D03*
X67300000Y-51450000D03*
X67300000Y-54750000D03*
X65650000Y-53100000D03*
X66133274Y-54266726D03*
D15*
X67300000Y-53100000D03*
D17*
X68466726Y-51933274D03*
X68950000Y-53100000D03*
G04 #@! TD*
G04 #@! TO.C,H2*
X66950000Y-122100000D03*
D15*
X65300000Y-122100000D03*
D17*
X66466726Y-123266726D03*
X64133274Y-120933274D03*
X64133274Y-123266726D03*
X65300000Y-123750000D03*
X65300000Y-120450000D03*
X66466726Y-120933274D03*
X63650000Y-122100000D03*
G04 #@! TD*
D16*
G04 #@! TO.C,J1*
X116319999Y-58055228D03*
X123939999Y-57040228D03*
X123939999Y-59070228D03*
G04 #@! TD*
D17*
G04 #@! TO.C,H3*
X140133274Y-120933274D03*
X139650000Y-122100000D03*
X141300000Y-120450000D03*
X141300000Y-123750000D03*
X142466726Y-120933274D03*
D15*
X141300000Y-122100000D03*
D17*
X142466726Y-123266726D03*
X140133274Y-123266726D03*
X142950000Y-122100000D03*
G04 #@! TD*
D15*
G04 #@! TO.C,H6*
X123800000Y-129100000D03*
G04 #@! TD*
D17*
G04 #@! TO.C,H4*
X139300000Y-51450000D03*
X137650000Y-53100000D03*
X138133274Y-51933274D03*
X140950000Y-53100000D03*
X140466726Y-54266726D03*
X140466726Y-51933274D03*
X138133274Y-54266726D03*
D15*
X139300000Y-53100000D03*
D17*
X139300000Y-54750000D03*
G04 #@! TD*
D18*
G04 #@! TO.C,TP18*
X139800000Y-106025000D03*
G04 #@! TD*
D19*
G04 #@! TO.C,C108*
X95474999Y-117399999D03*
X95474999Y-118359999D03*
G04 #@! TD*
D18*
G04 #@! TO.C,TP1*
X142600000Y-115000000D03*
G04 #@! TD*
G04 #@! TO.C,TP31*
X89100000Y-110850000D03*
G04 #@! TD*
G04 #@! TO.C,TP20*
X106725000Y-55075000D03*
G04 #@! TD*
D19*
G04 #@! TO.C,C103*
X96499999Y-117399999D03*
X96499999Y-118359999D03*
G04 #@! TD*
G04 #@! TO.C,C83*
X114589999Y-117399999D03*
X114589999Y-118359999D03*
G04 #@! TD*
D20*
G04 #@! TO.C,FID7*
X64999999Y-100399999D03*
G04 #@! TD*
D18*
G04 #@! TO.C,TP16*
X81950000Y-117750000D03*
G04 #@! TD*
G04 #@! TO.C,TP8*
X122800000Y-117700000D03*
G04 #@! TD*
D19*
G04 #@! TO.C,C111*
X94449998Y-117399999D03*
X94449998Y-118359999D03*
G04 #@! TD*
D20*
G04 #@! TO.C,FID6*
X102399999Y-121199999D03*
G04 #@! TD*
D18*
G04 #@! TO.C,TP12*
X101800000Y-117700000D03*
G04 #@! TD*
D19*
G04 #@! TO.C,C80*
X115599999Y-117399999D03*
X115599999Y-118359999D03*
G04 #@! TD*
D18*
G04 #@! TO.C,TP15*
X81950000Y-113700000D03*
G04 #@! TD*
G04 #@! TO.C,TP9*
X101800000Y-115700000D03*
G04 #@! TD*
G04 #@! TO.C,TP6*
X108800000Y-102850000D03*
G04 #@! TD*
D20*
G04 #@! TO.C,FID4*
X127050000Y-54750000D03*
G04 #@! TD*
D18*
G04 #@! TO.C,TP25*
X80800000Y-107800000D03*
G04 #@! TD*
D19*
G04 #@! TO.C,C52*
X135849999Y-117389999D03*
X135849999Y-118349999D03*
G04 #@! TD*
D18*
G04 #@! TO.C,TP14*
X68300000Y-101600000D03*
G04 #@! TD*
G04 #@! TO.C,TP23*
X100725000Y-55075000D03*
G04 #@! TD*
D19*
G04 #@! TO.C,C136*
X75374999Y-117389999D03*
X75374999Y-118349999D03*
G04 #@! TD*
D18*
G04 #@! TO.C,TP4*
X142600000Y-117000000D03*
G04 #@! TD*
D19*
G04 #@! TO.C,C75*
X116599999Y-117404999D03*
X116599999Y-118364999D03*
G04 #@! TD*
D18*
G04 #@! TO.C,TP5*
X122800000Y-115700000D03*
G04 #@! TD*
G04 #@! TO.C,TP3*
X142600000Y-113000000D03*
G04 #@! TD*
G04 #@! TO.C,TP19*
X139800000Y-104025000D03*
G04 #@! TD*
D19*
G04 #@! TO.C,C55*
X134849999Y-117389999D03*
X134849999Y-118349999D03*
G04 #@! TD*
D18*
G04 #@! TO.C,TP29*
X129450000Y-110700000D03*
G04 #@! TD*
G04 #@! TO.C,TP13*
X81950000Y-115722014D03*
G04 #@! TD*
G04 #@! TO.C,TP30*
X110850000Y-110475000D03*
G04 #@! TD*
G04 #@! TO.C,TP7*
X122800000Y-113700000D03*
G04 #@! TD*
G04 #@! TO.C,TP27*
X122500000Y-106600000D03*
G04 #@! TD*
G04 #@! TO.C,TP22*
X102725000Y-55075000D03*
G04 #@! TD*
D19*
G04 #@! TO.C,C47*
X136849999Y-117389999D03*
X136849999Y-118349999D03*
G04 #@! TD*
D18*
G04 #@! TO.C,TP32*
X70700000Y-110850000D03*
G04 #@! TD*
G04 #@! TO.C,TP26*
X142600000Y-104025000D03*
G04 #@! TD*
D19*
G04 #@! TO.C,C131*
X76399999Y-117389999D03*
X76399999Y-118349999D03*
G04 #@! TD*
D18*
G04 #@! TO.C,TP17*
X139800000Y-108025000D03*
G04 #@! TD*
G04 #@! TO.C,TP10*
X88850000Y-98800000D03*
G04 #@! TD*
G04 #@! TO.C,TP24*
X98725000Y-55075000D03*
G04 #@! TD*
G04 #@! TO.C,TP28*
X102900000Y-106600000D03*
G04 #@! TD*
G04 #@! TO.C,TP21*
X104725000Y-55075000D03*
G04 #@! TD*
G04 #@! TO.C,TP2*
X131100000Y-100000000D03*
G04 #@! TD*
D19*
G04 #@! TO.C,C139*
X74349999Y-117389999D03*
X74349999Y-118349999D03*
G04 #@! TD*
D18*
G04 #@! TO.C,TP11*
X101800000Y-113700000D03*
G04 #@! TD*
M02*
