G04 #@! TF.GenerationSoftware,KiCad,Pcbnew,(6.0.10-0)*
G04 #@! TF.CreationDate,2023-01-04T10:37:38-05:00*
G04 #@! TF.ProjectId,ReLoki_ECAD,52654c6f-6b69-45f4-9543-41442e6b6963,0.2.1*
G04 #@! TF.SameCoordinates,Original*
G04 #@! TF.FileFunction,Legend,Bot*
G04 #@! TF.FilePolarity,Positive*
%FSLAX46Y46*%
G04 Gerber Fmt 4.6, Leading zero omitted, Abs format (unit mm)*
G04 Created by KiCad (PCBNEW (6.0.10-0)) date 2023-01-04 10:37:38*
%MOMM*%
%LPD*%
G01*
G04 APERTURE LIST*
%ADD10C,0.150000*%
%ADD11C,0.120000*%
G04 APERTURE END LIST*
D10*
X134500000Y-95200000D02*
X130500000Y-95200000D01*
X130500000Y-95200000D02*
X130500000Y-69200000D01*
X130500000Y-69200000D02*
X134500000Y-69200000D01*
X134500000Y-69200000D02*
X134500000Y-95200000D01*
X134200000Y-94900000D02*
X130800000Y-94900000D01*
X130800000Y-94900000D02*
X130800000Y-69500000D01*
X130800000Y-69500000D02*
X134200000Y-69500000D01*
X134200000Y-69500000D02*
X134200000Y-94900000D01*
G36*
X134200000Y-94900000D02*
G01*
X130800000Y-94900000D01*
X130800000Y-69500000D01*
X134200000Y-69500000D01*
X134200000Y-94900000D01*
G37*
D11*
G04 #@! TO.C,TP18*
X140500000Y-106025000D02*
G75*
G03*
X140500000Y-106025000I-700000J0D01*
G01*
G04 #@! TO.C,C108*
X95114999Y-117772163D02*
X95114999Y-117987835D01*
X95834999Y-117772163D02*
X95834999Y-117987835D01*
G04 #@! TO.C,TP1*
X143300000Y-115000000D02*
G75*
G03*
X143300000Y-115000000I-700000J0D01*
G01*
G04 #@! TO.C,TP31*
X89800000Y-110850000D02*
G75*
G03*
X89800000Y-110850000I-700000J0D01*
G01*
G04 #@! TO.C,TP20*
X107425000Y-55075000D02*
G75*
G03*
X107425000Y-55075000I-700000J0D01*
G01*
G04 #@! TO.C,C103*
X96859999Y-117772163D02*
X96859999Y-117987835D01*
X96139999Y-117772163D02*
X96139999Y-117987835D01*
G04 #@! TO.C,C83*
X114229999Y-117772163D02*
X114229999Y-117987835D01*
X114949999Y-117772163D02*
X114949999Y-117987835D01*
G04 #@! TO.C,kibuzzard-63B3B5AF*
G36*
X130495892Y-91215628D02*
G01*
X130495892Y-95274972D01*
X128504108Y-95274972D01*
X128504108Y-94521967D01*
X128907863Y-94521967D01*
X128912427Y-94594596D01*
X128926119Y-94663255D01*
X128971362Y-94771205D01*
X129021369Y-94842643D01*
X129069787Y-94888680D01*
X129087250Y-94902967D01*
X129178531Y-94944242D01*
X129225561Y-94927177D01*
X129285688Y-94875980D01*
X129323788Y-94791843D01*
X129303944Y-94738661D01*
X129244412Y-94668017D01*
X129192819Y-94604517D01*
X129168213Y-94528318D01*
X129181618Y-94446297D01*
X129221835Y-94397084D01*
X129288862Y-94380680D01*
X129349981Y-94421161D01*
X129385700Y-94521967D01*
X129400186Y-94584674D01*
X129421419Y-94652143D01*
X129448208Y-94719611D01*
X129479363Y-94782317D01*
X129522423Y-94837682D01*
X129584931Y-94883124D01*
X129664505Y-94913485D01*
X129758763Y-94923605D01*
X129847927Y-94912052D01*
X129929154Y-94877391D01*
X130002444Y-94819624D01*
X130060211Y-94741924D01*
X130094872Y-94647468D01*
X130106425Y-94536255D01*
X130100273Y-94445172D01*
X130081819Y-94362424D01*
X130031812Y-94253680D01*
X130001650Y-94213992D01*
X129923863Y-94164780D01*
X129836550Y-94202880D01*
X129777019Y-94257649D01*
X129757175Y-94314005D01*
X129788925Y-94396555D01*
X129804800Y-94414811D01*
X129825438Y-94439418D01*
X129846075Y-94524349D01*
X129821469Y-94610074D01*
X129753206Y-94644205D01*
X129682563Y-94603724D01*
X129646050Y-94502917D01*
X129633945Y-94439814D01*
X129616681Y-94371155D01*
X129594655Y-94302496D01*
X129568263Y-94239392D01*
X129529170Y-94184028D01*
X129469044Y-94138586D01*
X129390264Y-94108225D01*
X129295212Y-94098105D01*
X129198177Y-94108424D01*
X129113444Y-94139380D01*
X129043792Y-94187005D01*
X128992000Y-94247330D01*
X128945257Y-94334995D01*
X128917211Y-94426541D01*
X128907863Y-94521967D01*
X128504108Y-94521967D01*
X128504108Y-93866330D01*
X128834837Y-93866330D01*
X128858650Y-93945705D01*
X128900719Y-94016349D01*
X128941200Y-94034605D01*
X129020575Y-94015555D01*
X130088963Y-93504380D01*
X130158813Y-93450405D01*
X130165163Y-93413099D01*
X130139763Y-93332930D01*
X130096503Y-93268636D01*
X130049275Y-93247205D01*
X129969900Y-93269430D01*
X128911037Y-93779017D01*
X128871350Y-93798861D01*
X128846744Y-93822674D01*
X128834837Y-93866330D01*
X128504108Y-93866330D01*
X128504108Y-92285180D01*
X128923737Y-92285180D01*
X128933262Y-92370905D01*
X128963425Y-92410593D01*
X129113003Y-92522864D01*
X129244236Y-92621554D01*
X129357125Y-92706661D01*
X129451669Y-92778187D01*
X129527869Y-92836131D01*
X129585725Y-92880492D01*
X129063438Y-92880492D01*
X129007875Y-92882874D01*
X128966600Y-92897955D01*
X128934453Y-92940024D01*
X128923737Y-93021780D01*
X128934453Y-93101155D01*
X128966600Y-93142430D01*
X129009462Y-93157511D01*
X129065025Y-93159892D01*
X129950850Y-93159892D01*
X130038956Y-93144811D01*
X130076263Y-93099567D01*
X130085788Y-93021780D01*
X130077056Y-92946374D01*
X130057213Y-92907480D01*
X130015938Y-92870967D01*
X129872666Y-92765487D01*
X129746592Y-92672354D01*
X129637716Y-92591567D01*
X129546038Y-92523129D01*
X129471557Y-92467037D01*
X129414275Y-92423292D01*
X129950850Y-92423292D01*
X130038956Y-92408211D01*
X130076263Y-92362967D01*
X130085788Y-92287561D01*
X130077850Y-92214536D01*
X130058800Y-92173261D01*
X130025463Y-92153417D01*
X129944500Y-92143892D01*
X129063438Y-92143892D01*
X129007875Y-92146274D01*
X128966600Y-92161355D01*
X128934453Y-92203424D01*
X128923737Y-92285180D01*
X128504108Y-92285180D01*
X128504108Y-91813163D01*
X130495892Y-91215628D01*
G37*
G04 #@! TO.C,TP16*
X82650000Y-117750000D02*
G75*
G03*
X82650000Y-117750000I-700000J0D01*
G01*
G04 #@! TO.C,TP8*
X123500000Y-117700000D02*
G75*
G03*
X123500000Y-117700000I-700000J0D01*
G01*
G04 #@! TO.C,C111*
X94089998Y-117772163D02*
X94089998Y-117987835D01*
X94809998Y-117772163D02*
X94809998Y-117987835D01*
G04 #@! TO.C,TP12*
X102500000Y-117700000D02*
G75*
G03*
X102500000Y-117700000I-700000J0D01*
G01*
G04 #@! TO.C,C80*
X115959999Y-117772163D02*
X115959999Y-117987835D01*
X115239999Y-117772163D02*
X115239999Y-117987835D01*
G04 #@! TO.C,TP15*
X82650000Y-113700000D02*
G75*
G03*
X82650000Y-113700000I-700000J0D01*
G01*
G04 #@! TO.C,TP9*
X102500000Y-115700000D02*
G75*
G03*
X102500000Y-115700000I-700000J0D01*
G01*
G04 #@! TO.C,TP6*
X109500000Y-102850000D02*
G75*
G03*
X109500000Y-102850000I-700000J0D01*
G01*
G04 #@! TO.C,TP25*
X81500000Y-107800000D02*
G75*
G03*
X81500000Y-107800000I-700000J0D01*
G01*
G04 #@! TO.C,C52*
X136209999Y-117762163D02*
X136209999Y-117977835D01*
X135489999Y-117762163D02*
X135489999Y-117977835D01*
G04 #@! TO.C,TP14*
X69000000Y-101600000D02*
G75*
G03*
X69000000Y-101600000I-700000J0D01*
G01*
G04 #@! TO.C,TP23*
X101425000Y-55075000D02*
G75*
G03*
X101425000Y-55075000I-700000J0D01*
G01*
G04 #@! TO.C,C136*
X75734999Y-117762163D02*
X75734999Y-117977835D01*
X75014999Y-117762163D02*
X75014999Y-117977835D01*
G04 #@! TO.C,TP4*
X143300000Y-117000000D02*
G75*
G03*
X143300000Y-117000000I-700000J0D01*
G01*
G04 #@! TO.C,C75*
X116959999Y-117777163D02*
X116959999Y-117992835D01*
X116239999Y-117777163D02*
X116239999Y-117992835D01*
G04 #@! TO.C,TP5*
X123500000Y-115700000D02*
G75*
G03*
X123500000Y-115700000I-700000J0D01*
G01*
G04 #@! TO.C,TP3*
X143300000Y-113000000D02*
G75*
G03*
X143300000Y-113000000I-700000J0D01*
G01*
G04 #@! TO.C,TP19*
X140500000Y-104025000D02*
G75*
G03*
X140500000Y-104025000I-700000J0D01*
G01*
G04 #@! TO.C,C55*
X135209999Y-117762163D02*
X135209999Y-117977835D01*
X134489999Y-117762163D02*
X134489999Y-117977835D01*
G04 #@! TO.C,TP29*
X130150000Y-110700000D02*
G75*
G03*
X130150000Y-110700000I-700000J0D01*
G01*
G04 #@! TO.C,TP13*
X82650000Y-115722014D02*
G75*
G03*
X82650000Y-115722014I-700000J0D01*
G01*
G04 #@! TO.C,TP30*
X111550000Y-110475000D02*
G75*
G03*
X111550000Y-110475000I-700000J0D01*
G01*
G04 #@! TO.C,TP7*
X123500000Y-113700000D02*
G75*
G03*
X123500000Y-113700000I-700000J0D01*
G01*
G04 #@! TO.C,TP27*
X123200000Y-106600000D02*
G75*
G03*
X123200000Y-106600000I-700000J0D01*
G01*
G04 #@! TO.C,TP22*
X103425000Y-55075000D02*
G75*
G03*
X103425000Y-55075000I-700000J0D01*
G01*
G04 #@! TO.C,C47*
X137209999Y-117762163D02*
X137209999Y-117977835D01*
X136489999Y-117762163D02*
X136489999Y-117977835D01*
G04 #@! TO.C,TP32*
X71400000Y-110850000D02*
G75*
G03*
X71400000Y-110850000I-700000J0D01*
G01*
G04 #@! TO.C,TP26*
X143300000Y-104025000D02*
G75*
G03*
X143300000Y-104025000I-700000J0D01*
G01*
G04 #@! TO.C,C131*
X76039999Y-117762163D02*
X76039999Y-117977835D01*
X76759999Y-117762163D02*
X76759999Y-117977835D01*
G04 #@! TO.C,TP17*
X140500000Y-108025000D02*
G75*
G03*
X140500000Y-108025000I-700000J0D01*
G01*
G04 #@! TO.C,TP10*
X89550000Y-98800000D02*
G75*
G03*
X89550000Y-98800000I-700000J0D01*
G01*
G04 #@! TO.C,TP24*
X99425000Y-55075000D02*
G75*
G03*
X99425000Y-55075000I-700000J0D01*
G01*
G04 #@! TO.C,TP28*
X103600000Y-106600000D02*
G75*
G03*
X103600000Y-106600000I-700000J0D01*
G01*
G04 #@! TO.C,TP21*
X105425000Y-55075000D02*
G75*
G03*
X105425000Y-55075000I-700000J0D01*
G01*
G04 #@! TO.C,TP2*
X131800000Y-100000000D02*
G75*
G03*
X131800000Y-100000000I-700000J0D01*
G01*
G04 #@! TO.C,C139*
X74709999Y-117762163D02*
X74709999Y-117977835D01*
X73989999Y-117762163D02*
X73989999Y-117977835D01*
G04 #@! TO.C,TP11*
X102500000Y-113700000D02*
G75*
G03*
X102500000Y-113700000I-700000J0D01*
G01*
G04 #@! TD*
M02*
